<?xml version="1.0" encoding="utf-8" standalone="no"?>
<!DOCTYPE svg PUBLIC "-//W3C//DTD SVG 1.1//EN"
  "http://www.w3.org/Graphics/SVG/1.1/DTD/svg11.dtd">
<svg xmlns:xlink="http://www.w3.org/1999/xlink" width="371.565354pt" height="244.006299pt" viewBox="0 0 371.565354 244.006299" xmlns="http://www.w3.org/2000/svg" version="1.1">
 <metadata>
  <rdf:RDF xmlns:dc="http://purl.org/dc/elements/1.1/" xmlns:cc="http://creativecommons.org/ns#" xmlns:rdf="http://www.w3.org/1999/02/22-rdf-syntax-ns#">
   <cc:Work>
    <dc:type rdf:resource="http://purl.org/dc/dcmitype/StillImage"/>
    <dc:date>2025-05-27T13:43:24.900526</dc:date>
    <dc:format>image/svg+xml</dc:format>
    <dc:creator>
     <cc:Agent>
      <dc:title>Matplotlib v3.10.1, https://matplotlib.org/</dc:title>
     </cc:Agent>
    </dc:creator>
   </cc:Work>
  </rdf:RDF>
 </metadata>
 <defs>
  <style type="text/css">*{stroke-linejoin: round; stroke-linecap: butt}</style>
 </defs>
 <g id="figure_1">
  <g id="patch_1">
   <path d="M 0 244.006299 
L 371.565354 244.006299 
L 371.565354 0 
L 0 0 
z
" style="fill: #ffffff"/>
  </g>
  <g id="axes_1">
   <g id="patch_2">
    <path d="M 233.971654 123.420472 
L 284.995276 123.420472 
L 284.995276 66.727559 
L 233.971654 66.727559 
z
" clip-path="url(#pe3a2100ee2)" style="fill: #ffffff; stroke: #000000; stroke-linejoin: miter"/>
   </g>
   <g id="patch_3">
    <path d="M 120.585827 214.129134 
L 290.664567 214.129134 
L 290.664567 129.089764 
L 120.585827 129.089764 
z
" clip-path="url(#pe3a2100ee2)" style="fill: #ffffff; stroke: #000000; stroke-linejoin: miter"/>
   </g>
   <g id="patch_4">
    <path d="M 177.27874 197.12126 
L 284.995276 197.12126 
L 284.995276 134.759055 
L 177.27874 134.759055 
z
" clip-path="url(#pe3a2100ee2)" style="fill: #ffffff; stroke: #000000; stroke-linejoin: miter"/>
   </g>
   <g id="patch_5">
    <path d="M 134.759055 163.105512 
L 127.672441 164.522835 
L 127.672441 163.105512 
L 94.601575 163.105512 
L 94.601575 163.105512 
L 127.672441 163.105512 
L 127.672441 161.688189 
z
" clip-path="url(#pe3a2100ee2)" style="stroke: #000000; stroke-linejoin: miter"/>
   </g>
   <g id="patch_6">
    <path d="M 191.451969 163.105512 
L 184.365354 164.522835 
L 184.365354 163.105512 
L 163.105512 163.105512 
L 163.105512 163.105512 
L 184.365354 163.105512 
L 184.365354 161.688189 
z
" clip-path="url(#pe3a2100ee2)" style="stroke: #000000; stroke-linejoin: miter"/>
   </g>
   <g id="patch_7">
    <path d="M 248.144882 163.105512 
L 241.058268 164.522835 
L 241.058268 163.105512 
L 219.798425 163.105512 
L 219.798425 163.105512 
L 241.058268 163.105512 
L 241.058268 161.688189 
z
" clip-path="url(#pe3a2100ee2)" style="stroke: #000000; stroke-linejoin: miter"/>
   </g>
   <g id="patch_8">
    <path d="M 248.144882 95.074016 
L 241.058268 96.491339 
L 241.058268 95.074016 
L 207.987402 95.074016 
L 207.987402 95.074016 
L 241.058268 95.074016 
L 241.058268 93.656693 
z
" clip-path="url(#pe3a2100ee2)" style="stroke: #000000; stroke-linejoin: miter"/>
   </g>
   <g id="patch_9">
    <path d="M 262.31811 148.932283 
L 260.900787 141.845669 
L 262.31811 141.845669 
L 262.31811 109.247244 
L 262.31811 109.247244 
L 262.31811 141.845669 
L 263.735433 141.845669 
z
" clip-path="url(#pe3a2100ee2)" style="stroke: #000000; stroke-linejoin: miter"/>
   </g>
   <g id="patch_10">
    <path d="M 92.23937 165.467717 
C 92.865834 165.467717 93.466724 165.21882 93.909701 164.775843 
C 94.352678 164.332866 94.601575 163.731976 94.601575 163.105512 
C 94.601575 162.479048 94.352678 161.878158 93.909701 161.435181 
C 93.466724 160.992204 92.865834 160.743307 92.23937 160.743307 
C 91.612906 160.743307 91.012016 160.992204 90.569039 161.435181 
C 90.126062 161.878158 89.877165 162.479048 89.877165 163.105512 
C 89.877165 163.731976 90.126062 164.332866 90.569039 164.775843 
C 91.012016 165.21882 91.612906 165.467717 92.23937 165.467717 
z
" clip-path="url(#pe3a2100ee2)" style="stroke: #000000; stroke-linejoin: miter"/>
   </g>
   <g id="patch_11">
    <path d="M 148.932283 177.27874 
C 152.691068 177.27874 156.296408 175.785359 158.954269 173.127498 
C 161.612131 170.469636 163.105512 166.864296 163.105512 163.105512 
C 163.105512 159.346728 161.612131 155.741388 158.954269 153.083526 
C 156.296408 150.425664 152.691068 148.932283 148.932283 148.932283 
C 145.173499 148.932283 141.568159 150.425664 138.910298 153.083526 
C 136.252436 155.741388 134.759055 159.346728 134.759055 163.105512 
C 134.759055 166.864296 136.252436 170.469636 138.910298 173.127498 
C 141.568159 175.785359 145.173499 177.27874 148.932283 177.27874 
z
" clip-path="url(#pe3a2100ee2)" style="fill: #ffffff; stroke: #000000; stroke-linejoin: miter"/>
   </g>
   <g id="patch_12">
    <path d="M 205.625197 177.27874 
C 209.383981 177.27874 212.989321 175.785359 215.647183 173.127498 
C 218.305044 170.469636 219.798425 166.864296 219.798425 163.105512 
C 219.798425 159.346728 218.305044 155.741388 215.647183 153.083526 
C 212.989321 150.425664 209.383981 148.932283 205.625197 148.932283 
C 201.866413 148.932283 198.261073 150.425664 195.603211 153.083526 
C 192.945349 155.741388 191.451969 159.346728 191.451969 163.105512 
C 191.451969 166.864296 192.945349 170.469636 195.603211 173.127498 
C 198.261073 175.785359 201.866413 177.27874 205.625197 177.27874 
z
" clip-path="url(#pe3a2100ee2)" style="fill: #ffffff; stroke: #000000; stroke-linejoin: miter"/>
   </g>
   <g id="patch_13">
    <path d="M 262.31811 177.27874 
C 266.076894 177.27874 269.682234 175.785359 272.340096 173.127498 
C 274.997958 170.469636 276.491339 166.864296 276.491339 163.105512 
C 276.491339 159.346728 274.997958 155.741388 272.340096 153.083526 
C 269.682234 150.425664 266.076894 148.932283 262.31811 148.932283 
C 258.559326 148.932283 254.953986 150.425664 252.296124 153.083526 
C 249.638263 155.741388 248.144882 159.346728 248.144882 163.105512 
C 248.144882 166.864296 249.638263 170.469636 252.296124 173.127498 
C 254.953986 175.785359 258.559326 177.27874 262.31811 177.27874 
z
" clip-path="url(#pe3a2100ee2)" style="fill: #b2b2b2; stroke: #000000; stroke-linejoin: miter"/>
   </g>
   <g id="patch_14">
    <path d="M 262.31811 177.27874 
C 266.076894 177.27874 269.682234 175.785359 272.340096 173.127498 
C 274.997958 170.469636 276.491339 166.864296 276.491339 163.105512 
C 276.491339 159.346728 274.997958 155.741388 272.340096 153.083526 
C 269.682234 150.425664 266.076894 148.932283 262.31811 148.932283 
C 258.559326 148.932283 254.953986 150.425664 252.296124 153.083526 
C 249.638263 155.741388 248.144882 159.346728 248.144882 163.105512 
C 248.144882 166.864296 249.638263 170.469636 252.296124 173.127498 
C 254.953986 175.785359 258.559326 177.27874 262.31811 177.27874 
L 262.31811 177.27874 
z
" clip-path="url(#pe3a2100ee2)" style="fill: none; stroke: #000000; stroke-linejoin: miter"/>
   </g>
   <g id="patch_15">
    <path d="M 205.625197 97.43622 
C 206.251661 97.43622 206.852551 97.187324 207.295528 96.744347 
C 207.738505 96.30137 207.987402 95.70048 207.987402 95.074016 
C 207.987402 94.447552 207.738505 93.846662 207.295528 93.403685 
C 206.852551 92.960708 206.251661 92.711811 205.625197 92.711811 
C 204.998733 92.711811 204.397843 92.960708 203.954866 93.403685 
C 203.511889 93.846662 203.262992 94.447552 203.262992 95.074016 
C 203.262992 95.70048 203.511889 96.30137 203.954866 96.744347 
C 204.397843 97.187324 204.998733 97.43622 205.625197 97.43622 
z
" clip-path="url(#pe3a2100ee2)" style="stroke: #000000; stroke-linejoin: miter"/>
   </g>
   <g id="patch_16">
    <path d="M 262.31811 109.247244 
C 266.076894 109.247244 269.682234 107.753863 272.340096 105.096002 
C 274.997958 102.43814 276.491339 98.8328 276.491339 95.074016 
C 276.491339 91.315232 274.997958 87.709892 272.340096 85.05203 
C 269.682234 82.394168 266.076894 80.900787 262.31811 80.900787 
C 258.559326 80.900787 254.953986 82.394168 252.296124 85.05203 
C 249.638263 87.709892 248.144882 91.315232 248.144882 95.074016 
C 248.144882 98.8328 249.638263 102.43814 252.296124 105.096002 
C 254.953986 107.753863 258.559326 109.247244 262.31811 109.247244 
z
" clip-path="url(#pe3a2100ee2)" style="fill: #ffffff; stroke: #000000; stroke-linejoin: miter"/>
   </g>
   <g id="matplotlib.axis_1"/>
   <g id="matplotlib.axis_2"/>
   <g id="text_1">
    <!-- $K$ -->
    <g transform="translate(238.971654 116.240785) scale(0.1 -0.1)">
     <defs>
      <path id="DejaVuSans-Oblique-4b" d="M 1081 4666 
L 1716 4666 
L 1331 2700 
L 3781 4666 
L 4622 4666 
L 1850 2438 
L 3878 0 
L 3109 0 
L 1247 2272 
L 806 0 
L 172 0 
L 1081 4666 
z
" transform="scale(0.015625)"/>
     </defs>
     <use xlink:href="#DejaVuSans-Oblique-4b" transform="translate(0 0.09375)"/>
    </g>
   </g>
   <g id="text_2">
    <!-- $n = 1, \ldots, N$ -->
    <g transform="translate(125.585827 206.949446) scale(0.1 -0.1)">
     <defs>
      <path id="DejaVuSans-Oblique-6e" d="M 3566 2113 
L 3156 0 
L 2578 0 
L 2988 2091 
Q 3016 2238 3031 2350 
Q 3047 2463 3047 2528 
Q 3047 2791 2881 2937 
Q 2716 3084 2419 3084 
Q 1956 3084 1622 2776 
Q 1288 2469 1184 1941 
L 800 0 
L 225 0 
L 903 3500 
L 1478 3500 
L 1363 2950 
Q 1603 3253 1940 3418 
Q 2278 3584 2650 3584 
Q 3113 3584 3367 3334 
Q 3622 3084 3622 2631 
Q 3622 2519 3608 2391 
Q 3594 2263 3566 2113 
z
" transform="scale(0.015625)"/>
      <path id="DejaVuSans-3d" d="M 678 2906 
L 4684 2906 
L 4684 2381 
L 678 2381 
L 678 2906 
z
M 678 1631 
L 4684 1631 
L 4684 1100 
L 678 1100 
L 678 1631 
z
" transform="scale(0.015625)"/>
      <path id="DejaVuSans-31" d="M 794 531 
L 1825 531 
L 1825 4091 
L 703 3866 
L 703 4441 
L 1819 4666 
L 2450 4666 
L 2450 531 
L 3481 531 
L 3481 0 
L 794 0 
L 794 531 
z
" transform="scale(0.015625)"/>
      <path id="DejaVuSans-2c" d="M 750 794 
L 1409 794 
L 1409 256 
L 897 -744 
L 494 -744 
L 750 256 
L 750 794 
z
" transform="scale(0.015625)"/>
      <path id="DejaVuSans-2026" d="M 2869 794 
L 3531 794 
L 3531 0 
L 2869 0 
L 2869 794 
z
M 4997 794 
L 5663 794 
L 5663 0 
L 4997 0 
L 4997 794 
z
M 738 794 
L 1403 794 
L 1403 0 
L 738 0 
L 738 794 
z
" transform="scale(0.015625)"/>
      <path id="DejaVuSans-Oblique-4e" d="M 1081 4666 
L 1931 4666 
L 3219 666 
L 4000 4666 
L 4616 4666 
L 3706 0 
L 2853 0 
L 1569 4025 
L 788 0 
L 172 0 
L 1081 4666 
z
" transform="scale(0.015625)"/>
     </defs>
     <use xlink:href="#DejaVuSans-Oblique-6e" transform="translate(0 0.09375)"/>
     <use xlink:href="#DejaVuSans-3d" transform="translate(82.861328 0.09375)"/>
     <use xlink:href="#DejaVuSans-31" transform="translate(186.132812 0.09375)"/>
     <use xlink:href="#DejaVuSans-2c" transform="translate(249.755859 0.09375)"/>
     <use xlink:href="#DejaVuSans-2026" transform="translate(301.025391 0.09375)"/>
     <use xlink:href="#DejaVuSans-2c" transform="translate(401.025391 0.09375)"/>
     <use xlink:href="#DejaVuSans-Oblique-4e" transform="translate(452.294922 0.09375)"/>
    </g>
   </g>
   <g id="text_3">
    <!-- $m = 1, \ldots, M_n$ -->
    <g transform="translate(182.27874 189.941572) scale(0.1 -0.1)">
     <defs>
      <path id="DejaVuSans-Oblique-6d" d="M 5747 2113 
L 5338 0 
L 4763 0 
L 5166 2094 
Q 5191 2228 5203 2325 
Q 5216 2422 5216 2491 
Q 5216 2772 5059 2928 
Q 4903 3084 4622 3084 
Q 4203 3084 3875 2770 
Q 3547 2456 3450 1953 
L 3066 0 
L 2491 0 
L 2900 2094 
Q 2925 2209 2937 2307 
Q 2950 2406 2950 2484 
Q 2950 2769 2794 2926 
Q 2638 3084 2363 3084 
Q 1938 3084 1609 2770 
Q 1281 2456 1184 1953 
L 800 0 
L 225 0 
L 909 3500 
L 1484 3500 
L 1375 2956 
Q 1609 3263 1923 3423 
Q 2238 3584 2597 3584 
Q 2978 3584 3223 3384 
Q 3469 3184 3519 2828 
Q 3781 3197 4126 3390 
Q 4472 3584 4856 3584 
Q 5306 3584 5551 3325 
Q 5797 3066 5797 2591 
Q 5797 2488 5784 2364 
Q 5772 2241 5747 2113 
z
" transform="scale(0.015625)"/>
      <path id="DejaVuSans-Oblique-4d" d="M 1081 4666 
L 2028 4666 
L 2572 1522 
L 4378 4666 
L 5350 4666 
L 4441 0 
L 3828 0 
L 4622 4091 
L 2791 897 
L 2175 897 
L 1581 4103 
L 788 0 
L 172 0 
L 1081 4666 
z
" transform="scale(0.015625)"/>
     </defs>
     <use xlink:href="#DejaVuSans-Oblique-6d" transform="translate(0 0.09375)"/>
     <use xlink:href="#DejaVuSans-3d" transform="translate(116.894531 0.09375)"/>
     <use xlink:href="#DejaVuSans-31" transform="translate(220.166016 0.09375)"/>
     <use xlink:href="#DejaVuSans-2c" transform="translate(283.789062 0.09375)"/>
     <use xlink:href="#DejaVuSans-2026" transform="translate(335.058594 0.09375)"/>
     <use xlink:href="#DejaVuSans-2c" transform="translate(435.058594 0.09375)"/>
     <use xlink:href="#DejaVuSans-Oblique-4d" transform="translate(486.328125 0.09375)"/>
     <use xlink:href="#DejaVuSans-Oblique-6e" transform="translate(572.607422 -16.3125) scale(0.7)"/>
    </g>
   </g>
   <g id="text_4">
    <!-- $\alpha$ -->
    <g transform="translate(88.93937 157.105512) scale(0.1 -0.1)">
     <defs>
      <path id="DejaVuSans-Oblique-3b1" d="M 2619 1628 
L 2622 2350 
Q 2625 3088 2069 3091 
Q 1653 3094 1394 2747 
Q 1069 2319 959 1747 
Q 825 1059 994 731 
Q 1169 397 1547 397 
Q 1966 397 2319 1063 
L 2619 1628 
z
M 2166 3578 
Q 3141 3594 3128 2584 
Q 3128 2584 3616 3500 
L 4128 3500 
L 3119 1603 
L 3109 919 
Q 3109 766 3194 638 
Q 3291 488 3391 488 
L 3669 488 
L 3575 0 
L 3228 0 
Q 2934 0 2722 263 
Q 2622 394 2619 669 
Q 2416 334 2066 50 
Q 1900 -81 1453 -78 
Q 722 -72 456 397 
Q 184 884 353 1747 
Q 534 2675 1009 3097 
Q 1544 3569 2166 3578 
z
" transform="scale(0.015625)"/>
     </defs>
     <use xlink:href="#DejaVuSans-Oblique-3b1" transform="translate(0 0.84375)"/>
    </g>
   </g>
   <g id="text_5">
    <!-- $\theta$ -->
    <g transform="translate(145.832283 165.695356) scale(0.1 -0.1)">
     <defs>
      <path id="DejaVuSans-Oblique-3b8" d="M 2913 2219 
L 925 2219 
Q 791 1284 928 888 
Q 1100 400 1566 400 
Q 2034 400 2391 891 
Q 2703 1322 2913 2219 
z
M 3009 2750 
Q 3094 3638 2984 3950 
Q 2813 4444 2353 4444 
Q 1875 4444 1525 3956 
Q 1250 3563 1034 2750 
L 3009 2750 
z
M 2444 4913 
Q 3194 4913 3494 4250 
Q 3794 3591 3566 2422 
Q 3341 1256 2781 594 
Q 2225 -72 1475 -72 
Q 722 -72 425 594 
Q 128 1256 353 2422 
Q 581 3591 1134 4250 
Q 1691 4913 2444 4913 
z
" transform="scale(0.015625)"/>
     </defs>
     <use xlink:href="#DejaVuSans-Oblique-3b8" transform="translate(0 0.234375)"/>
    </g>
   </g>
   <g id="text_6">
    <!-- z -->
    <g transform="translate(203.285353 165.695356) scale(0.1 -0.1)">
     <defs>
      <path id="CharterBT-Roman-7a" d="M 288 0 
L 2758 0 
L 2758 941 
L 2432 941 
L 2362 397 
L 2266 294 
L 890 294 
L 2662 2835 
L 2662 3078 
L 352 3078 
L 352 2189 
L 653 2189 
L 723 2682 
L 813 2784 
L 1997 2784 
L 288 320 
L 288 0 
z
" transform="scale(0.015625)"/>
     </defs>
     <use xlink:href="#CharterBT-Roman-7a"/>
    </g>
   </g>
   <g id="text_7">
    <!-- w -->
    <g transform="translate(258.463423 165.695356) scale(0.1 -0.1)">
     <defs>
      <path id="CharterBT-Roman-77" d="M -13 3078 
L -13 2842 
L 378 2803 
L 1229 0 
L 1626 0 
L 2490 2426 
L 3264 0 
L 3661 0 
L 4576 2790 
L 4934 2842 
L 4934 3078 
L 3802 3078 
L 3802 2842 
L 4147 2816 
L 4198 2714 
L 3546 634 
L 2790 3078 
L 2400 3078 
L 1542 634 
L 960 2714 
L 1037 2816 
L 1376 2842 
L 1376 3078 
L -13 3078 
z
" transform="scale(0.015625)"/>
     </defs>
     <use xlink:href="#CharterBT-Roman-77"/>
    </g>
   </g>
   <g id="text_8">
    <!-- $\beta$ -->
    <g transform="translate(202.425197 89.074016) scale(0.1 -0.1)">
     <defs>
      <path id="DejaVuSans-Oblique-3b2" d="M 872 216 
L 572 -1331 
L -6 -1331 
L 928 3478 
Q 1206 4903 2538 4903 
Q 3888 4903 3659 3700 
Q 3503 2844 2894 2531 
Q 3713 2250 3553 1416 
Q 3272 -69 1759 -66 
Q 1097 -63 872 216 
z
M 1019 966 
Q 1259 422 1875 425 
Q 2775 425 2966 1406 
Q 3138 2288 1675 2219 
L 1778 2750 
Q 2909 2731 3106 3750 
Q 3241 4438 2509 4434 
Q 1691 4434 1503 3459 
L 1019 966 
z
" transform="scale(0.015625)"/>
     </defs>
     <use xlink:href="#DejaVuSans-Oblique-3b2" transform="translate(0 0.390625)"/>
    </g>
   </g>
   <g id="text_9">
    <!-- $\phi$ -->
    <g transform="translate(259.01811 97.744328) scale(0.1 -0.1)">
     <defs>
      <path id="DejaVuSans-Oblique-3d5" d="M 2991 4863 
L 2738 3572 
Q 3363 3572 3684 3094 
Q 4016 2606 3850 1747 
Q 3681 888 3159 400 
Q 2653 -78 2028 -78 
L 1784 -1331 
L 1213 -1331 
L 1456 -78 
Q 834 -78 509 400 
Q 178 888 347 1747 
Q 513 2606 1034 3094 
Q 1544 3572 2166 3572 
L 2419 4863 
L 2991 4863 
z
M 2128 434 
Q 2481 434 2784 756 
Q 3116 1116 3244 1747 
Q 3369 2372 3169 2738 
Q 2991 3059 2638 3059 
L 2128 434 
z
M 1556 434 
L 2066 3059 
Q 1716 3059 1413 2738 
Q 1072 2372 953 1747 
Q 834 1116 1028 756 
Q 1203 434 1556 434 
z
" transform="scale(0.015625)"/>
     </defs>
     <use xlink:href="#DejaVuSans-Oblique-3d5" transform="translate(0 0.015625)"/>
    </g>
   </g>
  </g>
 </g>
 <defs>
  <clipPath id="pe3a2100ee2">
   <rect x="7.2" y="7.2" width="357.165354" height="229.606299"/>
  </clipPath>
 </defs>
</svg>
