<?xml version="1.0" encoding="utf-8" standalone="no"?>
<!DOCTYPE svg PUBLIC "-//W3C//DTD SVG 1.1//EN"
  "http://www.w3.org/Graphics/SVG/1.1/DTD/svg11.dtd">
<svg xmlns:xlink="http://www.w3.org/1999/xlink" width="183.840953pt" height="291.6pt" viewBox="0 0 183.840953 291.6" xmlns="http://www.w3.org/2000/svg" version="1.1">
 <metadata>
  <rdf:RDF xmlns:dc="http://purl.org/dc/elements/1.1/" xmlns:cc="http://creativecommons.org/ns#" xmlns:rdf="http://www.w3.org/1999/02/22-rdf-syntax-ns#">
   <cc:Work>
    <dc:type rdf:resource="http://purl.org/dc/dcmitype/StillImage"/>
    <dc:date>2025-04-18T16:13:04.110491</dc:date>
    <dc:format>image/svg+xml</dc:format>
    <dc:creator>
     <cc:Agent>
      <dc:title>Matplotlib v3.10.1, https://matplotlib.org/</dc:title>
     </cc:Agent>
    </dc:creator>
   </cc:Work>
  </rdf:RDF>
 </metadata>
 <defs>
  <style type="text/css">*{stroke-linejoin: round; stroke-linecap: butt}</style>
 </defs>
 <g id="figure_1">
  <g id="patch_1">
   <path d="M 0 291.6 
L 183.840953 291.6 
L 183.840953 0 
L 0 0 
z
" style="fill: #ffffff"/>
  </g>
  <g id="axes_1">
   <g id="patch_2">
    <path d="M 114.939774 145.191015 
Q 98.638554 130.329141 82.337333 115.467267 
" clip-path="url(#p3030ad5894)" style="fill: none; stroke: #000000; stroke-width: 3; stroke-linecap: round"/>
   </g>
   <g id="patch_3">
    <path d="M 116.243265 158.025764 
Q 102.82893 176.458354 89.414596 194.890944 
" clip-path="url(#p3030ad5894)" style="fill: none; stroke: #000000; stroke-width: 3; stroke-linecap: round"/>
   </g>
   <g id="patch_4">
    <path d="M 119.245537 159.428754 
Q 114.643788 177.908011 110.04204 196.387268 
" clip-path="url(#p3030ad5894)" style="fill: none; stroke: #000000; stroke-width: 3; stroke-linecap: round"/>
   </g>
   <g id="patch_5">
    <path d="M 83.771367 43.663528 
Q 80.364143 72.349168 76.956918 101.034808 
" clip-path="url(#p3030ad5894)" style="fill: none; stroke: #000000; stroke-width: 3; stroke-linecap: round"/>
   </g>
   <g id="patch_6">
    <path d="M 76.816664 31.687887 
Q 66.770995 27.432366 56.725327 23.176845 
" clip-path="url(#p3030ad5894)" style="fill: none; stroke: #000000; stroke-width: 3; stroke-linecap: round"/>
   </g>
   <g id="patch_7">
    <path d="M 76.522004 37.630947 
Q 56.267416 43.911108 36.012829 50.191269 
" clip-path="url(#p3030ad5894)" style="fill: none; stroke: #000000; stroke-width: 3; stroke-linecap: round"/>
   </g>
   <g id="patch_8">
    <path d="M 89.535222 263.168215 
Q 87.294488 236.844354 85.053754 210.520494 
" clip-path="url(#p3030ad5894)" style="fill: none; stroke: #000000; stroke-width: 3; stroke-linecap: round"/>
   </g>
   <g id="patch_9">
    <path d="M 92.478844 263.427849 
Q 99.109889 238.294563 105.740935 213.161277 
" clip-path="url(#p3030ad5894)" style="fill: none; stroke: #000000; stroke-width: 3; stroke-linecap: round"/>
   </g>
   <g id="patch_10">
    <path d="M 82.400076 268.179126 
Q 70.353319 262.636515 58.306562 257.093904 
" clip-path="url(#p3030ad5894)" style="fill: none; stroke: #000000; stroke-width: 3; stroke-linecap: round"/>
   </g>
   <g id="patch_11">
    <path d="M 148.474799 236.403949 
Q 120.209028 221.198753 91.943258 205.993557 
" clip-path="url(#p3030ad5894)" style="fill: none; stroke: #000000; stroke-width: 3; stroke-linecap: round"/>
   </g>
   <g id="patch_12">
    <path d="M 149.145966 235.347185 
Q 132.026473 222.648938 114.906979 209.950691 
" clip-path="url(#p3030ad5894)" style="fill: none; stroke: #000000; stroke-width: 3; stroke-linecap: round"/>
   </g>
   <g id="patch_13">
    <path d="M 79.564904 209.130147 
Q 67.378654 227.681679 55.192404 246.23321 
" clip-path="url(#p3030ad5894)" style="fill: none; stroke: #000000; stroke-width: 3; stroke-linecap: round"/>
   </g>
   <g id="patch_14">
    <path d="M 92.912389 202.946105 
Q 96.133851 203.341145 99.355314 203.736185 
" clip-path="url(#p3030ad5894)" style="fill: none; stroke: #000000; stroke-width: 9; stroke-linecap: round"/>
   </g>
   <g id="patch_15">
    <path d="M 83.535667 193.268198 
Q 80.127612 155.761904 76.719557 118.25561 
" clip-path="url(#p3030ad5894)" style="fill: none; stroke: #000000; stroke-width: 3; stroke-linecap: round"/>
   </g>
   <g id="patch_16">
    <path d="M 70.337731 103.02511 
Q 51.836982 81.193836 33.336233 59.362562 
" clip-path="url(#p3030ad5894)" style="fill: none; stroke: #000000; stroke-width: 3; stroke-linecap: round"/>
   </g>
   <g id="patch_17">
    <path d="M 78.697797 117.840712 
Q 91.943125 157.211781 105.188454 196.58285 
" clip-path="url(#p3030ad5894)" style="fill: none; stroke: #000000; stroke-width: 3; stroke-linecap: round"/>
   </g>
   <g id="patch_18">
    <path d="M 73.42821 101.343708 
Q 62.345167 64.716478 51.262125 28.089248 
" clip-path="url(#p3030ad5894)" style="fill: none; stroke: #000000; stroke-width: 3; stroke-linecap: round"/>
   </g>
   <g id="patch_19">
    <path d="M 57.046574 247.877938 
Q 79.193906 229.130878 101.341238 210.383819 
" clip-path="url(#p3030ad5894)" style="fill: none; stroke: #000000; stroke-width: 3; stroke-linecap: round"/>
   </g>
   <g id="patch_20">
    <path d="M 32.39446 45.455032 
Q 38.246667 36.277533 44.098874 27.100034 
" clip-path="url(#p3030ad5894)" style="fill: none; stroke: #000000; stroke-width: 3; stroke-linecap: round"/>
   </g>
   <g id="PathCollection_1">
    <defs>
     <path id="me37b7afc31" d="M 0 8.660254 
C 2.296726 8.660254 4.499694 7.747755 6.123724 6.123724 
C 7.747755 4.499694 8.660254 2.296726 8.660254 0 
C 8.660254 -2.296726 7.747755 -4.499694 6.123724 -6.123724 
C 4.499694 -7.747755 2.296726 -8.660254 0 -8.660254 
C -2.296726 -8.660254 -4.499694 -7.747755 -6.123724 -6.123724 
C -7.747755 -4.499694 -8.660254 -2.296726 -8.660254 0 
C -8.660254 2.296726 -7.747755 4.499694 -6.123724 6.123724 
C -4.499694 7.747755 -2.296726 8.660254 0 8.660254 
z
" style="stroke: #666666"/>
    </defs>
    <g clip-path="url(#p3030ad5894)">
     <use xlink:href="#me37b7afc31" x="121.338354" y="151.02462" style="fill: #c8c8c8; stroke: #666666"/>
     <use xlink:href="#me37b7afc31" x="84.792495" y="35.066589" style="fill: #c8c8c8; stroke: #666666"/>
     <use xlink:href="#me37b7afc31" x="90.269976" y="271.8" style="fill: #c8c8c8; stroke: #666666"/>
     <use xlink:href="#me37b7afc31" x="156.102655" y="240.507253" style="fill: #c8c8c8; stroke: #666666"/>
     <use xlink:href="#me37b7afc31" x="84.319311" y="201.892356" style="fill: #c8c8c8; stroke: #666666"/>
     <use xlink:href="#me37b7afc31" x="75.935875" y="109.631038" style="fill: #c8c8c8; stroke: #666666"/>
     <use xlink:href="#me37b7afc31" x="50.436664" y="253.473031" style="fill: #c8c8c8; stroke: #666666"/>
     <use xlink:href="#me37b7afc31" x="107.949553" y="204.790076" style="fill: #c8c8c8; stroke: #666666"/>
     <use xlink:href="#me37b7afc31" x="27.738297" y="52.75688" style="fill: #c8c8c8; stroke: #666666"/>
     <use xlink:href="#me37b7afc31" x="48.75388" y="19.8" style="fill: #c8c8c8; stroke: #666666"/>
    </g>
   </g>
   <g id="text_1">
    <g clip-path="url(#p3030ad5894)">
     <!-- a -->
     <g style="fill: #4c4c4c" transform="translate(119.162104 153.10462) scale(0.08 -0.08)">
      <defs>
       <path id="CharterBT-Bold-61" d="M 2195 365 
L 2278 0 
L 3418 0 
L 3418 282 
L 3078 314 
L 2995 403 
L 2995 2061 
C 2995 2880 2694 3194 1798 3194 
C 954 3194 403 2816 403 2451 
C 403 2278 506 2214 698 2214 
L 1286 2214 
L 1286 2816 
C 1402 2842 1498 2854 1594 2854 
C 2016 2854 2202 2650 2202 2189 
L 2202 1997 
C 864 1696 256 1510 256 774 
C 256 288 602 -58 1094 -58 
C 1440 -58 1786 90 2195 365 
z
M 2195 627 
C 1946 499 1741 435 1574 435 
C 1280 435 1101 621 1101 915 
C 1101 1338 1440 1504 2195 1670 
L 2195 627 
z
" transform="scale(0.015625)"/>
      </defs>
      <use xlink:href="#CharterBT-Bold-61"/>
     </g>
    </g>
   </g>
   <g id="text_2">
    <g clip-path="url(#p3030ad5894)">
     <!-- b -->
     <g style="fill: #4c4c4c" transform="translate(82.48437 37.146589) scale(0.08 -0.08)">
      <defs>
       <path id="CharterBT-Bold-62" d="M 1005 4730 
L 58 4429 
L 58 4179 
L 518 4179 
L 518 6 
L 1229 -6 
L 1402 -6 
C 1894 -6 2253 45 2490 147 
C 3149 442 3501 992 3501 1734 
C 3501 2598 2970 3187 2240 3187 
C 1958 3187 1658 3091 1312 2899 
L 1312 4730 
L 1005 4730 
z
M 1312 346 
L 1312 2637 
C 1466 2669 1600 2688 1715 2688 
C 2304 2688 2643 2298 2643 1568 
C 2643 730 2291 339 1517 339 
C 1453 339 1382 339 1312 346 
z
" transform="scale(0.015625)"/>
      </defs>
      <use xlink:href="#CharterBT-Bold-62"/>
     </g>
    </g>
   </g>
   <g id="text_3">
    <g clip-path="url(#p3030ad5894)">
     <!-- c -->
     <g style="fill: #4c4c4c" transform="translate(88.366226 273.88) scale(0.08 -0.08)">
      <defs>
       <path id="CharterBT-Bold-63" d="M 2970 288 
L 2970 742 
C 2656 550 2355 454 2080 454 
C 1485 454 1094 909 1094 1677 
C 1094 2406 1485 2867 1933 2867 
C 1978 2867 2029 2861 2093 2848 
L 2093 2170 
C 2208 2086 2330 2048 2470 2048 
C 2746 2048 2931 2234 2931 2483 
C 2931 2874 2534 3181 1875 3181 
C 915 3181 224 2496 224 1523 
C 224 595 832 -51 1760 -51 
C 2170 -51 2560 64 2970 288 
z
" transform="scale(0.015625)"/>
      </defs>
      <use xlink:href="#CharterBT-Bold-63"/>
     </g>
    </g>
   </g>
   <g id="text_4">
    <g clip-path="url(#p3030ad5894)">
     <!-- d -->
     <g style="fill: #4c4c4c" transform="translate(153.718905 242.587253) scale(0.08 -0.08)">
      <defs>
       <path id="CharterBT-Bold-64" d="M 2490 4173 
L 2490 3136 
C 2259 3181 2061 3200 1888 3200 
C 915 3200 237 2515 237 1485 
C 237 563 762 -58 1478 -58 
C 1805 -58 2125 90 2490 358 
L 2490 0 
L 3686 0 
L 3686 282 
L 3360 307 
L 3270 410 
L 3270 4730 
L 2976 4730 
L 2022 4429 
L 2022 4173 
L 2490 4173 
z
M 2490 608 
C 2285 531 2106 486 1952 486 
C 1421 486 1094 902 1094 1619 
C 1094 2381 1472 2842 2016 2842 
C 2150 2842 2304 2810 2490 2746 
L 2490 608 
z
" transform="scale(0.015625)"/>
      </defs>
      <use xlink:href="#CharterBT-Bold-64"/>
     </g>
    </g>
   </g>
   <g id="text_5">
    <g clip-path="url(#p3030ad5894)">
     <!-- e -->
     <g style="fill: #4c4c4c" transform="translate(82.223061 203.972356) scale(0.08 -0.08)">
      <defs>
       <path id="CharterBT-Bold-65" d="M 3142 794 
C 2771 557 2426 442 2086 442 
C 1453 442 1056 877 1056 1613 
L 1056 1632 
L 3149 1632 
L 3149 1754 
C 3149 2675 2656 3200 1818 3200 
C 896 3200 237 2528 237 1549 
C 237 582 864 -58 1818 -58 
C 2266 -58 2714 70 3142 320 
L 3142 794 
z
M 2310 1971 
L 1088 1971 
C 1107 2528 1370 2848 1754 2848 
C 2106 2848 2310 2573 2310 2042 
L 2310 1971 
z
" transform="scale(0.015625)"/>
      </defs>
      <use xlink:href="#CharterBT-Bold-65"/>
     </g>
    </g>
   </g>
   <g id="text_6">
    <g clip-path="url(#p3030ad5894)">
     <!-- f -->
     <g style="fill: #4c4c4c" transform="translate(74.572125 111.711038) scale(0.08 -0.08)">
      <defs>
       <path id="CharterBT-Bold-66" d="M 198 0 
L 1926 0 
L 1926 294 
L 1498 326 
L 1395 422 
L 1395 2650 
L 2253 2650 
L 2253 3034 
L 1395 3034 
L 1395 3418 
L 1395 3469 
C 1395 3942 1478 4269 1645 4442 
L 2266 3891 
C 2509 3974 2637 4115 2637 4288 
C 2637 4563 2406 4755 2035 4755 
C 1773 4755 1498 4666 1261 4486 
C 819 4160 608 3699 608 3085 
L 192 2893 
L 192 2650 
L 608 2650 
L 608 429 
L 518 326 
L 198 294 
L 198 0 
z
" transform="scale(0.015625)"/>
      </defs>
      <use xlink:href="#CharterBT-Bold-66"/>
     </g>
    </g>
   </g>
   <g id="text_7">
    <g clip-path="url(#p3030ad5894)">
     <!-- g -->
     <g style="fill: #4c4c4c" transform="translate(48.232914 255.553031) scale(0.08 -0.08)">
      <defs>
       <path id="CharterBT-Bold-67" d="M 2605 2995 
C 2291 3123 1997 3181 1722 3181 
C 870 3181 352 2733 352 2080 
C 352 1619 627 1267 1146 1120 
C 909 909 794 723 794 512 
C 794 422 819 314 877 192 
C 467 154 218 -115 218 -512 
C 218 -1037 698 -1389 1542 -1389 
C 2573 -1389 3264 -858 3264 -256 
C 3264 288 2790 480 1862 614 
L 1427 672 
C 1414 736 1408 794 1408 845 
C 1408 922 1427 998 1459 1082 
C 1523 1075 1587 1075 1645 1075 
C 2490 1075 3002 1523 3002 2138 
C 3002 2304 2957 2464 2861 2630 
L 3552 2630 
L 3552 2995 
L 2605 2995 
z
M 1709 2880 
C 1990 2880 2214 2605 2214 2144 
C 2214 1658 1997 1363 1696 1363 
C 1389 1363 1171 1651 1171 2138 
C 1171 2605 1389 2880 1709 2880 
z
M 1267 122 
L 1811 32 
C 2266 -45 2502 -134 2502 -448 
C 2502 -774 2202 -1050 1741 -1050 
C 1312 -1050 998 -755 998 -410 
C 998 -205 1088 -26 1267 122 
z
" transform="scale(0.015625)"/>
      </defs>
      <use xlink:href="#CharterBT-Bold-67"/>
     </g>
    </g>
   </g>
   <g id="text_8">
    <g clip-path="url(#p3030ad5894)">
     <!-- h -->
     <g style="fill: #4c4c4c" transform="translate(105.561428 206.870076) scale(0.08 -0.08)">
      <defs>
       <path id="CharterBT-Bold-68" d="M 1050 4730 
L 102 4429 
L 102 4179 
L 570 4179 
L 570 410 
L 480 314 
L 154 288 
L 154 0 
L 1734 0 
L 1734 288 
L 1453 314 
L 1357 410 
L 1357 2522 
C 1600 2592 1805 2630 1971 2630 
C 2368 2630 2547 2413 2547 1939 
L 2547 410 
L 2458 314 
L 2182 288 
L 2182 0 
L 3750 0 
L 3750 288 
L 3411 314 
L 3328 410 
L 3328 2125 
C 3328 2835 3040 3187 2451 3187 
C 2163 3187 1818 3046 1357 2797 
L 1357 4730 
L 1050 4730 
z
" transform="scale(0.015625)"/>
      </defs>
      <use xlink:href="#CharterBT-Bold-68"/>
     </g>
    </g>
   </g>
   <g id="text_9">
    <g clip-path="url(#p3030ad5894)">
     <!-- i -->
     <g style="fill: #4c4c4c" transform="translate(26.518297 54.83688) scale(0.08 -0.08)">
      <defs>
       <path id="CharterBT-Bold-69" d="M 1037 4634 
C 774 4634 576 4429 576 4154 
C 576 3872 787 3680 1043 3680 
C 1312 3680 1517 3878 1517 4166 
C 1517 4429 1325 4634 1037 4634 
z
M 1107 3174 
L 205 2874 
L 205 2618 
L 627 2618 
L 627 410 
L 538 314 
L 192 288 
L 192 0 
L 1869 0 
L 1869 288 
L 1510 314 
L 1414 410 
L 1414 3174 
L 1107 3174 
z
" transform="scale(0.015625)"/>
      </defs>
      <use xlink:href="#CharterBT-Bold-69"/>
     </g>
    </g>
   </g>
   <g id="text_10">
    <g clip-path="url(#p3030ad5894)">
     <!-- j -->
     <g style="fill: #4c4c4c" transform="translate(47.565755 21.88) scale(0.08 -0.08)">
      <defs>
       <path id="CharterBT-Bold-6a" d="M 698 2618 
L 698 186 
C 698 -442 646 -864 486 -1082 
L -141 -499 
C -371 -544 -512 -717 -512 -922 
C -512 -1178 -288 -1370 70 -1370 
C 480 -1370 883 -1178 1133 -858 
C 1421 -486 1478 -13 1478 627 
L 1478 3174 
L 1210 3174 
L 243 2867 
L 243 2618 
L 698 2618 
z
M 602 4154 
C 602 3872 813 3680 1069 3680 
C 1331 3680 1549 3885 1549 4147 
C 1549 4429 1344 4634 1082 4634 
C 794 4634 602 4435 602 4154 
z
" transform="scale(0.015625)"/>
      </defs>
      <use xlink:href="#CharterBT-Bold-6a"/>
     </g>
    </g>
   </g>
  </g>
 </g>
 <defs>
  <clipPath id="p3030ad5894">
   <rect x="7.2" y="7.2" width="169.440953" height="277.2"/>
  </clipPath>
 </defs>
</svg>
