<?xml version="1.0" encoding="utf-8" standalone="no"?>
<!DOCTYPE svg PUBLIC "-//W3C//DTD SVG 1.1//EN"
  "http://www.w3.org/Graphics/SVG/1.1/DTD/svg11.dtd">
<svg xmlns:xlink="http://www.w3.org/1999/xlink" width="238.7365pt" height="252.854375pt" viewBox="0 0 238.7365 252.854375" xmlns="http://www.w3.org/2000/svg" version="1.1">
 <metadata>
  <rdf:RDF xmlns:dc="http://purl.org/dc/elements/1.1/" xmlns:cc="http://creativecommons.org/ns#" xmlns:rdf="http://www.w3.org/1999/02/22-rdf-syntax-ns#">
   <cc:Work>
    <dc:type rdf:resource="http://purl.org/dc/dcmitype/StillImage"/>
    <dc:date>2025-05-26T00:07:42.921622</dc:date>
    <dc:format>image/svg+xml</dc:format>
    <dc:creator>
     <cc:Agent>
      <dc:title>Matplotlib v3.10.1, https://matplotlib.org/</dc:title>
     </cc:Agent>
    </dc:creator>
   </cc:Work>
  </rdf:RDF>
 </metadata>
 <defs>
  <style type="text/css">*{stroke-linejoin: round; stroke-linecap: butt}</style>
 </defs>
 <g id="figure_1">
  <g id="patch_1">
   <path d="M 0 252.854375 
L 238.7365 252.854375 
L 238.7365 0 
L 0 0 
z
" style="fill: #ffffff"/>
  </g>
  <g id="axes_1">
   <g id="patch_2">
    <path d="M 64.1365 228.96 
L 231.5365 228.96 
L 231.5365 7.2 
L 64.1365 7.2 
z
" style="fill: #ffffff"/>
   </g>
   <g id="matplotlib.axis_1">
    <g id="xtick_1">
     <g id="line2d_1">
      <defs>
       <path id="mf127c1d395" d="M 0 0 
L 0 4.8 
" style="stroke: #262626"/>
      </defs>
      <g>
       <use xlink:href="#mf127c1d395" x="64.1365" y="228.96" style="fill: #262626; stroke: #262626"/>
      </g>
     </g>
     <g id="text_1">
      <!-- 0.0 -->
      <g style="fill: #262626" transform="translate(58.021188 243.73625) scale(0.088 -0.088)">
       <defs>
        <path id="CharterBT-Roman-30" d="M 1779 4371 
C 864 4371 262 3565 262 2150 
C 262 736 864 -77 1779 -77 
C 2694 -77 3296 736 3296 2150 
C 3296 3565 2694 4371 1779 4371 
z
M 1779 4070 
C 2368 4070 2688 3418 2688 2150 
C 2688 883 2368 230 1779 230 
C 1190 230 864 877 864 2144 
C 864 3418 1190 4070 1779 4070 
z
" transform="scale(0.015625)"/>
        <path id="CharterBT-Roman-2e" d="M 890 755 
C 666 755 480 576 480 346 
C 480 115 666 -58 890 -58 
C 1114 -58 1293 122 1293 346 
C 1293 576 1114 755 890 755 
z
" transform="scale(0.015625)"/>
       </defs>
       <use xlink:href="#CharterBT-Roman-30"/>
       <use xlink:href="#CharterBT-Roman-2e" transform="translate(55.599991 0)"/>
       <use xlink:href="#CharterBT-Roman-30" transform="translate(83.399979 0)"/>
      </g>
     </g>
    </g>
    <g id="xtick_2">
     <g id="line2d_2">
      <g>
       <use xlink:href="#mf127c1d395" x="99.961354" y="228.96" style="fill: #262626; stroke: #262626"/>
      </g>
     </g>
     <g id="text_2">
      <!-- 0.1 -->
      <g style="fill: #262626" transform="translate(93.846042 243.73625) scale(0.088 -0.088)">
       <defs>
        <path id="CharterBT-Roman-31" d="M 1990 4371 
L 602 3955 
L 602 3686 
L 1606 3866 
L 1606 422 
L 1530 314 
L 794 275 
L 794 0 
L 2938 0 
L 2938 269 
L 2246 301 
L 2170 397 
L 2170 4371 
L 1990 4371 
z
" transform="scale(0.015625)"/>
       </defs>
       <use xlink:href="#CharterBT-Roman-30"/>
       <use xlink:href="#CharterBT-Roman-2e" transform="translate(55.599991 0)"/>
       <use xlink:href="#CharterBT-Roman-31" transform="translate(83.399979 0)"/>
      </g>
     </g>
    </g>
    <g id="xtick_3">
     <g id="line2d_3">
      <g>
       <use xlink:href="#mf127c1d395" x="135.786209" y="228.96" style="fill: #262626; stroke: #262626"/>
      </g>
     </g>
     <g id="text_3">
      <!-- 0.2 -->
      <g style="fill: #262626" transform="translate(129.670896 243.73625) scale(0.088 -0.088)">
       <defs>
        <path id="CharterBT-Roman-32" d="M 902 506 
C 2317 1632 3091 2355 3091 3162 
C 3091 3885 2586 4371 1760 4371 
C 966 4371 403 3917 403 3469 
C 403 3251 538 3110 762 3110 
C 864 3110 960 3142 1050 3206 
L 1050 3891 
C 1242 4000 1427 4045 1619 4045 
C 2150 4045 2470 3686 2470 3078 
C 2470 2240 1670 1542 269 403 
L 269 0 
L 3232 0 
L 3232 1050 
L 2944 1050 
L 2829 506 
L 902 506 
z
" transform="scale(0.015625)"/>
       </defs>
       <use xlink:href="#CharterBT-Roman-30"/>
       <use xlink:href="#CharterBT-Roman-2e" transform="translate(55.599991 0)"/>
       <use xlink:href="#CharterBT-Roman-32" transform="translate(83.399979 0)"/>
      </g>
     </g>
    </g>
    <g id="xtick_4">
     <g id="line2d_4">
      <g>
       <use xlink:href="#mf127c1d395" x="171.611063" y="228.96" style="fill: #262626; stroke: #262626"/>
      </g>
     </g>
     <g id="text_4">
      <!-- 0.3 -->
      <g style="fill: #262626" transform="translate(165.49575 243.73625) scale(0.088 -0.088)">
       <defs>
        <path id="CharterBT-Roman-33" d="M 2029 2259 
C 2656 2438 2982 2803 2982 3296 
C 2982 3942 2490 4371 1722 4371 
C 922 4371 371 3942 371 3520 
C 371 3315 512 3174 717 3174 
C 819 3174 902 3200 979 3258 
L 979 3859 
C 1165 3987 1363 4045 1587 4045 
C 2080 4045 2400 3718 2400 3213 
C 2400 2694 2054 2387 1408 2387 
C 1363 2387 1318 2394 1274 2394 
L 1274 2016 
C 1395 2035 1510 2042 1613 2042 
C 2227 2042 2560 1747 2560 1242 
C 2560 672 2138 230 1555 230 
C 1363 230 1184 282 1011 384 
L 813 928 
C 742 954 678 960 621 960 
C 416 960 262 819 262 634 
C 262 307 768 -70 1530 -70 
C 2515 -70 3149 512 3149 1229 
C 3149 1811 2739 2208 2029 2259 
z
" transform="scale(0.015625)"/>
       </defs>
       <use xlink:href="#CharterBT-Roman-30"/>
       <use xlink:href="#CharterBT-Roman-2e" transform="translate(55.599991 0)"/>
       <use xlink:href="#CharterBT-Roman-33" transform="translate(83.399979 0)"/>
      </g>
     </g>
    </g>
    <g id="xtick_5">
     <g id="line2d_5">
      <g>
       <use xlink:href="#mf127c1d395" x="207.435917" y="228.96" style="fill: #262626; stroke: #262626"/>
      </g>
     </g>
     <g id="text_5">
      <!-- 0.4 -->
      <g style="fill: #262626" transform="translate(201.320605 243.73625) scale(0.088 -0.088)">
       <defs>
        <path id="CharterBT-Roman-34" d="M 2355 4333 
L 173 1658 
L 173 1242 
L 2234 1242 
L 2234 -237 
L 2726 -237 
L 2726 1242 
L 3450 1242 
L 3450 1658 
L 2726 1658 
L 2726 4333 
L 2355 4333 
z
M 2234 3635 
L 2234 1658 
L 653 1658 
L 2234 3635 
z
" transform="scale(0.015625)"/>
       </defs>
       <use xlink:href="#CharterBT-Roman-30"/>
       <use xlink:href="#CharterBT-Roman-2e" transform="translate(55.599991 0)"/>
       <use xlink:href="#CharterBT-Roman-34" transform="translate(83.399979 0)"/>
      </g>
     </g>
    </g>
   </g>
   <g id="matplotlib.axis_2">
    <g id="ytick_1">
     <g id="line2d_6">
      <defs>
       <path id="m4b68caded6" d="M 0 0 
L -4.8 0 
" style="stroke: #262626"/>
      </defs>
      <g>
       <use xlink:href="#m4b68caded6" x="64.1365" y="18.288" style="fill: #262626; stroke: #262626"/>
      </g>
     </g>
     <g id="text_6">
      <!-- Jean Valjean -->
      <g style="fill: #262626" transform="translate(7.2 21.526125) scale(0.088 -0.088)">
       <defs>
        <path id="CharterBT-Roman-4a" d="M 1734 3910 
L 1734 1613 
C 1734 685 1510 230 902 230 
C 838 230 762 237 678 256 
L 589 339 
L 435 1146 
L 77 1146 
L 77 77 
C 371 -26 646 -77 915 -77 
C 1894 -77 2310 480 2310 1638 
L 2310 3910 
L 2419 4000 
L 2816 4038 
L 2816 4294 
L 1197 4294 
L 1197 4038 
L 1626 4000 
L 1734 3910 
z
" transform="scale(0.015625)"/>
        <path id="CharterBT-Roman-65" d="M 2867 678 
C 2502 435 2182 307 1862 307 
C 1216 307 787 794 787 1613 
L 787 1683 
L 2861 1683 
C 2867 1754 2867 1818 2867 1882 
C 2867 2669 2413 3142 1715 3142 
C 858 3142 237 2483 237 1517 
C 237 576 819 -58 1664 -58 
C 2067 -58 2483 70 2867 326 
L 2867 678 
z
M 2298 1952 
L 819 1952 
C 858 2496 1222 2854 1632 2854 
C 2061 2854 2298 2573 2298 2054 
L 2298 1952 
z
" transform="scale(0.015625)"/>
        <path id="CharterBT-Roman-61" d="M 2138 371 
L 2221 0 
L 3123 0 
L 3123 230 
L 2784 262 
L 2669 365 
L 2669 2221 
C 2669 2867 2387 3142 1715 3142 
C 909 3142 422 2810 422 2419 
C 422 2266 474 2221 621 2221 
L 1062 2221 
L 1062 2758 
C 1235 2829 1389 2861 1549 2861 
C 2010 2861 2138 2650 2138 2144 
L 2138 1939 
C 858 1632 269 1440 269 774 
C 269 294 582 -45 1088 -45 
C 1395 -45 1734 96 2138 371 
z
M 2138 589 
C 1818 403 1555 301 1344 301 
C 1024 301 832 512 832 826 
C 832 1293 1235 1466 2138 1715 
L 2138 589 
z
" transform="scale(0.015625)"/>
        <path id="CharterBT-Roman-6e" d="M 192 0 
L 1594 0 
L 1594 230 
L 1286 262 
L 1178 365 
L 1178 2509 
C 1453 2650 1690 2720 1894 2720 
C 2368 2720 2541 2528 2541 2061 
L 2541 365 
L 2432 262 
L 2125 230 
L 2125 0 
L 3526 0 
L 3526 230 
L 3181 262 
L 3072 365 
L 3072 2170 
C 3072 2810 2765 3142 2208 3142 
C 1933 3142 1606 2995 1178 2758 
L 1178 3110 
L 934 3110 
L 192 2880 
L 192 2682 
L 646 2682 
L 646 365 
L 538 262 
L 192 230 
L 192 0 
z
" transform="scale(0.015625)"/>
        <path id="CharterBT-Roman-20" transform="scale(0.015625)"/>
        <path id="CharterBT-Roman-56" d="M -147 4294 
L -147 4038 
L 262 3962 
L 1766 -32 
L 2208 -32 
L 3680 3962 
L 4077 4038 
L 4077 4294 
L 2803 4294 
L 2803 4038 
L 3200 4000 
L 3264 3910 
L 2106 685 
L 902 3910 
L 973 4000 
L 1344 4038 
L 1344 4294 
L -147 4294 
z
" transform="scale(0.015625)"/>
        <path id="CharterBT-Roman-6c" d="M 179 0 
L 1677 0 
L 1677 230 
L 1312 262 
L 1197 365 
L 1197 4710 
L 954 4710 
L 173 4480 
L 173 4282 
L 666 4282 
L 666 365 
L 557 262 
L 179 230 
L 179 0 
z
" transform="scale(0.015625)"/>
        <path id="CharterBT-Roman-6a" d="M 698 2682 
L 698 -102 
C 698 -691 595 -1018 358 -1094 
L -262 -717 
C -422 -787 -499 -909 -499 -1050 
C -499 -1254 -339 -1395 -58 -1395 
C 288 -1395 614 -1248 864 -979 
C 1216 -595 1229 -122 1229 538 
L 1229 3110 
L 986 3110 
L 243 2880 
L 243 2682 
L 698 2682 
z
M 563 4160 
C 563 3955 730 3795 934 3795 
C 1139 3795 1306 3955 1306 4160 
C 1306 4365 1139 4531 934 4531 
C 730 4531 563 4371 563 4160 
z
" transform="scale(0.015625)"/>
       </defs>
       <use xlink:href="#CharterBT-Roman-4a"/>
       <use xlink:href="#CharterBT-Roman-65" transform="translate(44.399994 0)"/>
       <use xlink:href="#CharterBT-Roman-61" transform="translate(93.499985 0)"/>
       <use xlink:href="#CharterBT-Roman-6e" transform="translate(144.199982 0)"/>
       <use xlink:href="#CharterBT-Roman-20" transform="translate(200.999969 0)"/>
       <use xlink:href="#CharterBT-Roman-56" transform="translate(228.799957 0)"/>
       <use xlink:href="#CharterBT-Roman-61" transform="translate(290.599945 0)"/>
       <use xlink:href="#CharterBT-Roman-6c" transform="translate(341.299942 0)"/>
       <use xlink:href="#CharterBT-Roman-6a" transform="translate(369.499939 0)"/>
       <use xlink:href="#CharterBT-Roman-65" transform="translate(396.09993 0)"/>
       <use xlink:href="#CharterBT-Roman-61" transform="translate(445.199921 0)"/>
       <use xlink:href="#CharterBT-Roman-6e" transform="translate(495.899918 0)"/>
      </g>
     </g>
    </g>
    <g id="ytick_2">
     <g id="line2d_7">
      <g>
       <use xlink:href="#m4b68caded6" x="64.1365" y="40.464" style="fill: #262626; stroke: #262626"/>
      </g>
     </g>
     <g id="text_7">
      <!-- Marius -->
      <g style="fill: #262626" transform="translate(29.40075 43.702125) scale(0.088 -0.088)">
       <defs>
        <path id="CharterBT-Roman-4d" d="M 198 0 
L 1549 0 
L 1549 262 
L 1158 314 
L 1043 435 
L 1043 3930 
L 2502 0 
L 2778 0 
L 4294 3994 
L 4294 384 
L 4230 294 
L 3808 262 
L 3808 0 
L 5338 0 
L 5338 262 
L 4934 294 
L 4858 384 
L 4858 3910 
L 4934 4000 
L 5338 4038 
L 5338 4294 
L 3968 4294 
L 3968 4096 
L 2752 909 
L 1549 4122 
L 1549 4294 
L 192 4294 
L 192 4038 
L 614 4000 
L 698 3910 
L 698 435 
L 582 314 
L 198 262 
L 198 0 
z
" transform="scale(0.015625)"/>
        <path id="CharterBT-Roman-72" d="M 192 0 
L 1734 0 
L 1734 230 
L 1286 262 
L 1178 365 
L 1178 2195 
C 1440 2502 1664 2662 1875 2662 
C 2010 2662 2118 2611 2202 2509 
L 2406 2509 
L 2406 3059 
C 2272 3117 2150 3142 2022 3142 
C 1971 3142 1914 3142 1862 3130 
C 1632 2944 1402 2739 1178 2509 
L 1178 3110 
L 934 3110 
L 192 2880 
L 192 2682 
L 646 2682 
L 646 365 
L 531 262 
L 192 230 
L 192 0 
z
" transform="scale(0.015625)"/>
        <path id="CharterBT-Roman-69" d="M 986 4531 
C 781 4531 614 4371 614 4160 
C 614 3955 781 3795 986 3795 
C 1190 3795 1357 3955 1357 4160 
C 1357 4365 1190 4531 986 4531 
z
M 960 3110 
L 224 2880 
L 224 2682 
L 672 2682 
L 672 365 
L 563 262 
L 224 230 
L 224 0 
L 1664 0 
L 1664 230 
L 1318 262 
L 1203 365 
L 1203 3110 
L 960 3110 
z
" transform="scale(0.015625)"/>
        <path id="CharterBT-Roman-75" d="M 909 3142 
L 166 2906 
L 166 2707 
L 621 2707 
L 621 915 
C 621 275 928 -64 1478 -64 
C 1792 -64 2131 83 2515 358 
L 2515 0 
L 3462 0 
L 3462 230 
L 3162 262 
L 3046 365 
L 3046 3142 
L 2803 3142 
L 2061 2906 
L 2061 2707 
L 2515 2707 
L 2515 538 
C 2253 410 2010 346 1773 346 
C 1344 346 1152 563 1152 1024 
L 1152 3142 
L 909 3142 
z
" transform="scale(0.015625)"/>
        <path id="CharterBT-Roman-73" d="M 2202 3002 
C 1984 3098 1734 3142 1453 3142 
C 723 3142 320 2810 320 2246 
C 320 1818 602 1613 1146 1370 
C 1568 1178 1798 1062 1798 730 
C 1798 429 1568 211 1197 211 
C 1011 211 832 262 653 365 
L 576 909 
L 269 909 
L 269 77 
C 493 -6 774 -58 1101 -58 
C 1856 -58 2298 307 2298 902 
C 2298 1139 2208 1331 2054 1453 
C 1843 1626 1600 1715 1376 1824 
C 1018 1997 832 2131 832 2406 
C 832 2694 1024 2867 1363 2867 
C 1517 2867 1670 2822 1837 2733 
L 1888 2278 
L 2202 2278 
L 2202 3002 
z
" transform="scale(0.015625)"/>
       </defs>
       <use xlink:href="#CharterBT-Roman-4d"/>
       <use xlink:href="#CharterBT-Roman-61" transform="translate(86.599991 0)"/>
       <use xlink:href="#CharterBT-Roman-72" transform="translate(137.299988 0)"/>
       <use xlink:href="#CharterBT-Roman-69" transform="translate(175.499985 0)"/>
       <use xlink:href="#CharterBT-Roman-75" transform="translate(203.499969 0)"/>
       <use xlink:href="#CharterBT-Roman-73" transform="translate(260.399963 0)"/>
      </g>
     </g>
    </g>
    <g id="ytick_3">
     <g id="line2d_8">
      <g>
       <use xlink:href="#m4b68caded6" x="64.1365" y="62.64" style="fill: #262626; stroke: #262626"/>
      </g>
     </g>
     <g id="text_8">
      <!-- Th'enardier -->
      <g style="fill: #262626" transform="translate(11.862625 65.878125) scale(0.088 -0.088)">
       <defs>
        <path id="CharterBT-Roman-54" d="M 102 4294 
L 102 3309 
L 454 3309 
L 544 3904 
L 634 4000 
L 1619 4000 
L 1619 384 
L 1504 294 
L 1075 262 
L 1075 0 
L 2746 0 
L 2746 262 
L 2317 294 
L 2202 384 
L 2202 4000 
L 3187 4000 
L 3277 3904 
L 3366 3309 
L 3718 3309 
L 3718 4294 
L 102 4294 
z
" transform="scale(0.015625)"/>
        <path id="CharterBT-Roman-68" d="M 902 4710 
L 122 4480 
L 122 4282 
L 614 4282 
L 614 365 
L 506 262 
L 160 230 
L 160 0 
L 1562 0 
L 1562 230 
L 1261 262 
L 1146 365 
L 1146 2509 
C 1421 2650 1658 2720 1862 2720 
C 2336 2720 2509 2528 2509 2061 
L 2509 365 
L 2400 262 
L 2099 230 
L 2099 0 
L 3494 0 
L 3494 230 
L 3155 262 
L 3040 365 
L 3040 2170 
C 3040 2810 2739 3142 2182 3142 
C 1907 3142 1574 2995 1146 2758 
L 1146 4710 
L 902 4710 
z
" transform="scale(0.015625)"/>
        <path id="CharterBT-Roman-27" d="M 595 2701 
L 800 4128 
C 806 4179 813 4224 813 4256 
C 813 4461 710 4570 544 4570 
C 378 4570 282 4461 282 4250 
C 282 4211 282 4173 288 4128 
L 493 2701 
L 595 2701 
z
" transform="scale(0.015625)"/>
        <path id="CharterBT-Roman-64" d="M 2451 4282 
L 2451 3078 
C 2253 3123 2061 3149 1882 3149 
C 909 3149 230 2464 230 1440 
C 230 544 768 -58 1466 -58 
C 1818 -58 2125 70 2451 333 
L 2451 0 
L 3398 0 
L 3398 230 
L 3091 262 
L 2982 365 
L 2982 4710 
L 2739 4710 
L 1958 4480 
L 1958 4282 
L 2451 4282 
z
M 2451 570 
C 2214 422 1984 346 1754 346 
C 1178 346 794 800 794 1549 
C 794 2349 1242 2867 1888 2867 
C 2042 2867 2234 2829 2451 2765 
L 2451 570 
z
" transform="scale(0.015625)"/>
       </defs>
       <use xlink:href="#CharterBT-Roman-54"/>
       <use xlink:href="#CharterBT-Roman-68" transform="translate(59.699997 0)"/>
       <use xlink:href="#CharterBT-Roman-27" transform="translate(116.099991 0)"/>
       <use xlink:href="#CharterBT-Roman-65" transform="translate(133.099976 0)"/>
       <use xlink:href="#CharterBT-Roman-6e" transform="translate(182.199966 0)"/>
       <use xlink:href="#CharterBT-Roman-61" transform="translate(238.999954 0)"/>
       <use xlink:href="#CharterBT-Roman-72" transform="translate(289.699951 0)"/>
       <use xlink:href="#CharterBT-Roman-64" transform="translate(327.899948 0)"/>
       <use xlink:href="#CharterBT-Roman-69" transform="translate(384.399933 0)"/>
       <use xlink:href="#CharterBT-Roman-65" transform="translate(412.399918 0)"/>
       <use xlink:href="#CharterBT-Roman-72" transform="translate(461.499908 0)"/>
      </g>
     </g>
    </g>
    <g id="ytick_4">
     <g id="line2d_9">
      <g>
       <use xlink:href="#m4b68caded6" x="64.1365" y="84.816" style="fill: #262626; stroke: #262626"/>
      </g>
     </g>
     <g id="text_9">
      <!-- Javert -->
      <g style="fill: #262626" transform="translate(32.49725 88.054125) scale(0.088 -0.088)">
       <defs>
        <path id="CharterBT-Roman-76" d="M -32 3078 
L -32 2842 
L 358 2803 
L 1389 0 
L 1747 0 
L 2867 2790 
L 3245 2842 
L 3245 3078 
L 2112 3078 
L 2112 2842 
L 2458 2816 
L 2509 2714 
L 1690 621 
L 941 2714 
L 1018 2816 
L 1357 2842 
L 1357 3078 
L -32 3078 
z
" transform="scale(0.015625)"/>
        <path id="CharterBT-Roman-74" d="M 563 2694 
L 563 627 
C 563 173 698 -19 1229 -19 
C 1478 -19 1766 26 2067 122 
L 2067 358 
C 1920 326 1773 307 1626 307 
C 1178 307 1094 518 1094 1005 
L 1094 2694 
L 2067 2694 
L 2067 2995 
L 1094 2995 
L 1094 3674 
L 858 3674 
L 582 3078 
L 160 2893 
L 160 2694 
L 563 2694 
z
" transform="scale(0.015625)"/>
       </defs>
       <use xlink:href="#CharterBT-Roman-4a"/>
       <use xlink:href="#CharterBT-Roman-61" transform="translate(44.399994 0)"/>
       <use xlink:href="#CharterBT-Roman-76" transform="translate(95.099991 0)"/>
       <use xlink:href="#CharterBT-Roman-65" transform="translate(144.499985 0)"/>
       <use xlink:href="#CharterBT-Roman-72" transform="translate(193.599976 0)"/>
       <use xlink:href="#CharterBT-Roman-74" transform="translate(231.799973 0)"/>
      </g>
     </g>
    </g>
    <g id="ytick_5">
     <g id="line2d_10">
      <g>
       <use xlink:href="#m4b68caded6" x="64.1365" y="106.992" style="fill: #262626; stroke: #262626"/>
      </g>
     </g>
     <g id="text_10">
      <!-- Gavroche -->
      <g style="fill: #262626" transform="translate(19.60525 110.230125) scale(0.088 -0.088)">
       <defs>
        <path id="CharterBT-Roman-47" d="M 2669 2061 
L 2669 1798 
L 3123 1766 
L 3232 1677 
L 3232 346 
C 2982 288 2765 262 2579 262 
C 1574 262 934 986 934 2195 
C 934 3347 1549 4032 2528 4032 
C 2784 4032 3021 3974 3258 3866 
L 3347 3750 
L 3443 3168 
L 3802 3168 
L 3802 4186 
C 3379 4307 2963 4371 2573 4371 
C 1158 4371 275 3501 275 2150 
C 275 1312 691 570 1382 179 
C 1677 13 2054 -77 2483 -77 
C 2861 -77 3302 0 3808 147 
L 3808 1677 
L 3917 1766 
L 4269 1798 
L 4269 2061 
L 2669 2061 
z
" transform="scale(0.015625)"/>
        <path id="CharterBT-Roman-6f" d="M 1722 3142 
C 858 3142 237 2496 237 1542 
C 237 595 864 -58 1722 -58 
C 2579 -58 3213 595 3213 1542 
C 3213 2490 2586 3142 1722 3142 
z
M 1722 2867 
C 2240 2867 2611 2368 2611 1542 
C 2611 710 2240 218 1722 218 
C 1210 218 838 717 838 1542 
C 838 2374 1203 2867 1722 2867 
z
" transform="scale(0.015625)"/>
        <path id="CharterBT-Roman-63" d="M 2720 269 
L 2720 602 
C 2451 422 2189 333 1907 333 
C 1242 333 819 800 819 1587 
C 819 2394 1210 2886 1760 2886 
C 1869 2886 1971 2854 2067 2797 
L 2067 2272 
C 2163 2208 2259 2176 2355 2176 
C 2573 2176 2714 2310 2714 2515 
C 2714 2886 2368 3142 1754 3142 
C 858 3142 237 2496 237 1542 
C 237 595 806 -45 1677 -45 
C 2022 -45 2368 64 2720 269 
z
" transform="scale(0.015625)"/>
       </defs>
       <use xlink:href="#CharterBT-Roman-47"/>
       <use xlink:href="#CharterBT-Roman-61" transform="translate(69.399994 0)"/>
       <use xlink:href="#CharterBT-Roman-76" transform="translate(120.099991 0)"/>
       <use xlink:href="#CharterBT-Roman-72" transform="translate(169.499985 0)"/>
       <use xlink:href="#CharterBT-Roman-6f" transform="translate(207.699982 0)"/>
       <use xlink:href="#CharterBT-Roman-63" transform="translate(261.599976 0)"/>
       <use xlink:href="#CharterBT-Roman-68" transform="translate(306.199966 0)"/>
       <use xlink:href="#CharterBT-Roman-65" transform="translate(362.59996 0)"/>
      </g>
     </g>
    </g>
    <g id="ytick_6">
     <g id="line2d_11">
      <g>
       <use xlink:href="#m4b68caded6" x="64.1365" y="129.168" style="fill: #262626; stroke: #262626"/>
      </g>
     </g>
     <g id="text_11">
      <!-- Cosette -->
      <g style="fill: #262626" transform="translate(27.490875 132.406125) scale(0.088 -0.088)">
       <defs>
        <path id="CharterBT-Roman-43" d="M 3763 147 
L 3763 1158 
L 3405 1158 
L 3264 448 
L 3162 346 
C 2970 288 2784 262 2605 262 
C 1568 262 934 979 934 2195 
C 934 3341 1555 4032 2509 4032 
C 2758 4032 2989 3974 3226 3866 
L 3309 3750 
L 3405 3168 
L 3763 3168 
L 3763 4154 
C 3296 4301 2874 4371 2496 4371 
C 1165 4371 275 3482 275 2150 
C 275 1312 698 570 1382 179 
C 1677 13 2048 -77 2470 -77 
C 2899 -77 3341 0 3763 147 
z
" transform="scale(0.015625)"/>
       </defs>
       <use xlink:href="#CharterBT-Roman-43"/>
       <use xlink:href="#CharterBT-Roman-6f" transform="translate(63.199997 0)"/>
       <use xlink:href="#CharterBT-Roman-73" transform="translate(117.099991 0)"/>
       <use xlink:href="#CharterBT-Roman-65" transform="translate(157.099976 0)"/>
       <use xlink:href="#CharterBT-Roman-74" transform="translate(206.199966 0)"/>
       <use xlink:href="#CharterBT-Roman-74" transform="translate(239.59996 0)"/>
       <use xlink:href="#CharterBT-Roman-65" transform="translate(272.999954 0)"/>
      </g>
     </g>
    </g>
    <g id="ytick_7">
     <g id="line2d_12">
      <g>
       <use xlink:href="#m4b68caded6" x="64.1365" y="151.344" style="fill: #262626; stroke: #262626"/>
      </g>
     </g>
     <g id="text_12">
      <!-- Fantine -->
      <g style="fill: #262626" transform="translate(26.9285 154.582125) scale(0.088 -0.088)">
       <defs>
        <path id="CharterBT-Roman-46" d="M 211 0 
L 1824 0 
L 1824 262 
L 1370 294 
L 1261 384 
L 1261 2022 
L 2310 2022 
L 2400 1926 
L 2464 1459 
L 2765 1459 
L 2765 2874 
L 2464 2874 
L 2400 2406 
L 2310 2317 
L 1261 2317 
L 1261 4000 
L 2701 4000 
L 2784 3904 
L 2880 3296 
L 3232 3296 
L 3232 4294 
L 160 4294 
L 160 4038 
L 576 4000 
L 685 3910 
L 685 384 
L 576 294 
L 211 262 
L 211 0 
z
" transform="scale(0.015625)"/>
       </defs>
       <use xlink:href="#CharterBT-Roman-46"/>
       <use xlink:href="#CharterBT-Roman-61" transform="translate(53.699997 0)"/>
       <use xlink:href="#CharterBT-Roman-6e" transform="translate(104.399994 0)"/>
       <use xlink:href="#CharterBT-Roman-74" transform="translate(161.199982 0)"/>
       <use xlink:href="#CharterBT-Roman-69" transform="translate(194.599976 0)"/>
       <use xlink:href="#CharterBT-Roman-6e" transform="translate(222.59996 0)"/>
       <use xlink:href="#CharterBT-Roman-65" transform="translate(279.399948 0)"/>
      </g>
     </g>
    </g>
    <g id="ytick_8">
     <g id="line2d_13">
      <g>
       <use xlink:href="#m4b68caded6" x="64.1365" y="173.52" style="fill: #262626; stroke: #262626"/>
      </g>
     </g>
     <g id="text_13">
      <!-- Enjolras -->
      <g style="fill: #262626" transform="translate(24.8605 176.758125) scale(0.088 -0.088)">
       <defs>
        <path id="CharterBT-Roman-45" d="M 211 0 
L 3507 0 
L 3507 1043 
L 3174 1043 
L 3066 397 
L 2976 294 
L 1261 294 
L 1261 2086 
L 2310 2086 
L 2400 1990 
L 2464 1530 
L 2765 1530 
L 2765 2938 
L 2464 2938 
L 2400 2470 
L 2310 2381 
L 1261 2381 
L 1261 4000 
L 2739 4000 
L 2829 3904 
L 2918 3360 
L 3277 3360 
L 3277 4294 
L 211 4294 
L 211 4038 
L 576 4000 
L 685 3910 
L 685 384 
L 576 294 
L 211 262 
L 211 0 
z
" transform="scale(0.015625)"/>
       </defs>
       <use xlink:href="#CharterBT-Roman-45"/>
       <use xlink:href="#CharterBT-Roman-6e" transform="translate(57.599991 0)"/>
       <use xlink:href="#CharterBT-Roman-6a" transform="translate(114.399979 0)"/>
       <use xlink:href="#CharterBT-Roman-6f" transform="translate(140.999969 0)"/>
       <use xlink:href="#CharterBT-Roman-6c" transform="translate(194.899963 0)"/>
       <use xlink:href="#CharterBT-Roman-72" transform="translate(223.09996 0)"/>
       <use xlink:href="#CharterBT-Roman-61" transform="translate(261.299957 0)"/>
       <use xlink:href="#CharterBT-Roman-73" transform="translate(311.999954 0)"/>
      </g>
     </g>
    </g>
    <g id="ytick_9">
     <g id="line2d_14">
      <g>
       <use xlink:href="#m4b68caded6" x="64.1365" y="195.696" style="fill: #262626; stroke: #262626"/>
      </g>
     </g>
     <g id="text_14">
      <!-- Eponine -->
      <g style="fill: #262626" transform="translate(24.39575 198.934125) scale(0.088 -0.088)">
       <defs>
        <path id="CharterBT-Roman-70" d="M 147 -1395 
L 1651 -1395 
L 1651 -1165 
L 1242 -1133 
L 1133 -1030 
L 1133 38 
C 1370 0 1568 -19 1728 -19 
C 2675 -19 3302 634 3302 1645 
C 3302 2541 2778 3142 2074 3142 
C 1773 3142 1472 3014 1133 2758 
L 1133 3110 
L 890 3110 
L 147 2880 
L 147 2682 
L 602 2682 
L 602 -1030 
L 493 -1133 
L 147 -1165 
L 147 -1395 
z
M 1133 371 
L 1133 2522 
C 1376 2662 1587 2739 1805 2739 
C 2362 2739 2739 2298 2739 1562 
C 2739 774 2304 269 1677 269 
C 1523 269 1344 301 1133 371 
z
" transform="scale(0.015625)"/>
       </defs>
       <use xlink:href="#CharterBT-Roman-45"/>
       <use xlink:href="#CharterBT-Roman-70" transform="translate(57.599991 0)"/>
       <use xlink:href="#CharterBT-Roman-6f" transform="translate(112.699982 0)"/>
       <use xlink:href="#CharterBT-Roman-6e" transform="translate(166.599976 0)"/>
       <use xlink:href="#CharterBT-Roman-69" transform="translate(223.399963 0)"/>
       <use xlink:href="#CharterBT-Roman-6e" transform="translate(251.399948 0)"/>
       <use xlink:href="#CharterBT-Roman-65" transform="translate(308.199936 0)"/>
      </g>
     </g>
    </g>
    <g id="ytick_10">
     <g id="line2d_15">
      <g>
       <use xlink:href="#m4b68caded6" x="64.1365" y="217.872" style="fill: #262626; stroke: #262626"/>
      </g>
     </g>
     <g id="text_15">
      <!-- Courfeyrac -->
      <g style="fill: #262626" transform="translate(13.91275 221.145875) scale(0.088 -0.088)">
       <defs>
        <path id="CharterBT-Roman-66" d="M 186 0 
L 1677 0 
L 1677 230 
L 1280 262 
L 1171 365 
L 1171 2694 
L 2067 2694 
L 2067 2995 
L 1178 2995 
L 1178 3462 
C 1178 4000 1318 4333 1594 4461 
L 2176 4077 
C 2342 4122 2438 4243 2438 4397 
C 2438 4602 2234 4762 1939 4762 
C 1184 4762 640 4128 640 3066 
L 640 2995 
L 230 2899 
L 230 2694 
L 640 2694 
L 640 365 
L 525 262 
L 186 230 
L 186 0 
z
" transform="scale(0.015625)"/>
        <path id="CharterBT-Roman-79" d="M -6 3078 
L -6 2842 
L 384 2803 
L 1459 26 
C 1299 -429 1114 -749 941 -934 
L 326 -691 
C 218 -794 160 -909 160 -1037 
C 160 -1248 333 -1395 602 -1395 
C 1018 -1395 1325 -1043 1626 -320 
L 2906 2790 
L 3277 2842 
L 3277 3078 
L 2138 3078 
L 2138 2842 
L 2483 2816 
L 2534 2714 
L 1734 723 
L 966 2714 
L 1043 2816 
L 1382 2842 
L 1382 3078 
L -6 3078 
z
" transform="scale(0.015625)"/>
       </defs>
       <use xlink:href="#CharterBT-Roman-43"/>
       <use xlink:href="#CharterBT-Roman-6f" transform="translate(63.199997 0)"/>
       <use xlink:href="#CharterBT-Roman-75" transform="translate(117.099991 0)"/>
       <use xlink:href="#CharterBT-Roman-72" transform="translate(173.999985 0)"/>
       <use xlink:href="#CharterBT-Roman-66" transform="translate(212.199982 0)"/>
       <use xlink:href="#CharterBT-Roman-65" transform="translate(244.299973 0)"/>
       <use xlink:href="#CharterBT-Roman-79" transform="translate(293.399963 0)"/>
       <use xlink:href="#CharterBT-Roman-72" transform="translate(342.899948 0)"/>
       <use xlink:href="#CharterBT-Roman-61" transform="translate(381.099945 0)"/>
       <use xlink:href="#CharterBT-Roman-63" transform="translate(431.799942 0)"/>
      </g>
     </g>
    </g>
   </g>
   <g id="patch_3">
    <path d="M 64.1365 9.4176 
L 223.565071 9.4176 
L 223.565071 27.1584 
L 64.1365 27.1584 
z
" clip-path="url(#pe2c322789e)" style="fill: #72b6a1; stroke: #ffffff; stroke-width: 0.8; stroke-linejoin: miter"/>
   </g>
   <g id="patch_4">
    <path d="M 64.1365 31.5936 
L 194.695699 31.5936 
L 194.695699 49.3344 
L 64.1365 49.3344 
z
" clip-path="url(#pe2c322789e)" style="fill: #72b6a1; stroke: #ffffff; stroke-width: 0.8; stroke-linejoin: miter"/>
   </g>
   <g id="patch_5">
    <path d="M 64.1365 53.7696 
L 178.794819 53.7696 
L 178.794819 71.5104 
L 64.1365 71.5104 
z
" clip-path="url(#pe2c322789e)" style="fill: #72b6a1; stroke: #ffffff; stroke-width: 0.8; stroke-linejoin: miter"/>
   </g>
   <g id="patch_6">
    <path d="M 64.1365 75.9456 
L 148.689804 75.9456 
L 148.689804 93.6864 
L 64.1365 93.6864 
z
" clip-path="url(#pe2c322789e)" style="fill: #72b6a1; stroke: #ffffff; stroke-width: 0.8; stroke-linejoin: miter"/>
   </g>
   <g id="patch_7">
    <path d="M 64.1365 98.1216 
L 145.641543 98.1216 
L 145.641543 115.8624 
L 64.1365 115.8624 
z
" clip-path="url(#pe2c322789e)" style="fill: #72b6a1; stroke: #ffffff; stroke-width: 0.8; stroke-linejoin: miter"/>
   </g>
   <g id="patch_8">
    <path d="M 64.1365 120.2976 
L 142.975273 120.2976 
L 142.975273 138.0384 
L 64.1365 138.0384 
z
" clip-path="url(#pe2c322789e)" style="fill: #72b6a1; stroke: #ffffff; stroke-width: 0.8; stroke-linejoin: miter"/>
   </g>
   <g id="patch_9">
    <path d="M 64.1365 142.4736 
L 141.61217 142.4736 
L 141.61217 160.2144 
L 64.1365 160.2144 
z
" clip-path="url(#pe2c322789e)" style="fill: #72b6a1; stroke: #ffffff; stroke-width: 0.8; stroke-linejoin: miter"/>
   </g>
   <g id="patch_10">
    <path d="M 64.1365 164.6496 
L 141.03034 164.6496 
L 141.03034 182.3904 
L 64.1365 182.3904 
z
" clip-path="url(#pe2c322789e)" style="fill: #72b6a1; stroke: #ffffff; stroke-width: 0.8; stroke-linejoin: miter"/>
   </g>
   <g id="patch_11">
    <path d="M 64.1365 186.8256 
L 140.678028 186.8256 
L 140.678028 204.5664 
L 64.1365 204.5664 
z
" clip-path="url(#pe2c322789e)" style="fill: #72b6a1; stroke: #ffffff; stroke-width: 0.8; stroke-linejoin: miter"/>
   </g>
   <g id="patch_12">
    <path d="M 64.1365 209.0016 
L 122.695256 209.0016 
L 122.695256 226.7424 
L 64.1365 226.7424 
z
" clip-path="url(#pe2c322789e)" style="fill: #72b6a1; stroke: #ffffff; stroke-width: 0.8; stroke-linejoin: miter"/>
   </g>
   <g id="line2d_16">
    <path clip-path="url(#pe2c322789e)" style="fill: none; stroke: #424242; stroke-width: 1.8; stroke-linecap: round"/>
   </g>
   <g id="line2d_17">
    <path clip-path="url(#pe2c322789e)" style="fill: none; stroke: #424242; stroke-width: 1.8; stroke-linecap: round"/>
   </g>
   <g id="line2d_18">
    <path clip-path="url(#pe2c322789e)" style="fill: none; stroke: #424242; stroke-width: 1.8; stroke-linecap: round"/>
   </g>
   <g id="line2d_19">
    <path clip-path="url(#pe2c322789e)" style="fill: none; stroke: #424242; stroke-width: 1.8; stroke-linecap: round"/>
   </g>
   <g id="line2d_20">
    <path clip-path="url(#pe2c322789e)" style="fill: none; stroke: #424242; stroke-width: 1.8; stroke-linecap: round"/>
   </g>
   <g id="line2d_21">
    <path clip-path="url(#pe2c322789e)" style="fill: none; stroke: #424242; stroke-width: 1.8; stroke-linecap: round"/>
   </g>
   <g id="line2d_22">
    <path clip-path="url(#pe2c322789e)" style="fill: none; stroke: #424242; stroke-width: 1.8; stroke-linecap: round"/>
   </g>
   <g id="line2d_23">
    <path clip-path="url(#pe2c322789e)" style="fill: none; stroke: #424242; stroke-width: 1.8; stroke-linecap: round"/>
   </g>
   <g id="line2d_24">
    <path clip-path="url(#pe2c322789e)" style="fill: none; stroke: #424242; stroke-width: 1.8; stroke-linecap: round"/>
   </g>
   <g id="line2d_25">
    <path clip-path="url(#pe2c322789e)" style="fill: none; stroke: #424242; stroke-width: 1.8; stroke-linecap: round"/>
   </g>
   <g id="patch_13">
    <path d="M 64.1365 228.96 
L 64.1365 7.2 
" style="fill: none; stroke: #262626; stroke-linejoin: miter; stroke-linecap: square"/>
   </g>
   <g id="patch_14">
    <path d="M 231.5365 228.96 
L 231.5365 7.2 
" style="fill: none; stroke: #262626; stroke-linejoin: miter; stroke-linecap: square"/>
   </g>
   <g id="patch_15">
    <path d="M 64.1365 228.96 
L 231.5365 228.96 
" style="fill: none; stroke: #262626; stroke-linejoin: miter; stroke-linecap: square"/>
   </g>
   <g id="patch_16">
    <path d="M 64.1365 7.2 
L 231.5365 7.2 
" style="fill: none; stroke: #262626; stroke-linejoin: miter; stroke-linecap: square"/>
   </g>
  </g>
 </g>
 <defs>
  <clipPath id="pe2c322789e">
   <rect x="64.1365" y="7.2" width="167.4" height="221.76"/>
  </clipPath>
 </defs>
</svg>
