<?xml version="1.0" encoding="utf-8" standalone="no"?>
<!DOCTYPE svg PUBLIC "-//W3C//DTD SVG 1.1//EN"
  "http://www.w3.org/Graphics/SVG/1.1/DTD/svg11.dtd">
<svg xmlns:xlink="http://www.w3.org/1999/xlink" width="83.392pt" height="236.16pt" viewBox="0 0 83.392 236.16" xmlns="http://www.w3.org/2000/svg" version="1.1">
 <metadata>
  <rdf:RDF xmlns:dc="http://purl.org/dc/elements/1.1/" xmlns:cc="http://creativecommons.org/ns#" xmlns:rdf="http://www.w3.org/1999/02/22-rdf-syntax-ns#">
   <cc:Work>
    <dc:type rdf:resource="http://purl.org/dc/dcmitype/StillImage"/>
    <dc:date>2025-05-20T16:55:16.577012</dc:date>
    <dc:format>image/svg+xml</dc:format>
    <dc:creator>
     <cc:Agent>
      <dc:title>Matplotlib v3.10.1, https://matplotlib.org/</dc:title>
     </cc:Agent>
    </dc:creator>
   </cc:Work>
  </rdf:RDF>
 </metadata>
 <defs>
  <style type="text/css">*{stroke-linejoin: round; stroke-linecap: butt}</style>
 </defs>
 <g id="figure_1">
  <g id="patch_1">
   <path d="M 0 236.16 
L 83.392 236.16 
L 83.392 0 
L 0 0 
z
" style="fill: #ffffff"/>
  </g>
  <g id="axes_1">
   <g id="LineCollection_1">
    <path d="M 19.296 185.28 
L 64.096 39.68 
" clip-path="url(#pd804856181)" style="fill: none; stroke: #fc628e; stroke-width: 4"/>
    <path d="M 19.296 185.28 
L 64.096 17.28 
" clip-path="url(#pd804856181)" style="fill: none; stroke: #fc628e; stroke-width: 4"/>
    <path d="M 19.296 185.28 
L 64.096 106.88 
" clip-path="url(#pd804856181)" style="fill: none; stroke: #fc628e; stroke-width: 4"/>
    <path d="M 19.296 185.28 
L 64.096 196.48 
" clip-path="url(#pd804856181)" style="fill: none; stroke: #fc628e; stroke-width: 4"/>
    <path d="M 19.296 140.48 
L 64.096 106.88 
" clip-path="url(#pd804856181)" style="fill: none; stroke: #8dcba0; stroke-width: 4"/>
    <path d="M 19.296 140.48 
L 64.096 129.28 
" clip-path="url(#pd804856181)" style="fill: none; stroke: #8dcba0; stroke-width: 4"/>
    <path d="M 19.296 140.48 
L 64.096 218.88 
" clip-path="url(#pd804856181)" style="fill: none; stroke: #8dcba0; stroke-width: 4"/>
    <path d="M 19.296 140.48 
L 64.096 62.08 
" clip-path="url(#pd804856181)" style="fill: none; stroke: #8dcba0; stroke-width: 4"/>
    <path d="M 19.296 95.68 
L 64.096 84.48 
" clip-path="url(#pd804856181)" style="fill: none; stroke: #e7c38a; stroke-width: 4"/>
    <path d="M 19.296 95.68 
L 64.096 174.08 
" clip-path="url(#pd804856181)" style="fill: none; stroke: #e7c38a; stroke-width: 4"/>
    <path d="M 19.296 95.68 
L 64.096 129.28 
" clip-path="url(#pd804856181)" style="fill: none; stroke: #e7c38a; stroke-width: 4"/>
    <path d="M 19.296 95.68 
L 64.096 62.08 
" clip-path="url(#pd804856181)" style="fill: none; stroke: #e7c38a; stroke-width: 4"/>
    <path d="M 19.296 50.88 
L 64.096 151.68 
" clip-path="url(#pd804856181)" style="fill: none; stroke: #abd7e6; stroke-width: 4"/>
    <path d="M 19.296 50.88 
L 64.096 62.08 
" clip-path="url(#pd804856181)" style="fill: none; stroke: #abd7e6; stroke-width: 4"/>
    <path d="M 19.296 50.88 
L 64.096 129.28 
" clip-path="url(#pd804856181)" style="fill: none; stroke: #abd7e6; stroke-width: 4"/>
   </g>
   <g id="PathCollection_1">
    <defs>
     <path id="C0_0_bde5253378" d="M 0 8.660254 
C 2.296726 8.660254 4.499694 7.747755 6.123724 6.123724 
C 7.747755 4.499694 8.660254 2.296726 8.660254 -0 
C 8.660254 -2.296726 7.747755 -4.499694 6.123724 -6.123724 
C 4.499694 -7.747755 2.296726 -8.660254 0 -8.660254 
C -2.296726 -8.660254 -4.499694 -7.747755 -6.123724 -6.123724 
C -7.747755 -4.499694 -8.660254 -2.296726 -8.660254 0 
C -8.660254 2.296726 -7.747755 4.499694 -6.123724 6.123724 
C -4.499694 7.747755 -2.296726 8.660254 0 8.660254 
z
"/>
    </defs>
    <g clip-path="url(#pd804856181)">
     <use xlink:href="#C0_0_bde5253378" x="19.296" y="185.28" style="fill: #fc628e; stroke: #666666"/>
    </g>
    <g clip-path="url(#pd804856181)">
     <use xlink:href="#C0_0_bde5253378" x="19.296" y="140.48" style="fill: #8dcba0; stroke: #666666"/>
    </g>
    <g clip-path="url(#pd804856181)">
     <use xlink:href="#C0_0_bde5253378" x="19.296" y="95.68" style="fill: #e7c38a; stroke: #666666"/>
    </g>
    <g clip-path="url(#pd804856181)">
     <use xlink:href="#C0_0_bde5253378" x="19.296" y="50.88" style="fill: #abd7e6; stroke: #666666"/>
    </g>
    <g clip-path="url(#pd804856181)">
     <use xlink:href="#C0_0_bde5253378" x="64.096" y="218.88" style="fill: #c8c8c8; stroke: #666666"/>
    </g>
    <g clip-path="url(#pd804856181)">
     <use xlink:href="#C0_0_bde5253378" x="64.096" y="196.48" style="fill: #c8c8c8; stroke: #666666"/>
    </g>
    <g clip-path="url(#pd804856181)">
     <use xlink:href="#C0_0_bde5253378" x="64.096" y="174.08" style="fill: #c8c8c8; stroke: #666666"/>
    </g>
    <g clip-path="url(#pd804856181)">
     <use xlink:href="#C0_0_bde5253378" x="64.096" y="151.68" style="fill: #c8c8c8; stroke: #666666"/>
    </g>
    <g clip-path="url(#pd804856181)">
     <use xlink:href="#C0_0_bde5253378" x="64.096" y="129.28" style="fill: #c8c8c8; stroke: #666666"/>
    </g>
    <g clip-path="url(#pd804856181)">
     <use xlink:href="#C0_0_bde5253378" x="64.096" y="106.88" style="fill: #c8c8c8; stroke: #666666"/>
    </g>
    <g clip-path="url(#pd804856181)">
     <use xlink:href="#C0_0_bde5253378" x="64.096" y="84.48" style="fill: #c8c8c8; stroke: #666666"/>
    </g>
    <g clip-path="url(#pd804856181)">
     <use xlink:href="#C0_0_bde5253378" x="64.096" y="62.08" style="fill: #c8c8c8; stroke: #666666"/>
    </g>
    <g clip-path="url(#pd804856181)">
     <use xlink:href="#C0_0_bde5253378" x="64.096" y="39.68" style="fill: #c8c8c8; stroke: #666666"/>
    </g>
    <g clip-path="url(#pd804856181)">
     <use xlink:href="#C0_0_bde5253378" x="64.096" y="17.28" style="fill: #c8c8c8; stroke: #666666"/>
    </g>
   </g>
   <g id="text_1">
    <g clip-path="url(#pd804856181)">
     <!-- x_4 -->
     <g style="fill: #4c4c4c" transform="translate(12.8485 187.225) scale(0.08 -0.08)">
      <defs>
       <path id="CharterBT-Bold-78" d="M 90 3117 
L 90 2822 
L 454 2771 
L 1344 1498 
L 448 352 
L 70 282 
L 70 0 
L 1312 0 
L 1312 282 
L 986 346 
L 1587 1229 
L 2150 371 
L 2125 307 
L 1901 250 
L 1901 0 
L 3398 0 
L 3398 282 
L 3059 339 
L 2106 1715 
L 2925 2778 
L 3277 2822 
L 3277 3117 
L 2099 3117 
L 2099 2835 
L 2426 2778 
L 1869 1978 
L 1357 2739 
L 1389 2810 
L 1632 2848 
L 1632 3117 
L 90 3117 
z
" transform="scale(0.015625)"/>
       <path id="CharterBT-Bold-5f" d="M 3200 -973 
L 0 -973 
L 0 -1510 
L 3200 -1510 
L 3200 -973 
z
" transform="scale(0.015625)"/>
       <path id="CharterBT-Bold-34" d="M 2272 4333 
L 160 1677 
L 160 1158 
L 2150 1158 
L 2150 -198 
L 2899 -198 
L 2899 1158 
L 3622 1158 
L 3622 1664 
L 2899 1664 
L 2899 4333 
L 2272 4333 
z
M 2150 3450 
L 2150 1664 
L 742 1664 
L 2150 3450 
z
" transform="scale(0.015625)"/>
      </defs>
      <use xlink:href="#CharterBT-Bold-78"/>
      <use xlink:href="#CharterBT-Bold-5f" transform="translate(53.099991 0)"/>
      <use xlink:href="#CharterBT-Bold-34" transform="translate(103.099976 0)"/>
     </g>
    </g>
   </g>
   <g id="text_2">
    <g clip-path="url(#pd804856181)">
     <!-- x_3 -->
     <g style="fill: #4c4c4c" transform="translate(12.8485 142.425) scale(0.08 -0.08)">
      <defs>
       <path id="CharterBT-Bold-33" d="M 2138 2259 
C 2829 2419 3187 2778 3187 3283 
C 3187 3904 2650 4365 1798 4365 
C 928 4365 371 3942 371 3482 
C 371 3226 557 3040 832 3040 
C 966 3040 1069 3066 1171 3130 
L 1171 3878 
C 1299 3930 1421 3955 1530 3955 
C 1997 3955 2323 3642 2323 3194 
C 2323 2701 1984 2406 1382 2406 
C 1325 2406 1261 2406 1197 2413 
L 1197 1952 
C 1370 1978 1504 1984 1594 1984 
C 2138 1984 2477 1664 2477 1197 
C 2477 698 2106 307 1619 307 
C 1491 307 1344 339 1178 403 
L 973 1094 
C 877 1126 800 1146 723 1146 
C 448 1146 269 979 269 730 
C 269 307 774 -70 1562 -70 
C 2662 -70 3347 512 3347 1235 
C 3347 1818 2918 2202 2138 2259 
z
" transform="scale(0.015625)"/>
      </defs>
      <use xlink:href="#CharterBT-Bold-78"/>
      <use xlink:href="#CharterBT-Bold-5f" transform="translate(53.099991 0)"/>
      <use xlink:href="#CharterBT-Bold-33" transform="translate(103.099976 0)"/>
     </g>
    </g>
   </g>
   <g id="text_3">
    <g clip-path="url(#pd804856181)">
     <!-- x_2 -->
     <g style="fill: #4c4c4c" transform="translate(12.8485 97.625) scale(0.08 -0.08)">
      <defs>
       <path id="CharterBT-Bold-32" d="M 1107 653 
C 2528 1619 3270 2304 3270 3123 
C 3270 3866 2726 4371 1869 4371 
C 947 4371 365 3923 365 3392 
C 365 3123 544 2944 826 2944 
C 954 2944 1088 2982 1229 3059 
L 1229 3885 
C 1357 3936 1485 3962 1600 3962 
C 2086 3962 2387 3635 2387 3066 
C 2387 2266 1658 1555 307 506 
L 307 0 
L 3405 0 
L 3405 1216 
L 3014 1216 
L 2899 653 
L 1107 653 
z
" transform="scale(0.015625)"/>
      </defs>
      <use xlink:href="#CharterBT-Bold-78"/>
      <use xlink:href="#CharterBT-Bold-5f" transform="translate(53.099991 0)"/>
      <use xlink:href="#CharterBT-Bold-32" transform="translate(103.099976 0)"/>
     </g>
    </g>
   </g>
   <g id="text_4">
    <g clip-path="url(#pd804856181)">
     <!-- x_1 -->
     <g style="fill: #4c4c4c" transform="translate(12.8485 52.825) scale(0.08 -0.08)">
      <defs>
       <path id="CharterBT-Bold-31" d="M 2080 4358 
L 698 3891 
L 698 3565 
L 1606 3699 
L 1664 3622 
L 1664 474 
L 1587 358 
L 947 320 
L 947 0 
L 3168 0 
L 3168 320 
L 2566 346 
L 2496 448 
L 2496 4358 
L 2080 4358 
z
" transform="scale(0.015625)"/>
      </defs>
      <use xlink:href="#CharterBT-Bold-78"/>
      <use xlink:href="#CharterBT-Bold-5f" transform="translate(53.099991 0)"/>
      <use xlink:href="#CharterBT-Bold-31" transform="translate(103.099976 0)"/>
     </g>
    </g>
   </g>
   <g id="text_5">
    <g clip-path="url(#pd804856181)">
     <!-- a -->
     <g style="fill: #4c4c4c" transform="translate(61.91975 220.96) scale(0.08 -0.08)">
      <defs>
       <path id="CharterBT-Bold-61" d="M 2195 365 
L 2278 0 
L 3418 0 
L 3418 282 
L 3078 314 
L 2995 403 
L 2995 2061 
C 2995 2880 2694 3194 1798 3194 
C 954 3194 403 2816 403 2451 
C 403 2278 506 2214 698 2214 
L 1286 2214 
L 1286 2816 
C 1402 2842 1498 2854 1594 2854 
C 2016 2854 2202 2650 2202 2189 
L 2202 1997 
C 864 1696 256 1510 256 774 
C 256 288 602 -58 1094 -58 
C 1440 -58 1786 90 2195 365 
z
M 2195 627 
C 1946 499 1741 435 1574 435 
C 1280 435 1101 621 1101 915 
C 1101 1338 1440 1504 2195 1670 
L 2195 627 
z
" transform="scale(0.015625)"/>
      </defs>
      <use xlink:href="#CharterBT-Bold-61"/>
     </g>
    </g>
   </g>
   <g id="text_6">
    <g clip-path="url(#pd804856181)">
     <!-- b -->
     <g style="fill: #4c4c4c" transform="translate(61.787875 198.56) scale(0.08 -0.08)">
      <defs>
       <path id="CharterBT-Bold-62" d="M 1005 4730 
L 58 4429 
L 58 4179 
L 518 4179 
L 518 6 
L 1229 -6 
L 1402 -6 
C 1894 -6 2253 45 2490 147 
C 3149 442 3501 992 3501 1734 
C 3501 2598 2970 3187 2240 3187 
C 1958 3187 1658 3091 1312 2899 
L 1312 4730 
L 1005 4730 
z
M 1312 346 
L 1312 2637 
C 1466 2669 1600 2688 1715 2688 
C 2304 2688 2643 2298 2643 1568 
C 2643 730 2291 339 1517 339 
C 1453 339 1382 339 1312 346 
z
" transform="scale(0.015625)"/>
      </defs>
      <use xlink:href="#CharterBT-Bold-62"/>
     </g>
    </g>
   </g>
   <g id="text_7">
    <g clip-path="url(#pd804856181)">
     <!-- c -->
     <g style="fill: #4c4c4c" transform="translate(62.19225 176.16) scale(0.08 -0.08)">
      <defs>
       <path id="CharterBT-Bold-63" d="M 2970 288 
L 2970 742 
C 2656 550 2355 454 2080 454 
C 1485 454 1094 909 1094 1677 
C 1094 2406 1485 2867 1933 2867 
C 1978 2867 2029 2861 2093 2848 
L 2093 2170 
C 2208 2086 2330 2048 2470 2048 
C 2746 2048 2931 2234 2931 2483 
C 2931 2874 2534 3181 1875 3181 
C 915 3181 224 2496 224 1523 
C 224 595 832 -51 1760 -51 
C 2170 -51 2560 64 2970 288 
z
" transform="scale(0.015625)"/>
      </defs>
      <use xlink:href="#CharterBT-Bold-63"/>
     </g>
    </g>
   </g>
   <g id="text_8">
    <g clip-path="url(#pd804856181)">
     <!-- d -->
     <g style="fill: #4c4c4c" transform="translate(61.71225 153.76) scale(0.08 -0.08)">
      <defs>
       <path id="CharterBT-Bold-64" d="M 2490 4173 
L 2490 3136 
C 2259 3181 2061 3200 1888 3200 
C 915 3200 237 2515 237 1485 
C 237 563 762 -58 1478 -58 
C 1805 -58 2125 90 2490 358 
L 2490 0 
L 3686 0 
L 3686 282 
L 3360 307 
L 3270 410 
L 3270 4730 
L 2976 4730 
L 2022 4429 
L 2022 4173 
L 2490 4173 
z
M 2490 608 
C 2285 531 2106 486 1952 486 
C 1421 486 1094 902 1094 1619 
C 1094 2381 1472 2842 2016 2842 
C 2150 2842 2304 2810 2490 2746 
L 2490 608 
z
" transform="scale(0.015625)"/>
      </defs>
      <use xlink:href="#CharterBT-Bold-64"/>
     </g>
    </g>
   </g>
   <g id="text_9">
    <g clip-path="url(#pd804856181)">
     <!-- e -->
     <g style="fill: #4c4c4c" transform="translate(61.99975 131.36) scale(0.08 -0.08)">
      <defs>
       <path id="CharterBT-Bold-65" d="M 3142 794 
C 2771 557 2426 442 2086 442 
C 1453 442 1056 877 1056 1613 
L 1056 1632 
L 3149 1632 
L 3149 1754 
C 3149 2675 2656 3200 1818 3200 
C 896 3200 237 2528 237 1549 
C 237 582 864 -58 1818 -58 
C 2266 -58 2714 70 3142 320 
L 3142 794 
z
M 2310 1971 
L 1088 1971 
C 1107 2528 1370 2848 1754 2848 
C 2106 2848 2310 2573 2310 2042 
L 2310 1971 
z
" transform="scale(0.015625)"/>
      </defs>
      <use xlink:href="#CharterBT-Bold-65"/>
     </g>
    </g>
   </g>
   <g id="text_10">
    <g clip-path="url(#pd804856181)">
     <!-- f -->
     <g style="fill: #4c4c4c" transform="translate(62.73225 108.96) scale(0.08 -0.08)">
      <defs>
       <path id="CharterBT-Bold-66" d="M 198 0 
L 1926 0 
L 1926 294 
L 1498 326 
L 1395 422 
L 1395 2650 
L 2253 2650 
L 2253 3034 
L 1395 3034 
L 1395 3418 
L 1395 3469 
C 1395 3942 1478 4269 1645 4442 
L 2266 3891 
C 2509 3974 2637 4115 2637 4288 
C 2637 4563 2406 4755 2035 4755 
C 1773 4755 1498 4666 1261 4486 
C 819 4160 608 3699 608 3085 
L 192 2893 
L 192 2650 
L 608 2650 
L 608 429 
L 518 326 
L 198 294 
L 198 0 
z
" transform="scale(0.015625)"/>
      </defs>
      <use xlink:href="#CharterBT-Bold-66"/>
     </g>
    </g>
   </g>
   <g id="text_11">
    <g clip-path="url(#pd804856181)">
     <!-- g -->
     <g style="fill: #4c4c4c" transform="translate(61.89225 86.56) scale(0.08 -0.08)">
      <defs>
       <path id="CharterBT-Bold-67" d="M 2605 2995 
C 2291 3123 1997 3181 1722 3181 
C 870 3181 352 2733 352 2080 
C 352 1619 627 1267 1146 1120 
C 909 909 794 723 794 512 
C 794 422 819 314 877 192 
C 467 154 218 -115 218 -512 
C 218 -1037 698 -1389 1542 -1389 
C 2573 -1389 3264 -858 3264 -256 
C 3264 288 2790 480 1862 614 
L 1427 672 
C 1414 736 1408 794 1408 845 
C 1408 922 1427 998 1459 1082 
C 1523 1075 1587 1075 1645 1075 
C 2490 1075 3002 1523 3002 2138 
C 3002 2304 2957 2464 2861 2630 
L 3552 2630 
L 3552 2995 
L 2605 2995 
z
M 1709 2880 
C 1990 2880 2214 2605 2214 2144 
C 2214 1658 1997 1363 1696 1363 
C 1389 1363 1171 1651 1171 2138 
C 1171 2605 1389 2880 1709 2880 
z
M 1267 122 
L 1811 32 
C 2266 -45 2502 -134 2502 -448 
C 2502 -774 2202 -1050 1741 -1050 
C 1312 -1050 998 -755 998 -410 
C 998 -205 1088 -26 1267 122 
z
" transform="scale(0.015625)"/>
      </defs>
      <use xlink:href="#CharterBT-Bold-67"/>
     </g>
    </g>
   </g>
   <g id="text_12">
    <g clip-path="url(#pd804856181)">
     <!-- h -->
     <g style="fill: #4c4c4c" transform="translate(61.707875 64.16) scale(0.08 -0.08)">
      <defs>
       <path id="CharterBT-Bold-68" d="M 1050 4730 
L 102 4429 
L 102 4179 
L 570 4179 
L 570 410 
L 480 314 
L 154 288 
L 154 0 
L 1734 0 
L 1734 288 
L 1453 314 
L 1357 410 
L 1357 2522 
C 1600 2592 1805 2630 1971 2630 
C 2368 2630 2547 2413 2547 1939 
L 2547 410 
L 2458 314 
L 2182 288 
L 2182 0 
L 3750 0 
L 3750 288 
L 3411 314 
L 3328 410 
L 3328 2125 
C 3328 2835 3040 3187 2451 3187 
C 2163 3187 1818 3046 1357 2797 
L 1357 4730 
L 1050 4730 
z
" transform="scale(0.015625)"/>
      </defs>
      <use xlink:href="#CharterBT-Bold-68"/>
     </g>
    </g>
   </g>
   <g id="text_13">
    <g clip-path="url(#pd804856181)">
     <!-- i -->
     <g style="fill: #4c4c4c" transform="translate(62.876 41.76) scale(0.08 -0.08)">
      <defs>
       <path id="CharterBT-Bold-69" d="M 1037 4634 
C 774 4634 576 4429 576 4154 
C 576 3872 787 3680 1043 3680 
C 1312 3680 1517 3878 1517 4166 
C 1517 4429 1325 4634 1037 4634 
z
M 1107 3174 
L 205 2874 
L 205 2618 
L 627 2618 
L 627 410 
L 538 314 
L 192 288 
L 192 0 
L 1869 0 
L 1869 288 
L 1510 314 
L 1414 410 
L 1414 3174 
L 1107 3174 
z
" transform="scale(0.015625)"/>
      </defs>
      <use xlink:href="#CharterBT-Bold-69"/>
     </g>
    </g>
   </g>
   <g id="text_14">
    <g clip-path="url(#pd804856181)">
     <!-- j -->
     <g style="fill: #4c4c4c" transform="translate(62.907875 19.36) scale(0.08 -0.08)">
      <defs>
       <path id="CharterBT-Bold-6a" d="M 698 2618 
L 698 186 
C 698 -442 646 -864 486 -1082 
L -141 -499 
C -371 -544 -512 -717 -512 -922 
C -512 -1178 -288 -1370 70 -1370 
C 480 -1370 883 -1178 1133 -858 
C 1421 -486 1478 -13 1478 627 
L 1478 3174 
L 1210 3174 
L 243 2867 
L 243 2618 
L 698 2618 
z
M 602 4154 
C 602 3872 813 3680 1069 3680 
C 1331 3680 1549 3885 1549 4147 
C 1549 4429 1344 4634 1082 4634 
C 794 4634 602 4435 602 4154 
z
" transform="scale(0.015625)"/>
      </defs>
      <use xlink:href="#CharterBT-Bold-6a"/>
     </g>
    </g>
   </g>
  </g>
 </g>
 <defs>
  <clipPath id="pd804856181">
   <rect x="7.2" y="7.2" width="68.992" height="221.76"/>
  </clipPath>
 </defs>
</svg>
