<?xml version="1.0" encoding="utf-8" standalone="no"?>
<!DOCTYPE svg PUBLIC "-//W3C//DTD SVG 1.1//EN"
  "http://www.w3.org/Graphics/SVG/1.1/DTD/svg11.dtd">
<svg xmlns:xlink="http://www.w3.org/1999/xlink" width="537.130625pt" height="363.734375pt" viewBox="0 0 537.130625 363.734375" xmlns="http://www.w3.org/2000/svg" version="1.1">
 <metadata>
  <rdf:RDF xmlns:dc="http://purl.org/dc/elements/1.1/" xmlns:cc="http://creativecommons.org/ns#" xmlns:rdf="http://www.w3.org/1999/02/22-rdf-syntax-ns#">
   <cc:Work>
    <dc:type rdf:resource="http://purl.org/dc/dcmitype/StillImage"/>
    <dc:date>2025-06-16T12:40:48.953409</dc:date>
    <dc:format>image/svg+xml</dc:format>
    <dc:creator>
     <cc:Agent>
      <dc:title>Matplotlib v3.10.3, https://matplotlib.org/</dc:title>
     </cc:Agent>
    </dc:creator>
   </cc:Work>
  </rdf:RDF>
 </metadata>
 <defs>
  <style type="text/css">*{stroke-linejoin: round; stroke-linecap: butt}</style>
 </defs>
 <g id="figure_1">
  <g id="patch_1">
   <path d="M 0 363.734375 
L 537.130625 363.734375 
L 537.130625 0 
L 0 0 
L 0 363.734375 
z
" style="fill: none"/>
  </g>
  <g id="axes_1">
   <g id="patch_2">
    <path d="M 27.730625 339.84 
L 529.930625 339.84 
L 529.930625 7.2 
L 27.730625 7.2 
L 27.730625 339.84 
z
" style="fill: none"/>
   </g>
   <g id="matplotlib.axis_1">
    <g id="xtick_1">
     <g id="line2d_1">
      <defs>
       <path id="med83c42531" d="M 0 0 
L 0 4.8 
" style="stroke: #262626"/>
      </defs>
      <g>
       <use xlink:href="#med83c42531" x="45.899271" y="339.84" style="fill: #262626; stroke: #262626"/>
      </g>
     </g>
     <g id="text_1">
      <!-- 0.0 -->
      <g style="fill: #262626" transform="translate(39.783958 354.61625) scale(0.088 -0.088)">
       <defs>
        <path id="CharterBT-Roman-30" d="M 1779 4371 
C 864 4371 262 3565 262 2150 
C 262 736 864 -77 1779 -77 
C 2694 -77 3296 736 3296 2150 
C 3296 3565 2694 4371 1779 4371 
z
M 1779 4070 
C 2368 4070 2688 3418 2688 2150 
C 2688 883 2368 230 1779 230 
C 1190 230 864 877 864 2144 
C 864 3418 1190 4070 1779 4070 
z
" transform="scale(0.015625)"/>
        <path id="CharterBT-Roman-2e" d="M 890 755 
C 666 755 480 576 480 346 
C 480 115 666 -58 890 -58 
C 1114 -58 1293 122 1293 346 
C 1293 576 1114 755 890 755 
z
" transform="scale(0.015625)"/>
       </defs>
       <use xlink:href="#CharterBT-Roman-30"/>
       <use xlink:href="#CharterBT-Roman-2e" transform="translate(55.599991 0)"/>
       <use xlink:href="#CharterBT-Roman-30" transform="translate(83.399979 0)"/>
      </g>
     </g>
    </g>
    <g id="xtick_2">
     <g id="line2d_2">
      <g>
       <use xlink:href="#med83c42531" x="139.071812" y="339.84" style="fill: #262626; stroke: #262626"/>
      </g>
     </g>
     <g id="text_2">
      <!-- 0.2 -->
      <g style="fill: #262626" transform="translate(132.9565 354.61625) scale(0.088 -0.088)">
       <defs>
        <path id="CharterBT-Roman-32" d="M 902 506 
C 2317 1632 3091 2355 3091 3162 
C 3091 3885 2586 4371 1760 4371 
C 966 4371 403 3917 403 3469 
C 403 3251 538 3110 762 3110 
C 864 3110 960 3142 1050 3206 
L 1050 3891 
C 1242 4000 1427 4045 1619 4045 
C 2150 4045 2470 3686 2470 3078 
C 2470 2240 1670 1542 269 403 
L 269 0 
L 3232 0 
L 3232 1050 
L 2944 1050 
L 2829 506 
L 902 506 
z
" transform="scale(0.015625)"/>
       </defs>
       <use xlink:href="#CharterBT-Roman-30"/>
       <use xlink:href="#CharterBT-Roman-2e" transform="translate(55.599991 0)"/>
       <use xlink:href="#CharterBT-Roman-32" transform="translate(83.399979 0)"/>
      </g>
     </g>
    </g>
    <g id="xtick_3">
     <g id="line2d_3">
      <g>
       <use xlink:href="#med83c42531" x="232.244354" y="339.84" style="fill: #262626; stroke: #262626"/>
      </g>
     </g>
     <g id="text_3">
      <!-- 0.4 -->
      <g style="fill: #262626" transform="translate(226.129042 354.61625) scale(0.088 -0.088)">
       <defs>
        <path id="CharterBT-Roman-34" d="M 2355 4333 
L 173 1658 
L 173 1242 
L 2234 1242 
L 2234 -237 
L 2726 -237 
L 2726 1242 
L 3450 1242 
L 3450 1658 
L 2726 1658 
L 2726 4333 
L 2355 4333 
z
M 2234 3635 
L 2234 1658 
L 653 1658 
L 2234 3635 
z
" transform="scale(0.015625)"/>
       </defs>
       <use xlink:href="#CharterBT-Roman-30"/>
       <use xlink:href="#CharterBT-Roman-2e" transform="translate(55.599991 0)"/>
       <use xlink:href="#CharterBT-Roman-34" transform="translate(83.399979 0)"/>
      </g>
     </g>
    </g>
    <g id="xtick_4">
     <g id="line2d_4">
      <g>
       <use xlink:href="#med83c42531" x="325.416896" y="339.84" style="fill: #262626; stroke: #262626"/>
      </g>
     </g>
     <g id="text_4">
      <!-- 0.6 -->
      <g style="fill: #262626" transform="translate(319.301583 354.61625) scale(0.088 -0.088)">
       <defs>
        <path id="CharterBT-Roman-36" d="M 2835 4570 
C 1267 4467 320 3411 320 1773 
C 320 621 947 -77 1811 -77 
C 2688 -77 3360 589 3360 1453 
C 3360 2266 2790 2848 2029 2848 
C 1651 2848 1274 2714 941 2458 
C 1139 3597 1792 4198 2816 4198 
L 2835 4198 
L 2835 4570 
z
M 928 2176 
C 1190 2368 1504 2464 1856 2464 
C 2400 2464 2778 2054 2778 1395 
C 2778 717 2394 230 1862 230 
C 1261 230 915 768 915 1786 
C 915 1907 915 2042 928 2176 
z
" transform="scale(0.015625)"/>
       </defs>
       <use xlink:href="#CharterBT-Roman-30"/>
       <use xlink:href="#CharterBT-Roman-2e" transform="translate(55.599991 0)"/>
       <use xlink:href="#CharterBT-Roman-36" transform="translate(83.399979 0)"/>
      </g>
     </g>
    </g>
    <g id="xtick_5">
     <g id="line2d_5">
      <g>
       <use xlink:href="#med83c42531" x="418.589438" y="339.84" style="fill: #262626; stroke: #262626"/>
      </g>
     </g>
     <g id="text_5">
      <!-- 0.8 -->
      <g style="fill: #262626" transform="translate(412.474125 354.61625) scale(0.088 -0.088)">
       <defs>
        <path id="CharterBT-Roman-38" d="M 2054 2362 
C 1357 2611 1018 2899 1018 3322 
C 1018 3744 1350 4077 1792 4077 
C 2259 4077 2566 3757 2566 3245 
C 2566 2906 2387 2579 2054 2362 
z
M 2323 2246 
C 2797 2496 3059 2886 3059 3309 
C 3059 3930 2579 4384 1811 4384 
C 1018 4384 486 3904 486 3226 
C 486 2765 717 2426 1158 2240 
C 576 2016 282 1638 282 1133 
C 282 410 838 -102 1760 -102 
C 2650 -102 3238 467 3238 1146 
C 3238 1645 2925 2035 2323 2246 
z
M 1402 2106 
C 2259 1786 2688 1587 2688 1082 
C 2688 576 2330 230 1779 230 
C 1165 230 774 608 774 1171 
C 774 1600 966 1875 1402 2106 
z
" transform="scale(0.015625)"/>
       </defs>
       <use xlink:href="#CharterBT-Roman-30"/>
       <use xlink:href="#CharterBT-Roman-2e" transform="translate(55.599991 0)"/>
       <use xlink:href="#CharterBT-Roman-38" transform="translate(83.399979 0)"/>
      </g>
     </g>
    </g>
    <g id="xtick_6">
     <g id="line2d_6">
      <g>
       <use xlink:href="#med83c42531" x="511.761979" y="339.84" style="fill: #262626; stroke: #262626"/>
      </g>
     </g>
     <g id="text_6">
      <!-- 1.0 -->
      <g style="fill: #262626" transform="translate(505.646667 354.61625) scale(0.088 -0.088)">
       <defs>
        <path id="CharterBT-Roman-31" d="M 1990 4371 
L 602 3955 
L 602 3686 
L 1606 3866 
L 1606 422 
L 1530 314 
L 794 275 
L 794 0 
L 2938 0 
L 2938 269 
L 2246 301 
L 2170 397 
L 2170 4371 
L 1990 4371 
z
" transform="scale(0.015625)"/>
       </defs>
       <use xlink:href="#CharterBT-Roman-31"/>
       <use xlink:href="#CharterBT-Roman-2e" transform="translate(55.599991 0)"/>
       <use xlink:href="#CharterBT-Roman-30" transform="translate(83.399979 0)"/>
      </g>
     </g>
    </g>
   </g>
   <g id="matplotlib.axis_2">
    <g id="ytick_1">
     <g id="line2d_7">
      <defs>
       <path id="m3764420fc4" d="M 0 0 
L -4.8 0 
" style="stroke: #262626"/>
      </defs>
      <g>
       <use xlink:href="#m3764420fc4" x="27.730625" y="326.022456" style="fill: #262626; stroke: #262626"/>
      </g>
     </g>
     <g id="text_7">
      <!-- 0.0 -->
      <g style="fill: #262626" transform="translate(7.2 329.260581) scale(0.088 -0.088)">
       <use xlink:href="#CharterBT-Roman-30"/>
       <use xlink:href="#CharterBT-Roman-2e" transform="translate(55.599991 0)"/>
       <use xlink:href="#CharterBT-Roman-30" transform="translate(83.399979 0)"/>
      </g>
     </g>
    </g>
    <g id="ytick_2">
     <g id="line2d_8">
      <g>
       <use xlink:href="#m3764420fc4" x="27.730625" y="285.088646" style="fill: #262626; stroke: #262626"/>
      </g>
     </g>
     <g id="text_8">
      <!-- 0.1 -->
      <g style="fill: #262626" transform="translate(7.2 288.326771) scale(0.088 -0.088)">
       <use xlink:href="#CharterBT-Roman-30"/>
       <use xlink:href="#CharterBT-Roman-2e" transform="translate(55.599991 0)"/>
       <use xlink:href="#CharterBT-Roman-31" transform="translate(83.399979 0)"/>
      </g>
     </g>
    </g>
    <g id="ytick_3">
     <g id="line2d_9">
      <g>
       <use xlink:href="#m3764420fc4" x="27.730625" y="244.154837" style="fill: #262626; stroke: #262626"/>
      </g>
     </g>
     <g id="text_9">
      <!-- 0.2 -->
      <g style="fill: #262626" transform="translate(7.2 247.392962) scale(0.088 -0.088)">
       <use xlink:href="#CharterBT-Roman-30"/>
       <use xlink:href="#CharterBT-Roman-2e" transform="translate(55.599991 0)"/>
       <use xlink:href="#CharterBT-Roman-32" transform="translate(83.399979 0)"/>
      </g>
     </g>
    </g>
    <g id="ytick_4">
     <g id="line2d_10">
      <g>
       <use xlink:href="#m3764420fc4" x="27.730625" y="203.221028" style="fill: #262626; stroke: #262626"/>
      </g>
     </g>
     <g id="text_10">
      <!-- 0.3 -->
      <g style="fill: #262626" transform="translate(7.2 206.459153) scale(0.088 -0.088)">
       <defs>
        <path id="CharterBT-Roman-33" d="M 2029 2259 
C 2656 2438 2982 2803 2982 3296 
C 2982 3942 2490 4371 1722 4371 
C 922 4371 371 3942 371 3520 
C 371 3315 512 3174 717 3174 
C 819 3174 902 3200 979 3258 
L 979 3859 
C 1165 3987 1363 4045 1587 4045 
C 2080 4045 2400 3718 2400 3213 
C 2400 2694 2054 2387 1408 2387 
C 1363 2387 1318 2394 1274 2394 
L 1274 2016 
C 1395 2035 1510 2042 1613 2042 
C 2227 2042 2560 1747 2560 1242 
C 2560 672 2138 230 1555 230 
C 1363 230 1184 282 1011 384 
L 813 928 
C 742 954 678 960 621 960 
C 416 960 262 819 262 634 
C 262 307 768 -70 1530 -70 
C 2515 -70 3149 512 3149 1229 
C 3149 1811 2739 2208 2029 2259 
z
" transform="scale(0.015625)"/>
       </defs>
       <use xlink:href="#CharterBT-Roman-30"/>
       <use xlink:href="#CharterBT-Roman-2e" transform="translate(55.599991 0)"/>
       <use xlink:href="#CharterBT-Roman-33" transform="translate(83.399979 0)"/>
      </g>
     </g>
    </g>
    <g id="ytick_5">
     <g id="line2d_11">
      <g>
       <use xlink:href="#m3764420fc4" x="27.730625" y="162.287219" style="fill: #262626; stroke: #262626"/>
      </g>
     </g>
     <g id="text_11">
      <!-- 0.4 -->
      <g style="fill: #262626" transform="translate(7.2 165.525344) scale(0.088 -0.088)">
       <use xlink:href="#CharterBT-Roman-30"/>
       <use xlink:href="#CharterBT-Roman-2e" transform="translate(55.599991 0)"/>
       <use xlink:href="#CharterBT-Roman-34" transform="translate(83.399979 0)"/>
      </g>
     </g>
    </g>
    <g id="ytick_6">
     <g id="line2d_12">
      <g>
       <use xlink:href="#m3764420fc4" x="27.730625" y="121.353409" style="fill: #262626; stroke: #262626"/>
      </g>
     </g>
     <g id="text_12">
      <!-- 0.5 -->
      <g style="fill: #262626" transform="translate(7.2 124.591534) scale(0.088 -0.088)">
       <defs>
        <path id="CharterBT-Roman-35" d="M 646 4294 
L 646 2182 
C 787 2208 973 2221 1210 2221 
C 2099 2221 2541 1920 2541 1261 
C 2541 666 2131 237 1530 237 
C 1389 237 1242 262 1101 314 
L 845 864 
C 781 877 730 883 691 883 
C 474 883 320 742 320 544 
C 320 237 762 -58 1421 -58 
C 2470 -58 3130 563 3130 1389 
C 3130 2118 2586 2618 1728 2618 
C 1523 2618 1293 2586 1043 2515 
L 1043 3795 
L 2938 3795 
L 2938 4294 
L 646 4294 
z
" transform="scale(0.015625)"/>
       </defs>
       <use xlink:href="#CharterBT-Roman-30"/>
       <use xlink:href="#CharterBT-Roman-2e" transform="translate(55.599991 0)"/>
       <use xlink:href="#CharterBT-Roman-35" transform="translate(83.399979 0)"/>
      </g>
     </g>
    </g>
    <g id="ytick_7">
     <g id="line2d_13">
      <g>
       <use xlink:href="#m3764420fc4" x="27.730625" y="80.4196" style="fill: #262626; stroke: #262626"/>
      </g>
     </g>
     <g id="text_13">
      <!-- 0.6 -->
      <g style="fill: #262626" transform="translate(7.2 83.657725) scale(0.088 -0.088)">
       <use xlink:href="#CharterBT-Roman-30"/>
       <use xlink:href="#CharterBT-Roman-2e" transform="translate(55.599991 0)"/>
       <use xlink:href="#CharterBT-Roman-36" transform="translate(83.399979 0)"/>
      </g>
     </g>
    </g>
    <g id="ytick_8">
     <g id="line2d_14">
      <g>
       <use xlink:href="#m3764420fc4" x="27.730625" y="39.485791" style="fill: #262626; stroke: #262626"/>
      </g>
     </g>
     <g id="text_14">
      <!-- 0.7 -->
      <g style="fill: #262626" transform="translate(7.2 42.723916) scale(0.088 -0.088)">
       <defs>
        <path id="CharterBT-Roman-37" d="M 454 4294 
L 454 3226 
L 755 3226 
L 858 3808 
L 2829 3808 
L 742 -237 
L 1274 -237 
L 1274 -96 
L 3398 4038 
L 3398 4294 
L 454 4294 
z
" transform="scale(0.015625)"/>
       </defs>
       <use xlink:href="#CharterBT-Roman-30"/>
       <use xlink:href="#CharterBT-Roman-2e" transform="translate(55.599991 0)"/>
       <use xlink:href="#CharterBT-Roman-37" transform="translate(83.399979 0)"/>
      </g>
     </g>
    </g>
   </g>
   <g id="line2d_15">
    <path d="M 50.557898 324.72 
L 59.875152 324.72 
L 69.192406 88.093132 
L 78.50966 88.093132 
L 87.826914 85.701382 
L 97.144169 85.701382 
L 106.461423 83.263637 
L 115.778677 78.244749 
L 125.095931 78.244749 
L 134.413185 78.244749 
L 143.730439 75.660767 
L 153.047694 73.025106 
L 162.364948 64.79206 
L 171.682202 64.79206 
L 180.999456 64.79206 
L 190.31671 64.79206 
L 199.633965 64.79206 
L 208.951219 59.014484 
L 218.268473 59.014484 
L 227.585727 56.033501 
L 236.902981 56.033501 
L 246.220235 56.033501 
L 255.53749 56.033501 
L 264.854744 56.033501 
L 274.171998 56.033501 
L 283.489252 33.247824 
L 292.806506 33.247824 
L 302.12376 33.247824 
L 311.441015 33.247824 
L 320.758269 33.247824 
L 330.075523 33.247824 
L 339.392777 33.247824 
L 348.710031 33.247824 
L 358.027285 26.048317 
L 367.34454 26.048317 
L 376.661794 26.048317 
L 385.979048 26.048317 
L 395.296302 26.048317 
L 404.613556 26.048317 
L 413.930811 26.048317 
L 423.248065 26.048317 
L 432.565319 26.048317 
L 441.882573 26.048317 
L 451.199827 26.048317 
L 460.517081 26.048317 
L 469.834336 26.048317 
L 479.15159 26.048317 
L 488.468844 22.32 
L 497.786098 22.32 
L 507.103352 22.32 
" clip-path="url(#pf3893d71f5)" style="fill: none; stroke: #66c2a5; stroke-width: 1.2; stroke-linecap: round"/>
   </g>
   <g id="patch_3">
    <path d="M 27.730625 339.84 
L 27.730625 7.2 
" style="fill: none; stroke: #262626; stroke-linejoin: miter; stroke-linecap: square"/>
   </g>
   <g id="patch_4">
    <path d="M 529.930625 339.84 
L 529.930625 7.2 
" style="fill: none; stroke: #262626; stroke-linejoin: miter; stroke-linecap: square"/>
   </g>
   <g id="patch_5">
    <path d="M 27.730625 339.84 
L 529.930625 339.84 
" style="fill: none; stroke: #262626; stroke-linejoin: miter; stroke-linecap: square"/>
   </g>
   <g id="patch_6">
    <path d="M 27.730625 7.2 
L 529.930625 7.2 
" style="fill: none; stroke: #262626; stroke-linejoin: miter; stroke-linecap: square"/>
   </g>
  </g>
 </g>
 <defs>
  <clipPath id="pf3893d71f5">
   <rect x="27.730625" y="7.2" width="502.2" height="332.64"/>
  </clipPath>
 </defs>
</svg>
