<?xml version="1.0" encoding="utf-8" standalone="no"?>
<!DOCTYPE svg PUBLIC "-//W3C//DTD SVG 1.1//EN"
  "http://www.w3.org/Graphics/SVG/1.1/DTD/svg11.dtd">
<svg xmlns:xlink="http://www.w3.org/1999/xlink" width="387.780375pt" height="155.131875pt" viewBox="0 0 387.780375 155.131875" xmlns="http://www.w3.org/2000/svg" version="1.1">
 <metadata>
  <rdf:RDF xmlns:dc="http://purl.org/dc/elements/1.1/" xmlns:cc="http://creativecommons.org/ns#" xmlns:rdf="http://www.w3.org/1999/02/22-rdf-syntax-ns#">
   <cc:Work>
    <dc:type rdf:resource="http://purl.org/dc/dcmitype/StillImage"/>
    <dc:date>2025-05-25T00:44:14.369284</dc:date>
    <dc:format>image/svg+xml</dc:format>
    <dc:creator>
     <cc:Agent>
      <dc:title>Matplotlib v3.10.1, https://matplotlib.org/</dc:title>
     </cc:Agent>
    </dc:creator>
   </cc:Work>
  </rdf:RDF>
 </metadata>
 <defs>
  <style type="text/css">*{stroke-linejoin: round; stroke-linecap: butt}</style>
 </defs>
 <g id="figure_1">
  <g id="patch_1">
   <path d="M 0 155.131875 
L 387.780375 155.131875 
L 387.780375 0 
L 0 0 
z
" style="fill: #ffffff"/>
  </g>
  <g id="axes_1">
   <g id="patch_2">
    <path d="M 45.780375 118.08 
L 197.962193 118.08 
L 197.962193 7.2 
L 45.780375 7.2 
z
" style="fill: #ffffff"/>
   </g>
   <g id="matplotlib.axis_1">
    <g id="xtick_1">
     <g id="line2d_1">
      <defs>
       <path id="me68b794fd0" d="M 0 0 
L 0 4.8 
" style="stroke: #262626"/>
      </defs>
      <g>
       <use xlink:href="#me68b794fd0" x="48.799192" y="118.08" style="fill: #262626; stroke: #262626"/>
      </g>
     </g>
     <g id="text_1">
      <!-- 0.0 -->
      <g style="fill: #262626" transform="translate(42.683879 132.85625) scale(0.088 -0.088)">
       <defs>
        <path id="CharterBT-Roman-30" d="M 1779 4371 
C 864 4371 262 3565 262 2150 
C 262 736 864 -77 1779 -77 
C 2694 -77 3296 736 3296 2150 
C 3296 3565 2694 4371 1779 4371 
z
M 1779 4070 
C 2368 4070 2688 3418 2688 2150 
C 2688 883 2368 230 1779 230 
C 1190 230 864 877 864 2144 
C 864 3418 1190 4070 1779 4070 
z
" transform="scale(0.015625)"/>
        <path id="CharterBT-Roman-2e" d="M 890 755 
C 666 755 480 576 480 346 
C 480 115 666 -58 890 -58 
C 1114 -58 1293 122 1293 346 
C 1293 576 1114 755 890 755 
z
" transform="scale(0.015625)"/>
       </defs>
       <use xlink:href="#CharterBT-Roman-30"/>
       <use xlink:href="#CharterBT-Roman-2e" transform="translate(55.599991 0)"/>
       <use xlink:href="#CharterBT-Roman-30" transform="translate(83.399979 0)"/>
      </g>
     </g>
    </g>
    <g id="xtick_2">
     <g id="line2d_2">
      <g>
       <use xlink:href="#me68b794fd0" x="82.410462" y="118.08" style="fill: #262626; stroke: #262626"/>
      </g>
     </g>
     <g id="text_2">
      <!-- 0.2 -->
      <g style="fill: #262626" transform="translate(76.295149 132.85625) scale(0.088 -0.088)">
       <defs>
        <path id="CharterBT-Roman-32" d="M 902 506 
C 2317 1632 3091 2355 3091 3162 
C 3091 3885 2586 4371 1760 4371 
C 966 4371 403 3917 403 3469 
C 403 3251 538 3110 762 3110 
C 864 3110 960 3142 1050 3206 
L 1050 3891 
C 1242 4000 1427 4045 1619 4045 
C 2150 4045 2470 3686 2470 3078 
C 2470 2240 1670 1542 269 403 
L 269 0 
L 3232 0 
L 3232 1050 
L 2944 1050 
L 2829 506 
L 902 506 
z
" transform="scale(0.015625)"/>
       </defs>
       <use xlink:href="#CharterBT-Roman-30"/>
       <use xlink:href="#CharterBT-Roman-2e" transform="translate(55.599991 0)"/>
       <use xlink:href="#CharterBT-Roman-32" transform="translate(83.399979 0)"/>
      </g>
     </g>
    </g>
    <g id="xtick_3">
     <g id="line2d_3">
      <g>
       <use xlink:href="#me68b794fd0" x="116.021731" y="118.08" style="fill: #262626; stroke: #262626"/>
      </g>
     </g>
     <g id="text_3">
      <!-- 0.4 -->
      <g style="fill: #262626" transform="translate(109.906419 132.85625) scale(0.088 -0.088)">
       <defs>
        <path id="CharterBT-Roman-34" d="M 2355 4333 
L 173 1658 
L 173 1242 
L 2234 1242 
L 2234 -237 
L 2726 -237 
L 2726 1242 
L 3450 1242 
L 3450 1658 
L 2726 1658 
L 2726 4333 
L 2355 4333 
z
M 2234 3635 
L 2234 1658 
L 653 1658 
L 2234 3635 
z
" transform="scale(0.015625)"/>
       </defs>
       <use xlink:href="#CharterBT-Roman-30"/>
       <use xlink:href="#CharterBT-Roman-2e" transform="translate(55.599991 0)"/>
       <use xlink:href="#CharterBT-Roman-34" transform="translate(83.399979 0)"/>
      </g>
     </g>
    </g>
    <g id="xtick_4">
     <g id="line2d_4">
      <g>
       <use xlink:href="#me68b794fd0" x="149.633001" y="118.08" style="fill: #262626; stroke: #262626"/>
      </g>
     </g>
     <g id="text_4">
      <!-- 0.6 -->
      <g style="fill: #262626" transform="translate(143.517688 132.85625) scale(0.088 -0.088)">
       <defs>
        <path id="CharterBT-Roman-36" d="M 2835 4570 
C 1267 4467 320 3411 320 1773 
C 320 621 947 -77 1811 -77 
C 2688 -77 3360 589 3360 1453 
C 3360 2266 2790 2848 2029 2848 
C 1651 2848 1274 2714 941 2458 
C 1139 3597 1792 4198 2816 4198 
L 2835 4198 
L 2835 4570 
z
M 928 2176 
C 1190 2368 1504 2464 1856 2464 
C 2400 2464 2778 2054 2778 1395 
C 2778 717 2394 230 1862 230 
C 1261 230 915 768 915 1786 
C 915 1907 915 2042 928 2176 
z
" transform="scale(0.015625)"/>
       </defs>
       <use xlink:href="#CharterBT-Roman-30"/>
       <use xlink:href="#CharterBT-Roman-2e" transform="translate(55.599991 0)"/>
       <use xlink:href="#CharterBT-Roman-36" transform="translate(83.399979 0)"/>
      </g>
     </g>
    </g>
    <g id="xtick_5">
     <g id="line2d_5">
      <g>
       <use xlink:href="#me68b794fd0" x="183.24427" y="118.08" style="fill: #262626; stroke: #262626"/>
      </g>
     </g>
     <g id="text_5">
      <!-- 0.8 -->
      <g style="fill: #262626" transform="translate(177.128958 132.85625) scale(0.088 -0.088)">
       <defs>
        <path id="CharterBT-Roman-38" d="M 2054 2362 
C 1357 2611 1018 2899 1018 3322 
C 1018 3744 1350 4077 1792 4077 
C 2259 4077 2566 3757 2566 3245 
C 2566 2906 2387 2579 2054 2362 
z
M 2323 2246 
C 2797 2496 3059 2886 3059 3309 
C 3059 3930 2579 4384 1811 4384 
C 1018 4384 486 3904 486 3226 
C 486 2765 717 2426 1158 2240 
C 576 2016 282 1638 282 1133 
C 282 410 838 -102 1760 -102 
C 2650 -102 3238 467 3238 1146 
C 3238 1645 2925 2035 2323 2246 
z
M 1402 2106 
C 2259 1786 2688 1587 2688 1082 
C 2688 576 2330 230 1779 230 
C 1165 230 774 608 774 1171 
C 774 1600 966 1875 1402 2106 
z
" transform="scale(0.015625)"/>
       </defs>
       <use xlink:href="#CharterBT-Roman-30"/>
       <use xlink:href="#CharterBT-Roman-2e" transform="translate(55.599991 0)"/>
       <use xlink:href="#CharterBT-Roman-38" transform="translate(83.399979 0)"/>
      </g>
     </g>
    </g>
    <g id="text_6">
     <!-- #lists/animal -->
     <g style="fill: #262626" transform="translate(93.507784 145.839375) scale(0.096 -0.096)">
      <defs>
       <path id="CharterBT-Roman-23" d="M 2368 4544 
L 1837 3008 
L 723 3008 
L 723 2707 
L 1734 2707 
L 1427 1773 
L 410 1773 
L 410 1472 
L 1331 1472 
L 806 -45 
L 1107 -147 
L 1638 1472 
L 2618 1472 
L 2106 -45 
L 2406 -147 
L 2944 1472 
L 4090 1472 
L 4090 1773 
L 3046 1773 
L 3360 2707 
L 4352 2707 
L 4352 3008 
L 3462 3008 
L 3962 4429 
L 3661 4538 
L 3149 3008 
L 2163 3008 
L 2669 4429 
L 2368 4544 
z
M 2067 2707 
L 3034 2707 
L 2707 1773 
L 1754 1773 
L 2067 2707 
z
" transform="scale(0.015625)"/>
       <path id="CharterBT-Roman-6c" d="M 179 0 
L 1677 0 
L 1677 230 
L 1312 262 
L 1197 365 
L 1197 4710 
L 954 4710 
L 173 4480 
L 173 4282 
L 666 4282 
L 666 365 
L 557 262 
L 179 230 
L 179 0 
z
" transform="scale(0.015625)"/>
       <path id="CharterBT-Roman-69" d="M 986 4531 
C 781 4531 614 4371 614 4160 
C 614 3955 781 3795 986 3795 
C 1190 3795 1357 3955 1357 4160 
C 1357 4365 1190 4531 986 4531 
z
M 960 3110 
L 224 2880 
L 224 2682 
L 672 2682 
L 672 365 
L 563 262 
L 224 230 
L 224 0 
L 1664 0 
L 1664 230 
L 1318 262 
L 1203 365 
L 1203 3110 
L 960 3110 
z
" transform="scale(0.015625)"/>
       <path id="CharterBT-Roman-73" d="M 2202 3002 
C 1984 3098 1734 3142 1453 3142 
C 723 3142 320 2810 320 2246 
C 320 1818 602 1613 1146 1370 
C 1568 1178 1798 1062 1798 730 
C 1798 429 1568 211 1197 211 
C 1011 211 832 262 653 365 
L 576 909 
L 269 909 
L 269 77 
C 493 -6 774 -58 1101 -58 
C 1856 -58 2298 307 2298 902 
C 2298 1139 2208 1331 2054 1453 
C 1843 1626 1600 1715 1376 1824 
C 1018 1997 832 2131 832 2406 
C 832 2694 1024 2867 1363 2867 
C 1517 2867 1670 2822 1837 2733 
L 1888 2278 
L 2202 2278 
L 2202 3002 
z
" transform="scale(0.015625)"/>
       <path id="CharterBT-Roman-74" d="M 563 2694 
L 563 627 
C 563 173 698 -19 1229 -19 
C 1478 -19 1766 26 2067 122 
L 2067 358 
C 1920 326 1773 307 1626 307 
C 1178 307 1094 518 1094 1005 
L 1094 2694 
L 2067 2694 
L 2067 2995 
L 1094 2995 
L 1094 3674 
L 858 3674 
L 582 3078 
L 160 2893 
L 160 2694 
L 563 2694 
z
" transform="scale(0.015625)"/>
       <path id="CharterBT-Roman-2f" d="M 2554 4294 
L -179 -595 
L 205 -595 
L 2944 4294 
L 2554 4294 
z
" transform="scale(0.015625)"/>
       <path id="CharterBT-Roman-61" d="M 2138 371 
L 2221 0 
L 3123 0 
L 3123 230 
L 2784 262 
L 2669 365 
L 2669 2221 
C 2669 2867 2387 3142 1715 3142 
C 909 3142 422 2810 422 2419 
C 422 2266 474 2221 621 2221 
L 1062 2221 
L 1062 2758 
C 1235 2829 1389 2861 1549 2861 
C 2010 2861 2138 2650 2138 2144 
L 2138 1939 
C 858 1632 269 1440 269 774 
C 269 294 582 -45 1088 -45 
C 1395 -45 1734 96 2138 371 
z
M 2138 589 
C 1818 403 1555 301 1344 301 
C 1024 301 832 512 832 826 
C 832 1293 1235 1466 2138 1715 
L 2138 589 
z
" transform="scale(0.015625)"/>
       <path id="CharterBT-Roman-6e" d="M 192 0 
L 1594 0 
L 1594 230 
L 1286 262 
L 1178 365 
L 1178 2509 
C 1453 2650 1690 2720 1894 2720 
C 2368 2720 2541 2528 2541 2061 
L 2541 365 
L 2432 262 
L 2125 230 
L 2125 0 
L 3526 0 
L 3526 230 
L 3181 262 
L 3072 365 
L 3072 2170 
C 3072 2810 2765 3142 2208 3142 
C 1933 3142 1606 2995 1178 2758 
L 1178 3110 
L 934 3110 
L 192 2880 
L 192 2682 
L 646 2682 
L 646 365 
L 538 262 
L 192 230 
L 192 0 
z
" transform="scale(0.015625)"/>
       <path id="CharterBT-Roman-6d" d="M 2906 2714 
C 2758 2995 2515 3142 2202 3142 
C 1933 3142 1600 3008 1178 2758 
L 1178 3110 
L 934 3110 
L 192 2880 
L 192 2682 
L 646 2682 
L 646 365 
L 538 262 
L 192 230 
L 192 0 
L 1594 0 
L 1594 230 
L 1286 262 
L 1178 365 
L 1178 2509 
C 1459 2650 1696 2720 1907 2720 
C 2291 2720 2470 2509 2470 2061 
L 2470 365 
L 2362 262 
L 2054 230 
L 2054 0 
L 3418 0 
L 3418 230 
L 3117 262 
L 3002 365 
L 3002 2509 
C 3277 2643 3520 2720 3725 2720 
C 4122 2720 4301 2509 4301 2061 
L 4301 365 
L 4186 262 
L 3885 230 
L 3885 0 
L 5280 0 
L 5280 230 
L 4941 262 
L 4832 365 
L 4832 2170 
C 4832 2803 4512 3142 4006 3142 
C 3750 3142 3386 2995 2906 2714 
z
" transform="scale(0.015625)"/>
      </defs>
      <use xlink:href="#CharterBT-Roman-23"/>
      <use xlink:href="#CharterBT-Roman-6c" transform="translate(74.499985 0)"/>
      <use xlink:href="#CharterBT-Roman-69" transform="translate(102.699982 0)"/>
      <use xlink:href="#CharterBT-Roman-73" transform="translate(130.699966 0)"/>
      <use xlink:href="#CharterBT-Roman-74" transform="translate(170.699951 0)"/>
      <use xlink:href="#CharterBT-Roman-73" transform="translate(204.099945 0)"/>
      <use xlink:href="#CharterBT-Roman-2f" transform="translate(244.09993 0)"/>
      <use xlink:href="#CharterBT-Roman-61" transform="translate(292.199921 0)"/>
      <use xlink:href="#CharterBT-Roman-6e" transform="translate(342.899918 0)"/>
      <use xlink:href="#CharterBT-Roman-69" transform="translate(399.699905 0)"/>
      <use xlink:href="#CharterBT-Roman-6d" transform="translate(427.69989 0)"/>
      <use xlink:href="#CharterBT-Roman-61" transform="translate(511.999878 0)"/>
      <use xlink:href="#CharterBT-Roman-6c" transform="translate(562.699875 0)"/>
     </g>
    </g>
   </g>
   <g id="matplotlib.axis_2">
    <g id="ytick_1">
     <g id="line2d_6">
      <defs>
       <path id="m38fd87243b" d="M 0 0 
L -4.8 0 
" style="stroke: #262626"/>
      </defs>
      <g>
       <use xlink:href="#m38fd87243b" x="45.780375" y="118.08" style="fill: #262626; stroke: #262626"/>
      </g>
     </g>
     <g id="text_7">
      <!-- 0.0 -->
      <g style="fill: #262626" transform="translate(25.24975 121.318125) scale(0.088 -0.088)">
       <use xlink:href="#CharterBT-Roman-30"/>
       <use xlink:href="#CharterBT-Roman-2e" transform="translate(55.599991 0)"/>
       <use xlink:href="#CharterBT-Roman-30" transform="translate(83.399979 0)"/>
      </g>
     </g>
    </g>
    <g id="ytick_2">
     <g id="line2d_7">
      <g>
       <use xlink:href="#m38fd87243b" x="45.780375" y="98.994386" style="fill: #262626; stroke: #262626"/>
      </g>
     </g>
     <g id="text_8">
      <!-- 2.5 -->
      <g style="fill: #262626" transform="translate(25.24975 102.232511) scale(0.088 -0.088)">
       <defs>
        <path id="CharterBT-Roman-35" d="M 646 4294 
L 646 2182 
C 787 2208 973 2221 1210 2221 
C 2099 2221 2541 1920 2541 1261 
C 2541 666 2131 237 1530 237 
C 1389 237 1242 262 1101 314 
L 845 864 
C 781 877 730 883 691 883 
C 474 883 320 742 320 544 
C 320 237 762 -58 1421 -58 
C 2470 -58 3130 563 3130 1389 
C 3130 2118 2586 2618 1728 2618 
C 1523 2618 1293 2586 1043 2515 
L 1043 3795 
L 2938 3795 
L 2938 4294 
L 646 4294 
z
" transform="scale(0.015625)"/>
       </defs>
       <use xlink:href="#CharterBT-Roman-32"/>
       <use xlink:href="#CharterBT-Roman-2e" transform="translate(55.599991 0)"/>
       <use xlink:href="#CharterBT-Roman-35" transform="translate(83.399979 0)"/>
      </g>
     </g>
    </g>
    <g id="ytick_3">
     <g id="line2d_8">
      <g>
       <use xlink:href="#m38fd87243b" x="45.780375" y="79.908772" style="fill: #262626; stroke: #262626"/>
      </g>
     </g>
     <g id="text_9">
      <!-- 5.0 -->
      <g style="fill: #262626" transform="translate(25.24975 83.146897) scale(0.088 -0.088)">
       <use xlink:href="#CharterBT-Roman-35"/>
       <use xlink:href="#CharterBT-Roman-2e" transform="translate(55.599991 0)"/>
       <use xlink:href="#CharterBT-Roman-30" transform="translate(83.399979 0)"/>
      </g>
     </g>
    </g>
    <g id="ytick_4">
     <g id="line2d_9">
      <g>
       <use xlink:href="#m38fd87243b" x="45.780375" y="60.823159" style="fill: #262626; stroke: #262626"/>
      </g>
     </g>
     <g id="text_10">
      <!-- 7.5 -->
      <g style="fill: #262626" transform="translate(25.24975 64.061284) scale(0.088 -0.088)">
       <defs>
        <path id="CharterBT-Roman-37" d="M 454 4294 
L 454 3226 
L 755 3226 
L 858 3808 
L 2829 3808 
L 742 -237 
L 1274 -237 
L 1274 -96 
L 3398 4038 
L 3398 4294 
L 454 4294 
z
" transform="scale(0.015625)"/>
       </defs>
       <use xlink:href="#CharterBT-Roman-37"/>
       <use xlink:href="#CharterBT-Roman-2e" transform="translate(55.599991 0)"/>
       <use xlink:href="#CharterBT-Roman-35" transform="translate(83.399979 0)"/>
      </g>
     </g>
    </g>
    <g id="ytick_5">
     <g id="line2d_10">
      <g>
       <use xlink:href="#m38fd87243b" x="45.780375" y="41.737545" style="fill: #262626; stroke: #262626"/>
      </g>
     </g>
     <g id="text_11">
      <!-- 10.0 -->
      <g style="fill: #262626" transform="translate(20.3575 44.97567) scale(0.088 -0.088)">
       <defs>
        <path id="CharterBT-Roman-31" d="M 1990 4371 
L 602 3955 
L 602 3686 
L 1606 3866 
L 1606 422 
L 1530 314 
L 794 275 
L 794 0 
L 2938 0 
L 2938 269 
L 2246 301 
L 2170 397 
L 2170 4371 
L 1990 4371 
z
" transform="scale(0.015625)"/>
       </defs>
       <use xlink:href="#CharterBT-Roman-31"/>
       <use xlink:href="#CharterBT-Roman-30" transform="translate(55.599991 0)"/>
       <use xlink:href="#CharterBT-Roman-2e" transform="translate(111.199982 0)"/>
       <use xlink:href="#CharterBT-Roman-30" transform="translate(138.999969 0)"/>
      </g>
     </g>
    </g>
    <g id="ytick_6">
     <g id="line2d_11">
      <g>
       <use xlink:href="#m38fd87243b" x="45.780375" y="22.651931" style="fill: #262626; stroke: #262626"/>
      </g>
     </g>
     <g id="text_12">
      <!-- 12.5 -->
      <g style="fill: #262626" transform="translate(20.3575 25.890056) scale(0.088 -0.088)">
       <use xlink:href="#CharterBT-Roman-31"/>
       <use xlink:href="#CharterBT-Roman-32" transform="translate(55.599991 0)"/>
       <use xlink:href="#CharterBT-Roman-2e" transform="translate(111.199982 0)"/>
       <use xlink:href="#CharterBT-Roman-35" transform="translate(138.999969 0)"/>
      </g>
     </g>
    </g>
    <g id="text_13">
     <!-- Density -->
     <g style="fill: #262626" transform="translate(14.265 78.2925) rotate(-90) scale(0.096 -0.096)">
      <defs>
       <path id="CharterBT-Roman-44" d="M 1792 4294 
L 211 4294 
L 211 4038 
L 576 4000 
L 685 3910 
L 685 384 
L 576 294 
L 211 262 
L 211 0 
L 1792 0 
C 2432 0 2918 70 3354 397 
C 3878 794 4154 1389 4154 2150 
C 4154 3494 3309 4294 1792 4294 
z
M 1261 4000 
L 1766 4000 
C 2938 4000 3507 3398 3507 2150 
C 3507 909 2938 294 1766 294 
L 1261 294 
L 1261 4000 
z
" transform="scale(0.015625)"/>
       <path id="CharterBT-Roman-65" d="M 2867 678 
C 2502 435 2182 307 1862 307 
C 1216 307 787 794 787 1613 
L 787 1683 
L 2861 1683 
C 2867 1754 2867 1818 2867 1882 
C 2867 2669 2413 3142 1715 3142 
C 858 3142 237 2483 237 1517 
C 237 576 819 -58 1664 -58 
C 2067 -58 2483 70 2867 326 
L 2867 678 
z
M 2298 1952 
L 819 1952 
C 858 2496 1222 2854 1632 2854 
C 2061 2854 2298 2573 2298 2054 
L 2298 1952 
z
" transform="scale(0.015625)"/>
       <path id="CharterBT-Roman-79" d="M -6 3078 
L -6 2842 
L 384 2803 
L 1459 26 
C 1299 -429 1114 -749 941 -934 
L 326 -691 
C 218 -794 160 -909 160 -1037 
C 160 -1248 333 -1395 602 -1395 
C 1018 -1395 1325 -1043 1626 -320 
L 2906 2790 
L 3277 2842 
L 3277 3078 
L 2138 3078 
L 2138 2842 
L 2483 2816 
L 2534 2714 
L 1734 723 
L 966 2714 
L 1043 2816 
L 1382 2842 
L 1382 3078 
L -6 3078 
z
" transform="scale(0.015625)"/>
      </defs>
      <use xlink:href="#CharterBT-Roman-44"/>
      <use xlink:href="#CharterBT-Roman-65" transform="translate(69.299988 0)"/>
      <use xlink:href="#CharterBT-Roman-6e" transform="translate(118.399979 0)"/>
      <use xlink:href="#CharterBT-Roman-73" transform="translate(175.199966 0)"/>
      <use xlink:href="#CharterBT-Roman-69" transform="translate(215.199951 0)"/>
      <use xlink:href="#CharterBT-Roman-74" transform="translate(243.199936 0)"/>
      <use xlink:href="#CharterBT-Roman-79" transform="translate(276.59993 0)"/>
     </g>
    </g>
   </g>
   <g id="patch_3">
    <path d="M 66.579898 118.08 
L 80.409336 118.08 
L 80.409336 79.82354 
L 66.579898 79.82354 
z
" clip-path="url(#pb609dbd370)" style="fill: #66c2a5; fill-opacity: 0.75; stroke: #ffffff; stroke-width: 0.8; stroke-linejoin: miter"/>
   </g>
   <g id="patch_4">
    <path d="M 80.409336 118.08 
L 94.238773 118.08 
L 94.238773 97.995359 
L 80.409336 97.995359 
z
" clip-path="url(#pb609dbd370)" style="fill: #66c2a5; fill-opacity: 0.75; stroke: #ffffff; stroke-width: 0.8; stroke-linejoin: miter"/>
   </g>
   <g id="patch_5">
    <path d="M 94.238773 118.08 
L 108.068211 118.08 
L 108.068211 105.646651 
L 94.238773 105.646651 
z
" clip-path="url(#pb609dbd370)" style="fill: #66c2a5; fill-opacity: 0.75; stroke: #ffffff; stroke-width: 0.8; stroke-linejoin: miter"/>
   </g>
   <g id="patch_6">
    <path d="M 108.068211 118.08 
L 121.897649 118.08 
L 121.897649 110.428708 
L 108.068211 110.428708 
z
" clip-path="url(#pb609dbd370)" style="fill: #66c2a5; fill-opacity: 0.75; stroke: #ffffff; stroke-width: 0.8; stroke-linejoin: miter"/>
   </g>
   <g id="patch_7">
    <path d="M 121.897649 118.08 
L 135.727087 118.08 
L 135.727087 111.38512 
L 121.897649 111.38512 
z
" clip-path="url(#pb609dbd370)" style="fill: #66c2a5; fill-opacity: 0.75; stroke: #ffffff; stroke-width: 0.8; stroke-linejoin: miter"/>
   </g>
   <g id="patch_8">
    <path d="M 135.727087 118.08 
L 149.556524 118.08 
L 149.556524 114.254354 
L 135.727087 114.254354 
z
" clip-path="url(#pb609dbd370)" style="fill: #66c2a5; fill-opacity: 0.75; stroke: #ffffff; stroke-width: 0.8; stroke-linejoin: miter"/>
   </g>
   <g id="patch_9">
    <path d="M 149.556524 118.08 
L 163.385962 118.08 
L 163.385962 118.08 
L 149.556524 118.08 
z
" clip-path="url(#pb609dbd370)" style="fill: #66c2a5; fill-opacity: 0.75; stroke: #ffffff; stroke-width: 0.8; stroke-linejoin: miter"/>
   </g>
   <g id="patch_10">
    <path d="M 163.385962 118.08 
L 177.2154 118.08 
L 177.2154 117.123589 
L 163.385962 117.123589 
z
" clip-path="url(#pb609dbd370)" style="fill: #66c2a5; fill-opacity: 0.75; stroke: #ffffff; stroke-width: 0.8; stroke-linejoin: miter"/>
   </g>
   <g id="patch_11">
    <path d="M 177.2154 118.08 
L 191.044838 118.08 
L 191.044838 115.210766 
L 177.2154 115.210766 
z
" clip-path="url(#pb609dbd370)" style="fill: #66c2a5; fill-opacity: 0.75; stroke: #ffffff; stroke-width: 0.8; stroke-linejoin: miter"/>
   </g>
   <g id="patch_12">
    <path d="M 52.69773 118.08 
L 56.580549 118.08 
L 56.580549 12.48 
L 52.69773 12.48 
z
" clip-path="url(#pb609dbd370)" style="fill: #fc8d62; fill-opacity: 0.75; stroke: #ffffff; stroke-width: 0.388282; stroke-linejoin: miter"/>
   </g>
   <g id="patch_13">
    <path d="M 56.580549 118.08 
L 60.463367 118.08 
L 60.463367 32.91871 
L 56.580549 32.91871 
z
" clip-path="url(#pb609dbd370)" style="fill: #fc8d62; fill-opacity: 0.75; stroke: #ffffff; stroke-width: 0.388282; stroke-linejoin: miter"/>
   </g>
   <g id="patch_14">
    <path d="M 60.463367 118.08 
L 64.346186 118.08 
L 64.346186 66.983226 
L 60.463367 66.983226 
z
" clip-path="url(#pb609dbd370)" style="fill: #fc8d62; fill-opacity: 0.75; stroke: #ffffff; stroke-width: 0.388282; stroke-linejoin: miter"/>
   </g>
   <g id="patch_15">
    <path d="M 64.346186 118.08 
L 68.229004 118.08 
L 68.229004 90.828387 
L 64.346186 90.828387 
z
" clip-path="url(#pb609dbd370)" style="fill: #fc8d62; fill-opacity: 0.75; stroke: #ffffff; stroke-width: 0.388282; stroke-linejoin: miter"/>
   </g>
   <g id="patch_16">
    <path d="M 68.229004 118.08 
L 72.111823 118.08 
L 72.111823 84.015484 
L 68.229004 84.015484 
z
" clip-path="url(#pb609dbd370)" style="fill: #fc8d62; fill-opacity: 0.75; stroke: #ffffff; stroke-width: 0.388282; stroke-linejoin: miter"/>
   </g>
   <g id="patch_17">
    <path d="M 72.111823 118.08 
L 75.994641 118.08 
L 75.994641 97.64129 
L 72.111823 97.64129 
z
" clip-path="url(#pb609dbd370)" style="fill: #fc8d62; fill-opacity: 0.75; stroke: #ffffff; stroke-width: 0.388282; stroke-linejoin: miter"/>
   </g>
   <g id="patch_18">
    <path d="M 75.994641 118.08 
L 79.87746 118.08 
L 79.87746 114.673548 
L 75.994641 114.673548 
z
" clip-path="url(#pb609dbd370)" style="fill: #fc8d62; fill-opacity: 0.75; stroke: #ffffff; stroke-width: 0.388282; stroke-linejoin: miter"/>
   </g>
   <g id="patch_19">
    <path d="M 79.87746 118.08 
L 83.760278 118.08 
L 83.760278 114.673548 
L 79.87746 114.673548 
z
" clip-path="url(#pb609dbd370)" style="fill: #fc8d62; fill-opacity: 0.75; stroke: #ffffff; stroke-width: 0.388282; stroke-linejoin: miter"/>
   </g>
   <g id="patch_20">
    <path d="M 45.780375 118.08 
L 45.780375 7.2 
" style="fill: none; stroke: #262626; stroke-linejoin: miter; stroke-linecap: square"/>
   </g>
   <g id="patch_21">
    <path d="M 197.962193 118.08 
L 197.962193 7.2 
" style="fill: none; stroke: #262626; stroke-linejoin: miter; stroke-linecap: square"/>
   </g>
   <g id="patch_22">
    <path d="M 45.780375 118.08 
L 197.962193 118.08 
" style="fill: none; stroke: #262626; stroke-linejoin: miter; stroke-linecap: square"/>
   </g>
   <g id="patch_23">
    <path d="M 45.780375 7.2 
L 197.962193 7.2 
" style="fill: none; stroke: #262626; stroke-linejoin: miter; stroke-linecap: square"/>
   </g>
  </g>
  <g id="axes_2">
   <g id="patch_24">
    <path d="M 228.398557 118.08 
L 380.580375 118.08 
L 380.580375 7.2 
L 228.398557 7.2 
z
" style="fill: #ffffff"/>
   </g>
   <g id="matplotlib.axis_3">
    <g id="xtick_6">
     <g id="line2d_12">
      <g>
       <use xlink:href="#me68b794fd0" x="232.655391" y="118.08" style="fill: #262626; stroke: #262626"/>
      </g>
     </g>
     <g id="text_14">
      <!-- 0 -->
      <g style="fill: #262626" transform="translate(230.209266 132.85625) scale(0.088 -0.088)">
       <use xlink:href="#CharterBT-Roman-30"/>
      </g>
     </g>
    </g>
    <g id="xtick_7">
     <g id="line2d_13">
      <g>
       <use xlink:href="#me68b794fd0" x="285.865817" y="118.08" style="fill: #262626; stroke: #262626"/>
      </g>
     </g>
     <g id="text_15">
      <!-- 20 -->
      <g style="fill: #262626" transform="translate(280.973567 132.85625) scale(0.088 -0.088)">
       <use xlink:href="#CharterBT-Roman-32"/>
       <use xlink:href="#CharterBT-Roman-30" transform="translate(55.599991 0)"/>
      </g>
     </g>
    </g>
    <g id="xtick_8">
     <g id="line2d_14">
      <g>
       <use xlink:href="#me68b794fd0" x="339.076243" y="118.08" style="fill: #262626; stroke: #262626"/>
      </g>
     </g>
     <g id="text_16">
      <!-- 40 -->
      <g style="fill: #262626" transform="translate(334.183993 132.85625) scale(0.088 -0.088)">
       <use xlink:href="#CharterBT-Roman-34"/>
       <use xlink:href="#CharterBT-Roman-30" transform="translate(55.599991 0)"/>
      </g>
     </g>
    </g>
    <g id="text_17">
     <!-- #animals/list -->
     <g style="fill: #262626" transform="translate(276.125966 145.839375) scale(0.096 -0.096)">
      <use xlink:href="#CharterBT-Roman-23"/>
      <use xlink:href="#CharterBT-Roman-61" transform="translate(74.499985 0)"/>
      <use xlink:href="#CharterBT-Roman-6e" transform="translate(125.199982 0)"/>
      <use xlink:href="#CharterBT-Roman-69" transform="translate(181.999969 0)"/>
      <use xlink:href="#CharterBT-Roman-6d" transform="translate(209.999954 0)"/>
      <use xlink:href="#CharterBT-Roman-61" transform="translate(294.299942 0)"/>
      <use xlink:href="#CharterBT-Roman-6c" transform="translate(344.999939 0)"/>
      <use xlink:href="#CharterBT-Roman-73" transform="translate(373.199936 0)"/>
      <use xlink:href="#CharterBT-Roman-2f" transform="translate(413.199921 0)"/>
      <use xlink:href="#CharterBT-Roman-6c" transform="translate(461.299911 0)"/>
      <use xlink:href="#CharterBT-Roman-69" transform="translate(489.499908 0)"/>
      <use xlink:href="#CharterBT-Roman-73" transform="translate(517.499893 0)"/>
      <use xlink:href="#CharterBT-Roman-74" transform="translate(557.499878 0)"/>
     </g>
    </g>
   </g>
   <g id="matplotlib.axis_4">
    <g id="ytick_7">
     <g id="line2d_15">
      <g>
       <use xlink:href="#m38fd87243b" x="228.398557" y="118.08" style="fill: #262626; stroke: #262626"/>
      </g>
     </g>
     <g id="text_18">
      <!-- 0 -->
      <g style="fill: #262626" transform="translate(215.206307 121.318125) scale(0.088 -0.088)">
       <use xlink:href="#CharterBT-Roman-30"/>
      </g>
     </g>
    </g>
    <g id="ytick_8">
     <g id="line2d_16">
      <g>
       <use xlink:href="#m38fd87243b" x="228.398557" y="93.52186" style="fill: #262626; stroke: #262626"/>
      </g>
     </g>
     <g id="text_19">
      <!-- 10 -->
      <g style="fill: #262626" transform="translate(210.314057 96.759985) scale(0.088 -0.088)">
       <use xlink:href="#CharterBT-Roman-31"/>
       <use xlink:href="#CharterBT-Roman-30" transform="translate(55.599991 0)"/>
      </g>
     </g>
    </g>
    <g id="ytick_9">
     <g id="line2d_17">
      <g>
       <use xlink:href="#m38fd87243b" x="228.398557" y="68.963721" style="fill: #262626; stroke: #262626"/>
      </g>
     </g>
     <g id="text_20">
      <!-- 20 -->
      <g style="fill: #262626" transform="translate(210.314057 72.201846) scale(0.088 -0.088)">
       <use xlink:href="#CharterBT-Roman-32"/>
       <use xlink:href="#CharterBT-Roman-30" transform="translate(55.599991 0)"/>
      </g>
     </g>
    </g>
    <g id="ytick_10">
     <g id="line2d_18">
      <g>
       <use xlink:href="#m38fd87243b" x="228.398557" y="44.405581" style="fill: #262626; stroke: #262626"/>
      </g>
     </g>
     <g id="text_21">
      <!-- 30 -->
      <g style="fill: #262626" transform="translate(210.314057 47.643706) scale(0.088 -0.088)">
       <defs>
        <path id="CharterBT-Roman-33" d="M 2029 2259 
C 2656 2438 2982 2803 2982 3296 
C 2982 3942 2490 4371 1722 4371 
C 922 4371 371 3942 371 3520 
C 371 3315 512 3174 717 3174 
C 819 3174 902 3200 979 3258 
L 979 3859 
C 1165 3987 1363 4045 1587 4045 
C 2080 4045 2400 3718 2400 3213 
C 2400 2694 2054 2387 1408 2387 
C 1363 2387 1318 2394 1274 2394 
L 1274 2016 
C 1395 2035 1510 2042 1613 2042 
C 2227 2042 2560 1747 2560 1242 
C 2560 672 2138 230 1555 230 
C 1363 230 1184 282 1011 384 
L 813 928 
C 742 954 678 960 621 960 
C 416 960 262 819 262 634 
C 262 307 768 -70 1530 -70 
C 2515 -70 3149 512 3149 1229 
C 3149 1811 2739 2208 2029 2259 
z
" transform="scale(0.015625)"/>
       </defs>
       <use xlink:href="#CharterBT-Roman-33"/>
       <use xlink:href="#CharterBT-Roman-30" transform="translate(55.599991 0)"/>
      </g>
     </g>
    </g>
    <g id="ytick_11">
     <g id="line2d_19">
      <g>
       <use xlink:href="#m38fd87243b" x="228.398557" y="19.847442" style="fill: #262626; stroke: #262626"/>
      </g>
     </g>
     <g id="text_22">
      <!-- 40 -->
      <g style="fill: #262626" transform="translate(210.314057 23.085567) scale(0.088 -0.088)">
       <use xlink:href="#CharterBT-Roman-34"/>
       <use xlink:href="#CharterBT-Roman-30" transform="translate(55.599991 0)"/>
      </g>
     </g>
    </g>
    <g id="text_23">
     <!-- Count -->
     <g style="fill: #262626" transform="translate(204.221557 75.3225) rotate(-90) scale(0.096 -0.096)">
      <defs>
       <path id="CharterBT-Roman-43" d="M 3763 147 
L 3763 1158 
L 3405 1158 
L 3264 448 
L 3162 346 
C 2970 288 2784 262 2605 262 
C 1568 262 934 979 934 2195 
C 934 3341 1555 4032 2509 4032 
C 2758 4032 2989 3974 3226 3866 
L 3309 3750 
L 3405 3168 
L 3763 3168 
L 3763 4154 
C 3296 4301 2874 4371 2496 4371 
C 1165 4371 275 3482 275 2150 
C 275 1312 698 570 1382 179 
C 1677 13 2048 -77 2470 -77 
C 2899 -77 3341 0 3763 147 
z
" transform="scale(0.015625)"/>
       <path id="CharterBT-Roman-6f" d="M 1722 3142 
C 858 3142 237 2496 237 1542 
C 237 595 864 -58 1722 -58 
C 2579 -58 3213 595 3213 1542 
C 3213 2490 2586 3142 1722 3142 
z
M 1722 2867 
C 2240 2867 2611 2368 2611 1542 
C 2611 710 2240 218 1722 218 
C 1210 218 838 717 838 1542 
C 838 2374 1203 2867 1722 2867 
z
" transform="scale(0.015625)"/>
       <path id="CharterBT-Roman-75" d="M 909 3142 
L 166 2906 
L 166 2707 
L 621 2707 
L 621 915 
C 621 275 928 -64 1478 -64 
C 1792 -64 2131 83 2515 358 
L 2515 0 
L 3462 0 
L 3462 230 
L 3162 262 
L 3046 365 
L 3046 3142 
L 2803 3142 
L 2061 2906 
L 2061 2707 
L 2515 2707 
L 2515 538 
C 2253 410 2010 346 1773 346 
C 1344 346 1152 563 1152 1024 
L 1152 3142 
L 909 3142 
z
" transform="scale(0.015625)"/>
      </defs>
      <use xlink:href="#CharterBT-Roman-43"/>
      <use xlink:href="#CharterBT-Roman-6f" transform="translate(63.199997 0)"/>
      <use xlink:href="#CharterBT-Roman-75" transform="translate(117.099991 0)"/>
      <use xlink:href="#CharterBT-Roman-6e" transform="translate(173.999985 0)"/>
      <use xlink:href="#CharterBT-Roman-74" transform="translate(230.799973 0)"/>
     </g>
    </g>
   </g>
   <g id="patch_25">
    <path d="M 235.315912 118.08 
L 245.957997 118.08 
L 245.957997 110.712558 
L 235.315912 110.712558 
z
" clip-path="url(#p89bd65b2c9)" style="fill: #66c2a5; fill-opacity: 0.75; stroke: #ffffff; stroke-width: 0.8; stroke-linejoin: miter"/>
   </g>
   <g id="patch_26">
    <path d="M 245.957997 118.08 
L 256.600083 118.08 
L 256.600083 95.977674 
L 245.957997 95.977674 
z
" clip-path="url(#p89bd65b2c9)" style="fill: #66c2a5; fill-opacity: 0.75; stroke: #ffffff; stroke-width: 0.8; stroke-linejoin: miter"/>
   </g>
   <g id="patch_27">
    <path d="M 256.600083 118.08 
L 267.242168 118.08 
L 267.242168 88.610233 
L 256.600083 88.610233 
z
" clip-path="url(#p89bd65b2c9)" style="fill: #66c2a5; fill-opacity: 0.75; stroke: #ffffff; stroke-width: 0.8; stroke-linejoin: miter"/>
   </g>
   <g id="patch_28">
    <path d="M 267.242168 118.08 
L 277.884253 118.08 
L 277.884253 41.949767 
L 267.242168 41.949767 
z
" clip-path="url(#p89bd65b2c9)" style="fill: #66c2a5; fill-opacity: 0.75; stroke: #ffffff; stroke-width: 0.8; stroke-linejoin: miter"/>
   </g>
   <g id="patch_29">
    <path d="M 277.884253 118.08 
L 288.526338 118.08 
L 288.526338 12.48 
L 277.884253 12.48 
z
" clip-path="url(#p89bd65b2c9)" style="fill: #66c2a5; fill-opacity: 0.75; stroke: #ffffff; stroke-width: 0.8; stroke-linejoin: miter"/>
   </g>
   <g id="patch_30">
    <path d="M 288.526338 118.08 
L 299.168423 118.08 
L 299.168423 32.126512 
L 288.526338 32.126512 
z
" clip-path="url(#p89bd65b2c9)" style="fill: #66c2a5; fill-opacity: 0.75; stroke: #ffffff; stroke-width: 0.8; stroke-linejoin: miter"/>
   </g>
   <g id="patch_31">
    <path d="M 299.168423 118.08 
L 309.810509 118.08 
L 309.810509 24.75907 
L 299.168423 24.75907 
z
" clip-path="url(#p89bd65b2c9)" style="fill: #66c2a5; fill-opacity: 0.75; stroke: #ffffff; stroke-width: 0.8; stroke-linejoin: miter"/>
   </g>
   <g id="patch_32">
    <path d="M 309.810509 118.08 
L 320.452594 118.08 
L 320.452594 22.303256 
L 309.810509 22.303256 
z
" clip-path="url(#p89bd65b2c9)" style="fill: #66c2a5; fill-opacity: 0.75; stroke: #ffffff; stroke-width: 0.8; stroke-linejoin: miter"/>
   </g>
   <g id="patch_33">
    <path d="M 320.452594 118.08 
L 331.094679 118.08 
L 331.094679 39.493953 
L 320.452594 39.493953 
z
" clip-path="url(#p89bd65b2c9)" style="fill: #66c2a5; fill-opacity: 0.75; stroke: #ffffff; stroke-width: 0.8; stroke-linejoin: miter"/>
   </g>
   <g id="patch_34">
    <path d="M 331.094679 118.08 
L 341.736764 118.08 
L 341.736764 39.493953 
L 331.094679 39.493953 
z
" clip-path="url(#p89bd65b2c9)" style="fill: #66c2a5; fill-opacity: 0.75; stroke: #ffffff; stroke-width: 0.8; stroke-linejoin: miter"/>
   </g>
   <g id="patch_35">
    <path d="M 341.736764 118.08 
L 352.378849 118.08 
L 352.378849 98.433488 
L 341.736764 98.433488 
z
" clip-path="url(#p89bd65b2c9)" style="fill: #66c2a5; fill-opacity: 0.75; stroke: #ffffff; stroke-width: 0.8; stroke-linejoin: miter"/>
   </g>
   <g id="patch_36">
    <path d="M 352.378849 118.08 
L 363.020934 118.08 
L 363.020934 95.977674 
L 352.378849 95.977674 
z
" clip-path="url(#p89bd65b2c9)" style="fill: #66c2a5; fill-opacity: 0.75; stroke: #ffffff; stroke-width: 0.8; stroke-linejoin: miter"/>
   </g>
   <g id="patch_37">
    <path d="M 363.020934 118.08 
L 373.66302 118.08 
L 373.66302 113.168372 
L 363.020934 113.168372 
z
" clip-path="url(#p89bd65b2c9)" style="fill: #66c2a5; fill-opacity: 0.75; stroke: #ffffff; stroke-width: 0.8; stroke-linejoin: miter"/>
   </g>
   <g id="patch_38">
    <path d="M 228.398557 118.08 
L 228.398557 7.2 
" style="fill: none; stroke: #262626; stroke-linejoin: miter; stroke-linecap: square"/>
   </g>
   <g id="patch_39">
    <path d="M 380.580375 118.08 
L 380.580375 7.2 
" style="fill: none; stroke: #262626; stroke-linejoin: miter; stroke-linecap: square"/>
   </g>
   <g id="patch_40">
    <path d="M 228.398557 118.08 
L 380.580375 118.08 
" style="fill: none; stroke: #262626; stroke-linejoin: miter; stroke-linecap: square"/>
   </g>
   <g id="patch_41">
    <path d="M 228.398557 7.2 
L 380.580375 7.2 
" style="fill: none; stroke: #262626; stroke-linejoin: miter; stroke-linecap: square"/>
   </g>
  </g>
 </g>
 <defs>
  <clipPath id="pb609dbd370">
   <rect x="45.780375" y="7.2" width="152.181818" height="110.88"/>
  </clipPath>
  <clipPath id="p89bd65b2c9">
   <rect x="228.398557" y="7.2" width="152.181818" height="110.88"/>
  </clipPath>
 </defs>
</svg>
