<?xml version="1.0" encoding="UTF-8" standalone="no"?>
<!-- Created with Inkscape (http://www.inkscape.org/) -->

<svg
   version="1.1"
   id="svg1"
   width="618.66669"
   height="184"
   viewBox="0 0 618.66669 184"
   sodipodi:docname="F1_KL_ntags3_freq5_topn50_thres60_saveTrue.pdf"
   xmlns:inkscape="http://www.inkscape.org/namespaces/inkscape"
   xmlns:sodipodi="http://sodipodi.sourceforge.net/DTD/sodipodi-0.dtd"
   xmlns="http://www.w3.org/2000/svg"
   xmlns:svg="http://www.w3.org/2000/svg">
  <defs
     id="defs1">
    <clipPath
       clipPathUnits="userSpaceOnUse"
       id="clipPath1">
      <path
         d="M 0,0 H 478.09251 V 152.49254 H 0 Z"
         transform="matrix(1,0,0,-1,-45.753328,25.106251)"
         id="path1" />
    </clipPath>
    <clipPath
       clipPathUnits="userSpaceOnUse"
       id="clipPath2">
      <path
         d="M 0,0 H 478.09251 V 152.49254 H 0 Z"
         transform="matrix(1,0,0,-1,-86.644962,25.106251)"
         id="path2" />
    </clipPath>
    <clipPath
       clipPathUnits="userSpaceOnUse"
       id="clipPath3">
      <path
         d="M 0,0 H 478.09251 V 152.49254 H 0 Z"
         transform="matrix(1,0,0,-1,-127.53659,25.106251)"
         id="path3" />
    </clipPath>
    <clipPath
       clipPathUnits="userSpaceOnUse"
       id="clipPath4">
      <path
         d="M 0,0 H 478.09251 V 152.49254 H 0 Z"
         transform="matrix(1,0,0,-1,-168.42823,25.106251)"
         id="path4" />
    </clipPath>
    <clipPath
       clipPathUnits="userSpaceOnUse"
       id="clipPath5">
      <path
         d="M 0,0 H 478.09251 V 152.49254 H 0 Z"
         transform="matrix(1,0,0,-1,-209.31986,25.106251)"
         id="path5" />
    </clipPath>
    <clipPath
       clipPathUnits="userSpaceOnUse"
       id="clipPath6">
      <path
         d="M 0,0 H 478.09251 V 152.49254 H 0 Z"
         transform="matrix(1,0,0,-1,-109.17722,9.6999977)"
         id="path6" />
    </clipPath>
    <clipPath
       clipPathUnits="userSpaceOnUse"
       id="clipPath7">
      <path
         d="M 0,0 H 478.09251 V 152.49254 H 0 Z"
         transform="matrix(1,0,0,-1,-22.825001,63.203717)"
         id="path7" />
    </clipPath>
    <clipPath
       clipPathUnits="userSpaceOnUse"
       id="clipPath8">
      <path
         d="M 0,0 H 478.09251 V 152.49254 H 0 Z"
         transform="matrix(1,0,0,-1,-22.825001,97.092332)"
         id="path8" />
    </clipPath>
    <clipPath
       clipPathUnits="userSpaceOnUse"
       id="clipPath9">
      <path
         d="M 0,0 H 478.09251 V 152.49254 H 0 Z"
         transform="matrix(1,0,0,-1,-22.825001,130.98095)"
         id="path9" />
    </clipPath>
    <clipPath
       clipPathUnits="userSpaceOnUse"
       id="clipPath10">
      <path
         d="M 0,0 H 478.09251 V 152.49254 H 0 Z"
         transform="matrix(0,1,1,0,-69.068844,-16.075)"
         id="path10" />
    </clipPath>
    <clipPath
       clipPathUnits="userSpaceOnUse"
       id="clipPath11">
      <path
         d="M 49.825,42.965625 H 229.74818 V 145.17206 H 49.825 Z"
         id="path11" />
    </clipPath>
    <clipPath
       clipPathUnits="userSpaceOnUse"
       id="clipPath12">
      <path
         d="M 0,0 H 478.09251 V 152.49254 H 0 Z"
         transform="matrix(1.3333333,0,0,-1.3333333,-9.3333333,196)"
         id="path12" />
    </clipPath>
    <clipPath
       clipPathUnits="userSpaceOnUse"
       id="clipPath13">
      <path
         d="M 49.825,42.965625 H 229.74818 V 145.17206 H 49.825 Z"
         id="path13" />
    </clipPath>
    <clipPath
       clipPathUnits="userSpaceOnUse"
       id="clipPath14">
      <path
         d="M 0,0 H 478.09251 V 152.49254 H 0 Z"
         transform="matrix(1.3333333,0,0,-1.3333333,-9.3333333,196)"
         id="path14" />
    </clipPath>
    <clipPath
       clipPathUnits="userSpaceOnUse"
       id="clipPath15">
      <path
         d="M 49.825,42.965625 H 229.74818 V 145.17206 H 49.825 Z"
         id="path15" />
    </clipPath>
    <clipPath
       clipPathUnits="userSpaceOnUse"
       id="clipPath16">
      <path
         d="M 0,0 H 478.09251 V 152.49254 H 0 Z"
         transform="matrix(1.3333333,0,0,-1.3333333,-9.3333333,196)"
         id="path16" />
    </clipPath>
    <clipPath
       clipPathUnits="userSpaceOnUse"
       id="clipPath17">
      <path
         d="M 49.825,42.965625 H 229.74818 V 145.17206 H 49.825 Z"
         id="path17" />
    </clipPath>
    <clipPath
       clipPathUnits="userSpaceOnUse"
       id="clipPath18">
      <path
         d="M 0,0 H 478.09251 V 152.49254 H 0 Z"
         transform="matrix(1.3333333,0,0,-1.3333333,-9.3333333,196)"
         id="path18" />
    </clipPath>
    <clipPath
       clipPathUnits="userSpaceOnUse"
       id="clipPath19">
      <path
         d="M 0,0 H 478.09251 V 152.49254 H 0 Z"
         id="path19" />
    </clipPath>
    <clipPath
       clipPathUnits="userSpaceOnUse"
       id="clipPath20">
      <path
         d="M 0,0 H 478.09251 V 152.49254 H 0 Z"
         id="path20" />
    </clipPath>
    <clipPath
       clipPathUnits="userSpaceOnUse"
       id="clipPath21">
      <path
         d="M 0,0 H 478.09251 V 152.49254 H 0 Z"
         transform="matrix(1,0,0,-1,-282.82599,25.106251)"
         id="path21" />
    </clipPath>
    <clipPath
       clipPathUnits="userSpaceOnUse"
       id="clipPath22">
      <path
         d="M 0,0 H 478.09251 V 152.49254 H 0 Z"
         transform="matrix(1,0,0,-1,-323.71762,25.106251)"
         id="path22" />
    </clipPath>
    <clipPath
       clipPathUnits="userSpaceOnUse"
       id="clipPath23">
      <path
         d="M 0,0 H 478.09251 V 152.49254 H 0 Z"
         transform="matrix(1,0,0,-1,-364.60926,25.106251)"
         id="path23" />
    </clipPath>
    <clipPath
       clipPathUnits="userSpaceOnUse"
       id="clipPath24">
      <path
         d="M 0,0 H 478.09251 V 152.49254 H 0 Z"
         transform="matrix(1,0,0,-1,-405.50089,25.106251)"
         id="path24" />
    </clipPath>
    <clipPath
       clipPathUnits="userSpaceOnUse"
       id="clipPath25">
      <path
         d="M 0,0 H 478.09251 V 152.49254 H 0 Z"
         transform="matrix(1,0,0,-1,-446.39252,25.106251)"
         id="path25" />
    </clipPath>
    <clipPath
       clipPathUnits="userSpaceOnUse"
       id="clipPath26">
      <path
         d="M 0,0 H 478.09251 V 152.49254 H 0 Z"
         transform="matrix(1,0,0,-1,-346.24988,9.6999977)"
         id="path26" />
    </clipPath>
    <clipPath
       clipPathUnits="userSpaceOnUse"
       id="clipPath27">
      <path
         d="M 0,0 H 478.09251 V 152.49254 H 0 Z"
         transform="matrix(1,0,0,-1,-263.39766,64.490904)"
         id="path27" />
    </clipPath>
    <clipPath
       clipPathUnits="userSpaceOnUse"
       id="clipPath28">
      <path
         d="M 0,0 H 478.09251 V 152.49254 H 0 Z"
         transform="matrix(1,0,0,-1,-263.39766,100.71204)"
         id="path28" />
    </clipPath>
    <clipPath
       clipPathUnits="userSpaceOnUse"
       id="clipPath29">
      <path
         d="M 0,0 H 478.09251 V 152.49254 H 0 Z"
         transform="matrix(1,0,0,-1,-263.39766,136.93317)"
         id="path29" />
    </clipPath>
    <clipPath
       clipPathUnits="userSpaceOnUse"
       id="clipPath30">
      <path
         d="M 0,0 H 478.09251 V 152.49254 H 0 Z"
         transform="matrix(0,1,1,0,-54.115719,-256.89766)"
         id="path30" />
    </clipPath>
    <clipPath
       clipPathUnits="userSpaceOnUse"
       id="clipPath31">
      <path
         d="M 286.89766,42.965625 H 466.82084 V 145.17206 H 286.89766 Z"
         id="path31" />
    </clipPath>
    <clipPath
       clipPathUnits="userSpaceOnUse"
       id="clipPath32">
      <path
         d="M 0,0 H 478.09251 V 152.49254 H 0 Z"
         transform="matrix(1.3333333,0,0,-1.3333333,-9.3333333,196)"
         id="path32" />
    </clipPath>
    <clipPath
       clipPathUnits="userSpaceOnUse"
       id="clipPath33">
      <path
         d="M 286.89766,42.965625 H 466.82084 V 145.17206 H 286.89766 Z"
         id="path33" />
    </clipPath>
    <clipPath
       clipPathUnits="userSpaceOnUse"
       id="clipPath34">
      <path
         d="M 0,0 H 478.09251 V 152.49254 H 0 Z"
         transform="matrix(1.3333333,0,0,-1.3333333,-9.3333333,196)"
         id="path34" />
    </clipPath>
    <clipPath
       clipPathUnits="userSpaceOnUse"
       id="clipPath35">
      <path
         d="M 286.89766,42.965625 H 466.82084 V 145.17206 H 286.89766 Z"
         id="path35" />
    </clipPath>
    <clipPath
       clipPathUnits="userSpaceOnUse"
       id="clipPath36">
      <path
         d="M 0,0 H 478.09251 V 152.49254 H 0 Z"
         transform="matrix(1.3333333,0,0,-1.3333333,-9.3333333,196)"
         id="path36" />
    </clipPath>
    <clipPath
       clipPathUnits="userSpaceOnUse"
       id="clipPath37">
      <path
         d="M 286.89766,42.965625 H 466.82084 V 145.17206 H 286.89766 Z"
         id="path37" />
    </clipPath>
    <clipPath
       clipPathUnits="userSpaceOnUse"
       id="clipPath38">
      <path
         d="M 0,0 H 478.09251 V 152.49254 H 0 Z"
         transform="matrix(1.3333333,0,0,-1.3333333,-9.3333333,196)"
         id="path38" />
    </clipPath>
    <clipPath
       clipPathUnits="userSpaceOnUse"
       id="clipPath39">
      <path
         d="M 0,0 H 478.09251 V 152.49254 H 0 Z"
         id="path39" />
    </clipPath>
    <clipPath
       clipPathUnits="userSpaceOnUse"
       id="clipPath40">
      <path
         d="M 0,0 H 478.09251 V 152.49254 H 0 Z"
         id="path40" />
    </clipPath>
    <clipPath
       clipPathUnits="userSpaceOnUse"
       id="clipPath41">
      <path
         d="M 0,0 H 478.09251 V 152.49254 H 0 Z"
         id="path41" />
    </clipPath>
    <clipPath
       clipPathUnits="userSpaceOnUse"
       id="clipPath42">
      <path
         d="M 0,0 H 478.09251 V 152.49254 H 0 Z"
         id="path42" />
    </clipPath>
    <clipPath
       clipPathUnits="userSpaceOnUse"
       id="clipPath43">
      <path
         d="M 0,0 H 478.09251 V 152.49254 H 0 Z"
         transform="matrix(1,0,0,-1,-429.3396,87.087502)"
         id="path43" />
    </clipPath>
    <clipPath
       clipPathUnits="userSpaceOnUse"
       id="clipPath44">
      <path
         d="M 0,0 H 478.09251 V 152.49254 H 0 Z"
         id="path44" />
    </clipPath>
    <clipPath
       clipPathUnits="userSpaceOnUse"
       id="clipPath45">
      <path
         d="M 0,0 H 478.09251 V 152.49254 H 0 Z"
         transform="matrix(1,0,0,-1,-429.3396,75.337502)"
         id="path45" />
    </clipPath>
    <clipPath
       clipPathUnits="userSpaceOnUse"
       id="clipPath46">
      <path
         d="M 0,0 H 478.09251 V 152.49254 H 0 Z"
         id="path46" />
    </clipPath>
    <clipPath
       clipPathUnits="userSpaceOnUse"
       id="clipPath47">
      <path
         d="M 0,0 H 478.09251 V 152.49254 H 0 Z"
         transform="matrix(1,0,0,-1,-429.3396,63.587499)"
         id="path47" />
    </clipPath>
    <clipPath
       clipPathUnits="userSpaceOnUse"
       id="clipPath48">
      <path
         d="M 0,0 H 478.09251 V 152.49254 H 0 Z"
         id="path48" />
    </clipPath>
    <clipPath
       clipPathUnits="userSpaceOnUse"
       id="clipPath49">
      <path
         d="M 0,0 H 478.09251 V 152.49254 H 0 Z"
         transform="matrix(1,0,0,-1,-429.3396,51.837504)"
         id="path49" />
    </clipPath>
  </defs>
  <sodipodi:namedview
     id="namedview1"
     pagecolor="#505050"
     bordercolor="#eeeeee"
     borderopacity="1"
     inkscape:showpageshadow="0"
     inkscape:pageopacity="0"
     inkscape:pagecheckerboard="0"
     inkscape:deskcolor="#505050">
    <inkscape:page
       x="0"
       y="0"
       inkscape:label="1"
       id="page1"
       width="618.66669"
       height="184"
       margin="0"
       bleed="0" />
  </sodipodi:namedview>
  <g
     id="g1"
     inkscape:groupmode="layer"
     inkscape:label="1">
    <g
       id="g84">
      <text
         xml:space="preserve"
         transform="matrix(1.3333333,0,0,1.3333333,51.671102,162.525)"
         clip-path="url(#clipPath1)"
         id="text49"><tspan
           style="font-variant:normal;font-weight:normal;font-size:11px;font-family:'DejaVu Serif';writing-mode:lr-tb;fill:#262626;fill-opacity:1;fill-rule:nonzero;stroke:none"
           x="0"
           y="0"
           id="tspan49">0.00</tspan></text>
      <text
         xml:space="preserve"
         transform="matrix(1.3333333,0,0,1.3333333,106.19328,162.525)"
         clip-path="url(#clipPath2)"
         id="text50"><tspan
           style="font-variant:normal;font-weight:normal;font-size:11px;font-family:'DejaVu Serif';writing-mode:lr-tb;fill:#262626;fill-opacity:1;fill-rule:nonzero;stroke:none"
           x="0"
           y="0"
           id="tspan50">0.25</tspan></text>
      <text
         xml:space="preserve"
         transform="matrix(1.3333333,0,0,1.3333333,160.71545,162.525)"
         clip-path="url(#clipPath3)"
         id="text51"><tspan
           style="font-variant:normal;font-weight:normal;font-size:11px;font-family:'DejaVu Serif';writing-mode:lr-tb;fill:#262626;fill-opacity:1;fill-rule:nonzero;stroke:none"
           x="0"
           y="0"
           id="tspan51">0.50</tspan></text>
      <text
         xml:space="preserve"
         transform="matrix(1.3333333,0,0,1.3333333,215.23763,162.525)"
         clip-path="url(#clipPath4)"
         id="text52"><tspan
           style="font-variant:normal;font-weight:normal;font-size:11px;font-family:'DejaVu Serif';writing-mode:lr-tb;fill:#262626;fill-opacity:1;fill-rule:nonzero;stroke:none"
           x="0"
           y="0"
           id="tspan52">0.75</tspan></text>
      <text
         xml:space="preserve"
         transform="matrix(1.3333333,0,0,1.3333333,269.75981,162.525)"
         clip-path="url(#clipPath5)"
         id="text53"><tspan
           style="font-variant:normal;font-weight:normal;font-size:11px;font-family:'DejaVu Serif';writing-mode:lr-tb;fill:#262626;fill-opacity:1;fill-rule:nonzero;stroke:none"
           x="0"
           y="0"
           id="tspan53">1.00</tspan></text>
      <text
         xml:space="preserve"
         transform="matrix(1.3333333,0,0,1.3333333,136.23629,183.06667)"
         clip-path="url(#clipPath6)"
         id="text54"><tspan
           style="font-variant:normal;font-weight:normal;font-size:12px;font-family:'DejaVu Serif';writing-mode:lr-tb;fill:#262626;fill-opacity:1;fill-rule:nonzero;stroke:none"
           x="0"
           y="0"
           id="tspan54">Threshold</tspan></text>
      <text
         xml:space="preserve"
         transform="matrix(1.3333333,0,0,1.3333333,21.1,111.72838)"
         clip-path="url(#clipPath7)"
         id="text55"><tspan
           style="font-variant:normal;font-weight:normal;font-size:11px;font-family:'DejaVu Serif';writing-mode:lr-tb;fill:#262626;fill-opacity:1;fill-rule:nonzero;stroke:none"
           x="0"
           y="0"
           id="tspan55">0.4</tspan></text>
      <text
         xml:space="preserve"
         transform="matrix(1.3333333,0,0,1.3333333,21.1,66.543561)"
         clip-path="url(#clipPath8)"
         id="text56"><tspan
           style="font-variant:normal;font-weight:normal;font-size:11px;font-family:'DejaVu Serif';writing-mode:lr-tb;fill:#262626;fill-opacity:1;fill-rule:nonzero;stroke:none"
           x="0"
           y="0"
           id="tspan56">0.6</tspan></text>
      <text
         xml:space="preserve"
         transform="matrix(1.3333333,0,0,1.3333333,21.1,21.358738)"
         clip-path="url(#clipPath9)"
         id="text57"><tspan
           style="font-variant:normal;font-weight:normal;font-size:11px;font-family:'DejaVu Serif';writing-mode:lr-tb;fill:#262626;fill-opacity:1;fill-rule:nonzero;stroke:none"
           x="0"
           y="0"
           id="tspan57">0.8</tspan></text>
      <text
         xml:space="preserve"
         transform="matrix(0,-1.3333333,1.3333333,0,12.1,103.90821)"
         clip-path="url(#clipPath10)"
         id="text60"><tspan
           style="font-style:oblique;font-variant:normal;font-weight:normal;font-size:12px;font-family:'DejaVu Sans';writing-mode:lr-tb;fill:#262626;fill-opacity:1;fill-rule:nonzero;stroke:none"
           x="0"
           y="0"
           id="tspan58">F</tspan><tspan
           style="font-variant:normal;font-weight:normal;font-size:8.4px;font-family:'DejaVu Sans';writing-mode:lr-tb;fill:#262626;fill-opacity:1;fill-rule:nonzero;stroke:none"
           x="6.9023438"
           y="1.96875"
           id="tspan59">1</tspan><tspan
           style="font-variant:normal;font-weight:normal;font-size:12px;font-family:'DejaVu Serif';writing-mode:lr-tb;fill:#262626;fill-opacity:1;fill-rule:nonzero;stroke:none"
           x="12.574804"
           y="0"
           id="tspan60">-score</tspan></text>
      <g
         clip-path="url(#clipPath12)"
         id="g60">
        <path
           d="m 58.003326,125.58342 33.746426,9.32742 2.018548,5.61547 2.34835,-6.47399 15.21308,6.47399 24.60494,-10.35361 17.19765,4.39667 9.30944,-15.21201 15.50487,-13.97763 10.20004,-7.468568 12.407,-35.899611 21.01619,-14.400179"
           style="fill:none;stroke:#4c72b0;stroke-width:1.5;stroke-linecap:round;stroke-linejoin:round;stroke-miterlimit:10;stroke-dasharray:none;stroke-opacity:1"
           transform="matrix(1.3333333,0,0,-1.3333333,-9.3333333,196)"
           clip-path="url(#clipPath11)"
           id="path60" />
      </g>
      <g
         clip-path="url(#clipPath14)"
         id="g61">
        <path
           d="m 58.003326,119.93531 18.634534,-25.483975 2.897968,-7.556307 3.014007,7.556307 3.283663,-7.556307 5.654274,8.15646 5.587405,7.571192 6.012743,-0.24372 h 10.49569 l 16.3139,-10.706486 21.72398,-5.976967 69.94837,-38.084135"
           style="fill:none;stroke:#dd8452;stroke-width:1.5;stroke-linecap:butt;stroke-linejoin:round;stroke-miterlimit:10;stroke-dasharray:1.5, 2.475;stroke-dashoffset:0;stroke-opacity:1"
           transform="matrix(1.3333333,0,0,-1.3333333,-9.3333333,196)"
           clip-path="url(#clipPath13)"
           id="path61" />
      </g>
      <g
         clip-path="url(#clipPath16)"
         id="g62">
        <path
           d="m 58.003326,100.5874 4.089164,34.84219 v 0 0 h 1.752498 l 4.381247,-9.15893 5.549578,-6.30578 8.113419,-20.530151 6.404193,-34.333854 6.058019,-4.345827 33.751826,8.975248 93.46659,-22.118924"
           style="fill:none;stroke:#55a868;stroke-width:1.5;stroke-linecap:butt;stroke-linejoin:round;stroke-miterlimit:10;stroke-dasharray:5.55, 2.4;stroke-dashoffset:0;stroke-opacity:1"
           transform="matrix(1.3333333,0,0,-1.3333333,-9.3333333,196)"
           clip-path="url(#clipPath15)"
           id="path62" />
      </g>
      <g
         clip-path="url(#clipPath18)"
         id="g63">
        <path
           d="m 58.003326,81.305101 4.089164,30.833129 v 0 0 0 0 0 0 0 l 18.215363,-26.3238 23.576857,19.5653 117.68515,-57.768358"
           style="fill:none;stroke:#c44e52;stroke-width:1.5;stroke-linecap:butt;stroke-linejoin:round;stroke-miterlimit:10;stroke-dasharray:9.6, 2.4, 1.5, 2.4;stroke-dashoffset:0;stroke-opacity:1"
           transform="matrix(1.3333333,0,0,-1.3333333,-9.3333333,196)"
           clip-path="url(#clipPath17)"
           id="path63" />
      </g>
      <path
         d="M 49.825,42.965625 V 145.17206"
         style="fill:none;stroke:#262626;stroke-width:1.25;stroke-linecap:square;stroke-linejoin:miter;stroke-miterlimit:10;stroke-dasharray:none;stroke-opacity:1"
         transform="matrix(1.3333333,0,0,-1.3333333,-9.3333333,196)"
         clip-path="url(#clipPath19)"
         id="path64" />
      <path
         d="M 49.825,42.965625 H 229.74818"
         style="fill:none;stroke:#262626;stroke-width:1.25;stroke-linecap:square;stroke-linejoin:miter;stroke-miterlimit:10;stroke-dasharray:none;stroke-opacity:1"
         transform="matrix(1.3333333,0,0,-1.3333333,-9.3333333,196)"
         clip-path="url(#clipPath20)"
         id="path65" />
      <text
         xml:space="preserve"
         transform="matrix(1.3333333,0,0,1.3333333,367.76798,162.525)"
         clip-path="url(#clipPath21)"
         id="text65"><tspan
           style="font-variant:normal;font-weight:normal;font-size:11px;font-family:'DejaVu Serif';writing-mode:lr-tb;fill:#262626;fill-opacity:1;fill-rule:nonzero;stroke:none"
           x="0"
           y="0"
           id="tspan65">0.00</tspan></text>
      <text
         xml:space="preserve"
         transform="matrix(1.3333333,0,0,1.3333333,422.29015,162.525)"
         clip-path="url(#clipPath22)"
         id="text66"><tspan
           style="font-variant:normal;font-weight:normal;font-size:11px;font-family:'DejaVu Serif';writing-mode:lr-tb;fill:#262626;fill-opacity:1;fill-rule:nonzero;stroke:none"
           x="0"
           y="0"
           id="tspan66">0.25</tspan></text>
      <text
         xml:space="preserve"
         transform="matrix(1.3333333,0,0,1.3333333,476.81233,162.525)"
         clip-path="url(#clipPath23)"
         id="text67"><tspan
           style="font-variant:normal;font-weight:normal;font-size:11px;font-family:'DejaVu Serif';writing-mode:lr-tb;fill:#262626;fill-opacity:1;fill-rule:nonzero;stroke:none"
           x="0"
           y="0"
           id="tspan67">0.50</tspan></text>
      <text
         xml:space="preserve"
         transform="matrix(1.3333333,0,0,1.3333333,531.33451,162.525)"
         clip-path="url(#clipPath24)"
         id="text68"><tspan
           style="font-variant:normal;font-weight:normal;font-size:11px;font-family:'DejaVu Serif';writing-mode:lr-tb;fill:#262626;fill-opacity:1;fill-rule:nonzero;stroke:none"
           x="0"
           y="0"
           id="tspan68">0.75</tspan></text>
      <text
         xml:space="preserve"
         transform="matrix(1.3333333,0,0,1.3333333,585.85668,162.525)"
         clip-path="url(#clipPath25)"
         id="text69"><tspan
           style="font-variant:normal;font-weight:normal;font-size:11px;font-family:'DejaVu Serif';writing-mode:lr-tb;fill:#262626;fill-opacity:1;fill-rule:nonzero;stroke:none"
           x="0"
           y="0"
           id="tspan69">1.00</tspan></text>
      <text
         xml:space="preserve"
         transform="matrix(1.3333333,0,0,1.3333333,452.33316,183.06667)"
         clip-path="url(#clipPath26)"
         id="text70"><tspan
           style="font-variant:normal;font-weight:normal;font-size:12px;font-family:'DejaVu Serif';writing-mode:lr-tb;fill:#262626;fill-opacity:1;fill-rule:nonzero;stroke:none"
           x="0"
           y="0"
           id="tspan70">Threshold</tspan></text>
      <text
         xml:space="preserve"
         transform="matrix(1.3333333,0,0,1.3333333,341.86354,110.01213)"
         clip-path="url(#clipPath27)"
         id="text71"><tspan
           style="font-variant:normal;font-weight:normal;font-size:11px;font-family:'DejaVu Serif';writing-mode:lr-tb;fill:#262626;fill-opacity:1;fill-rule:nonzero;stroke:none"
           x="0"
           y="0"
           id="tspan71">15</tspan></text>
      <text
         xml:space="preserve"
         transform="matrix(1.3333333,0,0,1.3333333,341.86354,61.717286)"
         clip-path="url(#clipPath28)"
         id="text72"><tspan
           style="font-variant:normal;font-weight:normal;font-size:11px;font-family:'DejaVu Serif';writing-mode:lr-tb;fill:#262626;fill-opacity:1;fill-rule:nonzero;stroke:none"
           x="0"
           y="0"
           id="tspan72">20</tspan></text>
      <text
         xml:space="preserve"
         transform="matrix(1.3333333,0,0,1.3333333,341.86354,13.422443)"
         clip-path="url(#clipPath29)"
         id="text73"><tspan
           style="font-variant:normal;font-weight:normal;font-size:11px;font-family:'DejaVu Serif';writing-mode:lr-tb;fill:#262626;fill-opacity:1;fill-rule:nonzero;stroke:none"
           x="0"
           y="0"
           id="tspan73">25</tspan></text>
      <text
         xml:space="preserve"
         transform="matrix(0,-1.3333333,1.3333333,0,333.19687,123.84571)"
         clip-path="url(#clipPath30)"
         id="text74"><tspan
           style="font-variant:normal;font-weight:normal;font-size:12px;font-family:'DejaVu Serif';writing-mode:lr-tb;fill:#262626;fill-opacity:1;fill-rule:nonzero;stroke:none"
           x="0"
           y="0"
           id="tspan74">Total KL-Div.</tspan></text>
      <g
         clip-path="url(#clipPath32)"
         id="g74">
        <path
           d="m 295.07598,74.519501 33.74643,-14.520542 2.01855,-2.434012 2.34835,-7.395305 15.21308,-2.55827 24.60494,10.034486 17.19765,-5.164044 9.30944,19.085171 15.50487,11.869832 10.20004,42.123253 12.407,14.96624 21.01618,-1.33184"
           style="fill:none;stroke:#4c72b0;stroke-width:1.5;stroke-linecap:round;stroke-linejoin:round;stroke-miterlimit:10;stroke-dasharray:none;stroke-opacity:1"
           transform="matrix(1.3333333,0,0,-1.3333333,-9.3333333,196)"
           clip-path="url(#clipPath31)"
           id="path74" />
      </g>
      <g
         clip-path="url(#clipPath34)"
         id="g75">
        <path
           d="m 295.07598,79.550129 18.63454,-9.327761 2.89796,1.000307 3.01401,-2.374221 3.28366,7.493136 5.65428,0.229132 5.5874,9.429791 6.01275,-4.804403 10.49569,12.353641 16.3139,0.889688 21.72398,4.587638 69.94836,40.167393"
           style="fill:none;stroke:#dd8452;stroke-width:1.5;stroke-linecap:butt;stroke-linejoin:round;stroke-miterlimit:10;stroke-dasharray:1.5, 2.475;stroke-dashoffset:0;stroke-opacity:1"
           transform="matrix(1.3333333,0,0,-1.3333333,-9.3333333,196)"
           clip-path="url(#clipPath33)"
           id="path75" />
      </g>
      <g
         clip-path="url(#clipPath36)"
         id="g76">
        <path
           d="m 295.07598,109.02306 4.08917,-25.859581 v 0 0 l 1.75249,-3.123147 4.38125,7.047159 5.54958,7.748931 8.11342,12.071798 6.40419,27.84434 6.05802,2.18318 33.75182,-5.86903 93.46659,8.12776"
           style="fill:none;stroke:#55a868;stroke-width:1.5;stroke-linecap:butt;stroke-linejoin:round;stroke-miterlimit:10;stroke-dasharray:5.55, 2.4;stroke-dashoffset:0;stroke-opacity:1"
           transform="matrix(1.3333333,0,0,-1.3333333,-9.3333333,196)"
           clip-path="url(#clipPath35)"
           id="path76" />
      </g>
      <g
         clip-path="url(#clipPath38)"
         id="g77">
        <path
           d="m 295.07598,117.91424 4.08917,-30.305833 v 0 0 0 0 0 0 0 l 18.21536,20.491713 23.57686,24.97224 117.68514,6.12211"
           style="fill:none;stroke:#c44e52;stroke-width:1.5;stroke-linecap:butt;stroke-linejoin:round;stroke-miterlimit:10;stroke-dasharray:9.6, 2.4, 1.5, 2.4;stroke-dashoffset:0;stroke-opacity:1"
           transform="matrix(1.3333333,0,0,-1.3333333,-9.3333333,196)"
           clip-path="url(#clipPath37)"
           id="path77" />
      </g>
      <path
         d="M 286.89766,42.965625 V 145.17206"
         style="fill:none;stroke:#262626;stroke-width:1.25;stroke-linecap:square;stroke-linejoin:miter;stroke-miterlimit:10;stroke-dasharray:none;stroke-opacity:1"
         transform="matrix(1.3333333,0,0,-1.3333333,-9.3333333,196)"
         clip-path="url(#clipPath39)"
         id="path78" />
      <path
         d="M 286.89766,42.965625 H 466.82084"
         style="fill:none;stroke:#262626;stroke-width:1.25;stroke-linecap:square;stroke-linejoin:miter;stroke-miterlimit:10;stroke-dasharray:none;stroke-opacity:1"
         transform="matrix(1.3333333,0,0,-1.3333333,-9.3333333,196)"
         clip-path="url(#clipPath40)"
         id="path79" />
      <path
         d="m 405.33959,46.965625 h 55.88125 c 1.06666,0 1.6,0.533333 1.6,1.6 v 46.2 c 0,1.066667 -0.53334,1.6 -1.6,1.6 h -55.88125 c -1.06667,0 -1.6,-0.533333 -1.6,-1.6 v -46.2 c 0,-1.066667 0.53333,-1.6 1.6,-1.6 z"
         style="fill:#ffffff;fill-opacity:0.8;fill-rule:nonzero;stroke:#cccccc;stroke-width:1;stroke-linecap:butt;stroke-linejoin:miter;stroke-miterlimit:10;stroke-dasharray:none;stroke-opacity:0.8"
         transform="matrix(1.3333333,0,0,-1.3333333,-9.3333333,196)"
         clip-path="url(#clipPath41)"
         id="path80" />
      <path
         d="m 406.93959,89.8875 h 16"
         style="fill:none;stroke:#4c72b0;stroke-width:1.5;stroke-linecap:round;stroke-linejoin:round;stroke-miterlimit:10;stroke-dasharray:none;stroke-opacity:1"
         transform="matrix(1.3333333,0,0,-1.3333333,-9.3333333,196)"
         clip-path="url(#clipPath42)"
         id="path81" />
      <text
         xml:space="preserve"
         transform="matrix(1.3333333,0,0,1.3333333,563.11945,79.883333)"
         clip-path="url(#clipPath43)"
         id="text81"><tspan
           style="font-variant:normal;font-weight:normal;font-size:8px;font-family:'DejaVu Serif';writing-mode:lr-tb;fill:#262626;fill-opacity:1;fill-rule:nonzero;stroke:none"
           x="0"
           y="0"
           id="tspan81">INVITE</tspan></text>
      <path
         d="m 406.93959,78.1375 h 16"
         style="fill:none;stroke:#dd8452;stroke-width:1.5;stroke-linecap:butt;stroke-linejoin:round;stroke-miterlimit:10;stroke-dasharray:1.5, 2.475;stroke-dashoffset:0;stroke-opacity:1"
         transform="matrix(1.3333333,0,0,-1.3333333,-9.3333333,196)"
         clip-path="url(#clipPath44)"
         id="path82" />
      <text
         xml:space="preserve"
         transform="matrix(1.3333333,0,0,1.3333333,563.11945,95.55)"
         clip-path="url(#clipPath45)"
         id="text82"><tspan
           style="font-variant:normal;font-weight:normal;font-size:8px;font-family:'DejaVu Serif';writing-mode:lr-tb;fill:#262626;fill-opacity:1;fill-rule:nonzero;stroke:none"
           x="0"
           y="0"
           id="tspan82">Cosine</tspan></text>
      <path
         d="m 406.93959,66.3875 h 16"
         style="fill:none;stroke:#55a868;stroke-width:1.5;stroke-linecap:butt;stroke-linejoin:round;stroke-miterlimit:10;stroke-dasharray:5.55, 2.4;stroke-dashoffset:0;stroke-opacity:1"
         transform="matrix(1.3333333,0,0,-1.3333333,-9.3333333,196)"
         clip-path="url(#clipPath46)"
         id="path83" />
      <text
         xml:space="preserve"
         transform="matrix(1.3333333,0,0,1.3333333,563.11945,111.21667)"
         clip-path="url(#clipPath47)"
         id="text83"><tspan
           style="font-variant:normal;font-weight:normal;font-size:8px;font-family:'DejaVu Serif';writing-mode:lr-tb;fill:#262626;fill-opacity:1;fill-rule:nonzero;stroke:none"
           x="0"
           y="0"
           id="tspan83">MC1</tspan></text>
      <path
         d="m 406.93959,54.6375 h 16"
         style="fill:none;stroke:#c44e52;stroke-width:1.5;stroke-linecap:butt;stroke-linejoin:round;stroke-miterlimit:10;stroke-dasharray:9.6, 2.4, 1.5, 2.4;stroke-dashoffset:0;stroke-opacity:1"
         transform="matrix(1.3333333,0,0,-1.3333333,-9.3333333,196)"
         clip-path="url(#clipPath48)"
         id="path84" />
      <text
         xml:space="preserve"
         transform="matrix(1.3333333,0,0,1.3333333,563.11945,126.88333)"
         clip-path="url(#clipPath49)"
         id="text84"><tspan
           style="font-variant:normal;font-weight:normal;font-size:8px;font-family:'DejaVu Serif';writing-mode:lr-tb;fill:#262626;fill-opacity:1;fill-rule:nonzero;stroke:none"
           x="0"
           y="0"
           id="tspan84">MC2</tspan></text>
    </g>
  </g>
</svg>
