<?xml version="1.0" encoding="UTF-8" standalone="no"?>
<!-- Created with Inkscape (http://www.inkscape.org/) -->

<svg
   width="84.226692mm"
   height="105.52606mm"
   viewBox="0 0 84.226692 105.52606"
   version="1.1"
   id="svg1"
   xmlns="http://www.w3.org/2000/svg"
   xmlns:svg="http://www.w3.org/2000/svg">
  <defs
     id="defs1">
    <marker
       style="overflow:visible"
       id="marker22"
       refX="0"
       refY="0"
       orient="auto-start-reverse"
       markerWidth="0.5"
       markerHeight="0.5"
       viewBox="0 0 1 1"
       preserveAspectRatio="xMidYMid">
      <path
         transform="scale(0.5)"
         style="fill:context-stroke;fill-rule:evenodd;stroke:context-stroke;stroke-width:1pt"
         d="M 5.77,0 -2.88,5 V -5 Z"
         id="path22" />
    </marker>
    <marker
       style="overflow:visible"
       id="Triangle"
       refX="0"
       refY="0"
       orient="auto-start-reverse"
       markerWidth="0.5"
       markerHeight="0.5"
       viewBox="0 0 1 1"
       preserveAspectRatio="xMidYMid"
       markerUnits="strokeWidth">
      <path
         transform="scale(0.5)"
         style="fill:context-stroke;fill-rule:evenodd;stroke:context-stroke;stroke-width:1pt"
         d="M 5.77,0 -2.88,5 V -5 Z"
         id="path135" />
    </marker>
    <marker
       style="overflow:visible"
       id="Dot"
       refX="0"
       refY="0"
       orient="auto"
       markerWidth="0.69999999"
       markerHeight="0.69999999"
       viewBox="0 0 1 1"
       preserveAspectRatio="xMidYMid">
      <path
         transform="scale(0.5)"
         style="fill:context-stroke;fill-rule:evenodd;stroke:none"
         d="M 5,0 C 5,2.76 2.76,5 0,5 -2.76,5 -5,2.76 -5,0 c 0,-2.76 2.3,-5 5,-5 2.76,0 5,2.24 5,5 z"
         id="path17" />
    </marker>
  </defs>
  <g
     id="layer1"
     transform="translate(-55.775817,-72.903305)">
    <g
       id="g23"
       transform="matrix(2.1818055,0,0,2.1818055,-65.916171,-176.16652)">
      <g
         id="g6"
         transform="translate(-8.8226698,-0.38995226)"
         style="fill:none">
        <path
           d="m 68.979385,127.38668 v -9.67962 c 0,-0.17066 0.138301,-0.30892 0.308925,-0.30892 h 5.999055 c 0.08193,0 0.160485,0.0325 0.218411,0.0905 l 1.621133,1.6211 c 0.05793,0.058 0.09047,0.13641 0.09047,0.21845 v 8.05852 c 0,0.17067 -0.138301,0.30893 -0.308925,0.30893 h -7.620137 c -0.170624,0 -0.308925,-0.13836 -0.308925,-0.30893 z"
           stroke="#000000"
           stroke-width="0.772311"
           stroke-linecap="round"
           stroke-linejoin="round"
           id="path1"
           style="fill:none;fill-opacity:1;stroke-width:0.8;stroke-dasharray:none" />
        <path
           d="m 71.038881,121.51712 h 4.118995"
           stroke="#000000"
           stroke-width="0.772311"
           stroke-linecap="round"
           stroke-linejoin="round"
           id="path2"
           style="fill:none;stroke-width:0.8;stroke-dasharray:none" />
        <path
           d="m 71.038881,125.63612 h 4.118995"
           stroke="#000000"
           stroke-width="0.772311"
           stroke-linecap="round"
           stroke-linejoin="round"
           id="path3"
           style="fill:none;stroke-width:0.8;stroke-dasharray:none" />
        <path
           d="m 71.038881,123.57663 h 2.059496"
           stroke="#000000"
           stroke-width="0.772311"
           stroke-linecap="round"
           stroke-linejoin="round"
           id="path4"
           style="fill:none;stroke-width:0.8;stroke-dasharray:none" />
        <path
           d="m 75.157876,117.39814 v 1.75056 c 0,0.17067 0.1383,0.30893 0.308924,0.30893 h 1.750572"
           stroke="#000000"
           stroke-width="0.772311"
           stroke-linecap="round"
           stroke-linejoin="round"
           id="path5"
           style="fill:none;stroke-width:0.8;stroke-dasharray:none" />
      </g>
      <g
         id="g7"
         transform="matrix(2.2013226,0,0,2.3245747,-79.541882,-208.00717)"
         style="fill:none;fill-opacity:1">
        <path
           d="m 62.70625,150.8125 h 0.926042 0.926041"
           stroke="#000000"
           stroke-width="0.396875"
           stroke-linecap="round"
           stroke-linejoin="round"
           id="path1-3"
           style="fill:none;fill-opacity:1;stroke-width:0.353652;stroke-dasharray:none" />
        <path
           d="m 62.70625,149.75417 h 0.132292 0.132291"
           stroke="#000000"
           stroke-width="0.396875"
           stroke-linecap="round"
           stroke-linejoin="round"
           id="path2-6"
           style="fill:none;fill-opacity:1;stroke-width:0.353652;stroke-dasharray:none" />
        <path
           d="M 62.70625,148.69583 H 63.103125 63.5"
           stroke="#000000"
           stroke-width="0.396875"
           stroke-linecap="round"
           stroke-linejoin="round"
           id="path3-7"
           style="fill:none;fill-opacity:1;stroke-width:0.353652;stroke-dasharray:none" />
        <path
           d="m 62.70625,146.57917 h 2.513542 l 1.190625,1.19062 v 3.30729"
           stroke="#000000"
           stroke-width="0.396875"
           stroke-linecap="round"
           stroke-linejoin="round"
           id="path4-5"
           style="fill:none;fill-opacity:1;stroke-width:0.353652;stroke-dasharray:none" />
        <path
           d="m 61.647917,151.47396 v -3.70417 c 0,-0.21919 0.177686,-0.39687 0.396875,-0.39687 h 2.580084 c 0.0421,0 0.08247,0.0167 0.112236,0.0465 l 0.833067,0.83305 c 0.02977,0.0298 0.04649,0.0701 0.04649,0.11226 v 3.10924 c 0,0.21918 -0.177695,0.39687 -0.396875,0.39687 h -3.175 c -0.219189,0 -0.396875,-0.17769 -0.396875,-0.39687 z"
           stroke="#000000"
           stroke-width="0.396875"
           stroke-linecap="round"
           stroke-linejoin="round"
           id="path5-3"
           style="fill:none;fill-opacity:1;stroke-width:0.353652;stroke-dasharray:none" />
        <path
           d="m 64.558333,147.37292 v 0.89958 c 0,0.0877 0.07107,0.15875 0.15875,0.15875 h 0.899584"
           stroke="#000000"
           stroke-width="0.396875"
           stroke-linecap="round"
           stroke-linejoin="round"
           id="path6"
           style="fill:none;fill-opacity:1;stroke-width:0.353652;stroke-dasharray:none" />
      </g>
      <g
         id="g11"
         transform="translate(-4.6684768,34.428416)"
         style="fill:none">
        <path
           d="m 68.979385,127.38668 v -9.67962 c 0,-0.17066 0.138301,-0.30892 0.308925,-0.30892 h 5.999055 c 0.08193,0 0.160485,0.0325 0.218411,0.0905 l 1.621133,1.6211 c 0.05793,0.058 0.09047,0.13641 0.09047,0.21845 v 8.05852 c 0,0.17067 -0.138301,0.30893 -0.308925,0.30893 h -7.620137 c -0.170624,0 -0.308925,-0.13836 -0.308925,-0.30893 z"
           stroke="#000000"
           stroke-width="0.772311"
           stroke-linecap="round"
           stroke-linejoin="round"
           id="path7"
           style="fill:none;fill-opacity:1;stroke-width:0.8;stroke-dasharray:none" />
        <path
           d="m 71.038881,121.51712 h 4.118995"
           stroke="#000000"
           stroke-width="0.772311"
           stroke-linecap="round"
           stroke-linejoin="round"
           id="path8"
           style="fill:none;stroke-width:0.8;stroke-dasharray:none" />
        <path
           d="m 71.038881,125.63612 h 4.118995"
           stroke="#000000"
           stroke-width="0.772311"
           stroke-linecap="round"
           stroke-linejoin="round"
           id="path9"
           style="fill:none;stroke-width:0.8;stroke-dasharray:none" />
        <path
           d="m 71.038881,123.57663 h 2.059496"
           stroke="#000000"
           stroke-width="0.772311"
           stroke-linecap="round"
           stroke-linejoin="round"
           id="path10"
           style="fill:none;stroke-width:0.8;stroke-dasharray:none" />
        <path
           d="m 75.157876,117.39814 v 1.75056 c 0,0.17067 0.1383,0.30893 0.308924,0.30893 h 1.750572"
           stroke="#000000"
           stroke-width="0.772311"
           stroke-linecap="round"
           stroke-linejoin="round"
           id="path11"
           style="fill:none;stroke-width:0.8;stroke-dasharray:none" />
      </g>
      <path
         style="font-variation-settings:'wght' 600;fill:none;fill-opacity:1;fill-rule:evenodd;stroke:#393939;stroke-width:0.5;stroke-linecap:round;stroke-linejoin:round;stroke-miterlimit:4;stroke-dasharray:none;stroke-opacity:1;marker-start:url(#Dot);paint-order:stroke fill markers"
         d="m 68.394709,122.9675 11.124673,-1.91092"
         id="path12" />
      <path
         style="font-variation-settings:'wght' 600;fill:none;fill-opacity:1;fill-rule:evenodd;stroke:#393939;stroke-width:0.5;stroke-linecap:round;stroke-linejoin:round;stroke-miterlimit:4;stroke-dasharray:none;stroke-opacity:1;marker-start:url(#Dot);paint-order:stroke fill markers"
         d="M 65.338395,134.1109 80.090862,123.44137"
         id="path13" />
      <path
         style="font-variation-settings:'wght' 600;fill:none;fill-opacity:1;fill-rule:evenodd;stroke:#393939;stroke-width:0.5;stroke-linecap:round;stroke-linejoin:round;stroke-miterlimit:4;stroke-dasharray:none;stroke-opacity:1;marker-start:url(#Dot);paint-order:stroke fill markers"
         d="m 66.64887,139.33877 12.271702,-1.81255"
         id="path14" />
      <path
         style="font-variation-settings:'wght' 600;fill:none;fill-opacity:1;fill-rule:evenodd;stroke:#393939;stroke-width:0.5;stroke-linecap:round;stroke-linejoin:round;stroke-miterlimit:4;stroke-dasharray:none;stroke-opacity:1;marker-start:url(#Dot);paint-order:stroke fill markers"
         d="m 72.548902,155.58918 7.209521,-0.64653"
         id="path16" />
      <g
         id="g16"
         transform="matrix(1.6372624,0,0,1.6372624,-51.9354,-78.552048)">
        <path
           d="m 81.46294,122.44463 v -0.26458 c 0,-1.02288 0.829207,-1.85209 1.852083,-1.85209 v 0 c 1.022879,0 1.852084,0.82921 1.852084,1.85209 v 0.26458"
           stroke="#000000"
           stroke-width="0.396875"
           stroke-linecap="round"
           id="path1-5"
           style="fill:none;stroke-width:0.488621;stroke-dasharray:none" />
        <path
           d="m 84.63794,120.85713 v 0 c 0,-0.73062 0.592296,-1.32292 1.322917,-1.32292 v 0 c 0.73062,0 1.322916,0.5923 1.322916,1.32292 v 0.13229"
           stroke="#000000"
           stroke-width="0.396875"
           stroke-linecap="round"
           id="path2-62"
           style="fill:none;stroke-width:0.488621;stroke-dasharray:none" />
        <path
           d="m 83.315023,120.32796 c 0.584491,0 1.058334,-0.47384 1.058334,-1.05833 0,-0.5845 -0.473843,-1.05833 -1.058334,-1.05833 -0.584501,0 -1.058333,0.47383 -1.058333,1.05833 0,0.58449 0.473832,1.05833 1.058333,1.05833 z"
           stroke="#000000"
           stroke-width="0.396875"
           stroke-linecap="round"
           stroke-linejoin="round"
           id="path3-9"
           style="fill:none;stroke-width:0.488621;stroke-dasharray:none" />
        <path
           d="m 85.960857,119.53421 c 0.438388,0 0.79375,-0.35537 0.79375,-0.79375 0,-0.43837 -0.355362,-0.79375 -0.79375,-0.79375 -0.438388,0 -0.79375,0.35538 -0.79375,0.79375 0,0.43838 0.355362,0.79375 0.79375,0.79375 z"
           stroke="#000000"
           stroke-width="0.396875"
           stroke-linecap="round"
           stroke-linejoin="round"
           id="path4-1"
           style="fill:none;stroke-width:0.488621;stroke-dasharray:none" />
      </g>
      <g
         id="g20"
         transform="matrix(1.7059235,0,0,1.7059235,-58.857322,-96.201398)">
        <path
           d="m 81.524256,138.39403 v -0.26459 c 0,-1.02288 0.829207,-1.85208 1.852084,-1.85208 v 0 c 1.022879,0 1.852083,0.8292 1.852083,1.85208 v 0.26459"
           stroke="#000000"
           stroke-width="0.396875"
           stroke-linecap="round"
           stroke-linejoin="round"
           id="path1-2"
           style="fill:none;fill-opacity:1;stroke-width:0.468954;stroke-dasharray:none" />
        <path
           d="m 83.37634,136.27736 c 0.584491,0 1.058333,-0.47384 1.058333,-1.05833 0,-0.58451 -0.473842,-1.05834 -1.058333,-1.05834 -0.584502,0 -1.058334,0.47383 -1.058334,1.05834 0,0.58449 0.473832,1.05833 1.058334,1.05833 z"
           stroke="#000000"
           stroke-width="0.396875"
           stroke-linecap="round"
           stroke-linejoin="round"
           id="path2-7"
           style="fill:none;fill-opacity:1;stroke-width:0.468954;stroke-dasharray:none" />
      </g>
      <g
         id="g19"
         transform="matrix(1.7729375,0,0,1.7729375,-62.483652,-110.34845)">
        <path
           d="m 80.781323,151.61824 v -0.26459 c 0,-1.02288 0.829207,-1.85208 1.852084,-1.85208 v 0 c 1.022879,0 1.852083,0.8292 1.852083,1.85208 v 0.26459"
           stroke="#000000"
           stroke-width="0.396875"
           stroke-linecap="round"
           stroke-linejoin="round"
           id="path18"
           style="fill:none;fill-opacity:1;stroke-width:0.451229;stroke-dasharray:none" />
        <path
           d="m 82.633407,149.50157 c 0.584491,0 1.058333,-0.47384 1.058333,-1.05833 0,-0.58451 -0.473842,-1.05834 -1.058333,-1.05834 -0.584502,0 -1.058334,0.47383 -1.058334,1.05834 0,0.58449 0.473832,1.05833 1.058334,1.05833 z"
           stroke="#000000"
           stroke-width="0.396875"
           stroke-linecap="round"
           stroke-linejoin="round"
           id="path19"
           style="fill:none;fill-opacity:1;stroke-width:0.451229;stroke-dasharray:none" />
      </g>
      <path
         style="font-variation-settings:'wght' 600;fill:none;fill-opacity:1;fill-rule:evenodd;stroke:#7bb44a;stroke-width:0.5;stroke-linejoin:round;stroke-miterlimit:4;stroke-dasharray:none;stroke-opacity:1;marker-start:url(#Triangle);marker-end:url(#marker22);paint-order:stroke fill markers"
         d="m 89.285702,124.37956 c 1.179265,3.18649 -1.923627,7.59128 -1.923627,7.59128"
         id="path20" />
      <path
         style="font-variation-settings:'wght' 600;fill:none;fill-opacity:1;fill-rule:evenodd;stroke:#c2574b;stroke-width:0.5;stroke-linejoin:round;stroke-miterlimit:4;stroke-dasharray:none;stroke-opacity:1;marker-start:url(#marker22);marker-end:url(#marker22);paint-order:stroke fill markers"
         d="m 88.148781,151.12015 c 2.426917,-3.81373 0.54482,-9.11332 0.54482,-9.11332"
         id="path21" />
      <path
         d="m 90.411167,127.81233 1.058333,1.05833 2.645834,-2.64583"
         stroke="#000000"
         stroke-width="0.396875"
         stroke-linecap="round"
         stroke-linejoin="round"
         id="path1-6"
         style="fill:none;stroke:#7bb44a;stroke-width:0.5;stroke-dasharray:none;stroke-opacity:1" />
      <path
         d="m 91.355729,148.05036 1.387112,-1.3871 m 1.387105,-1.38712 -1.387105,1.38712 m 0,0 -1.387112,-1.38712 m 1.387112,1.38712 1.387105,1.3871"
         stroke="#000000"
         stroke-width="0.396875"
         stroke-linecap="round"
         stroke-linejoin="round"
         id="path1-61"
         style="fill:none;stroke:#c2574b;stroke-width:0.5;stroke-dasharray:none;stroke-opacity:1" />
    </g>
  </g>
</svg>
