<?xml version="1.0" encoding="utf-8" standalone="no"?>
<!DOCTYPE svg PUBLIC "-//W3C//DTD SVG 1.1//EN"
  "http://www.w3.org/Graphics/SVG/1.1/DTD/svg11.dtd">
<svg xmlns:xlink="http://www.w3.org/1999/xlink" width="281.725861pt" height="137.079pt" viewBox="0 0 281.725861 137.079" xmlns="http://www.w3.org/2000/svg" version="1.1">
 <metadata>
  <rdf:RDF xmlns:dc="http://purl.org/dc/elements/1.1/" xmlns:cc="http://creativecommons.org/ns#" xmlns:rdf="http://www.w3.org/1999/02/22-rdf-syntax-ns#">
   <cc:Work>
    <dc:type rdf:resource="http://purl.org/dc/dcmitype/StillImage"/>
    <dc:date>2025-04-29T11:39:55.359061</dc:date>
    <dc:format>image/svg+xml</dc:format>
    <dc:creator>
     <cc:Agent>
      <dc:title>Matplotlib v3.10.1, https://matplotlib.org/</dc:title>
     </cc:Agent>
    </dc:creator>
   </cc:Work>
  </rdf:RDF>
 </metadata>
 <defs>
  <style type="text/css">*{stroke-linejoin: round; stroke-linecap: butt}</style>
 </defs>
 <g id="figure_1">
  <g id="patch_1">
   <path d="M 0 137.079 
L 281.725861 137.079 
L 281.725861 0 
L 0 0 
z
" style="fill: #ffffff"/>
  </g>
  <g id="axes_1">
   <g id="patch_2">
    <path d="M 40.888125 100.027125 
L 267.862772 100.027125 
L 267.862772 10.438125 
L 40.888125 10.438125 
z
" style="fill: #ffffff"/>
   </g>
   <g id="matplotlib.axis_1">
    <g id="xtick_1">
     <g id="line2d_1">
      <defs>
       <path id="me26e476992" d="M 0 0 
L 0 4.8 
" style="stroke: #262626"/>
      </defs>
      <g>
       <use xlink:href="#me26e476992" x="42.741829" y="100.027125" style="fill: #262626; stroke: #262626"/>
      </g>
     </g>
     <g id="text_1">
      <!-- −0.15 -->
      <g style="fill: #262626" transform="translate(30.515329 114.803375) scale(0.088 -0.088)">
       <defs>
        <path id="CharterBT-Roman-2212" d="M 794 2093 
L 794 1722 
L 4538 1722 
L 4538 2093 
L 794 2093 
z
" transform="scale(0.015625)"/>
        <path id="CharterBT-Roman-30" d="M 1779 4371 
C 864 4371 262 3565 262 2150 
C 262 736 864 -77 1779 -77 
C 2694 -77 3296 736 3296 2150 
C 3296 3565 2694 4371 1779 4371 
z
M 1779 4070 
C 2368 4070 2688 3418 2688 2150 
C 2688 883 2368 230 1779 230 
C 1190 230 864 877 864 2144 
C 864 3418 1190 4070 1779 4070 
z
" transform="scale(0.015625)"/>
        <path id="CharterBT-Roman-2e" d="M 890 755 
C 666 755 480 576 480 346 
C 480 115 666 -58 890 -58 
C 1114 -58 1293 122 1293 346 
C 1293 576 1114 755 890 755 
z
" transform="scale(0.015625)"/>
        <path id="CharterBT-Roman-31" d="M 1990 4371 
L 602 3955 
L 602 3686 
L 1606 3866 
L 1606 422 
L 1530 314 
L 794 275 
L 794 0 
L 2938 0 
L 2938 269 
L 2246 301 
L 2170 397 
L 2170 4371 
L 1990 4371 
z
" transform="scale(0.015625)"/>
        <path id="CharterBT-Roman-35" d="M 646 4294 
L 646 2182 
C 787 2208 973 2221 1210 2221 
C 2099 2221 2541 1920 2541 1261 
C 2541 666 2131 237 1530 237 
C 1389 237 1242 262 1101 314 
L 845 864 
C 781 877 730 883 691 883 
C 474 883 320 742 320 544 
C 320 237 762 -58 1421 -58 
C 2470 -58 3130 563 3130 1389 
C 3130 2118 2586 2618 1728 2618 
C 1523 2618 1293 2586 1043 2515 
L 1043 3795 
L 2938 3795 
L 2938 4294 
L 646 4294 
z
" transform="scale(0.015625)"/>
       </defs>
       <use xlink:href="#CharterBT-Roman-2212"/>
       <use xlink:href="#CharterBT-Roman-30" transform="translate(83.299988 0)"/>
       <use xlink:href="#CharterBT-Roman-2e" transform="translate(138.899979 0)"/>
       <use xlink:href="#CharterBT-Roman-31" transform="translate(166.699966 0)"/>
       <use xlink:href="#CharterBT-Roman-35" transform="translate(222.299957 0)"/>
      </g>
     </g>
    </g>
    <g id="xtick_2">
     <g id="line2d_2">
      <g>
       <use xlink:href="#me26e476992" x="74.630771" y="100.027125" style="fill: #262626; stroke: #262626"/>
      </g>
     </g>
     <g id="text_2">
      <!-- −0.10 -->
      <g style="fill: #262626" transform="translate(62.404271 114.803375) scale(0.088 -0.088)">
       <use xlink:href="#CharterBT-Roman-2212"/>
       <use xlink:href="#CharterBT-Roman-30" transform="translate(83.299988 0)"/>
       <use xlink:href="#CharterBT-Roman-2e" transform="translate(138.899979 0)"/>
       <use xlink:href="#CharterBT-Roman-31" transform="translate(166.699966 0)"/>
       <use xlink:href="#CharterBT-Roman-30" transform="translate(222.299957 0)"/>
      </g>
     </g>
    </g>
    <g id="xtick_3">
     <g id="line2d_3">
      <g>
       <use xlink:href="#me26e476992" x="106.519713" y="100.027125" style="fill: #262626; stroke: #262626"/>
      </g>
     </g>
     <g id="text_3">
      <!-- −0.05 -->
      <g style="fill: #262626" transform="translate(94.293213 114.803375) scale(0.088 -0.088)">
       <use xlink:href="#CharterBT-Roman-2212"/>
       <use xlink:href="#CharterBT-Roman-30" transform="translate(83.299988 0)"/>
       <use xlink:href="#CharterBT-Roman-2e" transform="translate(138.899979 0)"/>
       <use xlink:href="#CharterBT-Roman-30" transform="translate(166.699966 0)"/>
       <use xlink:href="#CharterBT-Roman-35" transform="translate(222.299957 0)"/>
      </g>
     </g>
    </g>
    <g id="xtick_4">
     <g id="line2d_4">
      <g>
       <use xlink:href="#me26e476992" x="138.408655" y="100.027125" style="fill: #262626; stroke: #262626"/>
      </g>
     </g>
     <g id="text_4">
      <!-- 0.00 -->
      <g style="fill: #262626" transform="translate(129.847218 114.803375) scale(0.088 -0.088)">
       <use xlink:href="#CharterBT-Roman-30"/>
       <use xlink:href="#CharterBT-Roman-2e" transform="translate(55.599991 0)"/>
       <use xlink:href="#CharterBT-Roman-30" transform="translate(83.399979 0)"/>
       <use xlink:href="#CharterBT-Roman-30" transform="translate(138.999969 0)"/>
      </g>
     </g>
    </g>
    <g id="xtick_5">
     <g id="line2d_5">
      <g>
       <use xlink:href="#me26e476992" x="170.297597" y="100.027125" style="fill: #262626; stroke: #262626"/>
      </g>
     </g>
     <g id="text_5">
      <!-- 0.05 -->
      <g style="fill: #262626" transform="translate(161.73616 114.803375) scale(0.088 -0.088)">
       <use xlink:href="#CharterBT-Roman-30"/>
       <use xlink:href="#CharterBT-Roman-2e" transform="translate(55.599991 0)"/>
       <use xlink:href="#CharterBT-Roman-30" transform="translate(83.399979 0)"/>
       <use xlink:href="#CharterBT-Roman-35" transform="translate(138.999969 0)"/>
      </g>
     </g>
    </g>
    <g id="xtick_6">
     <g id="line2d_6">
      <g>
       <use xlink:href="#me26e476992" x="202.186539" y="100.027125" style="fill: #262626; stroke: #262626"/>
      </g>
     </g>
     <g id="text_6">
      <!-- 0.10 -->
      <g style="fill: #262626" transform="translate(193.625102 114.803375) scale(0.088 -0.088)">
       <use xlink:href="#CharterBT-Roman-30"/>
       <use xlink:href="#CharterBT-Roman-2e" transform="translate(55.599991 0)"/>
       <use xlink:href="#CharterBT-Roman-31" transform="translate(83.399979 0)"/>
       <use xlink:href="#CharterBT-Roman-30" transform="translate(138.999969 0)"/>
      </g>
     </g>
    </g>
    <g id="xtick_7">
     <g id="line2d_7">
      <g>
       <use xlink:href="#me26e476992" x="234.075481" y="100.027125" style="fill: #262626; stroke: #262626"/>
      </g>
     </g>
     <g id="text_7">
      <!-- 0.15 -->
      <g style="fill: #262626" transform="translate(225.514044 114.803375) scale(0.088 -0.088)">
       <use xlink:href="#CharterBT-Roman-30"/>
       <use xlink:href="#CharterBT-Roman-2e" transform="translate(55.599991 0)"/>
       <use xlink:href="#CharterBT-Roman-31" transform="translate(83.399979 0)"/>
       <use xlink:href="#CharterBT-Roman-35" transform="translate(138.999969 0)"/>
      </g>
     </g>
    </g>
    <g id="xtick_8">
     <g id="line2d_8">
      <g>
       <use xlink:href="#me26e476992" x="265.964423" y="100.027125" style="fill: #262626; stroke: #262626"/>
      </g>
     </g>
     <g id="text_8">
      <!-- 0.20 -->
      <g style="fill: #262626" transform="translate(257.402986 114.803375) scale(0.088 -0.088)">
       <defs>
        <path id="CharterBT-Roman-32" d="M 902 506 
C 2317 1632 3091 2355 3091 3162 
C 3091 3885 2586 4371 1760 4371 
C 966 4371 403 3917 403 3469 
C 403 3251 538 3110 762 3110 
C 864 3110 960 3142 1050 3206 
L 1050 3891 
C 1242 4000 1427 4045 1619 4045 
C 2150 4045 2470 3686 2470 3078 
C 2470 2240 1670 1542 269 403 
L 269 0 
L 3232 0 
L 3232 1050 
L 2944 1050 
L 2829 506 
L 902 506 
z
" transform="scale(0.015625)"/>
       </defs>
       <use xlink:href="#CharterBT-Roman-30"/>
       <use xlink:href="#CharterBT-Roman-2e" transform="translate(55.599991 0)"/>
       <use xlink:href="#CharterBT-Roman-32" transform="translate(83.399979 0)"/>
       <use xlink:href="#CharterBT-Roman-30" transform="translate(138.999969 0)"/>
      </g>
     </g>
    </g>
    <g id="text_9">
     <!-- score -->
     <g style="fill: #262626" transform="translate(143.537198 127.7865) scale(0.096 -0.096)">
      <defs>
       <path id="CharterBT-Roman-73" d="M 2202 3002 
C 1984 3098 1734 3142 1453 3142 
C 723 3142 320 2810 320 2246 
C 320 1818 602 1613 1146 1370 
C 1568 1178 1798 1062 1798 730 
C 1798 429 1568 211 1197 211 
C 1011 211 832 262 653 365 
L 576 909 
L 269 909 
L 269 77 
C 493 -6 774 -58 1101 -58 
C 1856 -58 2298 307 2298 902 
C 2298 1139 2208 1331 2054 1453 
C 1843 1626 1600 1715 1376 1824 
C 1018 1997 832 2131 832 2406 
C 832 2694 1024 2867 1363 2867 
C 1517 2867 1670 2822 1837 2733 
L 1888 2278 
L 2202 2278 
L 2202 3002 
z
" transform="scale(0.015625)"/>
       <path id="CharterBT-Roman-63" d="M 2720 269 
L 2720 602 
C 2451 422 2189 333 1907 333 
C 1242 333 819 800 819 1587 
C 819 2394 1210 2886 1760 2886 
C 1869 2886 1971 2854 2067 2797 
L 2067 2272 
C 2163 2208 2259 2176 2355 2176 
C 2573 2176 2714 2310 2714 2515 
C 2714 2886 2368 3142 1754 3142 
C 858 3142 237 2496 237 1542 
C 237 595 806 -45 1677 -45 
C 2022 -45 2368 64 2720 269 
z
" transform="scale(0.015625)"/>
       <path id="CharterBT-Roman-6f" d="M 1722 3142 
C 858 3142 237 2496 237 1542 
C 237 595 864 -58 1722 -58 
C 2579 -58 3213 595 3213 1542 
C 3213 2490 2586 3142 1722 3142 
z
M 1722 2867 
C 2240 2867 2611 2368 2611 1542 
C 2611 710 2240 218 1722 218 
C 1210 218 838 717 838 1542 
C 838 2374 1203 2867 1722 2867 
z
" transform="scale(0.015625)"/>
       <path id="CharterBT-Roman-72" d="M 192 0 
L 1734 0 
L 1734 230 
L 1286 262 
L 1178 365 
L 1178 2195 
C 1440 2502 1664 2662 1875 2662 
C 2010 2662 2118 2611 2202 2509 
L 2406 2509 
L 2406 3059 
C 2272 3117 2150 3142 2022 3142 
C 1971 3142 1914 3142 1862 3130 
C 1632 2944 1402 2739 1178 2509 
L 1178 3110 
L 934 3110 
L 192 2880 
L 192 2682 
L 646 2682 
L 646 365 
L 531 262 
L 192 230 
L 192 0 
z
" transform="scale(0.015625)"/>
       <path id="CharterBT-Roman-65" d="M 2867 678 
C 2502 435 2182 307 1862 307 
C 1216 307 787 794 787 1613 
L 787 1683 
L 2861 1683 
C 2867 1754 2867 1818 2867 1882 
C 2867 2669 2413 3142 1715 3142 
C 858 3142 237 2483 237 1517 
C 237 576 819 -58 1664 -58 
C 2067 -58 2483 70 2867 326 
L 2867 678 
z
M 2298 1952 
L 819 1952 
C 858 2496 1222 2854 1632 2854 
C 2061 2854 2298 2573 2298 2054 
L 2298 1952 
z
" transform="scale(0.015625)"/>
      </defs>
      <use xlink:href="#CharterBT-Roman-73"/>
      <use xlink:href="#CharterBT-Roman-63" transform="translate(39.999985 0)"/>
      <use xlink:href="#CharterBT-Roman-6f" transform="translate(84.599976 0)"/>
      <use xlink:href="#CharterBT-Roman-72" transform="translate(138.499969 0)"/>
      <use xlink:href="#CharterBT-Roman-65" transform="translate(176.699966 0)"/>
     </g>
    </g>
   </g>
   <g id="matplotlib.axis_2">
    <g id="ytick_1">
     <g id="line2d_9">
      <defs>
       <path id="m9859d92e37" d="M 0 0 
L -4.8 0 
" style="stroke: #262626"/>
      </defs>
      <g>
       <use xlink:href="#m9859d92e37" x="40.888125" y="100.027125" style="fill: #262626; stroke: #262626"/>
      </g>
     </g>
     <g id="text_10">
      <!-- 0.0 -->
      <g style="fill: #262626" transform="translate(20.3575 103.26525) scale(0.088 -0.088)">
       <use xlink:href="#CharterBT-Roman-30"/>
       <use xlink:href="#CharterBT-Roman-2e" transform="translate(55.599991 0)"/>
       <use xlink:href="#CharterBT-Roman-30" transform="translate(83.399979 0)"/>
      </g>
     </g>
    </g>
    <g id="ytick_2">
     <g id="line2d_10">
      <g>
       <use xlink:href="#m9859d92e37" x="40.888125" y="82.109325" style="fill: #262626; stroke: #262626"/>
      </g>
     </g>
     <g id="text_11">
      <!-- 0.2 -->
      <g style="fill: #262626" transform="translate(20.3575 85.34745) scale(0.088 -0.088)">
       <use xlink:href="#CharterBT-Roman-30"/>
       <use xlink:href="#CharterBT-Roman-2e" transform="translate(55.599991 0)"/>
       <use xlink:href="#CharterBT-Roman-32" transform="translate(83.399979 0)"/>
      </g>
     </g>
    </g>
    <g id="ytick_3">
     <g id="line2d_11">
      <g>
       <use xlink:href="#m9859d92e37" x="40.888125" y="64.191525" style="fill: #262626; stroke: #262626"/>
      </g>
     </g>
     <g id="text_12">
      <!-- 0.4 -->
      <g style="fill: #262626" transform="translate(20.3575 67.42965) scale(0.088 -0.088)">
       <defs>
        <path id="CharterBT-Roman-34" d="M 2355 4333 
L 173 1658 
L 173 1242 
L 2234 1242 
L 2234 -237 
L 2726 -237 
L 2726 1242 
L 3450 1242 
L 3450 1658 
L 2726 1658 
L 2726 4333 
L 2355 4333 
z
M 2234 3635 
L 2234 1658 
L 653 1658 
L 2234 3635 
z
" transform="scale(0.015625)"/>
       </defs>
       <use xlink:href="#CharterBT-Roman-30"/>
       <use xlink:href="#CharterBT-Roman-2e" transform="translate(55.599991 0)"/>
       <use xlink:href="#CharterBT-Roman-34" transform="translate(83.399979 0)"/>
      </g>
     </g>
    </g>
    <g id="ytick_4">
     <g id="line2d_12">
      <g>
       <use xlink:href="#m9859d92e37" x="40.888125" y="46.273725" style="fill: #262626; stroke: #262626"/>
      </g>
     </g>
     <g id="text_13">
      <!-- 0.6 -->
      <g style="fill: #262626" transform="translate(20.3575 49.51185) scale(0.088 -0.088)">
       <defs>
        <path id="CharterBT-Roman-36" d="M 2835 4570 
C 1267 4467 320 3411 320 1773 
C 320 621 947 -77 1811 -77 
C 2688 -77 3360 589 3360 1453 
C 3360 2266 2790 2848 2029 2848 
C 1651 2848 1274 2714 941 2458 
C 1139 3597 1792 4198 2816 4198 
L 2835 4198 
L 2835 4570 
z
M 928 2176 
C 1190 2368 1504 2464 1856 2464 
C 2400 2464 2778 2054 2778 1395 
C 2778 717 2394 230 1862 230 
C 1261 230 915 768 915 1786 
C 915 1907 915 2042 928 2176 
z
" transform="scale(0.015625)"/>
       </defs>
       <use xlink:href="#CharterBT-Roman-30"/>
       <use xlink:href="#CharterBT-Roman-2e" transform="translate(55.599991 0)"/>
       <use xlink:href="#CharterBT-Roman-36" transform="translate(83.399979 0)"/>
      </g>
     </g>
    </g>
    <g id="ytick_5">
     <g id="line2d_13">
      <g>
       <use xlink:href="#m9859d92e37" x="40.888125" y="28.355925" style="fill: #262626; stroke: #262626"/>
      </g>
     </g>
     <g id="text_14">
      <!-- 0.8 -->
      <g style="fill: #262626" transform="translate(20.3575 31.59405) scale(0.088 -0.088)">
       <defs>
        <path id="CharterBT-Roman-38" d="M 2054 2362 
C 1357 2611 1018 2899 1018 3322 
C 1018 3744 1350 4077 1792 4077 
C 2259 4077 2566 3757 2566 3245 
C 2566 2906 2387 2579 2054 2362 
z
M 2323 2246 
C 2797 2496 3059 2886 3059 3309 
C 3059 3930 2579 4384 1811 4384 
C 1018 4384 486 3904 486 3226 
C 486 2765 717 2426 1158 2240 
C 576 2016 282 1638 282 1133 
C 282 410 838 -102 1760 -102 
C 2650 -102 3238 467 3238 1146 
C 3238 1645 2925 2035 2323 2246 
z
M 1402 2106 
C 2259 1786 2688 1587 2688 1082 
C 2688 576 2330 230 1779 230 
C 1165 230 774 608 774 1171 
C 774 1600 966 1875 1402 2106 
z
" transform="scale(0.015625)"/>
       </defs>
       <use xlink:href="#CharterBT-Roman-30"/>
       <use xlink:href="#CharterBT-Roman-2e" transform="translate(55.599991 0)"/>
       <use xlink:href="#CharterBT-Roman-38" transform="translate(83.399979 0)"/>
      </g>
     </g>
    </g>
    <g id="ytick_6">
     <g id="line2d_14">
      <g>
       <use xlink:href="#m9859d92e37" x="40.888125" y="10.438125" style="fill: #262626; stroke: #262626"/>
      </g>
     </g>
     <g id="text_15">
      <!-- 1.0 -->
      <g style="fill: #262626" transform="translate(20.3575 13.67625) scale(0.088 -0.088)">
       <use xlink:href="#CharterBT-Roman-31"/>
       <use xlink:href="#CharterBT-Roman-2e" transform="translate(55.599991 0)"/>
       <use xlink:href="#CharterBT-Roman-30" transform="translate(83.399979 0)"/>
      </g>
     </g>
    </g>
    <g id="text_16">
     <!-- Proportion -->
     <g style="fill: #262626" transform="translate(14.265 77.659125) rotate(-90) scale(0.096 -0.096)">
      <defs>
       <path id="CharterBT-Roman-50" d="M 211 0 
L 1824 0 
L 1824 262 
L 1370 294 
L 1261 384 
L 1261 1645 
C 1459 1626 1619 1613 1741 1613 
C 2771 1613 3398 2170 3398 2989 
C 3398 3962 2848 4294 1619 4294 
L 160 4294 
L 160 4038 
L 576 4000 
L 685 3910 
L 685 384 
L 576 294 
L 211 262 
L 211 0 
z
M 1261 1952 
L 1261 3987 
C 1376 4000 1491 4000 1594 4000 
C 2413 4000 2803 3686 2803 3002 
C 2803 2298 2413 1920 1683 1920 
C 1587 1920 1446 1933 1261 1952 
z
" transform="scale(0.015625)"/>
       <path id="CharterBT-Roman-70" d="M 147 -1395 
L 1651 -1395 
L 1651 -1165 
L 1242 -1133 
L 1133 -1030 
L 1133 38 
C 1370 0 1568 -19 1728 -19 
C 2675 -19 3302 634 3302 1645 
C 3302 2541 2778 3142 2074 3142 
C 1773 3142 1472 3014 1133 2758 
L 1133 3110 
L 890 3110 
L 147 2880 
L 147 2682 
L 602 2682 
L 602 -1030 
L 493 -1133 
L 147 -1165 
L 147 -1395 
z
M 1133 371 
L 1133 2522 
C 1376 2662 1587 2739 1805 2739 
C 2362 2739 2739 2298 2739 1562 
C 2739 774 2304 269 1677 269 
C 1523 269 1344 301 1133 371 
z
" transform="scale(0.015625)"/>
       <path id="CharterBT-Roman-74" d="M 563 2694 
L 563 627 
C 563 173 698 -19 1229 -19 
C 1478 -19 1766 26 2067 122 
L 2067 358 
C 1920 326 1773 307 1626 307 
C 1178 307 1094 518 1094 1005 
L 1094 2694 
L 2067 2694 
L 2067 2995 
L 1094 2995 
L 1094 3674 
L 858 3674 
L 582 3078 
L 160 2893 
L 160 2694 
L 563 2694 
z
" transform="scale(0.015625)"/>
       <path id="CharterBT-Roman-69" d="M 986 4531 
C 781 4531 614 4371 614 4160 
C 614 3955 781 3795 986 3795 
C 1190 3795 1357 3955 1357 4160 
C 1357 4365 1190 4531 986 4531 
z
M 960 3110 
L 224 2880 
L 224 2682 
L 672 2682 
L 672 365 
L 563 262 
L 224 230 
L 224 0 
L 1664 0 
L 1664 230 
L 1318 262 
L 1203 365 
L 1203 3110 
L 960 3110 
z
" transform="scale(0.015625)"/>
       <path id="CharterBT-Roman-6e" d="M 192 0 
L 1594 0 
L 1594 230 
L 1286 262 
L 1178 365 
L 1178 2509 
C 1453 2650 1690 2720 1894 2720 
C 2368 2720 2541 2528 2541 2061 
L 2541 365 
L 2432 262 
L 2125 230 
L 2125 0 
L 3526 0 
L 3526 230 
L 3181 262 
L 3072 365 
L 3072 2170 
C 3072 2810 2765 3142 2208 3142 
C 1933 3142 1606 2995 1178 2758 
L 1178 3110 
L 934 3110 
L 192 2880 
L 192 2682 
L 646 2682 
L 646 365 
L 538 262 
L 192 230 
L 192 0 
z
" transform="scale(0.015625)"/>
      </defs>
      <use xlink:href="#CharterBT-Roman-50"/>
      <use xlink:href="#CharterBT-Roman-72" transform="translate(55.799988 0)"/>
      <use xlink:href="#CharterBT-Roman-6f" transform="translate(93.999985 0)"/>
      <use xlink:href="#CharterBT-Roman-70" transform="translate(147.899979 0)"/>
      <use xlink:href="#CharterBT-Roman-6f" transform="translate(202.999969 0)"/>
      <use xlink:href="#CharterBT-Roman-72" transform="translate(256.899963 0)"/>
      <use xlink:href="#CharterBT-Roman-74" transform="translate(295.09996 0)"/>
      <use xlink:href="#CharterBT-Roman-69" transform="translate(328.499954 0)"/>
      <use xlink:href="#CharterBT-Roman-6f" transform="translate(356.499939 0)"/>
      <use xlink:href="#CharterBT-Roman-6e" transform="translate(410.399933 0)"/>
     </g>
    </g>
   </g>
   <g id="line2d_15">
    <path d="M 51.205154 100.027125 
L 51.205154 99.96491 
L 54.732071 99.902696 
L 54.732071 99.840481 
L 65.81029 99.778267 
L 65.81029 99.716052 
L 68.278494 99.653837 
L 68.278494 99.591623 
L 72.698301 99.529408 
L 72.806724 99.404979 
L 73.489147 99.342765 
L 73.489147 99.28055 
L 76.843864 99.218335 
L 76.843864 99.156121 
L 79.30569 99.093906 
L 79.30569 99.031692 
L 82.864496 98.969477 
L 82.934652 98.845048 
L 84.624766 98.782833 
L 84.688544 98.658404 
L 86.614636 98.59619 
L 86.614636 98.533975 
L 87.686104 98.47176 
L 87.686104 98.409546 
L 88.445061 98.347331 
L 88.445061 98.285117 
L 92.39929 98.222902 
L 92.39929 98.160687 
L 95.199139 98.098473 
L 95.199139 98.036258 
L 97.794899 97.974044 
L 97.794899 97.911829 
L 98.636767 97.849615 
L 98.636767 97.7874 
L 99.134234 97.725185 
L 99.134234 97.662971 
L 99.708235 97.600756 
L 99.708235 97.538542 
L 100.518214 97.476327 
L 100.518214 97.414112 
L 101.417482 97.351898 
L 101.417482 97.289683 
L 101.710861 97.227469 
L 101.774639 97.10304 
L 102.699418 97.040825 
L 102.699418 96.97861 
L 103.209641 96.916396 
L 103.209641 96.854181 
L 104.089776 96.791967 
L 104.108909 96.667537 
L 105.728867 96.605323 
L 105.728867 96.543108 
L 106.609002 96.480894 
L 106.609002 96.418679 
L 106.953403 96.356465 
L 106.953403 96.29425 
L 107.304181 96.232035 
L 107.304181 96.169821 
L 108.299116 96.107606 
L 108.299116 96.045392 
L 109.338696 95.983177 
L 109.338696 95.920962 
L 110.359142 95.858748 
L 110.359142 95.796533 
L 111.245654 95.734319 
L 111.245654 95.672104 
L 112.119411 95.60989 
L 112.170434 95.48546 
L 112.616879 95.423246 
L 112.616879 95.361031 
L 114.02637 95.298817 
L 114.02637 95.236602 
L 114.192193 95.174387 
L 114.192193 95.112173 
L 114.511082 95.049958 
L 114.511082 94.987744 
L 115.027683 94.925529 
L 115.027683 94.863315 
L 115.435861 94.8011 
L 115.435861 94.738885 
L 115.965218 94.676671 
L 115.965218 94.614456 
L 116.245841 94.552242 
L 116.315996 94.427812 
L 116.972908 94.365598 
L 116.972908 94.303383 
L 117.961466 94.241169 
L 117.961466 94.178954 
L 119.154112 94.11674 
L 119.173245 93.930096 
L 120.88887 93.867881 
L 120.997293 93.681237 
L 121.469249 93.619023 
L 121.469249 93.556808 
L 122.260095 93.494594 
L 122.260095 93.432379 
L 122.438673 93.370165 
L 122.470562 93.245735 
L 122.955274 93.183521 
L 122.955274 93.121306 
L 123.344319 93.059092 
L 123.344319 92.996877 
L 123.841787 92.934662 
L 123.841787 92.872448 
L 124.211698 92.810233 
L 124.275476 92.62359 
L 124.549721 92.561375 
L 124.613499 92.436946 
L 124.670899 92.374731 
L 124.772944 92.250302 
L 124.938766 92.188087 
L 125.008922 92.063658 
L 125.110966 92.001444 
L 125.123722 91.877015 
L 125.346945 91.8148 
L 125.346945 91.752585 
L 125.614812 91.690371 
L 125.697723 91.379298 
L 125.844412 91.317083 
L 125.952834 91.13044 
L 126.176057 91.068225 
L 126.176057 91.00601 
L 126.380146 90.943796 
L 126.380146 90.881581 
L 126.552347 90.819367 
L 126.552347 90.757152 
L 126.718169 90.694937 
L 126.718169 90.632723 
L 126.998792 90.570508 
L 127.017925 90.383865 
L 127.253903 90.32165 
L 127.253903 90.259435 
L 127.591926 90.197221 
L 127.591926 90.135006 
L 128.038371 90.072792 
L 128.044749 89.948362 
L 128.61875 89.886148 
L 128.727172 89.699504 
L 128.931262 89.63729 
L 128.937639 89.51286 
L 129.288418 89.450646 
L 129.294796 89.326217 
L 129.530774 89.264002 
L 129.575418 89.139573 
L 130.17493 89.077358 
L 130.206819 88.952929 
L 130.500198 88.890715 
L 130.570353 88.704071 
L 130.659642 88.641856 
L 130.697909 88.517427 
L 130.89562 88.455212 
L 130.89562 88.392998 
L 131.431355 88.330783 
L 131.431355 88.268569 
L 131.616311 88.206354 
L 131.635444 88.081925 
L 131.858667 88.01971 
L 131.871422 87.895281 
L 132.215823 87.833067 
L 132.215823 87.770852 
L 132.65589 87.708637 
L 132.694157 87.521994 
L 133.115091 87.459779 
L 133.217135 87.273135 
L 133.370202 87.210921 
L 133.459491 87.086492 
L 133.714603 87.024277 
L 133.714603 86.899848 
L 134.020737 86.837633 
L 134.071759 86.65099 
L 134.365137 86.588775 
L 134.448049 86.464346 
L 134.581982 86.402131 
L 134.607493 86.277702 
L 134.945516 86.215487 
L 135.041183 86.028844 
L 135.130472 85.966629 
L 135.213383 85.779985 
L 135.532273 85.717771 
L 135.551406 85.593342 
L 135.729984 85.531127 
L 135.806518 85.095625 
L 136.386896 85.03341 
L 136.469808 84.846767 
L 136.546341 84.784552 
L 136.597363 84.660123 
L 136.871608 84.597908 
L 136.871608 84.535694 
L 137.120342 84.473479 
L 137.120342 84.411265 
L 137.490254 84.34905 
L 137.547654 84.224621 
L 137.67521 84.162406 
L 137.73261 83.975762 
L 137.841032 83.913548 
L 137.860165 83.789119 
L 138.102521 83.726904 
L 138.19181 83.602475 
L 138.351255 83.54026 
L 138.423962 74.456931 
L 138.523455 74.394717 
L 138.612744 73.959215 
L 138.810456 73.897 
L 138.835967 73.710356 
L 139.040056 73.648142 
L 139.135723 73.399283 
L 139.180368 73.337069 
L 139.237768 73.08821 
L 139.358946 73.08821 
L 139.358946 73.025996 
L 139.441857 72.839352 
L 139.601302 72.777137 
L 139.658702 72.528279 
L 139.741613 72.466065 
L 139.850035 71.283987 
L 139.875547 71.221773 
L 139.983969 70.475198 
L 140.022236 70.475198 
L 140.022236 70.412983 
L 140.117903 69.728623 
L 140.156169 69.666408 
L 140.245458 68.919833 
L 140.290103 68.857619 
L 140.360258 68.484331 
L 140.417659 68.422117 
L 140.50057 68.048829 
L 140.538837 67.986615 
L 140.640881 67.426683 
L 140.67277 67.364469 
L 140.781192 67.11561 
L 140.838593 67.053396 
L 140.947015 66.306821 
L 140.998037 66.244606 
L 141.074571 65.684675 
L 141.151104 65.62246 
L 141.240393 65.435817 
L 141.329682 65.373602 
L 141.425349 65.124744 
L 141.489127 65.124744 
L 141.489127 65.062529 
L 141.597549 64.191525 
L 141.623061 64.12931 
L 141.731483 63.818237 
L 141.795261 63.756023 
L 141.897305 63.44495 
L 141.922817 63.44495 
L 141.922817 63.382735 
L 142.031239 62.822804 
L 142.05675 62.76059 
L 142.152417 62.325087 
L 142.209817 62.262873 
L 142.318239 61.827371 
L 142.401151 61.765156 
L 142.496818 61.329654 
L 142.522329 61.26744 
L 142.630751 60.769723 
L 142.700907 60.707508 
L 142.802951 60.272006 
L 142.822085 60.209792 
L 142.924129 59.836504 
L 142.956018 59.77429 
L 143.058063 59.276573 
L 143.109085 59.214358 
L 143.21113 58.529998 
L 143.274908 58.467783 
L 143.38333 57.845637 
L 143.491753 57.783423 
L 143.600175 57.223492 
L 143.657575 57.161277 
L 143.75962 56.78799 
L 143.810642 56.725775 
L 143.912687 55.916985 
L 143.93182 55.916985 
L 143.93182 55.854771 
L 144.027487 55.108196 
L 144.04662 55.045981 
L 144.155043 54.423835 
L 144.174176 54.361621 
L 144.257087 53.988333 
L 144.378265 53.926119 
L 144.486688 53.552831 
L 144.563221 53.490617 
L 144.671643 53.117329 
L 144.716288 53.055115 
L 144.818333 52.495183 
L 144.856599 52.432969 
L 144.958644 51.810823 
L 144.984155 51.748608 
L 145.092577 51.188677 
L 145.162733 51.126462 
L 145.271156 50.566531 
L 145.309422 50.504317 
L 145.405089 50.255458 
L 145.468867 50.193244 
L 145.558156 49.882171 
L 145.704845 49.819956 
L 145.813268 49.32224 
L 145.883423 49.260025 
L 145.985468 48.824523 
L 146.023735 48.762308 
L 146.119401 48.51345 
L 146.144913 48.451235 
L 146.144913 48.451235 
L 146.253335 47.82909 
L 146.304357 47.766875 
L 146.406402 47.331373 
L 146.431913 47.269158 
L 146.514824 46.709227 
L 146.572224 46.647012 
L 146.674269 45.962652 
L 146.725291 45.900437 
L 146.81458 45.52715 
L 146.878358 45.464935 
L 146.967647 44.905004 
L 147.171736 44.84279 
L 147.273781 44.345073 
L 147.331181 44.282858 
L 147.439604 43.847356 
L 147.445981 43.847356 
L 147.445981 43.785142 
L 147.541648 43.411854 
L 147.618182 43.34964 
L 147.713848 43.038567 
L 147.790382 42.976352 
L 147.873293 42.727494 
L 147.917938 42.665279 
L 148.02636 42.229777 
L 148.058249 42.167562 
L 148.134783 41.73206 
L 148.192183 41.669846 
L 148.300605 41.109915 
L 148.338872 41.0477 
L 148.434539 40.861056 
L 148.46005 40.798842 
L 148.51745 40.612198 
L 148.593983 40.549983 
L 148.696028 40.23891 
L 148.759806 40.176696 
L 148.849095 39.927837 
L 148.932006 39.865623 
L 149.034051 39.430121 
L 149.072317 39.367906 
L 149.142473 38.994619 
L 149.199873 38.932404 
L 149.29554 38.621331 
L 149.365696 38.559117 
L 149.442229 38.372473 
L 149.493251 38.372473 
L 149.493251 38.310258 
L 149.569785 37.874756 
L 149.716474 37.812542 
L 149.761119 37.439254 
L 149.856785 37.37704 
L 149.895052 37.190396 
L 150.01623 37.128181 
L 150.124653 36.754894 
L 150.143786 36.692679 
L 150.220319 36.443821 
L 150.290475 36.381606 
L 150.398897 35.88389 
L 150.500942 35.821675 
L 150.583853 35.572817 
L 150.634876 35.510602 
L 150.698653 35.261744 
L 150.787942 35.199529 
L 150.889987 34.764027 
L 150.947387 34.701812 
L 151.023921 34.452954 
L 151.145099 34.39074 
L 151.240765 34.079667 
L 151.330055 34.017452 
L 151.40021 33.706379 
L 151.483121 33.644165 
L 151.585166 33.146448 
L 151.757366 33.084233 
L 151.840278 32.710946 
L 151.9487 32.648731 
L 152.057122 32.275444 
L 152.293101 32.213229 
L 152.293101 32.151015 
L 152.452545 32.0888 
L 152.560968 31.839942 
L 152.605612 31.777727 
L 152.707657 31.342225 
L 152.828835 31.28001 
L 152.924502 30.968937 
L 152.962768 30.906723 
L 153.064813 30.720079 
L 153.128591 30.657865 
L 153.230635 30.284577 
L 153.485747 30.222362 
L 153.568658 30.035719 
L 153.734481 29.973504 
L 153.82377 29.538002 
L 153.976837 29.475787 
L 154.085259 29.164715 
L 154.142659 29.1025 
L 154.200059 28.729212 
L 154.467926 28.666998 
L 154.467926 28.604783 
L 154.582727 28.604783 
L 154.582727 28.542569 
L 154.678393 28.355925 
L 154.812327 28.29371 
L 154.812327 28.231496 
L 154.959016 28.169281 
L 154.959016 28.107067 
L 155.131216 28.044852 
L 155.239639 27.671565 
L 155.399084 27.60935 
L 155.399084 27.547135 
L 155.69884 27.484921 
L 155.781751 27.298277 
L 156.017729 27.236062 
L 156.10064 26.987204 
L 156.196307 26.92499 
L 156.304729 26.551702 
L 156.381263 26.489487 
L 156.457796 26.365058 
L 156.566219 26.302844 
L 156.566219 26.178415 
L 156.910619 26.1162 
L 157.019042 25.805127 
L 157.229509 25.742912 
L 157.267776 25.618483 
L 157.395331 25.556269 
L 157.395331 25.494054 
L 157.924688 25.43184 
L 157.924688 25.369625 
L 158.160666 25.30741 
L 158.160666 25.182981 
L 158.364755 25.120767 
L 158.4668 24.871908 
L 158.556089 24.809694 
L 158.587978 24.560835 
L 158.779311 24.498621 
L 158.881356 24.311977 
L 158.957889 24.249762 
L 158.957889 24.187548 
L 159.168356 24.125333 
L 159.257645 24.000904 
L 159.372446 23.93869 
L 159.468113 23.752046 
L 159.582913 23.689831 
L 159.633935 23.565402 
L 159.90818 23.503187 
L 159.997469 23.316544 
L 160.354625 23.254329 
L 160.354625 23.192115 
L 160.660759 23.1299 
L 160.756426 22.943256 
L 160.947759 22.881042 
L 161.043426 22.632183 
L 161.483494 22.569969 
L 161.57916 22.383325 
L 161.642938 22.32111 
L 161.700338 22.134467 
L 162.204184 22.072252 
L 162.204184 22.010037 
L 162.497562 21.947823 
L 162.497562 21.885608 
L 162.669762 21.823394 
L 162.669762 21.761179 
L 163.116207 21.698965 
L 163.211874 21.450106 
L 163.505253 21.387892 
L 163.505253 21.325677 
L 163.836898 21.263462 
L 163.900675 21.139033 
L 163.983587 21.076819 
L 163.983587 21.014604 
L 164.398143 20.95239 
L 164.481054 20.82796 
L 165.150722 20.765746 
L 165.246389 20.579102 
L 165.4441 20.516887 
L 165.507878 20.392458 
L 165.82039 20.330244 
L 165.890545 20.205815 
L 166.075501 20.1436 
L 166.075501 20.081385 
L 166.579347 20.019171 
L 166.579347 19.956956 
L 167.618926 19.894742 
L 167.657193 19.770312 
L 168.448039 19.708098 
L 168.448039 19.645883 
L 168.837084 19.583669 
L 168.837084 19.521454 
L 169.047551 19.45924 
L 169.117706 19.272596 
L 169.200618 19.210381 
L 169.258018 19.085952 
L 169.825641 19.023737 
L 169.825641 18.961523 
L 170.622864 18.899308 
L 170.622864 18.837094 
L 171.024665 18.774879 
L 171.024665 18.712665 
L 171.809133 18.65045 
L 171.9048 18.526021 
L 172.657379 18.463806 
L 172.657379 18.401592 
L 173.040046 18.339377 
L 173.040046 18.277162 
L 173.696958 18.214948 
L 173.696958 18.152733 
L 173.964826 18.090519 
L 173.964826 18.028304 
L 174.283715 17.96609 
L 174.366626 17.84166 
L 174.972516 17.779446 
L 175.036294 17.655017 
L 175.45085 17.592802 
L 175.45085 17.530587 
L 176.203429 17.468373 
L 176.203429 17.406158 
L 176.885853 17.343944 
L 176.885853 17.281729 
L 177.765987 17.219515 
L 177.87441 17.032871 
L 178.888478 16.970656 
L 178.888478 16.908442 
L 179.456101 16.846227 
L 179.456101 16.784012 
L 180.278836 16.721798 
L 180.278836 16.659583 
L 181.528883 16.597369 
L 181.528883 16.535154 
L 182.63224 16.47294 
L 182.63224 16.410725 
L 182.912863 16.34851 
L 182.912863 16.286296 
L 184.826199 16.224081 
L 184.826199 16.161867 
L 185.527756 16.099652 
L 185.527756 16.037437 
L 186.522691 15.975223 
L 186.522691 15.913008 
L 187.721715 15.850794 
L 187.721715 15.788579 
L 188.423272 15.726365 
L 188.423272 15.66415 
L 188.856961 15.601935 
L 188.856961 15.539721 
L 189.679696 15.477506 
L 189.724341 15.290862 
L 190.53432 15.228648 
L 190.53432 15.166433 
L 192.288212 15.104219 
L 192.288212 15.042004 
L 193.225747 14.97979 
L 193.225747 14.917575 
L 193.723214 14.85536 
L 193.723214 14.793146 
L 195.068927 14.730931 
L 195.100816 14.606502 
L 199.208112 14.544287 
L 199.208112 14.482073 
L 199.928802 14.419858 
L 199.928802 14.357644 
L 200.617603 14.295429 
L 200.617603 14.233215 
L 201.159715 14.171 
L 201.159715 14.108785 
L 202.001583 14.046571 
L 202.052606 13.922142 
L 202.709518 13.859927 
L 202.709518 13.797712 
L 204.546321 13.735498 
L 204.546321 13.673283 
L 205.477478 13.611069 
L 205.541256 13.48664 
L 205.936679 13.424425 
L 205.936679 13.36221 
L 206.440524 13.299996 
L 206.440524 13.237781 
L 207.907415 13.175567 
L 207.907415 13.113352 
L 208.698261 13.051137 
L 208.698261 12.988923 
L 210.024841 12.926708 
L 210.024841 12.864494 
L 212.575957 12.802279 
L 212.575957 12.740065 
L 213.908914 12.67785 
L 213.908914 12.615635 
L 215.178094 12.553421 
L 215.261005 12.428992 
L 215.73934 12.366777 
L 215.73934 12.304562 
L 218.539189 12.242348 
L 218.551944 12.117919 
L 219.502235 12.055704 
L 219.502235 11.99349 
L 220.592837 11.931275 
L 220.592837 11.86906 
L 221.93855 11.806846 
L 221.93855 11.744631 
L 222.48704 11.682417 
L 222.48704 11.620202 
L 223.131196 11.557987 
L 223.226863 11.433558 
L 223.864642 11.371344 
L 223.864642 11.309129 
L 225.873645 11.246915 
L 225.873645 11.1847 
L 226.428513 11.122485 
L 226.428513 11.060271 
L 229.866141 10.998056 
L 229.866141 10.935842 
L 230.637853 10.873627 
L 230.67612 10.749198 
L 231.428699 10.686983 
L 231.428699 10.624769 
L 239.770846 10.562554 
L 239.770846 10.50034 
L 257.545743 10.50034 
L 257.545743 10.438125 
" clip-path="url(#p796fe22aba)" style="fill: none; stroke: #1e90ff; stroke-width: 1.2; stroke-linecap: round"/>
   </g>
   <g id="line2d_16">
    <path d="M 138.408655 100.027125 
L 138.408655 10.438125 
" clip-path="url(#p796fe22aba)" style="fill: none; stroke: #000000; stroke-width: 1.2; stroke-linecap: round"/>
   </g>
   <g id="patch_3">
    <path d="M 40.888125 100.027125 
L 40.888125 10.438125 
" style="fill: none; stroke: #262626; stroke-linejoin: miter; stroke-linecap: square"/>
   </g>
   <g id="patch_4">
    <path d="M 40.888125 100.027125 
L 267.862772 100.027125 
" style="fill: none; stroke: #262626; stroke-linejoin: miter; stroke-linecap: square"/>
   </g>
  </g>
 </g>
 <defs>
  <clipPath id="p796fe22aba">
   <rect x="40.888125" y="10.438125" width="226.974647" height="89.589"/>
  </clipPath>
 </defs>
</svg>
