<?xml version="1.0" encoding="utf-8" standalone="no"?>
<!DOCTYPE svg PUBLIC "-//W3C//DTD SVG 1.1//EN"
  "http://www.w3.org/Graphics/SVG/1.1/DTD/svg11.dtd">
<svg xmlns:xlink="http://www.w3.org/1999/xlink" width="238.426574pt" height="137.215875pt" viewBox="0 0 238.426574 137.215875" xmlns="http://www.w3.org/2000/svg" version="1.1">
 <metadata>
  <rdf:RDF xmlns:dc="http://purl.org/dc/elements/1.1/" xmlns:cc="http://creativecommons.org/ns#" xmlns:rdf="http://www.w3.org/1999/02/22-rdf-syntax-ns#">
   <cc:Work>
    <dc:type rdf:resource="http://purl.org/dc/dcmitype/StillImage"/>
    <dc:date>2025-04-29T11:39:46.944731</dc:date>
    <dc:format>image/svg+xml</dc:format>
    <dc:creator>
     <cc:Agent>
      <dc:title>Matplotlib v3.10.1, https://matplotlib.org/</dc:title>
     </cc:Agent>
    </dc:creator>
   </cc:Work>
  </rdf:RDF>
 </metadata>
 <defs>
  <style type="text/css">*{stroke-linejoin: round; stroke-linecap: butt}</style>
 </defs>
 <g id="figure_1">
  <g id="patch_1">
   <path d="M 0 137.215875 
L 238.426574 137.215875 
L 238.426574 0 
L 0 0 
z
" style="fill: #ffffff"/>
  </g>
  <g id="axes_1">
   <g id="patch_2">
    <path d="M 45.218 100.164 
L 226.186254 100.164 
L 226.186254 7.2 
L 45.218 7.2 
z
" style="fill: #ffffff"/>
   </g>
   <g id="matplotlib.axis_1">
    <g id="xtick_1">
     <g id="line2d_1">
      <defs>
       <path id="m05357d8e0a" d="M 0 0 
L 0 4.8 
" style="stroke: #262626"/>
      </defs>
      <g>
       <use xlink:href="#m05357d8e0a" x="45.218" y="100.164" style="fill: #262626; stroke: #262626"/>
      </g>
     </g>
     <g id="text_1">
      <!-- 0.0 -->
      <g style="fill: #262626" transform="translate(39.102687 114.94025) scale(0.088 -0.088)">
       <defs>
        <path id="CharterBT-Roman-30" d="M 1779 4371 
C 864 4371 262 3565 262 2150 
C 262 736 864 -77 1779 -77 
C 2694 -77 3296 736 3296 2150 
C 3296 3565 2694 4371 1779 4371 
z
M 1779 4070 
C 2368 4070 2688 3418 2688 2150 
C 2688 883 2368 230 1779 230 
C 1190 230 864 877 864 2144 
C 864 3418 1190 4070 1779 4070 
z
" transform="scale(0.015625)"/>
        <path id="CharterBT-Roman-2e" d="M 890 755 
C 666 755 480 576 480 346 
C 480 115 666 -58 890 -58 
C 1114 -58 1293 122 1293 346 
C 1293 576 1114 755 890 755 
z
" transform="scale(0.015625)"/>
       </defs>
       <use xlink:href="#CharterBT-Roman-30"/>
       <use xlink:href="#CharterBT-Roman-2e" transform="translate(55.599991 0)"/>
       <use xlink:href="#CharterBT-Roman-30" transform="translate(83.399979 0)"/>
      </g>
     </g>
    </g>
    <g id="xtick_2">
     <g id="line2d_2">
      <g>
       <use xlink:href="#m05357d8e0a" x="79.688144" y="100.164" style="fill: #262626; stroke: #262626"/>
      </g>
     </g>
     <g id="text_2">
      <!-- 0.2 -->
      <g style="fill: #262626" transform="translate(73.572831 114.94025) scale(0.088 -0.088)">
       <defs>
        <path id="CharterBT-Roman-32" d="M 902 506 
C 2317 1632 3091 2355 3091 3162 
C 3091 3885 2586 4371 1760 4371 
C 966 4371 403 3917 403 3469 
C 403 3251 538 3110 762 3110 
C 864 3110 960 3142 1050 3206 
L 1050 3891 
C 1242 4000 1427 4045 1619 4045 
C 2150 4045 2470 3686 2470 3078 
C 2470 2240 1670 1542 269 403 
L 269 0 
L 3232 0 
L 3232 1050 
L 2944 1050 
L 2829 506 
L 902 506 
z
" transform="scale(0.015625)"/>
       </defs>
       <use xlink:href="#CharterBT-Roman-30"/>
       <use xlink:href="#CharterBT-Roman-2e" transform="translate(55.599991 0)"/>
       <use xlink:href="#CharterBT-Roman-32" transform="translate(83.399979 0)"/>
      </g>
     </g>
    </g>
    <g id="xtick_3">
     <g id="line2d_3">
      <g>
       <use xlink:href="#m05357d8e0a" x="114.158287" y="100.164" style="fill: #262626; stroke: #262626"/>
      </g>
     </g>
     <g id="text_3">
      <!-- 0.4 -->
      <g style="fill: #262626" transform="translate(108.042975 114.94025) scale(0.088 -0.088)">
       <defs>
        <path id="CharterBT-Roman-34" d="M 2355 4333 
L 173 1658 
L 173 1242 
L 2234 1242 
L 2234 -237 
L 2726 -237 
L 2726 1242 
L 3450 1242 
L 3450 1658 
L 2726 1658 
L 2726 4333 
L 2355 4333 
z
M 2234 3635 
L 2234 1658 
L 653 1658 
L 2234 3635 
z
" transform="scale(0.015625)"/>
       </defs>
       <use xlink:href="#CharterBT-Roman-30"/>
       <use xlink:href="#CharterBT-Roman-2e" transform="translate(55.599991 0)"/>
       <use xlink:href="#CharterBT-Roman-34" transform="translate(83.399979 0)"/>
      </g>
     </g>
    </g>
    <g id="xtick_4">
     <g id="line2d_4">
      <g>
       <use xlink:href="#m05357d8e0a" x="148.628431" y="100.164" style="fill: #262626; stroke: #262626"/>
      </g>
     </g>
     <g id="text_4">
      <!-- 0.6 -->
      <g style="fill: #262626" transform="translate(142.513118 114.94025) scale(0.088 -0.088)">
       <defs>
        <path id="CharterBT-Roman-36" d="M 2835 4570 
C 1267 4467 320 3411 320 1773 
C 320 621 947 -77 1811 -77 
C 2688 -77 3360 589 3360 1453 
C 3360 2266 2790 2848 2029 2848 
C 1651 2848 1274 2714 941 2458 
C 1139 3597 1792 4198 2816 4198 
L 2835 4198 
L 2835 4570 
z
M 928 2176 
C 1190 2368 1504 2464 1856 2464 
C 2400 2464 2778 2054 2778 1395 
C 2778 717 2394 230 1862 230 
C 1261 230 915 768 915 1786 
C 915 1907 915 2042 928 2176 
z
" transform="scale(0.015625)"/>
       </defs>
       <use xlink:href="#CharterBT-Roman-30"/>
       <use xlink:href="#CharterBT-Roman-2e" transform="translate(55.599991 0)"/>
       <use xlink:href="#CharterBT-Roman-36" transform="translate(83.399979 0)"/>
      </g>
     </g>
    </g>
    <g id="xtick_5">
     <g id="line2d_5">
      <g>
       <use xlink:href="#m05357d8e0a" x="183.098574" y="100.164" style="fill: #262626; stroke: #262626"/>
      </g>
     </g>
     <g id="text_5">
      <!-- 0.8 -->
      <g style="fill: #262626" transform="translate(176.983262 114.94025) scale(0.088 -0.088)">
       <defs>
        <path id="CharterBT-Roman-38" d="M 2054 2362 
C 1357 2611 1018 2899 1018 3322 
C 1018 3744 1350 4077 1792 4077 
C 2259 4077 2566 3757 2566 3245 
C 2566 2906 2387 2579 2054 2362 
z
M 2323 2246 
C 2797 2496 3059 2886 3059 3309 
C 3059 3930 2579 4384 1811 4384 
C 1018 4384 486 3904 486 3226 
C 486 2765 717 2426 1158 2240 
C 576 2016 282 1638 282 1133 
C 282 410 838 -102 1760 -102 
C 2650 -102 3238 467 3238 1146 
C 3238 1645 2925 2035 2323 2246 
z
M 1402 2106 
C 2259 1786 2688 1587 2688 1082 
C 2688 576 2330 230 1779 230 
C 1165 230 774 608 774 1171 
C 774 1600 966 1875 1402 2106 
z
" transform="scale(0.015625)"/>
       </defs>
       <use xlink:href="#CharterBT-Roman-30"/>
       <use xlink:href="#CharterBT-Roman-2e" transform="translate(55.599991 0)"/>
       <use xlink:href="#CharterBT-Roman-38" transform="translate(83.399979 0)"/>
      </g>
     </g>
    </g>
    <g id="xtick_6">
     <g id="line2d_6">
      <g>
       <use xlink:href="#m05357d8e0a" x="217.568718" y="100.164" style="fill: #262626; stroke: #262626"/>
      </g>
     </g>
     <g id="text_6">
      <!-- 1.0 -->
      <g style="fill: #262626" transform="translate(211.453405 114.94025) scale(0.088 -0.088)">
       <defs>
        <path id="CharterBT-Roman-31" d="M 1990 4371 
L 602 3955 
L 602 3686 
L 1606 3866 
L 1606 422 
L 1530 314 
L 794 275 
L 794 0 
L 2938 0 
L 2938 269 
L 2246 301 
L 2170 397 
L 2170 4371 
L 1990 4371 
z
" transform="scale(0.015625)"/>
       </defs>
       <use xlink:href="#CharterBT-Roman-31"/>
       <use xlink:href="#CharterBT-Roman-2e" transform="translate(55.599991 0)"/>
       <use xlink:href="#CharterBT-Roman-30" transform="translate(83.399979 0)"/>
      </g>
     </g>
    </g>
    <g id="text_7">
     <!-- median MIR -->
     <g style="fill: #262626" transform="translate(109.936627 127.923375) scale(0.096 -0.096)">
      <defs>
       <path id="CharterBT-Roman-6d" d="M 2906 2714 
C 2758 2995 2515 3142 2202 3142 
C 1933 3142 1600 3008 1178 2758 
L 1178 3110 
L 934 3110 
L 192 2880 
L 192 2682 
L 646 2682 
L 646 365 
L 538 262 
L 192 230 
L 192 0 
L 1594 0 
L 1594 230 
L 1286 262 
L 1178 365 
L 1178 2509 
C 1459 2650 1696 2720 1907 2720 
C 2291 2720 2470 2509 2470 2061 
L 2470 365 
L 2362 262 
L 2054 230 
L 2054 0 
L 3418 0 
L 3418 230 
L 3117 262 
L 3002 365 
L 3002 2509 
C 3277 2643 3520 2720 3725 2720 
C 4122 2720 4301 2509 4301 2061 
L 4301 365 
L 4186 262 
L 3885 230 
L 3885 0 
L 5280 0 
L 5280 230 
L 4941 262 
L 4832 365 
L 4832 2170 
C 4832 2803 4512 3142 4006 3142 
C 3750 3142 3386 2995 2906 2714 
z
" transform="scale(0.015625)"/>
       <path id="CharterBT-Roman-65" d="M 2867 678 
C 2502 435 2182 307 1862 307 
C 1216 307 787 794 787 1613 
L 787 1683 
L 2861 1683 
C 2867 1754 2867 1818 2867 1882 
C 2867 2669 2413 3142 1715 3142 
C 858 3142 237 2483 237 1517 
C 237 576 819 -58 1664 -58 
C 2067 -58 2483 70 2867 326 
L 2867 678 
z
M 2298 1952 
L 819 1952 
C 858 2496 1222 2854 1632 2854 
C 2061 2854 2298 2573 2298 2054 
L 2298 1952 
z
" transform="scale(0.015625)"/>
       <path id="CharterBT-Roman-64" d="M 2451 4282 
L 2451 3078 
C 2253 3123 2061 3149 1882 3149 
C 909 3149 230 2464 230 1440 
C 230 544 768 -58 1466 -58 
C 1818 -58 2125 70 2451 333 
L 2451 0 
L 3398 0 
L 3398 230 
L 3091 262 
L 2982 365 
L 2982 4710 
L 2739 4710 
L 1958 4480 
L 1958 4282 
L 2451 4282 
z
M 2451 570 
C 2214 422 1984 346 1754 346 
C 1178 346 794 800 794 1549 
C 794 2349 1242 2867 1888 2867 
C 2042 2867 2234 2829 2451 2765 
L 2451 570 
z
" transform="scale(0.015625)"/>
       <path id="CharterBT-Roman-69" d="M 986 4531 
C 781 4531 614 4371 614 4160 
C 614 3955 781 3795 986 3795 
C 1190 3795 1357 3955 1357 4160 
C 1357 4365 1190 4531 986 4531 
z
M 960 3110 
L 224 2880 
L 224 2682 
L 672 2682 
L 672 365 
L 563 262 
L 224 230 
L 224 0 
L 1664 0 
L 1664 230 
L 1318 262 
L 1203 365 
L 1203 3110 
L 960 3110 
z
" transform="scale(0.015625)"/>
       <path id="CharterBT-Roman-61" d="M 2138 371 
L 2221 0 
L 3123 0 
L 3123 230 
L 2784 262 
L 2669 365 
L 2669 2221 
C 2669 2867 2387 3142 1715 3142 
C 909 3142 422 2810 422 2419 
C 422 2266 474 2221 621 2221 
L 1062 2221 
L 1062 2758 
C 1235 2829 1389 2861 1549 2861 
C 2010 2861 2138 2650 2138 2144 
L 2138 1939 
C 858 1632 269 1440 269 774 
C 269 294 582 -45 1088 -45 
C 1395 -45 1734 96 2138 371 
z
M 2138 589 
C 1818 403 1555 301 1344 301 
C 1024 301 832 512 832 826 
C 832 1293 1235 1466 2138 1715 
L 2138 589 
z
" transform="scale(0.015625)"/>
       <path id="CharterBT-Roman-6e" d="M 192 0 
L 1594 0 
L 1594 230 
L 1286 262 
L 1178 365 
L 1178 2509 
C 1453 2650 1690 2720 1894 2720 
C 2368 2720 2541 2528 2541 2061 
L 2541 365 
L 2432 262 
L 2125 230 
L 2125 0 
L 3526 0 
L 3526 230 
L 3181 262 
L 3072 365 
L 3072 2170 
C 3072 2810 2765 3142 2208 3142 
C 1933 3142 1606 2995 1178 2758 
L 1178 3110 
L 934 3110 
L 192 2880 
L 192 2682 
L 646 2682 
L 646 365 
L 538 262 
L 192 230 
L 192 0 
z
" transform="scale(0.015625)"/>
       <path id="CharterBT-Roman-20" transform="scale(0.015625)"/>
       <path id="CharterBT-Roman-4d" d="M 198 0 
L 1549 0 
L 1549 262 
L 1158 314 
L 1043 435 
L 1043 3930 
L 2502 0 
L 2778 0 
L 4294 3994 
L 4294 384 
L 4230 294 
L 3808 262 
L 3808 0 
L 5338 0 
L 5338 262 
L 4934 294 
L 4858 384 
L 4858 3910 
L 4934 4000 
L 5338 4038 
L 5338 4294 
L 3968 4294 
L 3968 4096 
L 2752 909 
L 1549 4122 
L 1549 4294 
L 192 4294 
L 192 4038 
L 614 4000 
L 698 3910 
L 698 435 
L 582 314 
L 198 262 
L 198 0 
z
" transform="scale(0.015625)"/>
       <path id="CharterBT-Roman-49" d="M 224 0 
L 1843 0 
L 1843 262 
L 1434 294 
L 1325 384 
L 1325 3910 
L 1434 4000 
L 1843 4038 
L 1843 4294 
L 224 4294 
L 224 4038 
L 634 4000 
L 742 3910 
L 742 384 
L 634 294 
L 224 262 
L 224 0 
z
" transform="scale(0.015625)"/>
       <path id="CharterBT-Roman-52" d="M 211 4294 
L 211 4038 
L 576 4000 
L 685 3910 
L 685 384 
L 576 294 
L 211 262 
L 211 0 
L 1734 0 
L 1734 262 
L 1370 294 
L 1261 384 
L 1261 1907 
C 1376 1914 1485 1920 1581 1920 
C 2163 1920 2413 1754 2586 1229 
C 2720 819 2746 403 3053 134 
C 3200 6 3411 -51 3699 -51 
C 3846 -51 4006 -32 4198 6 
L 4198 250 
L 4141 250 
C 3654 250 3450 326 3309 704 
C 3194 1005 3187 1357 3008 1651 
C 2880 1862 2662 1997 2349 2080 
C 3040 2234 3386 2592 3386 3142 
C 3386 3930 2880 4294 1843 4294 
L 211 4294 
z
M 1261 4000 
L 1568 4000 
C 2362 4000 2746 3757 2746 3091 
C 2746 2458 2381 2208 1613 2208 
C 1574 2208 1459 2208 1261 2214 
L 1261 4000 
z
" transform="scale(0.015625)"/>
      </defs>
      <use xlink:href="#CharterBT-Roman-6d"/>
      <use xlink:href="#CharterBT-Roman-65" transform="translate(84.299988 0)"/>
      <use xlink:href="#CharterBT-Roman-64" transform="translate(133.399979 0)"/>
      <use xlink:href="#CharterBT-Roman-69" transform="translate(189.899963 0)"/>
      <use xlink:href="#CharterBT-Roman-61" transform="translate(217.899948 0)"/>
      <use xlink:href="#CharterBT-Roman-6e" transform="translate(268.599945 0)"/>
      <use xlink:href="#CharterBT-Roman-20" transform="translate(325.399933 0)"/>
      <use xlink:href="#CharterBT-Roman-4d" transform="translate(353.199921 0)"/>
      <use xlink:href="#CharterBT-Roman-49" transform="translate(439.799911 0)"/>
      <use xlink:href="#CharterBT-Roman-52" transform="translate(472.199905 0)"/>
     </g>
    </g>
   </g>
   <g id="matplotlib.axis_2">
    <g id="ytick_1">
     <g id="line2d_7">
      <defs>
       <path id="m1739aea14e" d="M 0 0 
L -4.8 0 
" style="stroke: #262626"/>
      </defs>
      <g>
       <use xlink:href="#m1739aea14e" x="45.218" y="13.840286" style="fill: #262626; stroke: #262626"/>
      </g>
     </g>
     <g id="text_8">
      <!-- FP -->
      <g style="fill: #262626" transform="translate(27.282 17.078411) scale(0.088 -0.088)">
       <defs>
        <path id="CharterBT-Roman-46" d="M 211 0 
L 1824 0 
L 1824 262 
L 1370 294 
L 1261 384 
L 1261 2022 
L 2310 2022 
L 2400 1926 
L 2464 1459 
L 2765 1459 
L 2765 2874 
L 2464 2874 
L 2400 2406 
L 2310 2317 
L 1261 2317 
L 1261 4000 
L 2701 4000 
L 2784 3904 
L 2880 3296 
L 3232 3296 
L 3232 4294 
L 160 4294 
L 160 4038 
L 576 4000 
L 685 3910 
L 685 384 
L 576 294 
L 211 262 
L 211 0 
z
" transform="scale(0.015625)"/>
        <path id="CharterBT-Roman-50" d="M 211 0 
L 1824 0 
L 1824 262 
L 1370 294 
L 1261 384 
L 1261 1645 
C 1459 1626 1619 1613 1741 1613 
C 2771 1613 3398 2170 3398 2989 
C 3398 3962 2848 4294 1619 4294 
L 160 4294 
L 160 4038 
L 576 4000 
L 685 3910 
L 685 384 
L 576 294 
L 211 262 
L 211 0 
z
M 1261 1952 
L 1261 3987 
C 1376 4000 1491 4000 1594 4000 
C 2413 4000 2803 3686 2803 3002 
C 2803 2298 2413 1920 1683 1920 
C 1587 1920 1446 1933 1261 1952 
z
" transform="scale(0.015625)"/>
       </defs>
       <use xlink:href="#CharterBT-Roman-46"/>
       <use xlink:href="#CharterBT-Roman-50" transform="translate(53.699997 0)"/>
      </g>
     </g>
    </g>
    <g id="ytick_2">
     <g id="line2d_8">
      <g>
       <use xlink:href="#m1739aea14e" x="45.218" y="27.120857" style="fill: #262626; stroke: #262626"/>
      </g>
     </g>
     <g id="text_9">
      <!-- GL -->
      <g style="fill: #262626" transform="translate(26.23425 30.358982) scale(0.088 -0.088)">
       <defs>
        <path id="CharterBT-Roman-47" d="M 2669 2061 
L 2669 1798 
L 3123 1766 
L 3232 1677 
L 3232 346 
C 2982 288 2765 262 2579 262 
C 1574 262 934 986 934 2195 
C 934 3347 1549 4032 2528 4032 
C 2784 4032 3021 3974 3258 3866 
L 3347 3750 
L 3443 3168 
L 3802 3168 
L 3802 4186 
C 3379 4307 2963 4371 2573 4371 
C 1158 4371 275 3501 275 2150 
C 275 1312 691 570 1382 179 
C 1677 13 2054 -77 2483 -77 
C 2861 -77 3302 0 3808 147 
L 3808 1677 
L 3917 1766 
L 4269 1798 
L 4269 2061 
L 2669 2061 
z
" transform="scale(0.015625)"/>
        <path id="CharterBT-Roman-4c" d="M 173 0 
L 3238 0 
L 3238 1165 
L 2906 1165 
L 2797 397 
L 2707 294 
L 1261 294 
L 1261 3910 
L 1370 4000 
L 1734 4038 
L 1734 4294 
L 173 4294 
L 173 4038 
L 576 4000 
L 685 3910 
L 685 384 
L 576 294 
L 173 262 
L 173 0 
z
" transform="scale(0.015625)"/>
       </defs>
       <use xlink:href="#CharterBT-Roman-47"/>
       <use xlink:href="#CharterBT-Roman-4c" transform="translate(69.399994 0)"/>
      </g>
     </g>
    </g>
    <g id="ytick_3">
     <g id="line2d_9">
      <g>
       <use xlink:href="#m1739aea14e" x="45.218" y="40.401429" style="fill: #262626; stroke: #262626"/>
      </g>
     </g>
     <g id="text_10">
      <!-- CS -->
      <g style="fill: #262626" transform="translate(26.463875 43.639554) scale(0.088 -0.088)">
       <defs>
        <path id="CharterBT-Roman-43" d="M 3763 147 
L 3763 1158 
L 3405 1158 
L 3264 448 
L 3162 346 
C 2970 288 2784 262 2605 262 
C 1568 262 934 979 934 2195 
C 934 3341 1555 4032 2509 4032 
C 2758 4032 2989 3974 3226 3866 
L 3309 3750 
L 3405 3168 
L 3763 3168 
L 3763 4154 
C 3296 4301 2874 4371 2496 4371 
C 1165 4371 275 3482 275 2150 
C 275 1312 698 570 1382 179 
C 1677 13 2048 -77 2470 -77 
C 2899 -77 3341 0 3763 147 
z
" transform="scale(0.015625)"/>
        <path id="CharterBT-Roman-53" d="M 384 128 
C 678 0 1075 -77 1536 -77 
C 2560 -77 3194 454 3194 1210 
C 3194 1491 3098 1728 2912 1914 
C 2618 2202 2272 2304 1946 2438 
C 1357 2688 1050 2848 1050 3277 
C 1050 3744 1376 4051 1920 4051 
C 2144 4051 2336 4006 2496 3917 
L 2592 3808 
L 2688 3200 
L 3021 3200 
L 3021 4192 
C 2643 4314 2285 4371 1933 4371 
C 1024 4371 454 3866 454 3142 
C 454 2522 826 2285 1536 1978 
C 2234 1677 2605 1562 2605 1030 
C 2605 582 2259 262 1638 262 
C 1350 262 1107 314 922 410 
L 838 518 
L 762 1254 
L 384 1254 
L 384 128 
z
" transform="scale(0.015625)"/>
       </defs>
       <use xlink:href="#CharterBT-Roman-43"/>
       <use xlink:href="#CharterBT-Roman-53" transform="translate(63.199997 0)"/>
      </g>
     </g>
    </g>
    <g id="ytick_4">
     <g id="line2d_10">
      <g>
       <use xlink:href="#m1739aea14e" x="45.218" y="53.682" style="fill: #262626; stroke: #262626"/>
      </g>
     </g>
     <g id="text_11">
      <!-- HYP -->
      <g style="fill: #262626" transform="translate(20.3575 56.920125) scale(0.088 -0.088)">
       <defs>
        <path id="CharterBT-Roman-48" d="M 211 4294 
L 211 4038 
L 576 4000 
L 685 3910 
L 685 384 
L 576 294 
L 211 262 
L 211 0 
L 1766 0 
L 1766 262 
L 1370 294 
L 1261 384 
L 1261 2106 
L 3462 2106 
L 3462 384 
L 3354 294 
L 2957 262 
L 2957 0 
L 4512 0 
L 4512 262 
L 4147 294 
L 4038 384 
L 4038 3910 
L 4147 4000 
L 4512 4038 
L 4512 4294 
L 2957 4294 
L 2957 4038 
L 3354 4000 
L 3462 3910 
L 3462 2400 
L 1261 2400 
L 1261 3910 
L 1370 4000 
L 1766 4038 
L 1766 4294 
L 211 4294 
z
" transform="scale(0.015625)"/>
        <path id="CharterBT-Roman-59" d="M -83 4294 
L -83 4038 
L 307 3974 
L 1581 1741 
L 1581 384 
L 1478 294 
L 1043 262 
L 1043 0 
L 2701 0 
L 2701 262 
L 2266 294 
L 2163 384 
L 2163 1824 
L 3494 3955 
L 3885 4038 
L 3885 4294 
L 2579 4294 
L 2579 4038 
L 2970 3968 
L 3027 3878 
L 1952 2170 
L 973 3930 
L 1037 4000 
L 1402 4038 
L 1402 4294 
L -83 4294 
z
" transform="scale(0.015625)"/>
       </defs>
       <use xlink:href="#CharterBT-Roman-48"/>
       <use xlink:href="#CharterBT-Roman-59" transform="translate(73.799988 0)"/>
       <use xlink:href="#CharterBT-Roman-50" transform="translate(132.399979 0)"/>
      </g>
     </g>
    </g>
    <g id="ytick_5">
     <g id="line2d_11">
      <g>
       <use xlink:href="#m1739aea14e" x="45.218" y="66.962571" style="fill: #262626; stroke: #262626"/>
      </g>
     </g>
     <g id="text_12">
      <!-- eOT -->
      <g style="fill: #262626" transform="translate(20.911625 70.200696) scale(0.088 -0.088)">
       <defs>
        <path id="CharterBT-Roman-4f" d="M 2342 4403 
C 1792 4403 1312 4211 928 3840 
C 499 3424 275 2848 275 2150 
C 275 1453 499 870 934 448 
C 1306 90 1798 -102 2342 -102 
C 3085 -102 3725 269 4083 883 
C 4301 1254 4410 1677 4410 2150 
C 4410 2848 4179 3424 3750 3840 
C 3366 4211 2893 4403 2342 4403 
z
M 2342 4058 
C 3168 4058 3738 3341 3738 2150 
C 3738 960 3168 237 2342 237 
C 1510 237 941 960 941 2150 
C 941 3354 1510 4058 2342 4058 
z
" transform="scale(0.015625)"/>
        <path id="CharterBT-Roman-54" d="M 102 4294 
L 102 3309 
L 454 3309 
L 544 3904 
L 634 4000 
L 1619 4000 
L 1619 384 
L 1504 294 
L 1075 262 
L 1075 0 
L 2746 0 
L 2746 262 
L 2317 294 
L 2202 384 
L 2202 4000 
L 3187 4000 
L 3277 3904 
L 3366 3309 
L 3718 3309 
L 3718 4294 
L 102 4294 
z
" transform="scale(0.015625)"/>
       </defs>
       <use xlink:href="#CharterBT-Roman-65"/>
       <use xlink:href="#CharterBT-Roman-4f" transform="translate(49.099991 0)"/>
       <use xlink:href="#CharterBT-Roman-54" transform="translate(122.199982 0)"/>
      </g>
     </g>
    </g>
    <g id="ytick_6">
     <g id="line2d_12">
      <g>
       <use xlink:href="#m1739aea14e" x="45.218" y="80.243143" style="fill: #262626; stroke: #262626"/>
      </g>
     </g>
     <g id="text_13">
      <!-- HSS -->
      <g style="fill: #262626" transform="translate(20.639375 83.481268) scale(0.088 -0.088)">
       <use xlink:href="#CharterBT-Roman-48"/>
       <use xlink:href="#CharterBT-Roman-53" transform="translate(73.799988 0)"/>
       <use xlink:href="#CharterBT-Roman-53" transform="translate(129.399979 0)"/>
      </g>
     </g>
    </g>
    <g id="ytick_7">
     <g id="line2d_13">
      <g>
       <use xlink:href="#m1739aea14e" x="45.218" y="93.523714" style="fill: #262626; stroke: #262626"/>
      </g>
     </g>
     <g id="text_14">
      <!-- RP -->
      <g style="fill: #262626" transform="translate(26.323625 96.761839) scale(0.088 -0.088)">
       <use xlink:href="#CharterBT-Roman-52"/>
       <use xlink:href="#CharterBT-Roman-50" transform="translate(64.599991 0)"/>
      </g>
     </g>
    </g>
    <g id="text_15">
     <!-- name -->
     <g style="fill: #262626" transform="translate(14.265 65.24475) rotate(-90) scale(0.096 -0.096)">
      <use xlink:href="#CharterBT-Roman-6e"/>
      <use xlink:href="#CharterBT-Roman-61" transform="translate(56.799988 0)"/>
      <use xlink:href="#CharterBT-Roman-6d" transform="translate(107.499985 0)"/>
      <use xlink:href="#CharterBT-Roman-65" transform="translate(191.799973 0)"/>
     </g>
    </g>
   </g>
   <g id="patch_3">
    <path d="M 45.218 8.528057 
L 217.568718 8.528057 
L 217.568718 19.152514 
L 45.218 19.152514 
z
" clip-path="url(#p48daf40f4a)" style="fill: #3a90e3; stroke: #ffffff; stroke-width: 0.8; stroke-linejoin: miter"/>
   </g>
   <g id="patch_4">
    <path d="M 45.218 21.808629 
L 131.393359 21.808629 
L 131.393359 32.433086 
L 45.218 32.433086 
z
" clip-path="url(#p48daf40f4a)" style="fill: #3a90e3; stroke: #ffffff; stroke-width: 0.8; stroke-linejoin: miter"/>
   </g>
   <g id="patch_5">
    <path d="M 45.218 35.0892 
L 102.668239 35.0892 
L 102.668239 45.713657 
L 45.218 45.713657 
z
" clip-path="url(#p48daf40f4a)" style="fill: #3a90e3; stroke: #ffffff; stroke-width: 0.8; stroke-linejoin: miter"/>
   </g>
   <g id="patch_6">
    <path d="M 45.218 48.369771 
L 88.305679 48.369771 
L 88.305679 58.994229 
L 45.218 58.994229 
z
" clip-path="url(#p48daf40f4a)" style="fill: #3a90e3; stroke: #ffffff; stroke-width: 0.8; stroke-linejoin: miter"/>
   </g>
   <g id="patch_7">
    <path d="M 45.218 61.650343 
L 79.688144 61.650343 
L 79.688144 72.2748 
L 45.218 72.2748 
z
" clip-path="url(#p48daf40f4a)" style="fill: #3a90e3; stroke: #ffffff; stroke-width: 0.8; stroke-linejoin: miter"/>
   </g>
   <g id="patch_8">
    <path d="M 45.218 74.930914 
L 73.94312 74.930914 
L 73.94312 85.555371 
L 45.218 85.555371 
z
" clip-path="url(#p48daf40f4a)" style="fill: #3a90e3; stroke: #ffffff; stroke-width: 0.8; stroke-linejoin: miter"/>
   </g>
   <g id="patch_9">
    <path d="M 45.218 88.211486 
L 73.94312 88.211486 
L 73.94312 98.835943 
L 45.218 98.835943 
z
" clip-path="url(#p48daf40f4a)" style="fill: #3a90e3; stroke: #ffffff; stroke-width: 0.8; stroke-linejoin: miter"/>
   </g>
   <g id="line2d_14">
    <path d="M 217.568718 13.840286 
L 217.568718 13.840286 
" clip-path="url(#p48daf40f4a)" style="fill: none; stroke: #424242; stroke-width: 1.8; stroke-linecap: round"/>
   </g>
   <g id="line2d_15">
    <path d="M 88.305679 27.120857 
L 131.393359 27.120857 
" clip-path="url(#p48daf40f4a)" style="fill: none; stroke: #424242; stroke-width: 1.8; stroke-linecap: round"/>
   </g>
   <g id="line2d_16">
    <path d="M 102.668239 40.401429 
L 102.668239 40.401429 
" clip-path="url(#p48daf40f4a)" style="fill: none; stroke: #424242; stroke-width: 1.8; stroke-linecap: round"/>
   </g>
   <g id="line2d_17">
    <path d="M 88.305679 53.682 
L 102.668239 53.682 
" clip-path="url(#p48daf40f4a)" style="fill: none; stroke: #424242; stroke-width: 1.8; stroke-linecap: round"/>
   </g>
   <g id="line2d_18">
    <path d="M 73.94312 66.962571 
L 81.842528 66.962571 
" clip-path="url(#p48daf40f4a)" style="fill: none; stroke: #424242; stroke-width: 1.8; stroke-linecap: round"/>
   </g>
   <g id="line2d_19">
    <path d="M 69.839531 80.243143 
L 88.305679 80.243143 
" clip-path="url(#p48daf40f4a)" style="fill: none; stroke: #424242; stroke-width: 1.8; stroke-linecap: round"/>
   </g>
   <g id="line2d_20">
    <path d="M 73.94312 93.523714 
L 79.688144 93.523714 
" clip-path="url(#p48daf40f4a)" style="fill: none; stroke: #424242; stroke-width: 1.8; stroke-linecap: round"/>
   </g>
   <g id="patch_10">
    <path d="M 45.218 100.164 
L 45.218 7.2 
" style="fill: none; stroke: #262626; stroke-linejoin: miter; stroke-linecap: square"/>
   </g>
   <g id="patch_11">
    <path d="M 45.218 100.164 
L 226.186254 100.164 
" style="fill: none; stroke: #262626; stroke-linejoin: miter; stroke-linecap: square"/>
   </g>
  </g>
  <g id="legend_1"/>
 </g>
 <defs>
  <clipPath id="p48daf40f4a">
   <rect x="45.218" y="7.2" width="180.968254" height="92.964"/>
  </clipPath>
 </defs>
</svg>
