<?xml version="1.0" encoding="utf-8" standalone="no"?>
<!DOCTYPE svg PUBLIC "-//W3C//DTD SVG 1.1//EN"
  "http://www.w3.org/Graphics/SVG/1.1/DTD/svg11.dtd">
<svg xmlns:xlink="http://www.w3.org/1999/xlink" width="223.847815pt" height="137.658375pt" viewBox="0 0 223.847815 137.658375" xmlns="http://www.w3.org/2000/svg" version="1.1">
 <metadata>
  <rdf:RDF xmlns:dc="http://purl.org/dc/elements/1.1/" xmlns:cc="http://creativecommons.org/ns#" xmlns:rdf="http://www.w3.org/1999/02/22-rdf-syntax-ns#">
   <cc:Work>
    <dc:type rdf:resource="http://purl.org/dc/dcmitype/StillImage"/>
    <dc:date>2025-05-02T10:50:42.511071</dc:date>
    <dc:format>image/svg+xml</dc:format>
    <dc:creator>
     <cc:Agent>
      <dc:title>Matplotlib v3.10.1, https://matplotlib.org/</dc:title>
     </cc:Agent>
    </dc:creator>
   </cc:Work>
  </rdf:RDF>
 </metadata>
 <defs>
  <style type="text/css">*{stroke-linejoin: round; stroke-linecap: butt}</style>
 </defs>
 <g id="figure_1">
  <g id="patch_1">
   <path d="M 0 137.658375 
L 223.847815 137.658375 
L 223.847815 0 
L 0 0 
z
" style="fill: #ffffff"/>
  </g>
  <g id="axes_1">
   <g id="patch_2">
    <path d="M 38.442 100.164 
L 216.647815 100.164 
L 216.647815 7.2 
L 38.442 7.2 
z
" style="fill: #ffffff"/>
   </g>
   <g id="matplotlib.axis_1">
    <g id="xtick_1">
     <g id="line2d_1">
      <defs>
       <path id="mf65b39349a" d="M 0 0 
L 0 4.8 
" style="stroke: #262626"/>
      </defs>
      <g>
       <use xlink:href="#mf65b39349a" x="65.278244" y="100.164" style="fill: #262626; stroke: #262626"/>
      </g>
     </g>
     <g id="text_1">
      <!-- −0.1 -->
      <g style="fill: #262626" transform="translate(55.497869 114.94025) scale(0.088 -0.088)">
       <defs>
        <path id="CharterBT-Roman-2212" d="M 794 2093 
L 794 1722 
L 4538 1722 
L 4538 2093 
L 794 2093 
z
" transform="scale(0.015625)"/>
        <path id="CharterBT-Roman-30" d="M 1779 4371 
C 864 4371 262 3565 262 2150 
C 262 736 864 -77 1779 -77 
C 2694 -77 3296 736 3296 2150 
C 3296 3565 2694 4371 1779 4371 
z
M 1779 4070 
C 2368 4070 2688 3418 2688 2150 
C 2688 883 2368 230 1779 230 
C 1190 230 864 877 864 2144 
C 864 3418 1190 4070 1779 4070 
z
" transform="scale(0.015625)"/>
        <path id="CharterBT-Roman-2e" d="M 890 755 
C 666 755 480 576 480 346 
C 480 115 666 -58 890 -58 
C 1114 -58 1293 122 1293 346 
C 1293 576 1114 755 890 755 
z
" transform="scale(0.015625)"/>
        <path id="CharterBT-Roman-31" d="M 1990 4371 
L 602 3955 
L 602 3686 
L 1606 3866 
L 1606 422 
L 1530 314 
L 794 275 
L 794 0 
L 2938 0 
L 2938 269 
L 2246 301 
L 2170 397 
L 2170 4371 
L 1990 4371 
z
" transform="scale(0.015625)"/>
       </defs>
       <use xlink:href="#CharterBT-Roman-2212"/>
       <use xlink:href="#CharterBT-Roman-30" transform="translate(83.299988 0)"/>
       <use xlink:href="#CharterBT-Roman-2e" transform="translate(138.899979 0)"/>
       <use xlink:href="#CharterBT-Roman-31" transform="translate(166.699966 0)"/>
      </g>
     </g>
    </g>
    <g id="xtick_2">
     <g id="line2d_2">
      <g>
       <use xlink:href="#mf65b39349a" x="123.591283" y="100.164" style="fill: #262626; stroke: #262626"/>
      </g>
     </g>
     <g id="text_2">
      <!-- 0.0 -->
      <g style="fill: #262626" transform="translate(117.475971 114.94025) scale(0.088 -0.088)">
       <use xlink:href="#CharterBT-Roman-30"/>
       <use xlink:href="#CharterBT-Roman-2e" transform="translate(55.599991 0)"/>
       <use xlink:href="#CharterBT-Roman-30" transform="translate(83.399979 0)"/>
      </g>
     </g>
    </g>
    <g id="xtick_3">
     <g id="line2d_3">
      <g>
       <use xlink:href="#mf65b39349a" x="181.904323" y="100.164" style="fill: #262626; stroke: #262626"/>
      </g>
     </g>
     <g id="text_3">
      <!-- 0.1 -->
      <g style="fill: #262626" transform="translate(175.789011 114.94025) scale(0.088 -0.088)">
       <use xlink:href="#CharterBT-Roman-30"/>
       <use xlink:href="#CharterBT-Roman-2e" transform="translate(55.599991 0)"/>
       <use xlink:href="#CharterBT-Roman-31" transform="translate(83.399979 0)"/>
      </g>
     </g>
    </g>
    <g id="text_4">
     <!-- E[MCC|EFM]-E[MCC|FP] -->
     <g style="fill: #262626" transform="translate(72.399658 128.193375) scale(0.096 -0.096)">
      <defs>
       <path id="CharterBT-Roman-45" d="M 211 0 
L 3507 0 
L 3507 1043 
L 3174 1043 
L 3066 397 
L 2976 294 
L 1261 294 
L 1261 2086 
L 2310 2086 
L 2400 1990 
L 2464 1530 
L 2765 1530 
L 2765 2938 
L 2464 2938 
L 2400 2470 
L 2310 2381 
L 1261 2381 
L 1261 4000 
L 2739 4000 
L 2829 3904 
L 2918 3360 
L 3277 3360 
L 3277 4294 
L 211 4294 
L 211 4038 
L 576 4000 
L 685 3910 
L 685 384 
L 576 294 
L 211 262 
L 211 0 
z
" transform="scale(0.015625)"/>
       <path id="CharterBT-Roman-5b" d="M 890 4531 
L 890 -845 
L 2406 -845 
L 2406 -576 
L 1395 -576 
L 1395 4256 
L 2406 4256 
L 2406 4531 
L 890 4531 
z
" transform="scale(0.015625)"/>
       <path id="CharterBT-Roman-4d" d="M 198 0 
L 1549 0 
L 1549 262 
L 1158 314 
L 1043 435 
L 1043 3930 
L 2502 0 
L 2778 0 
L 4294 3994 
L 4294 384 
L 4230 294 
L 3808 262 
L 3808 0 
L 5338 0 
L 5338 262 
L 4934 294 
L 4858 384 
L 4858 3910 
L 4934 4000 
L 5338 4038 
L 5338 4294 
L 3968 4294 
L 3968 4096 
L 2752 909 
L 1549 4122 
L 1549 4294 
L 192 4294 
L 192 4038 
L 614 4000 
L 698 3910 
L 698 435 
L 582 314 
L 198 262 
L 198 0 
z
" transform="scale(0.015625)"/>
       <path id="CharterBT-Roman-43" d="M 3763 147 
L 3763 1158 
L 3405 1158 
L 3264 448 
L 3162 346 
C 2970 288 2784 262 2605 262 
C 1568 262 934 979 934 2195 
C 934 3341 1555 4032 2509 4032 
C 2758 4032 2989 3974 3226 3866 
L 3309 3750 
L 3405 3168 
L 3763 3168 
L 3763 4154 
C 3296 4301 2874 4371 2496 4371 
C 1165 4371 275 3482 275 2150 
C 275 1312 698 570 1382 179 
C 1677 13 2048 -77 2470 -77 
C 2899 -77 3341 0 3763 147 
z
" transform="scale(0.015625)"/>
       <path id="CharterBT-Roman-7c" d="M 1402 4890 
L 1402 -1510 
L 1798 -1510 
L 1798 4890 
L 1402 4890 
z
" transform="scale(0.015625)"/>
       <path id="CharterBT-Roman-46" d="M 211 0 
L 1824 0 
L 1824 262 
L 1370 294 
L 1261 384 
L 1261 2022 
L 2310 2022 
L 2400 1926 
L 2464 1459 
L 2765 1459 
L 2765 2874 
L 2464 2874 
L 2400 2406 
L 2310 2317 
L 1261 2317 
L 1261 4000 
L 2701 4000 
L 2784 3904 
L 2880 3296 
L 3232 3296 
L 3232 4294 
L 160 4294 
L 160 4038 
L 576 4000 
L 685 3910 
L 685 384 
L 576 294 
L 211 262 
L 211 0 
z
" transform="scale(0.015625)"/>
       <path id="CharterBT-Roman-5d" d="M 294 4531 
L 294 4256 
L 1306 4256 
L 1306 -576 
L 294 -576 
L 294 -851 
L 1805 -851 
L 1805 4531 
L 294 4531 
z
" transform="scale(0.015625)"/>
       <path id="CharterBT-Roman-2d" d="M 301 1754 
L 301 1325 
L 1741 1325 
L 1741 1754 
L 301 1754 
z
" transform="scale(0.015625)"/>
       <path id="CharterBT-Roman-50" d="M 211 0 
L 1824 0 
L 1824 262 
L 1370 294 
L 1261 384 
L 1261 1645 
C 1459 1626 1619 1613 1741 1613 
C 2771 1613 3398 2170 3398 2989 
C 3398 3962 2848 4294 1619 4294 
L 160 4294 
L 160 4038 
L 576 4000 
L 685 3910 
L 685 384 
L 576 294 
L 211 262 
L 211 0 
z
M 1261 1952 
L 1261 3987 
C 1376 4000 1491 4000 1594 4000 
C 2413 4000 2803 3686 2803 3002 
C 2803 2298 2413 1920 1683 1920 
C 1587 1920 1446 1933 1261 1952 
z
" transform="scale(0.015625)"/>
      </defs>
      <use xlink:href="#CharterBT-Roman-45"/>
      <use xlink:href="#CharterBT-Roman-5b" transform="translate(57.599991 0)"/>
      <use xlink:href="#CharterBT-Roman-4d" transform="translate(99.699982 0)"/>
      <use xlink:href="#CharterBT-Roman-43" transform="translate(186.299973 0)"/>
      <use xlink:href="#CharterBT-Roman-43" transform="translate(249.499969 0)"/>
      <use xlink:href="#CharterBT-Roman-7c" transform="translate(312.699966 0)"/>
      <use xlink:href="#CharterBT-Roman-45" transform="translate(362.699951 0)"/>
      <use xlink:href="#CharterBT-Roman-46" transform="translate(420.299942 0)"/>
      <use xlink:href="#CharterBT-Roman-4d" transform="translate(473.999939 0)"/>
      <use xlink:href="#CharterBT-Roman-5d" transform="translate(560.59993 0)"/>
      <use xlink:href="#CharterBT-Roman-2d" transform="translate(602.699921 0)"/>
      <use xlink:href="#CharterBT-Roman-45" transform="translate(634.599915 0)"/>
      <use xlink:href="#CharterBT-Roman-5b" transform="translate(692.199905 0)"/>
      <use xlink:href="#CharterBT-Roman-4d" transform="translate(734.299896 0)"/>
      <use xlink:href="#CharterBT-Roman-43" transform="translate(820.899887 0)"/>
      <use xlink:href="#CharterBT-Roman-43" transform="translate(884.099884 0)"/>
      <use xlink:href="#CharterBT-Roman-7c" transform="translate(947.299881 0)"/>
      <use xlink:href="#CharterBT-Roman-46" transform="translate(997.299866 0)"/>
      <use xlink:href="#CharterBT-Roman-50" transform="translate(1050.999863 0)"/>
      <use xlink:href="#CharterBT-Roman-5d" transform="translate(1106.79985 0)"/>
     </g>
    </g>
   </g>
   <g id="matplotlib.axis_2">
    <g id="ytick_1">
     <g id="line2d_4">
      <defs>
       <path id="medd3ee6bcf" d="M 0 0 
L -4.8 0 
" style="stroke: #262626"/>
      </defs>
      <g>
       <use xlink:href="#medd3ee6bcf" x="38.442" y="100.164" style="fill: #262626; stroke: #262626"/>
      </g>
     </g>
     <g id="text_5">
      <!-- 0 -->
      <g style="fill: #262626" transform="translate(25.24975 103.402125) scale(0.088 -0.088)">
       <use xlink:href="#CharterBT-Roman-30"/>
      </g>
     </g>
    </g>
    <g id="ytick_2">
     <g id="line2d_5">
      <g>
       <use xlink:href="#medd3ee6bcf" x="38.442" y="73.735002" style="fill: #262626; stroke: #262626"/>
      </g>
     </g>
     <g id="text_6">
      <!-- 20 -->
      <g style="fill: #262626" transform="translate(20.3575 76.973127) scale(0.088 -0.088)">
       <defs>
        <path id="CharterBT-Roman-32" d="M 902 506 
C 2317 1632 3091 2355 3091 3162 
C 3091 3885 2586 4371 1760 4371 
C 966 4371 403 3917 403 3469 
C 403 3251 538 3110 762 3110 
C 864 3110 960 3142 1050 3206 
L 1050 3891 
C 1242 4000 1427 4045 1619 4045 
C 2150 4045 2470 3686 2470 3078 
C 2470 2240 1670 1542 269 403 
L 269 0 
L 3232 0 
L 3232 1050 
L 2944 1050 
L 2829 506 
L 902 506 
z
" transform="scale(0.015625)"/>
       </defs>
       <use xlink:href="#CharterBT-Roman-32"/>
       <use xlink:href="#CharterBT-Roman-30" transform="translate(55.599991 0)"/>
      </g>
     </g>
    </g>
    <g id="ytick_3">
     <g id="line2d_6">
      <g>
       <use xlink:href="#medd3ee6bcf" x="38.442" y="47.306004" style="fill: #262626; stroke: #262626"/>
      </g>
     </g>
     <g id="text_7">
      <!-- 40 -->
      <g style="fill: #262626" transform="translate(20.3575 50.544129) scale(0.088 -0.088)">
       <defs>
        <path id="CharterBT-Roman-34" d="M 2355 4333 
L 173 1658 
L 173 1242 
L 2234 1242 
L 2234 -237 
L 2726 -237 
L 2726 1242 
L 3450 1242 
L 3450 1658 
L 2726 1658 
L 2726 4333 
L 2355 4333 
z
M 2234 3635 
L 2234 1658 
L 653 1658 
L 2234 3635 
z
" transform="scale(0.015625)"/>
       </defs>
       <use xlink:href="#CharterBT-Roman-34"/>
       <use xlink:href="#CharterBT-Roman-30" transform="translate(55.599991 0)"/>
      </g>
     </g>
    </g>
    <g id="ytick_4">
     <g id="line2d_7">
      <g>
       <use xlink:href="#medd3ee6bcf" x="38.442" y="20.877006" style="fill: #262626; stroke: #262626"/>
      </g>
     </g>
     <g id="text_8">
      <!-- 60 -->
      <g style="fill: #262626" transform="translate(20.3575 24.115131) scale(0.088 -0.088)">
       <defs>
        <path id="CharterBT-Roman-36" d="M 2835 4570 
C 1267 4467 320 3411 320 1773 
C 320 621 947 -77 1811 -77 
C 2688 -77 3360 589 3360 1453 
C 3360 2266 2790 2848 2029 2848 
C 1651 2848 1274 2714 941 2458 
C 1139 3597 1792 4198 2816 4198 
L 2835 4198 
L 2835 4570 
z
M 928 2176 
C 1190 2368 1504 2464 1856 2464 
C 2400 2464 2778 2054 2778 1395 
C 2778 717 2394 230 1862 230 
C 1261 230 915 768 915 1786 
C 915 1907 915 2042 928 2176 
z
" transform="scale(0.015625)"/>
       </defs>
       <use xlink:href="#CharterBT-Roman-36"/>
       <use xlink:href="#CharterBT-Roman-30" transform="translate(55.599991 0)"/>
      </g>
     </g>
    </g>
    <g id="text_9">
     <!-- Count -->
     <g style="fill: #262626" transform="translate(14.265 66.3645) rotate(-90) scale(0.096 -0.096)">
      <defs>
       <path id="CharterBT-Roman-6f" d="M 1722 3142 
C 858 3142 237 2496 237 1542 
C 237 595 864 -58 1722 -58 
C 2579 -58 3213 595 3213 1542 
C 3213 2490 2586 3142 1722 3142 
z
M 1722 2867 
C 2240 2867 2611 2368 2611 1542 
C 2611 710 2240 218 1722 218 
C 1210 218 838 717 838 1542 
C 838 2374 1203 2867 1722 2867 
z
" transform="scale(0.015625)"/>
       <path id="CharterBT-Roman-75" d="M 909 3142 
L 166 2906 
L 166 2707 
L 621 2707 
L 621 915 
C 621 275 928 -64 1478 -64 
C 1792 -64 2131 83 2515 358 
L 2515 0 
L 3462 0 
L 3462 230 
L 3162 262 
L 3046 365 
L 3046 3142 
L 2803 3142 
L 2061 2906 
L 2061 2707 
L 2515 2707 
L 2515 538 
C 2253 410 2010 346 1773 346 
C 1344 346 1152 563 1152 1024 
L 1152 3142 
L 909 3142 
z
" transform="scale(0.015625)"/>
       <path id="CharterBT-Roman-6e" d="M 192 0 
L 1594 0 
L 1594 230 
L 1286 262 
L 1178 365 
L 1178 2509 
C 1453 2650 1690 2720 1894 2720 
C 2368 2720 2541 2528 2541 2061 
L 2541 365 
L 2432 262 
L 2125 230 
L 2125 0 
L 3526 0 
L 3526 230 
L 3181 262 
L 3072 365 
L 3072 2170 
C 3072 2810 2765 3142 2208 3142 
C 1933 3142 1606 2995 1178 2758 
L 1178 3110 
L 934 3110 
L 192 2880 
L 192 2682 
L 646 2682 
L 646 365 
L 538 262 
L 192 230 
L 192 0 
z
" transform="scale(0.015625)"/>
       <path id="CharterBT-Roman-74" d="M 563 2694 
L 563 627 
C 563 173 698 -19 1229 -19 
C 1478 -19 1766 26 2067 122 
L 2067 358 
C 1920 326 1773 307 1626 307 
C 1178 307 1094 518 1094 1005 
L 1094 2694 
L 2067 2694 
L 2067 2995 
L 1094 2995 
L 1094 3674 
L 858 3674 
L 582 3078 
L 160 2893 
L 160 2694 
L 563 2694 
z
" transform="scale(0.015625)"/>
      </defs>
      <use xlink:href="#CharterBT-Roman-43"/>
      <use xlink:href="#CharterBT-Roman-6f" transform="translate(63.199997 0)"/>
      <use xlink:href="#CharterBT-Roman-75" transform="translate(117.099991 0)"/>
      <use xlink:href="#CharterBT-Roman-6e" transform="translate(173.999985 0)"/>
      <use xlink:href="#CharterBT-Roman-74" transform="translate(230.799973 0)"/>
     </g>
    </g>
   </g>
   <g id="patch_3">
    <path d="M 46.542264 100.164 
L 49.917374 100.164 
L 49.917374 97.5211 
L 46.542264 97.5211 
z
" clip-path="url(#pf395cfb38b)" style="fill: #b2b2b2; fill-opacity: 0.75; stroke: #ffffff; stroke-width: 0.351124; stroke-linejoin: miter"/>
   </g>
   <g id="patch_4">
    <path d="M 49.917374 100.164 
L 53.292485 100.164 
L 53.292485 100.164 
L 49.917374 100.164 
z
" clip-path="url(#pf395cfb38b)" style="fill: #b2b2b2; fill-opacity: 0.75; stroke: #ffffff; stroke-width: 0.351124; stroke-linejoin: miter"/>
   </g>
   <g id="patch_5">
    <path d="M 53.292485 100.164 
L 56.667595 100.164 
L 56.667595 100.164 
L 53.292485 100.164 
z
" clip-path="url(#pf395cfb38b)" style="fill: #b2b2b2; fill-opacity: 0.75; stroke: #ffffff; stroke-width: 0.351124; stroke-linejoin: miter"/>
   </g>
   <g id="patch_6">
    <path d="M 56.667595 100.164 
L 60.042705 100.164 
L 60.042705 98.84255 
L 56.667595 98.84255 
z
" clip-path="url(#pf395cfb38b)" style="fill: #b2b2b2; fill-opacity: 0.75; stroke: #ffffff; stroke-width: 0.351124; stroke-linejoin: miter"/>
   </g>
   <g id="patch_7">
    <path d="M 60.042705 100.164 
L 63.417815 100.164 
L 63.417815 100.164 
L 60.042705 100.164 
z
" clip-path="url(#pf395cfb38b)" style="fill: #b2b2b2; fill-opacity: 0.75; stroke: #ffffff; stroke-width: 0.351124; stroke-linejoin: miter"/>
   </g>
   <g id="patch_8">
    <path d="M 63.417815 100.164 
L 66.792925 100.164 
L 66.792925 96.19965 
L 63.417815 96.19965 
z
" clip-path="url(#pf395cfb38b)" style="fill: #b2b2b2; fill-opacity: 0.75; stroke: #ffffff; stroke-width: 0.351124; stroke-linejoin: miter"/>
   </g>
   <g id="patch_9">
    <path d="M 66.792925 100.164 
L 70.168035 100.164 
L 70.168035 100.164 
L 66.792925 100.164 
z
" clip-path="url(#pf395cfb38b)" style="fill: #b2b2b2; fill-opacity: 0.75; stroke: #ffffff; stroke-width: 0.351124; stroke-linejoin: miter"/>
   </g>
   <g id="patch_10">
    <path d="M 70.168035 100.164 
L 73.543145 100.164 
L 73.543145 100.164 
L 70.168035 100.164 
z
" clip-path="url(#pf395cfb38b)" style="fill: #b2b2b2; fill-opacity: 0.75; stroke: #ffffff; stroke-width: 0.351124; stroke-linejoin: miter"/>
   </g>
   <g id="patch_11">
    <path d="M 73.543145 100.164 
L 76.918256 100.164 
L 76.918256 100.164 
L 73.543145 100.164 
z
" clip-path="url(#pf395cfb38b)" style="fill: #b2b2b2; fill-opacity: 0.75; stroke: #ffffff; stroke-width: 0.351124; stroke-linejoin: miter"/>
   </g>
   <g id="patch_12">
    <path d="M 76.918256 100.164 
L 80.293366 100.164 
L 80.293366 97.5211 
L 76.918256 97.5211 
z
" clip-path="url(#pf395cfb38b)" style="fill: #b2b2b2; fill-opacity: 0.75; stroke: #ffffff; stroke-width: 0.351124; stroke-linejoin: miter"/>
   </g>
   <g id="patch_13">
    <path d="M 80.293366 100.164 
L 83.668476 100.164 
L 83.668476 98.84255 
L 80.293366 98.84255 
z
" clip-path="url(#pf395cfb38b)" style="fill: #b2b2b2; fill-opacity: 0.75; stroke: #ffffff; stroke-width: 0.351124; stroke-linejoin: miter"/>
   </g>
   <g id="patch_14">
    <path d="M 83.668476 100.164 
L 87.043586 100.164 
L 87.043586 100.164 
L 83.668476 100.164 
z
" clip-path="url(#pf395cfb38b)" style="fill: #b2b2b2; fill-opacity: 0.75; stroke: #ffffff; stroke-width: 0.351124; stroke-linejoin: miter"/>
   </g>
   <g id="patch_15">
    <path d="M 87.043586 100.164 
L 90.418696 100.164 
L 90.418696 98.84255 
L 87.043586 98.84255 
z
" clip-path="url(#pf395cfb38b)" style="fill: #b2b2b2; fill-opacity: 0.75; stroke: #ffffff; stroke-width: 0.351124; stroke-linejoin: miter"/>
   </g>
   <g id="patch_16">
    <path d="M 90.418696 100.164 
L 93.793806 100.164 
L 93.793806 98.84255 
L 90.418696 98.84255 
z
" clip-path="url(#pf395cfb38b)" style="fill: #b2b2b2; fill-opacity: 0.75; stroke: #ffffff; stroke-width: 0.351124; stroke-linejoin: miter"/>
   </g>
   <g id="patch_17">
    <path d="M 93.793806 100.164 
L 97.168916 100.164 
L 97.168916 98.84255 
L 93.793806 98.84255 
z
" clip-path="url(#pf395cfb38b)" style="fill: #b2b2b2; fill-opacity: 0.75; stroke: #ffffff; stroke-width: 0.351124; stroke-linejoin: miter"/>
   </g>
   <g id="patch_18">
    <path d="M 97.168916 100.164 
L 100.544026 100.164 
L 100.544026 98.84255 
L 97.168916 98.84255 
z
" clip-path="url(#pf395cfb38b)" style="fill: #b2b2b2; fill-opacity: 0.75; stroke: #ffffff; stroke-width: 0.351124; stroke-linejoin: miter"/>
   </g>
   <g id="patch_19">
    <path d="M 100.544026 100.164 
L 103.919137 100.164 
L 103.919137 98.84255 
L 100.544026 98.84255 
z
" clip-path="url(#pf395cfb38b)" style="fill: #b2b2b2; fill-opacity: 0.75; stroke: #ffffff; stroke-width: 0.351124; stroke-linejoin: miter"/>
   </g>
   <g id="patch_20">
    <path d="M 103.919137 100.164 
L 107.294247 100.164 
L 107.294247 100.164 
L 103.919137 100.164 
z
" clip-path="url(#pf395cfb38b)" style="fill: #b2b2b2; fill-opacity: 0.75; stroke: #ffffff; stroke-width: 0.351124; stroke-linejoin: miter"/>
   </g>
   <g id="patch_21">
    <path d="M 107.294247 100.164 
L 110.669357 100.164 
L 110.669357 96.19965 
L 107.294247 96.19965 
z
" clip-path="url(#pf395cfb38b)" style="fill: #b2b2b2; fill-opacity: 0.75; stroke: #ffffff; stroke-width: 0.351124; stroke-linejoin: miter"/>
   </g>
   <g id="patch_22">
    <path d="M 110.669357 100.164 
L 114.044467 100.164 
L 114.044467 93.556751 
L 110.669357 93.556751 
z
" clip-path="url(#pf395cfb38b)" style="fill: #b2b2b2; fill-opacity: 0.75; stroke: #ffffff; stroke-width: 0.351124; stroke-linejoin: miter"/>
   </g>
   <g id="patch_23">
    <path d="M 114.044467 100.164 
L 117.419577 100.164 
L 117.419577 97.5211 
L 114.044467 97.5211 
z
" clip-path="url(#pf395cfb38b)" style="fill: #b2b2b2; fill-opacity: 0.75; stroke: #ffffff; stroke-width: 0.351124; stroke-linejoin: miter"/>
   </g>
   <g id="patch_24">
    <path d="M 117.419577 100.164 
L 120.794687 100.164 
L 120.794687 92.235301 
L 117.419577 92.235301 
z
" clip-path="url(#pf395cfb38b)" style="fill: #b2b2b2; fill-opacity: 0.75; stroke: #ffffff; stroke-width: 0.351124; stroke-linejoin: miter"/>
   </g>
   <g id="patch_25">
    <path d="M 120.794687 100.164 
L 124.169797 100.164 
L 124.169797 88.270951 
L 120.794687 88.270951 
z
" clip-path="url(#pf395cfb38b)" style="fill: #b2b2b2; fill-opacity: 0.75; stroke: #ffffff; stroke-width: 0.351124; stroke-linejoin: miter"/>
   </g>
   <g id="patch_26">
    <path d="M 124.169797 100.164 
L 127.544908 100.164 
L 127.544908 11.626857 
L 124.169797 11.626857 
z
" clip-path="url(#pf395cfb38b)" style="fill: #b2b2b2; fill-opacity: 0.75; stroke: #ffffff; stroke-width: 0.351124; stroke-linejoin: miter"/>
   </g>
   <g id="patch_27">
    <path d="M 127.544908 100.164 
L 130.920018 100.164 
L 130.920018 14.269757 
L 127.544908 14.269757 
z
" clip-path="url(#pf395cfb38b)" style="fill: #b2b2b2; fill-opacity: 0.75; stroke: #ffffff; stroke-width: 0.351124; stroke-linejoin: miter"/>
   </g>
   <g id="patch_28">
    <path d="M 130.920018 100.164 
L 134.295128 100.164 
L 134.295128 24.841356 
L 130.920018 24.841356 
z
" clip-path="url(#pf395cfb38b)" style="fill: #b2b2b2; fill-opacity: 0.75; stroke: #ffffff; stroke-width: 0.351124; stroke-linejoin: miter"/>
   </g>
   <g id="patch_29">
    <path d="M 134.295128 100.164 
L 137.670238 100.164 
L 137.670238 57.877603 
L 134.295128 57.877603 
z
" clip-path="url(#pf395cfb38b)" style="fill: #b2b2b2; fill-opacity: 0.75; stroke: #ffffff; stroke-width: 0.351124; stroke-linejoin: miter"/>
   </g>
   <g id="patch_30">
    <path d="M 137.670238 100.164 
L 141.045348 100.164 
L 141.045348 72.413552 
L 137.670238 72.413552 
z
" clip-path="url(#pf395cfb38b)" style="fill: #b2b2b2; fill-opacity: 0.75; stroke: #ffffff; stroke-width: 0.351124; stroke-linejoin: miter"/>
   </g>
   <g id="patch_31">
    <path d="M 141.045348 100.164 
L 144.420458 100.164 
L 144.420458 69.770652 
L 141.045348 69.770652 
z
" clip-path="url(#pf395cfb38b)" style="fill: #b2b2b2; fill-opacity: 0.75; stroke: #ffffff; stroke-width: 0.351124; stroke-linejoin: miter"/>
   </g>
   <g id="patch_32">
    <path d="M 144.420458 100.164 
L 147.795568 100.164 
L 147.795568 89.592401 
L 144.420458 89.592401 
z
" clip-path="url(#pf395cfb38b)" style="fill: #b2b2b2; fill-opacity: 0.75; stroke: #ffffff; stroke-width: 0.351124; stroke-linejoin: miter"/>
   </g>
   <g id="patch_33">
    <path d="M 147.795568 100.164 
L 151.170679 100.164 
L 151.170679 90.913851 
L 147.795568 90.913851 
z
" clip-path="url(#pf395cfb38b)" style="fill: #b2b2b2; fill-opacity: 0.75; stroke: #ffffff; stroke-width: 0.351124; stroke-linejoin: miter"/>
   </g>
   <g id="patch_34">
    <path d="M 151.170679 100.164 
L 154.545789 100.164 
L 154.545789 90.913851 
L 151.170679 90.913851 
z
" clip-path="url(#pf395cfb38b)" style="fill: #b2b2b2; fill-opacity: 0.75; stroke: #ffffff; stroke-width: 0.351124; stroke-linejoin: miter"/>
   </g>
   <g id="patch_35">
    <path d="M 154.545789 100.164 
L 157.920899 100.164 
L 157.920899 93.556751 
L 154.545789 93.556751 
z
" clip-path="url(#pf395cfb38b)" style="fill: #b2b2b2; fill-opacity: 0.75; stroke: #ffffff; stroke-width: 0.351124; stroke-linejoin: miter"/>
   </g>
   <g id="patch_36">
    <path d="M 157.920899 100.164 
L 161.296009 100.164 
L 161.296009 96.19965 
L 157.920899 96.19965 
z
" clip-path="url(#pf395cfb38b)" style="fill: #b2b2b2; fill-opacity: 0.75; stroke: #ffffff; stroke-width: 0.351124; stroke-linejoin: miter"/>
   </g>
   <g id="patch_37">
    <path d="M 161.296009 100.164 
L 164.671119 100.164 
L 164.671119 97.5211 
L 161.296009 97.5211 
z
" clip-path="url(#pf395cfb38b)" style="fill: #b2b2b2; fill-opacity: 0.75; stroke: #ffffff; stroke-width: 0.351124; stroke-linejoin: miter"/>
   </g>
   <g id="patch_38">
    <path d="M 164.671119 100.164 
L 168.046229 100.164 
L 168.046229 98.84255 
L 164.671119 98.84255 
z
" clip-path="url(#pf395cfb38b)" style="fill: #b2b2b2; fill-opacity: 0.75; stroke: #ffffff; stroke-width: 0.351124; stroke-linejoin: miter"/>
   </g>
   <g id="patch_39">
    <path d="M 168.046229 100.164 
L 171.421339 100.164 
L 171.421339 96.19965 
L 168.046229 96.19965 
z
" clip-path="url(#pf395cfb38b)" style="fill: #b2b2b2; fill-opacity: 0.75; stroke: #ffffff; stroke-width: 0.351124; stroke-linejoin: miter"/>
   </g>
   <g id="patch_40">
    <path d="M 171.421339 100.164 
L 174.796449 100.164 
L 174.796449 98.84255 
L 171.421339 98.84255 
z
" clip-path="url(#pf395cfb38b)" style="fill: #b2b2b2; fill-opacity: 0.75; stroke: #ffffff; stroke-width: 0.351124; stroke-linejoin: miter"/>
   </g>
   <g id="patch_41">
    <path d="M 174.796449 100.164 
L 178.17156 100.164 
L 178.17156 98.84255 
L 174.796449 98.84255 
z
" clip-path="url(#pf395cfb38b)" style="fill: #b2b2b2; fill-opacity: 0.75; stroke: #ffffff; stroke-width: 0.351124; stroke-linejoin: miter"/>
   </g>
   <g id="patch_42">
    <path d="M 178.17156 100.164 
L 181.54667 100.164 
L 181.54667 96.19965 
L 178.17156 96.19965 
z
" clip-path="url(#pf395cfb38b)" style="fill: #b2b2b2; fill-opacity: 0.75; stroke: #ffffff; stroke-width: 0.351124; stroke-linejoin: miter"/>
   </g>
   <g id="patch_43">
    <path d="M 181.54667 100.164 
L 184.92178 100.164 
L 184.92178 97.5211 
L 181.54667 97.5211 
z
" clip-path="url(#pf395cfb38b)" style="fill: #b2b2b2; fill-opacity: 0.75; stroke: #ffffff; stroke-width: 0.351124; stroke-linejoin: miter"/>
   </g>
   <g id="patch_44">
    <path d="M 184.92178 100.164 
L 188.29689 100.164 
L 188.29689 97.5211 
L 184.92178 97.5211 
z
" clip-path="url(#pf395cfb38b)" style="fill: #b2b2b2; fill-opacity: 0.75; stroke: #ffffff; stroke-width: 0.351124; stroke-linejoin: miter"/>
   </g>
   <g id="patch_45">
    <path d="M 188.29689 100.164 
L 191.672 100.164 
L 191.672 97.5211 
L 188.29689 97.5211 
z
" clip-path="url(#pf395cfb38b)" style="fill: #b2b2b2; fill-opacity: 0.75; stroke: #ffffff; stroke-width: 0.351124; stroke-linejoin: miter"/>
   </g>
   <g id="patch_46">
    <path d="M 191.672 100.164 
L 195.04711 100.164 
L 195.04711 97.5211 
L 191.672 97.5211 
z
" clip-path="url(#pf395cfb38b)" style="fill: #b2b2b2; fill-opacity: 0.75; stroke: #ffffff; stroke-width: 0.351124; stroke-linejoin: miter"/>
   </g>
   <g id="patch_47">
    <path d="M 195.04711 100.164 
L 198.42222 100.164 
L 198.42222 98.84255 
L 195.04711 98.84255 
z
" clip-path="url(#pf395cfb38b)" style="fill: #b2b2b2; fill-opacity: 0.75; stroke: #ffffff; stroke-width: 0.351124; stroke-linejoin: miter"/>
   </g>
   <g id="patch_48">
    <path d="M 198.42222 100.164 
L 201.797331 100.164 
L 201.797331 93.556751 
L 198.42222 93.556751 
z
" clip-path="url(#pf395cfb38b)" style="fill: #b2b2b2; fill-opacity: 0.75; stroke: #ffffff; stroke-width: 0.351124; stroke-linejoin: miter"/>
   </g>
   <g id="patch_49">
    <path d="M 201.797331 100.164 
L 205.172441 100.164 
L 205.172441 100.164 
L 201.797331 100.164 
z
" clip-path="url(#pf395cfb38b)" style="fill: #b2b2b2; fill-opacity: 0.75; stroke: #ffffff; stroke-width: 0.351124; stroke-linejoin: miter"/>
   </g>
   <g id="patch_50">
    <path d="M 205.172441 100.164 
L 208.547551 100.164 
L 208.547551 98.84255 
L 205.172441 98.84255 
z
" clip-path="url(#pf395cfb38b)" style="fill: #b2b2b2; fill-opacity: 0.75; stroke: #ffffff; stroke-width: 0.351124; stroke-linejoin: miter"/>
   </g>
   <g id="line2d_8">
    <path d="M 123.591283 100.164 
L 123.591283 7.2 
" clip-path="url(#pf395cfb38b)" style="fill: none; stroke: #000000; stroke-width: 1.2; stroke-linecap: round"/>
   </g>
   <g id="patch_51">
    <path d="M 38.442 100.164 
L 38.442 7.2 
" style="fill: none; stroke: #262626; stroke-linejoin: miter; stroke-linecap: square"/>
   </g>
   <g id="patch_52">
    <path d="M 38.442 100.164 
L 216.647815 100.164 
" style="fill: none; stroke: #262626; stroke-linejoin: miter; stroke-linecap: square"/>
   </g>
  </g>
 </g>
 <defs>
  <clipPath id="pf395cfb38b">
   <rect x="38.442" y="7.2" width="178.205815" height="92.964"/>
  </clipPath>
 </defs>
</svg>
