<?xml version="1.0" encoding="utf-8" standalone="no"?>
<!DOCTYPE svg PUBLIC "-//W3C//DTD SVG 1.1//EN"
  "http://www.w3.org/Graphics/SVG/1.1/DTD/svg11.dtd">
<svg xmlns:xlink="http://www.w3.org/1999/xlink" width="237.6pt" height="83.84pt" viewBox="0 0 237.6 83.84" xmlns="http://www.w3.org/2000/svg" version="1.1">
 <metadata>
  <rdf:RDF xmlns:dc="http://purl.org/dc/elements/1.1/" xmlns:cc="http://creativecommons.org/ns#" xmlns:rdf="http://www.w3.org/1999/02/22-rdf-syntax-ns#">
   <cc:Work>
    <dc:type rdf:resource="http://purl.org/dc/dcmitype/StillImage"/>
    <dc:date>2025-04-06T20:56:18.080571</dc:date>
    <dc:format>image/svg+xml</dc:format>
    <dc:creator>
     <cc:Agent>
      <dc:title>Matplotlib v3.10.1, https://matplotlib.org/</dc:title>
     </cc:Agent>
    </dc:creator>
   </cc:Work>
  </rdf:RDF>
 </metadata>
 <defs>
  <style type="text/css">*{stroke-linejoin: round; stroke-linecap: butt}</style>
 </defs>
 <g id="figure_1">
  <g id="patch_1">
   <path d="M 0 83.84 
L 237.6 83.84 
L 237.6 -0 
L 0 -0 
z
" style="fill: #ffffff"/>
  </g>
  <g id="axes_1">
   <g id="LineCollection_1">
    <path d="M 51.163636 64.465455 
L 152.618182 19.374545 
" clip-path="url(#p682844e078)" style="fill: none; stroke: #e7c38a; stroke-width: 4"/>
    <path d="M 51.163636 64.465455 
L 62.436364 19.374545 
" clip-path="url(#p682844e078)" style="fill: none; stroke: #e7c38a; stroke-width: 4"/>
    <path d="M 51.163636 64.465455 
L 107.527273 19.374545 
" clip-path="url(#p682844e078)" style="fill: none; stroke: #e7c38a; stroke-width: 4"/>
    <path d="M 51.163636 64.465455 
L 175.163636 19.374545 
" clip-path="url(#p682844e078)" style="fill: none; stroke: #e7c38a; stroke-width: 4"/>
    <path d="M 96.254545 64.465455 
L 130.072727 19.374545 
" clip-path="url(#p682844e078)" style="fill: none; stroke: #8dcba0; stroke-width: 4"/>
    <path d="M 96.254545 64.465455 
L 107.527273 19.374545 
" clip-path="url(#p682844e078)" style="fill: none; stroke: #8dcba0; stroke-width: 4"/>
    <path d="M 96.254545 64.465455 
L 17.345455 19.374545 
" clip-path="url(#p682844e078)" style="fill: none; stroke: #8dcba0; stroke-width: 4"/>
    <path d="M 141.345455 64.465455 
L 197.709091 19.374545 
" clip-path="url(#p682844e078)" style="fill: none; stroke: #fc628e; stroke-width: 4"/>
    <path d="M 141.345455 64.465455 
L 220.254545 19.374545 
" clip-path="url(#p682844e078)" style="fill: none; stroke: #fc628e; stroke-width: 4"/>
    <path d="M 141.345455 64.465455 
L 130.072727 19.374545 
" clip-path="url(#p682844e078)" style="fill: none; stroke: #fc628e; stroke-width: 4"/>
    <path d="M 141.345455 64.465455 
L 39.890909 19.374545 
" clip-path="url(#p682844e078)" style="fill: none; stroke: #fc628e; stroke-width: 4"/>
    <path d="M 186.436364 64.465455 
L 84.981818 19.374545 
" clip-path="url(#p682844e078)" style="fill: none; stroke: #abd7e6; stroke-width: 4"/>
    <path d="M 186.436364 64.465455 
L 175.163636 19.374545 
" clip-path="url(#p682844e078)" style="fill: none; stroke: #abd7e6; stroke-width: 4"/>
    <path d="M 186.436364 64.465455 
L 107.527273 19.374545 
" clip-path="url(#p682844e078)" style="fill: none; stroke: #abd7e6; stroke-width: 4"/>
   </g>
   <g id="PathCollection_1">
    <defs>
     <path id="C0_0_028cdc78e8" d="M 0 8.660254 
C 2.296726 8.660254 4.499694 7.747755 6.123724 6.123724 
C 7.747755 4.499694 8.660254 2.296726 8.660254 -0 
C 8.660254 -2.296726 7.747755 -4.499694 6.123724 -6.123724 
C 4.499694 -7.747755 2.296726 -8.660254 0 -8.660254 
C -2.296726 -8.660254 -4.499694 -7.747755 -6.123724 -6.123724 
C -7.747755 -4.499694 -8.660254 -2.296726 -8.660254 0 
C -8.660254 2.296726 -7.747755 4.499694 -6.123724 6.123724 
C -4.499694 7.747755 -2.296726 8.660254 0 8.660254 
z
"/>
    </defs>
    <g clip-path="url(#p682844e078)">
     <use xlink:href="#C0_0_028cdc78e8" x="51.163636" y="64.465455" style="fill: #e7c38a; stroke: #666666"/>
    </g>
    <g clip-path="url(#p682844e078)">
     <use xlink:href="#C0_0_028cdc78e8" x="96.254545" y="64.465455" style="fill: #8dcba0; stroke: #666666"/>
    </g>
    <g clip-path="url(#p682844e078)">
     <use xlink:href="#C0_0_028cdc78e8" x="141.345455" y="64.465455" style="fill: #fc628e; stroke: #666666"/>
    </g>
    <g clip-path="url(#p682844e078)">
     <use xlink:href="#C0_0_028cdc78e8" x="186.436364" y="64.465455" style="fill: #abd7e6; stroke: #666666"/>
    </g>
    <g clip-path="url(#p682844e078)">
     <use xlink:href="#C0_0_028cdc78e8" x="17.345455" y="19.374545" style="fill: #c8c8c8; stroke: #666666"/>
    </g>
    <g clip-path="url(#p682844e078)">
     <use xlink:href="#C0_0_028cdc78e8" x="39.890909" y="19.374545" style="fill: #c8c8c8; stroke: #666666"/>
    </g>
    <g clip-path="url(#p682844e078)">
     <use xlink:href="#C0_0_028cdc78e8" x="62.436364" y="19.374545" style="fill: #c8c8c8; stroke: #666666"/>
    </g>
    <g clip-path="url(#p682844e078)">
     <use xlink:href="#C0_0_028cdc78e8" x="84.981818" y="19.374545" style="fill: #c8c8c8; stroke: #666666"/>
    </g>
    <g clip-path="url(#p682844e078)">
     <use xlink:href="#C0_0_028cdc78e8" x="107.527273" y="19.374545" style="fill: #c8c8c8; stroke: #666666"/>
    </g>
    <g clip-path="url(#p682844e078)">
     <use xlink:href="#C0_0_028cdc78e8" x="130.072727" y="19.374545" style="fill: #c8c8c8; stroke: #666666"/>
    </g>
    <g clip-path="url(#p682844e078)">
     <use xlink:href="#C0_0_028cdc78e8" x="152.618182" y="19.374545" style="fill: #c8c8c8; stroke: #666666"/>
    </g>
    <g clip-path="url(#p682844e078)">
     <use xlink:href="#C0_0_028cdc78e8" x="175.163636" y="19.374545" style="fill: #c8c8c8; stroke: #666666"/>
    </g>
    <g clip-path="url(#p682844e078)">
     <use xlink:href="#C0_0_028cdc78e8" x="197.709091" y="19.374545" style="fill: #c8c8c8; stroke: #666666"/>
    </g>
    <g clip-path="url(#p682844e078)">
     <use xlink:href="#C0_0_028cdc78e8" x="220.254545" y="19.374545" style="fill: #c8c8c8; stroke: #666666"/>
    </g>
   </g>
   <g id="text_1">
    <g clip-path="url(#p682844e078)">
     <!-- x_1 -->
     <g style="fill: #4c4c4c" transform="translate(44.716136 66.410455) scale(0.08 -0.08)">
      <defs>
       <path id="CharterBT-Bold-78" d="M 90 3117 
L 90 2822 
L 454 2771 
L 1344 1498 
L 448 352 
L 70 282 
L 70 0 
L 1312 0 
L 1312 282 
L 986 346 
L 1587 1229 
L 2150 371 
L 2125 307 
L 1901 250 
L 1901 0 
L 3398 0 
L 3398 282 
L 3059 339 
L 2106 1715 
L 2925 2778 
L 3277 2822 
L 3277 3117 
L 2099 3117 
L 2099 2835 
L 2426 2778 
L 1869 1978 
L 1357 2739 
L 1389 2810 
L 1632 2848 
L 1632 3117 
L 90 3117 
z
" transform="scale(0.015625)"/>
       <path id="CharterBT-Bold-5f" d="M 3200 -973 
L 0 -973 
L 0 -1510 
L 3200 -1510 
L 3200 -973 
z
" transform="scale(0.015625)"/>
       <path id="CharterBT-Bold-31" d="M 2080 4358 
L 698 3891 
L 698 3565 
L 1606 3699 
L 1664 3622 
L 1664 474 
L 1587 358 
L 947 320 
L 947 0 
L 3168 0 
L 3168 320 
L 2566 346 
L 2496 448 
L 2496 4358 
L 2080 4358 
z
" transform="scale(0.015625)"/>
      </defs>
      <use xlink:href="#CharterBT-Bold-78"/>
      <use xlink:href="#CharterBT-Bold-5f" transform="translate(53.099991 0)"/>
      <use xlink:href="#CharterBT-Bold-31" transform="translate(103.099976 0)"/>
     </g>
    </g>
   </g>
   <g id="text_2">
    <g clip-path="url(#p682844e078)">
     <!-- x_2 -->
     <g style="fill: #4c4c4c" transform="translate(89.807045 66.410455) scale(0.08 -0.08)">
      <defs>
       <path id="CharterBT-Bold-32" d="M 1107 653 
C 2528 1619 3270 2304 3270 3123 
C 3270 3866 2726 4371 1869 4371 
C 947 4371 365 3923 365 3392 
C 365 3123 544 2944 826 2944 
C 954 2944 1088 2982 1229 3059 
L 1229 3885 
C 1357 3936 1485 3962 1600 3962 
C 2086 3962 2387 3635 2387 3066 
C 2387 2266 1658 1555 307 506 
L 307 0 
L 3405 0 
L 3405 1216 
L 3014 1216 
L 2899 653 
L 1107 653 
z
" transform="scale(0.015625)"/>
      </defs>
      <use xlink:href="#CharterBT-Bold-78"/>
      <use xlink:href="#CharterBT-Bold-5f" transform="translate(53.099991 0)"/>
      <use xlink:href="#CharterBT-Bold-32" transform="translate(103.099976 0)"/>
     </g>
    </g>
   </g>
   <g id="text_3">
    <g clip-path="url(#p682844e078)">
     <!-- x_3 -->
     <g style="fill: #4c4c4c" transform="translate(134.897955 66.410455) scale(0.08 -0.08)">
      <defs>
       <path id="CharterBT-Bold-33" d="M 2138 2259 
C 2829 2419 3187 2778 3187 3283 
C 3187 3904 2650 4365 1798 4365 
C 928 4365 371 3942 371 3482 
C 371 3226 557 3040 832 3040 
C 966 3040 1069 3066 1171 3130 
L 1171 3878 
C 1299 3930 1421 3955 1530 3955 
C 1997 3955 2323 3642 2323 3194 
C 2323 2701 1984 2406 1382 2406 
C 1325 2406 1261 2406 1197 2413 
L 1197 1952 
C 1370 1978 1504 1984 1594 1984 
C 2138 1984 2477 1664 2477 1197 
C 2477 698 2106 307 1619 307 
C 1491 307 1344 339 1178 403 
L 973 1094 
C 877 1126 800 1146 723 1146 
C 448 1146 269 979 269 730 
C 269 307 774 -70 1562 -70 
C 2662 -70 3347 512 3347 1235 
C 3347 1818 2918 2202 2138 2259 
z
" transform="scale(0.015625)"/>
      </defs>
      <use xlink:href="#CharterBT-Bold-78"/>
      <use xlink:href="#CharterBT-Bold-5f" transform="translate(53.099991 0)"/>
      <use xlink:href="#CharterBT-Bold-33" transform="translate(103.099976 0)"/>
     </g>
    </g>
   </g>
   <g id="text_4">
    <g clip-path="url(#p682844e078)">
     <!-- x_4 -->
     <g style="fill: #4c4c4c" transform="translate(179.988864 66.410455) scale(0.08 -0.08)">
      <defs>
       <path id="CharterBT-Bold-34" d="M 2272 4333 
L 160 1677 
L 160 1158 
L 2150 1158 
L 2150 -198 
L 2899 -198 
L 2899 1158 
L 3622 1158 
L 3622 1664 
L 2899 1664 
L 2899 4333 
L 2272 4333 
z
M 2150 3450 
L 2150 1664 
L 742 1664 
L 2150 3450 
z
" transform="scale(0.015625)"/>
      </defs>
      <use xlink:href="#CharterBT-Bold-78"/>
      <use xlink:href="#CharterBT-Bold-5f" transform="translate(53.099991 0)"/>
      <use xlink:href="#CharterBT-Bold-34" transform="translate(103.099976 0)"/>
     </g>
    </g>
   </g>
   <g id="text_5">
    <g clip-path="url(#p682844e078)">
     <!-- A -->
     <g style="fill: #4c4c4c" transform="translate(14.741705 21.454545) scale(0.08 -0.08)">
      <defs>
       <path id="CharterBT-Bold-41" d="M 1760 4339 
L 314 371 
L -70 314 
L -70 0 
L 1306 0 
L 1306 314 
L 902 358 
L 838 442 
L 1222 1523 
L 2618 1523 
L 3002 435 
L 2957 352 
L 2554 314 
L 2554 0 
L 4282 0 
L 4282 314 
L 3904 378 
L 2432 4339 
L 1760 4339 
z
M 1901 3462 
L 2470 1882 
L 1344 1882 
L 1901 3462 
z
" transform="scale(0.015625)"/>
      </defs>
      <use xlink:href="#CharterBT-Bold-41"/>
     </g>
    </g>
   </g>
   <g id="text_6">
    <g clip-path="url(#p682844e078)">
     <!-- B -->
     <g style="fill: #4c4c4c" transform="translate(37.379034 21.454545) scale(0.08 -0.08)">
      <defs>
       <path id="CharterBT-Bold-42" d="M 186 4294 
L 186 3981 
L 563 3949 
L 666 3859 
L 666 448 
L 563 346 
L 186 314 
L 186 0 
L 2163 0 
C 3213 0 3776 448 3776 1254 
C 3776 1882 3360 2272 2611 2285 
C 3219 2445 3526 2790 3526 3290 
C 3526 3955 3053 4294 2106 4294 
L 186 4294 
z
M 1498 2387 
L 1498 3936 
C 1587 3942 1670 3949 1754 3949 
C 2355 3949 2643 3712 2643 3213 
C 2643 2637 2336 2381 1670 2381 
C 1613 2381 1555 2381 1498 2387 
z
M 1498 365 
L 1498 2016 
C 1677 2029 1818 2029 1920 2029 
C 2560 2029 2880 1760 2880 1216 
C 2880 602 2547 352 1805 352 
C 1709 352 1606 358 1498 365 
z
" transform="scale(0.015625)"/>
      </defs>
      <use xlink:href="#CharterBT-Bold-42"/>
     </g>
    </g>
   </g>
   <g id="text_7">
    <g clip-path="url(#p682844e078)">
     <!-- C -->
     <g style="fill: #4c4c4c" transform="translate(59.884489 21.454545) scale(0.08 -0.08)">
      <defs>
       <path id="CharterBT-Bold-43" d="M 3846 154 
L 3846 1254 
L 3386 1254 
L 3226 480 
L 3130 384 
C 2976 346 2848 326 2739 326 
C 1786 326 1203 1005 1203 2150 
C 1203 3283 1779 3955 2656 3955 
C 2822 3955 2989 3923 3162 3859 
L 3251 3750 
L 3373 3066 
L 3846 3066 
L 3846 4134 
C 3418 4288 2982 4371 2541 4371 
C 1875 4371 1331 4173 928 3782 
C 493 3366 262 2797 262 2144 
C 262 1325 659 608 1325 211 
C 1638 26 2042 -77 2502 -77 
C 2970 -77 3418 0 3846 154 
z
" transform="scale(0.015625)"/>
      </defs>
      <use xlink:href="#CharterBT-Bold-43"/>
     </g>
    </g>
   </g>
   <g id="text_8">
    <g clip-path="url(#p682844e078)">
     <!-- D -->
     <g style="fill: #4c4c4c" transform="translate(82.118068 21.454545) scale(0.08 -0.08)">
      <defs>
       <path id="CharterBT-Bold-44" d="M 2054 4294 
L 186 4294 
L 186 3981 
L 576 3949 
L 678 3846 
L 678 448 
L 576 346 
L 186 314 
L 186 0 
L 2054 0 
C 2694 0 3174 96 3571 403 
C 4090 800 4358 1389 4358 2144 
C 4358 3488 3539 4294 2054 4294 
z
M 1523 3936 
L 1894 3936 
C 2912 3936 3405 3354 3405 2150 
C 3405 947 2912 358 1894 358 
L 1523 358 
L 1523 3936 
z
" transform="scale(0.015625)"/>
      </defs>
      <use xlink:href="#CharterBT-Bold-44"/>
     </g>
    </g>
   </g>
   <g id="text_9">
    <g clip-path="url(#p682844e078)">
     <!-- E -->
     <g style="fill: #4c4c4c" transform="translate(105.143523 21.454545) scale(0.08 -0.08)">
      <defs>
       <path id="CharterBT-Bold-45" d="M 186 0 
L 3622 0 
L 3622 1146 
L 3187 1146 
L 3078 467 
L 2995 365 
L 1510 365 
L 1510 2029 
L 2342 2029 
L 2432 1939 
L 2496 1478 
L 2874 1478 
L 2874 2963 
L 2496 2963 
L 2432 2502 
L 2342 2413 
L 1510 2413 
L 1510 3936 
L 2784 3936 
L 2867 3853 
L 2963 3290 
L 3411 3290 
L 3411 4294 
L 186 4294 
L 186 3981 
L 576 3949 
L 678 3859 
L 678 448 
L 576 346 
L 186 314 
L 186 0 
z
" transform="scale(0.015625)"/>
      </defs>
      <use xlink:href="#CharterBT-Bold-45"/>
     </g>
    </g>
   </g>
   <g id="text_10">
    <g clip-path="url(#p682844e078)">
     <!-- F -->
     <g style="fill: #4c4c4c" transform="translate(127.864602 21.454545) scale(0.08 -0.08)">
      <defs>
       <path id="CharterBT-Bold-46" d="M 192 0 
L 2080 0 
L 2080 314 
L 1632 346 
L 1523 448 
L 1523 1939 
L 2381 1939 
L 2470 1856 
L 2534 1389 
L 2912 1389 
L 2912 2880 
L 2534 2880 
L 2470 2413 
L 2381 2330 
L 1523 2330 
L 1523 3923 
L 2758 3923 
L 2842 3840 
L 2938 3219 
L 3379 3219 
L 3379 4294 
L 166 4294 
L 166 3981 
L 576 3949 
L 678 3859 
L 678 448 
L 576 346 
L 192 314 
L 192 0 
z
" transform="scale(0.015625)"/>
      </defs>
      <use xlink:href="#CharterBT-Bold-46"/>
     </g>
    </g>
   </g>
   <g id="text_11">
    <g clip-path="url(#p682844e078)">
     <!-- G -->
     <g style="fill: #4c4c4c" transform="translate(149.778182 21.454545) scale(0.08 -0.08)">
      <defs>
       <path id="CharterBT-Bold-47" d="M 2547 2112 
L 2547 1798 
L 3021 1766 
L 3123 1677 
L 3123 371 
C 2957 358 2835 352 2771 352 
C 1786 352 1184 1024 1184 2176 
C 1184 3296 1773 3962 2726 3962 
C 2912 3962 3085 3930 3258 3859 
L 3354 3744 
L 3475 3066 
L 3942 3066 
L 3942 4154 
C 3469 4294 3014 4365 2592 4365 
C 1171 4365 256 3488 256 2176 
C 256 845 1165 -77 2509 -77 
C 2976 -77 3450 13 3942 186 
L 3942 1677 
L 4045 1766 
L 4416 1798 
L 4416 2112 
L 2547 2112 
z
" transform="scale(0.015625)"/>
      </defs>
      <use xlink:href="#CharterBT-Bold-47"/>
     </g>
    </g>
   </g>
   <g id="text_12">
    <g clip-path="url(#p682844e078)">
     <!-- H -->
     <g style="fill: #4c4c4c" transform="translate(172.123636 21.454545) scale(0.08 -0.08)">
      <defs>
       <path id="CharterBT-Bold-48" d="M 192 4294 
L 192 3981 
L 563 3949 
L 666 3846 
L 666 448 
L 563 346 
L 192 314 
L 192 0 
L 2003 0 
L 2003 314 
L 1619 346 
L 1517 448 
L 1517 2061 
L 3366 2061 
L 3366 448 
L 3270 346 
L 2886 314 
L 2886 0 
L 4691 0 
L 4691 314 
L 4320 346 
L 4218 448 
L 4218 3846 
L 4320 3949 
L 4691 3981 
L 4691 4294 
L 2886 4294 
L 2886 3981 
L 3270 3949 
L 3366 3846 
L 3366 2445 
L 1517 2445 
L 1517 3846 
L 1619 3949 
L 2003 3981 
L 2003 4294 
L 192 4294 
z
" transform="scale(0.015625)"/>
      </defs>
      <use xlink:href="#CharterBT-Bold-48"/>
     </g>
    </g>
   </g>
   <g id="text_13">
    <g clip-path="url(#p682844e078)">
     <!-- I -->
     <g style="fill: #4c4c4c" transform="translate(196.292841 21.454545) scale(0.08 -0.08)">
      <defs>
       <path id="CharterBT-Bold-49" d="M 192 0 
L 2106 0 
L 2106 314 
L 1677 346 
L 1574 448 
L 1574 3859 
L 1677 3949 
L 2106 3981 
L 2106 4294 
L 192 4294 
L 192 3981 
L 614 3949 
L 717 3859 
L 717 448 
L 614 346 
L 192 314 
L 192 0 
z
" transform="scale(0.015625)"/>
      </defs>
      <use xlink:href="#CharterBT-Bold-49"/>
     </g>
    </g>
   </g>
   <g id="text_14">
    <g clip-path="url(#p682844e078)">
     <!-- J -->
     <g style="fill: #4c4c4c" transform="translate(218.394545 21.454545) scale(0.08 -0.08)">
      <defs>
       <path id="CharterBT-Bold-4a" d="M 1638 3859 
L 1638 1670 
C 1638 736 1466 294 883 294 
C 851 294 813 301 781 301 
L 691 384 
L 544 1229 
L 77 1229 
L 77 77 
C 390 -26 691 -77 992 -77 
C 2035 -77 2477 480 2477 1677 
L 2477 3859 
L 2579 3949 
L 2970 3981 
L 2970 4294 
L 1088 4294 
L 1088 3981 
L 1536 3949 
L 1638 3859 
z
" transform="scale(0.015625)"/>
      </defs>
      <use xlink:href="#CharterBT-Bold-4a"/>
     </g>
    </g>
   </g>
  </g>
 </g>
 <defs>
  <clipPath id="p682844e078">
   <rect x="7.2" y="7.2" width="223.2" height="69.44"/>
  </clipPath>
 </defs>
</svg>
