<?xml version="1.0" encoding="utf-8" standalone="no"?>
<!DOCTYPE svg PUBLIC "-//W3C//DTD SVG 1.1//EN"
  "http://www.w3.org/Graphics/SVG/1.1/DTD/svg11.dtd">
<svg xmlns:xlink="http://www.w3.org/1999/xlink" width="307.02625pt" height="210.571875pt" viewBox="0 0 307.02625 210.571875" xmlns="http://www.w3.org/2000/svg" version="1.1">
 <metadata>
  <rdf:RDF xmlns:dc="http://purl.org/dc/elements/1.1/" xmlns:cc="http://creativecommons.org/ns#" xmlns:rdf="http://www.w3.org/1999/02/22-rdf-syntax-ns#">
   <cc:Work>
    <dc:type rdf:resource="http://purl.org/dc/dcmitype/StillImage"/>
    <dc:date>2025-06-23T18:21:30.550066</dc:date>
    <dc:format>image/svg+xml</dc:format>
    <dc:creator>
     <cc:Agent>
      <dc:title>Matplotlib v3.10.3, https://matplotlib.org/</dc:title>
     </cc:Agent>
    </dc:creator>
   </cc:Work>
  </rdf:RDF>
 </metadata>
 <defs>
  <style type="text/css">*{stroke-linejoin: round; stroke-linecap: butt}</style>
 </defs>
 <g id="figure_1">
  <g id="patch_1">
   <path d="M -0 210.571875 
L 307.02625 210.571875 
L 307.02625 0 
L -0 0 
L -0 210.571875 
z
" style="fill: none"/>
  </g>
  <g id="axes_1">
   <g id="patch_2">
    <path d="M 65.46625 82.8 
L 299.82625 82.8 
L 299.82625 7.2 
L 65.46625 7.2 
L 65.46625 82.8 
z
" style="fill: none"/>
   </g>
   <g id="matplotlib.axis_1">
    <g id="xtick_1">
     <g id="line2d_1">
      <defs>
       <path id="mcade20ee5a" d="M 0 0 
L 0 4.8 
" style="stroke: #262626"/>
      </defs>
      <g>
       <use xlink:href="#mcade20ee5a" x="71.379803" y="82.8" style="fill: #262626; stroke: #262626"/>
      </g>
     </g>
    </g>
    <g id="xtick_2">
     <g id="line2d_2">
      <g>
       <use xlink:href="#mcade20ee5a" x="122.650729" y="82.8" style="fill: #262626; stroke: #262626"/>
      </g>
     </g>
    </g>
    <g id="xtick_3">
     <g id="line2d_3">
      <g>
       <use xlink:href="#mcade20ee5a" x="173.921656" y="82.8" style="fill: #262626; stroke: #262626"/>
      </g>
     </g>
    </g>
    <g id="xtick_4">
     <g id="line2d_4">
      <g>
       <use xlink:href="#mcade20ee5a" x="225.192582" y="82.8" style="fill: #262626; stroke: #262626"/>
      </g>
     </g>
    </g>
    <g id="xtick_5">
     <g id="line2d_5">
      <g>
       <use xlink:href="#mcade20ee5a" x="276.463508" y="82.8" style="fill: #262626; stroke: #262626"/>
      </g>
     </g>
    </g>
    <g id="xtick_6">
     <g id="line2d_6">
      <defs>
       <path id="mbdb813f095" d="M 0 0 
L 0 3.2 
" style="stroke: #262626; stroke-width: 0.8"/>
      </defs>
      <g>
       <use xlink:href="#mbdb813f095" x="66.411137" y="82.8" style="fill: #262626; stroke: #262626; stroke-width: 0.8"/>
      </g>
     </g>
    </g>
    <g id="xtick_7">
     <g id="line2d_7">
      <g>
       <use xlink:href="#mbdb813f095" x="69.033774" y="82.8" style="fill: #262626; stroke: #262626; stroke-width: 0.8"/>
      </g>
     </g>
    </g>
    <g id="xtick_8">
     <g id="line2d_8">
      <g>
       <use xlink:href="#mbdb813f095" x="86.81389" y="82.8" style="fill: #262626; stroke: #262626; stroke-width: 0.8"/>
      </g>
     </g>
    </g>
    <g id="xtick_9">
     <g id="line2d_9">
      <g>
       <use xlink:href="#mbdb813f095" x="95.842252" y="82.8" style="fill: #262626; stroke: #262626; stroke-width: 0.8"/>
      </g>
     </g>
    </g>
    <g id="xtick_10">
     <g id="line2d_10">
      <g>
       <use xlink:href="#mbdb813f095" x="102.247976" y="82.8" style="fill: #262626; stroke: #262626; stroke-width: 0.8"/>
      </g>
     </g>
    </g>
    <g id="xtick_11">
     <g id="line2d_11">
      <g>
       <use xlink:href="#mbdb813f095" x="107.216643" y="82.8" style="fill: #262626; stroke: #262626; stroke-width: 0.8"/>
      </g>
     </g>
    </g>
    <g id="xtick_12">
     <g id="line2d_12">
      <g>
       <use xlink:href="#mbdb813f095" x="111.276338" y="82.8" style="fill: #262626; stroke: #262626; stroke-width: 0.8"/>
      </g>
     </g>
    </g>
    <g id="xtick_13">
     <g id="line2d_13">
      <g>
       <use xlink:href="#mbdb813f095" x="114.708762" y="82.8" style="fill: #262626; stroke: #262626; stroke-width: 0.8"/>
      </g>
     </g>
    </g>
    <g id="xtick_14">
     <g id="line2d_14">
      <g>
       <use xlink:href="#mbdb813f095" x="117.682063" y="82.8" style="fill: #262626; stroke: #262626; stroke-width: 0.8"/>
      </g>
     </g>
    </g>
    <g id="xtick_15">
     <g id="line2d_15">
      <g>
       <use xlink:href="#mbdb813f095" x="120.3047" y="82.8" style="fill: #262626; stroke: #262626; stroke-width: 0.8"/>
      </g>
     </g>
    </g>
    <g id="xtick_16">
     <g id="line2d_16">
      <g>
       <use xlink:href="#mbdb813f095" x="138.084816" y="82.8" style="fill: #262626; stroke: #262626; stroke-width: 0.8"/>
      </g>
     </g>
    </g>
    <g id="xtick_17">
     <g id="line2d_17">
      <g>
       <use xlink:href="#mbdb813f095" x="147.113178" y="82.8" style="fill: #262626; stroke: #262626; stroke-width: 0.8"/>
      </g>
     </g>
    </g>
    <g id="xtick_18">
     <g id="line2d_18">
      <g>
       <use xlink:href="#mbdb813f095" x="153.518903" y="82.8" style="fill: #262626; stroke: #262626; stroke-width: 0.8"/>
      </g>
     </g>
    </g>
    <g id="xtick_19">
     <g id="line2d_19">
      <g>
       <use xlink:href="#mbdb813f095" x="158.487569" y="82.8" style="fill: #262626; stroke: #262626; stroke-width: 0.8"/>
      </g>
     </g>
    </g>
    <g id="xtick_20">
     <g id="line2d_20">
      <g>
       <use xlink:href="#mbdb813f095" x="162.547265" y="82.8" style="fill: #262626; stroke: #262626; stroke-width: 0.8"/>
      </g>
     </g>
    </g>
    <g id="xtick_21">
     <g id="line2d_21">
      <g>
       <use xlink:href="#mbdb813f095" x="165.979689" y="82.8" style="fill: #262626; stroke: #262626; stroke-width: 0.8"/>
      </g>
     </g>
    </g>
    <g id="xtick_22">
     <g id="line2d_22">
      <g>
       <use xlink:href="#mbdb813f095" x="168.952989" y="82.8" style="fill: #262626; stroke: #262626; stroke-width: 0.8"/>
      </g>
     </g>
    </g>
    <g id="xtick_23">
     <g id="line2d_23">
      <g>
       <use xlink:href="#mbdb813f095" x="171.575627" y="82.8" style="fill: #262626; stroke: #262626; stroke-width: 0.8"/>
      </g>
     </g>
    </g>
    <g id="xtick_24">
     <g id="line2d_24">
      <g>
       <use xlink:href="#mbdb813f095" x="189.355742" y="82.8" style="fill: #262626; stroke: #262626; stroke-width: 0.8"/>
      </g>
     </g>
    </g>
    <g id="xtick_25">
     <g id="line2d_25">
      <g>
       <use xlink:href="#mbdb813f095" x="198.384104" y="82.8" style="fill: #262626; stroke: #262626; stroke-width: 0.8"/>
      </g>
     </g>
    </g>
    <g id="xtick_26">
     <g id="line2d_26">
      <g>
       <use xlink:href="#mbdb813f095" x="204.789829" y="82.8" style="fill: #262626; stroke: #262626; stroke-width: 0.8"/>
      </g>
     </g>
    </g>
    <g id="xtick_27">
     <g id="line2d_27">
      <g>
       <use xlink:href="#mbdb813f095" x="209.758495" y="82.8" style="fill: #262626; stroke: #262626; stroke-width: 0.8"/>
      </g>
     </g>
    </g>
    <g id="xtick_28">
     <g id="line2d_28">
      <g>
       <use xlink:href="#mbdb813f095" x="213.818191" y="82.8" style="fill: #262626; stroke: #262626; stroke-width: 0.8"/>
      </g>
     </g>
    </g>
    <g id="xtick_29">
     <g id="line2d_29">
      <g>
       <use xlink:href="#mbdb813f095" x="217.250615" y="82.8" style="fill: #262626; stroke: #262626; stroke-width: 0.8"/>
      </g>
     </g>
    </g>
    <g id="xtick_30">
     <g id="line2d_30">
      <g>
       <use xlink:href="#mbdb813f095" x="220.223916" y="82.8" style="fill: #262626; stroke: #262626; stroke-width: 0.8"/>
      </g>
     </g>
    </g>
    <g id="xtick_31">
     <g id="line2d_31">
      <g>
       <use xlink:href="#mbdb813f095" x="222.846553" y="82.8" style="fill: #262626; stroke: #262626; stroke-width: 0.8"/>
      </g>
     </g>
    </g>
    <g id="xtick_32">
     <g id="line2d_32">
      <g>
       <use xlink:href="#mbdb813f095" x="240.626668" y="82.8" style="fill: #262626; stroke: #262626; stroke-width: 0.8"/>
      </g>
     </g>
    </g>
    <g id="xtick_33">
     <g id="line2d_33">
      <g>
       <use xlink:href="#mbdb813f095" x="249.65503" y="82.8" style="fill: #262626; stroke: #262626; stroke-width: 0.8"/>
      </g>
     </g>
    </g>
    <g id="xtick_34">
     <g id="line2d_34">
      <g>
       <use xlink:href="#mbdb813f095" x="256.060755" y="82.8" style="fill: #262626; stroke: #262626; stroke-width: 0.8"/>
      </g>
     </g>
    </g>
    <g id="xtick_35">
     <g id="line2d_35">
      <g>
       <use xlink:href="#mbdb813f095" x="261.029421" y="82.8" style="fill: #262626; stroke: #262626; stroke-width: 0.8"/>
      </g>
     </g>
    </g>
    <g id="xtick_36">
     <g id="line2d_36">
      <g>
       <use xlink:href="#mbdb813f095" x="265.089117" y="82.8" style="fill: #262626; stroke: #262626; stroke-width: 0.8"/>
      </g>
     </g>
    </g>
    <g id="xtick_37">
     <g id="line2d_37">
      <g>
       <use xlink:href="#mbdb813f095" x="268.521541" y="82.8" style="fill: #262626; stroke: #262626; stroke-width: 0.8"/>
      </g>
     </g>
    </g>
    <g id="xtick_38">
     <g id="line2d_38">
      <g>
       <use xlink:href="#mbdb813f095" x="271.494842" y="82.8" style="fill: #262626; stroke: #262626; stroke-width: 0.8"/>
      </g>
     </g>
    </g>
    <g id="xtick_39">
     <g id="line2d_39">
      <g>
       <use xlink:href="#mbdb813f095" x="274.117479" y="82.8" style="fill: #262626; stroke: #262626; stroke-width: 0.8"/>
      </g>
     </g>
    </g>
    <g id="xtick_40">
     <g id="line2d_40">
      <g>
       <use xlink:href="#mbdb813f095" x="291.897595" y="82.8" style="fill: #262626; stroke: #262626; stroke-width: 0.8"/>
      </g>
     </g>
    </g>
   </g>
   <g id="matplotlib.axis_2">
    <g id="ytick_1">
     <g id="line2d_41">
      <defs>
       <path id="m601e4f236d" d="M 0 0 
L -4.8 0 
" style="stroke: #262626"/>
      </defs>
      <g>
       <use xlink:href="#m601e4f236d" x="65.46625" y="82.8" style="fill: #262626; stroke: #262626"/>
      </g>
     </g>
     <g id="text_1">
      <!-- 0 -->
      <g style="fill: #262626" transform="translate(52.274 86.038125) scale(0.088 -0.088)">
       <defs>
        <path id="CharterBT-Roman-30" d="M 1779 4371 
C 864 4371 262 3565 262 2150 
C 262 736 864 -77 1779 -77 
C 2694 -77 3296 736 3296 2150 
C 3296 3565 2694 4371 1779 4371 
z
M 1779 4070 
C 2368 4070 2688 3418 2688 2150 
C 2688 883 2368 230 1779 230 
C 1190 230 864 877 864 2144 
C 864 3418 1190 4070 1779 4070 
z
" transform="scale(0.015625)"/>
       </defs>
       <use xlink:href="#CharterBT-Roman-30"/>
      </g>
     </g>
    </g>
    <g id="ytick_2">
     <g id="line2d_42">
      <g>
       <use xlink:href="#m601e4f236d" x="65.46625" y="59.193443" style="fill: #262626; stroke: #262626"/>
      </g>
     </g>
     <g id="text_2">
      <!-- 20 -->
      <g style="fill: #262626" transform="translate(47.38175 62.431568) scale(0.088 -0.088)">
       <defs>
        <path id="CharterBT-Roman-32" d="M 902 506 
C 2317 1632 3091 2355 3091 3162 
C 3091 3885 2586 4371 1760 4371 
C 966 4371 403 3917 403 3469 
C 403 3251 538 3110 762 3110 
C 864 3110 960 3142 1050 3206 
L 1050 3891 
C 1242 4000 1427 4045 1619 4045 
C 2150 4045 2470 3686 2470 3078 
C 2470 2240 1670 1542 269 403 
L 269 0 
L 3232 0 
L 3232 1050 
L 2944 1050 
L 2829 506 
L 902 506 
z
" transform="scale(0.015625)"/>
       </defs>
       <use xlink:href="#CharterBT-Roman-32"/>
       <use xlink:href="#CharterBT-Roman-30" transform="translate(55.599991 0)"/>
      </g>
     </g>
    </g>
    <g id="ytick_3">
     <g id="line2d_43">
      <g>
       <use xlink:href="#m601e4f236d" x="65.46625" y="35.586885" style="fill: #262626; stroke: #262626"/>
      </g>
     </g>
     <g id="text_3">
      <!-- 40 -->
      <g style="fill: #262626" transform="translate(47.38175 38.82501) scale(0.088 -0.088)">
       <defs>
        <path id="CharterBT-Roman-34" d="M 2355 4333 
L 173 1658 
L 173 1242 
L 2234 1242 
L 2234 -237 
L 2726 -237 
L 2726 1242 
L 3450 1242 
L 3450 1658 
L 2726 1658 
L 2726 4333 
L 2355 4333 
z
M 2234 3635 
L 2234 1658 
L 653 1658 
L 2234 3635 
z
" transform="scale(0.015625)"/>
       </defs>
       <use xlink:href="#CharterBT-Roman-34"/>
       <use xlink:href="#CharterBT-Roman-30" transform="translate(55.599991 0)"/>
      </g>
     </g>
    </g>
    <g id="ytick_4">
     <g id="line2d_44">
      <g>
       <use xlink:href="#m601e4f236d" x="65.46625" y="11.980328" style="fill: #262626; stroke: #262626"/>
      </g>
     </g>
     <g id="text_4">
      <!-- 60 -->
      <g style="fill: #262626" transform="translate(47.38175 15.218453) scale(0.088 -0.088)">
       <defs>
        <path id="CharterBT-Roman-36" d="M 2835 4570 
C 1267 4467 320 3411 320 1773 
C 320 621 947 -77 1811 -77 
C 2688 -77 3360 589 3360 1453 
C 3360 2266 2790 2848 2029 2848 
C 1651 2848 1274 2714 941 2458 
C 1139 3597 1792 4198 2816 4198 
L 2835 4198 
L 2835 4570 
z
M 928 2176 
C 1190 2368 1504 2464 1856 2464 
C 2400 2464 2778 2054 2778 1395 
C 2778 717 2394 230 1862 230 
C 1261 230 915 768 915 1786 
C 915 1907 915 2042 928 2176 
z
" transform="scale(0.015625)"/>
       </defs>
       <use xlink:href="#CharterBT-Roman-36"/>
       <use xlink:href="#CharterBT-Roman-30" transform="translate(55.599991 0)"/>
      </g>
     </g>
    </g>
    <g id="text_5">
     <!-- Count -->
     <g style="fill: #262626" transform="translate(41.28925 57.6825) rotate(-90) scale(0.096 -0.096)">
      <defs>
       <path id="CharterBT-Roman-43" d="M 3763 147 
L 3763 1158 
L 3405 1158 
L 3264 448 
L 3162 346 
C 2970 288 2784 262 2605 262 
C 1568 262 934 979 934 2195 
C 934 3341 1555 4032 2509 4032 
C 2758 4032 2989 3974 3226 3866 
L 3309 3750 
L 3405 3168 
L 3763 3168 
L 3763 4154 
C 3296 4301 2874 4371 2496 4371 
C 1165 4371 275 3482 275 2150 
C 275 1312 698 570 1382 179 
C 1677 13 2048 -77 2470 -77 
C 2899 -77 3341 0 3763 147 
z
" transform="scale(0.015625)"/>
       <path id="CharterBT-Roman-6f" d="M 1722 3142 
C 858 3142 237 2496 237 1542 
C 237 595 864 -58 1722 -58 
C 2579 -58 3213 595 3213 1542 
C 3213 2490 2586 3142 1722 3142 
z
M 1722 2867 
C 2240 2867 2611 2368 2611 1542 
C 2611 710 2240 218 1722 218 
C 1210 218 838 717 838 1542 
C 838 2374 1203 2867 1722 2867 
z
" transform="scale(0.015625)"/>
       <path id="CharterBT-Roman-75" d="M 909 3142 
L 166 2906 
L 166 2707 
L 621 2707 
L 621 915 
C 621 275 928 -64 1478 -64 
C 1792 -64 2131 83 2515 358 
L 2515 0 
L 3462 0 
L 3462 230 
L 3162 262 
L 3046 365 
L 3046 3142 
L 2803 3142 
L 2061 2906 
L 2061 2707 
L 2515 2707 
L 2515 538 
C 2253 410 2010 346 1773 346 
C 1344 346 1152 563 1152 1024 
L 1152 3142 
L 909 3142 
z
" transform="scale(0.015625)"/>
       <path id="CharterBT-Roman-6e" d="M 192 0 
L 1594 0 
L 1594 230 
L 1286 262 
L 1178 365 
L 1178 2509 
C 1453 2650 1690 2720 1894 2720 
C 2368 2720 2541 2528 2541 2061 
L 2541 365 
L 2432 262 
L 2125 230 
L 2125 0 
L 3526 0 
L 3526 230 
L 3181 262 
L 3072 365 
L 3072 2170 
C 3072 2810 2765 3142 2208 3142 
C 1933 3142 1606 2995 1178 2758 
L 1178 3110 
L 934 3110 
L 192 2880 
L 192 2682 
L 646 2682 
L 646 365 
L 538 262 
L 192 230 
L 192 0 
z
" transform="scale(0.015625)"/>
       <path id="CharterBT-Roman-74" d="M 563 2694 
L 563 627 
C 563 173 698 -19 1229 -19 
C 1478 -19 1766 26 2067 122 
L 2067 358 
C 1920 326 1773 307 1626 307 
C 1178 307 1094 518 1094 1005 
L 1094 2694 
L 2067 2694 
L 2067 2995 
L 1094 2995 
L 1094 3674 
L 858 3674 
L 582 3078 
L 160 2893 
L 160 2694 
L 563 2694 
z
" transform="scale(0.015625)"/>
      </defs>
      <use xlink:href="#CharterBT-Roman-43"/>
      <use xlink:href="#CharterBT-Roman-6f" transform="translate(63.199997 0)"/>
      <use xlink:href="#CharterBT-Roman-75" transform="translate(117.099991 0)"/>
      <use xlink:href="#CharterBT-Roman-6e" transform="translate(173.999985 0)"/>
      <use xlink:href="#CharterBT-Roman-74" transform="translate(230.799973 0)"/>
     </g>
    </g>
   </g>
   <g id="patch_3">
    <path d="M 76.118977 82.8 
L 97.424432 82.8 
L 97.424432 70.996721 
L 76.118977 70.996721 
z
" clip-path="url(#p8d24516e33)" style="fill: #b2b2b2; fill-opacity: 0.75; stroke: #ffffff; stroke-width: 0.8; stroke-linejoin: miter"/>
   </g>
   <g id="patch_4">
    <path d="M 97.424432 82.8 
L 118.729886 82.8 
L 118.729886 48.570492 
L 97.424432 48.570492 
z
" clip-path="url(#p8d24516e33)" style="fill: #b2b2b2; fill-opacity: 0.75; stroke: #ffffff; stroke-width: 0.8; stroke-linejoin: miter"/>
   </g>
   <g id="patch_5">
    <path d="M 118.729886 82.8 
L 140.035341 82.8 
L 140.035341 15.521311 
L 118.729886 15.521311 
z
" clip-path="url(#p8d24516e33)" style="fill: #b2b2b2; fill-opacity: 0.75; stroke: #ffffff; stroke-width: 0.8; stroke-linejoin: miter"/>
   </g>
   <g id="patch_6">
    <path d="M 140.035341 82.8 
L 161.340795 82.8 
L 161.340795 45.029508 
L 140.035341 45.029508 
z
" clip-path="url(#p8d24516e33)" style="fill: #b2b2b2; fill-opacity: 0.75; stroke: #ffffff; stroke-width: 0.8; stroke-linejoin: miter"/>
   </g>
   <g id="patch_7">
    <path d="M 161.340795 82.8 
L 182.64625 82.8 
L 182.64625 23.783607 
L 161.340795 23.783607 
z
" clip-path="url(#p8d24516e33)" style="fill: #b2b2b2; fill-opacity: 0.75; stroke: #ffffff; stroke-width: 0.8; stroke-linejoin: miter"/>
   </g>
   <g id="patch_8">
    <path d="M 182.64625 82.8 
L 203.951705 82.8 
L 203.951705 39.127869 
L 182.64625 39.127869 
z
" clip-path="url(#p8d24516e33)" style="fill: #b2b2b2; fill-opacity: 0.75; stroke: #ffffff; stroke-width: 0.8; stroke-linejoin: miter"/>
   </g>
   <g id="patch_9">
    <path d="M 203.951705 82.8 
L 225.257159 82.8 
L 225.257159 10.8 
L 203.951705 10.8 
z
" clip-path="url(#p8d24516e33)" style="fill: #b2b2b2; fill-opacity: 0.75; stroke: #ffffff; stroke-width: 0.8; stroke-linejoin: miter"/>
   </g>
   <g id="patch_10">
    <path d="M 225.257159 82.8 
L 246.562614 82.8 
L 246.562614 32.045902 
L 225.257159 32.045902 
z
" clip-path="url(#p8d24516e33)" style="fill: #b2b2b2; fill-opacity: 0.75; stroke: #ffffff; stroke-width: 0.8; stroke-linejoin: miter"/>
   </g>
   <g id="patch_11">
    <path d="M 246.562614 82.8 
L 267.868068 82.8 
L 267.868068 63.914754 
L 246.562614 63.914754 
z
" clip-path="url(#p8d24516e33)" style="fill: #b2b2b2; fill-opacity: 0.75; stroke: #ffffff; stroke-width: 0.8; stroke-linejoin: miter"/>
   </g>
   <g id="patch_12">
    <path d="M 267.868068 82.8 
L 289.173523 82.8 
L 289.173523 55.652459 
L 267.868068 55.652459 
z
" clip-path="url(#p8d24516e33)" style="fill: #b2b2b2; fill-opacity: 0.75; stroke: #ffffff; stroke-width: 0.8; stroke-linejoin: miter"/>
   </g>
   <g id="patch_13">
    <path d="M 65.46625 82.8 
L 65.46625 7.2 
" style="fill: none; stroke: #262626; stroke-linejoin: miter; stroke-linecap: square"/>
   </g>
   <g id="patch_14">
    <path d="M 65.46625 82.8 
L 299.82625 82.8 
" style="fill: none; stroke: #262626; stroke-linejoin: miter; stroke-linecap: square"/>
   </g>
  </g>
  <g id="axes_2">
   <g id="patch_15">
    <path d="M 65.46625 173.52 
L 299.82625 173.52 
L 299.82625 97.92 
L 65.46625 97.92 
L 65.46625 173.52 
z
" style="fill: none"/>
   </g>
   <g id="matplotlib.axis_3">
    <g id="xtick_41">
     <g id="line2d_45">
      <g>
       <use xlink:href="#mcade20ee5a" x="71.379803" y="173.52" style="fill: #262626; stroke: #262626"/>
      </g>
     </g>
     <g id="text_6">
      <!-- $\mathdefault{10^{-5}}$ -->
      <g style="fill: #262626" transform="translate(62.051803 188.29625) scale(0.088 -0.088)">
       <defs>
        <path id="CharterBT-Roman-31" d="M 1990 4371 
L 602 3955 
L 602 3686 
L 1606 3866 
L 1606 422 
L 1530 314 
L 794 275 
L 794 0 
L 2938 0 
L 2938 269 
L 2246 301 
L 2170 397 
L 2170 4371 
L 1990 4371 
z
" transform="scale(0.015625)"/>
        <path id="CharterBT-Roman-2212" d="M 794 2093 
L 794 1722 
L 4538 1722 
L 4538 2093 
L 794 2093 
z
" transform="scale(0.015625)"/>
        <path id="CharterBT-Roman-35" d="M 646 4294 
L 646 2182 
C 787 2208 973 2221 1210 2221 
C 2099 2221 2541 1920 2541 1261 
C 2541 666 2131 237 1530 237 
C 1389 237 1242 262 1101 314 
L 845 864 
C 781 877 730 883 691 883 
C 474 883 320 742 320 544 
C 320 237 762 -58 1421 -58 
C 2470 -58 3130 563 3130 1389 
C 3130 2118 2586 2618 1728 2618 
C 1523 2618 1293 2586 1043 2515 
L 1043 3795 
L 2938 3795 
L 2938 4294 
L 646 4294 
z
" transform="scale(0.015625)"/>
       </defs>
       <use xlink:href="#CharterBT-Roman-31" transform="translate(0 0.36875)"/>
       <use xlink:href="#CharterBT-Roman-30" transform="translate(55.599991 0.36875)"/>
       <use xlink:href="#CharterBT-Roman-2212" transform="translate(112.041622 34.034375) scale(0.7)"/>
       <use xlink:href="#CharterBT-Roman-35" transform="translate(170.351614 34.034375) scale(0.7)"/>
      </g>
     </g>
    </g>
    <g id="xtick_42">
     <g id="line2d_46">
      <g>
       <use xlink:href="#mcade20ee5a" x="122.650729" y="173.52" style="fill: #262626; stroke: #262626"/>
      </g>
     </g>
     <g id="text_7">
      <!-- $\mathdefault{10^{-4}}$ -->
      <g style="fill: #262626" transform="translate(113.322729 188.29625) scale(0.088 -0.088)">
       <use xlink:href="#CharterBT-Roman-31" transform="translate(0 0.942188)"/>
       <use xlink:href="#CharterBT-Roman-30" transform="translate(55.599991 0.942188)"/>
       <use xlink:href="#CharterBT-Roman-2212" transform="translate(112.041622 34.607813) scale(0.7)"/>
       <use xlink:href="#CharterBT-Roman-34" transform="translate(170.351614 34.607813) scale(0.7)"/>
      </g>
     </g>
    </g>
    <g id="xtick_43">
     <g id="line2d_47">
      <g>
       <use xlink:href="#mcade20ee5a" x="173.921656" y="173.52" style="fill: #262626; stroke: #262626"/>
      </g>
     </g>
     <g id="text_8">
      <!-- $\mathdefault{10^{-3}}$ -->
      <g style="fill: #262626" transform="translate(164.593656 188.29625) scale(0.088 -0.088)">
       <defs>
        <path id="CharterBT-Roman-33" d="M 2029 2259 
C 2656 2438 2982 2803 2982 3296 
C 2982 3942 2490 4371 1722 4371 
C 922 4371 371 3942 371 3520 
C 371 3315 512 3174 717 3174 
C 819 3174 902 3200 979 3258 
L 979 3859 
C 1165 3987 1363 4045 1587 4045 
C 2080 4045 2400 3718 2400 3213 
C 2400 2694 2054 2387 1408 2387 
C 1363 2387 1318 2394 1274 2394 
L 1274 2016 
C 1395 2035 1510 2042 1613 2042 
C 2227 2042 2560 1747 2560 1242 
C 2560 672 2138 230 1555 230 
C 1363 230 1184 282 1011 384 
L 813 928 
C 742 954 678 960 621 960 
C 416 960 262 819 262 634 
C 262 307 768 -70 1530 -70 
C 2515 -70 3149 512 3149 1229 
C 3149 1811 2739 2208 2029 2259 
z
" transform="scale(0.015625)"/>
       </defs>
       <use xlink:href="#CharterBT-Roman-31" transform="translate(0 0.526563)"/>
       <use xlink:href="#CharterBT-Roman-30" transform="translate(55.599991 0.526563)"/>
       <use xlink:href="#CharterBT-Roman-2212" transform="translate(112.041622 34.192188) scale(0.7)"/>
       <use xlink:href="#CharterBT-Roman-33" transform="translate(170.351614 34.192188) scale(0.7)"/>
      </g>
     </g>
    </g>
    <g id="xtick_44">
     <g id="line2d_48">
      <g>
       <use xlink:href="#mcade20ee5a" x="225.192582" y="173.52" style="fill: #262626; stroke: #262626"/>
      </g>
     </g>
     <g id="text_9">
      <!-- $\mathdefault{10^{-2}}$ -->
      <g style="fill: #262626" transform="translate(215.864582 188.29625) scale(0.088 -0.088)">
       <use xlink:href="#CharterBT-Roman-31" transform="translate(0 0.526563)"/>
       <use xlink:href="#CharterBT-Roman-30" transform="translate(55.599991 0.526563)"/>
       <use xlink:href="#CharterBT-Roman-2212" transform="translate(112.041622 34.192188) scale(0.7)"/>
       <use xlink:href="#CharterBT-Roman-32" transform="translate(170.351614 34.192188) scale(0.7)"/>
      </g>
     </g>
    </g>
    <g id="xtick_45">
     <g id="line2d_49">
      <g>
       <use xlink:href="#mcade20ee5a" x="276.463508" y="173.52" style="fill: #262626; stroke: #262626"/>
      </g>
     </g>
     <g id="text_10">
      <!-- $\mathdefault{10^{-1}}$ -->
      <g style="fill: #262626" transform="translate(267.135508 188.29625) scale(0.088 -0.088)">
       <use xlink:href="#CharterBT-Roman-31" transform="translate(0 0.526563)"/>
       <use xlink:href="#CharterBT-Roman-30" transform="translate(55.599991 0.526563)"/>
       <use xlink:href="#CharterBT-Roman-2212" transform="translate(112.041622 34.192188) scale(0.7)"/>
       <use xlink:href="#CharterBT-Roman-31" transform="translate(170.351614 34.192188) scale(0.7)"/>
      </g>
     </g>
    </g>
    <g id="xtick_46">
     <g id="line2d_50">
      <g>
       <use xlink:href="#mbdb813f095" x="66.411137" y="173.52" style="fill: #262626; stroke: #262626; stroke-width: 0.8"/>
      </g>
     </g>
    </g>
    <g id="xtick_47">
     <g id="line2d_51">
      <g>
       <use xlink:href="#mbdb813f095" x="69.033774" y="173.52" style="fill: #262626; stroke: #262626; stroke-width: 0.8"/>
      </g>
     </g>
    </g>
    <g id="xtick_48">
     <g id="line2d_52">
      <g>
       <use xlink:href="#mbdb813f095" x="86.81389" y="173.52" style="fill: #262626; stroke: #262626; stroke-width: 0.8"/>
      </g>
     </g>
    </g>
    <g id="xtick_49">
     <g id="line2d_53">
      <g>
       <use xlink:href="#mbdb813f095" x="95.842252" y="173.52" style="fill: #262626; stroke: #262626; stroke-width: 0.8"/>
      </g>
     </g>
    </g>
    <g id="xtick_50">
     <g id="line2d_54">
      <g>
       <use xlink:href="#mbdb813f095" x="102.247976" y="173.52" style="fill: #262626; stroke: #262626; stroke-width: 0.8"/>
      </g>
     </g>
    </g>
    <g id="xtick_51">
     <g id="line2d_55">
      <g>
       <use xlink:href="#mbdb813f095" x="107.216643" y="173.52" style="fill: #262626; stroke: #262626; stroke-width: 0.8"/>
      </g>
     </g>
    </g>
    <g id="xtick_52">
     <g id="line2d_56">
      <g>
       <use xlink:href="#mbdb813f095" x="111.276338" y="173.52" style="fill: #262626; stroke: #262626; stroke-width: 0.8"/>
      </g>
     </g>
    </g>
    <g id="xtick_53">
     <g id="line2d_57">
      <g>
       <use xlink:href="#mbdb813f095" x="114.708762" y="173.52" style="fill: #262626; stroke: #262626; stroke-width: 0.8"/>
      </g>
     </g>
    </g>
    <g id="xtick_54">
     <g id="line2d_58">
      <g>
       <use xlink:href="#mbdb813f095" x="117.682063" y="173.52" style="fill: #262626; stroke: #262626; stroke-width: 0.8"/>
      </g>
     </g>
    </g>
    <g id="xtick_55">
     <g id="line2d_59">
      <g>
       <use xlink:href="#mbdb813f095" x="120.3047" y="173.52" style="fill: #262626; stroke: #262626; stroke-width: 0.8"/>
      </g>
     </g>
    </g>
    <g id="xtick_56">
     <g id="line2d_60">
      <g>
       <use xlink:href="#mbdb813f095" x="138.084816" y="173.52" style="fill: #262626; stroke: #262626; stroke-width: 0.8"/>
      </g>
     </g>
    </g>
    <g id="xtick_57">
     <g id="line2d_61">
      <g>
       <use xlink:href="#mbdb813f095" x="147.113178" y="173.52" style="fill: #262626; stroke: #262626; stroke-width: 0.8"/>
      </g>
     </g>
    </g>
    <g id="xtick_58">
     <g id="line2d_62">
      <g>
       <use xlink:href="#mbdb813f095" x="153.518903" y="173.52" style="fill: #262626; stroke: #262626; stroke-width: 0.8"/>
      </g>
     </g>
    </g>
    <g id="xtick_59">
     <g id="line2d_63">
      <g>
       <use xlink:href="#mbdb813f095" x="158.487569" y="173.52" style="fill: #262626; stroke: #262626; stroke-width: 0.8"/>
      </g>
     </g>
    </g>
    <g id="xtick_60">
     <g id="line2d_64">
      <g>
       <use xlink:href="#mbdb813f095" x="162.547265" y="173.52" style="fill: #262626; stroke: #262626; stroke-width: 0.8"/>
      </g>
     </g>
    </g>
    <g id="xtick_61">
     <g id="line2d_65">
      <g>
       <use xlink:href="#mbdb813f095" x="165.979689" y="173.52" style="fill: #262626; stroke: #262626; stroke-width: 0.8"/>
      </g>
     </g>
    </g>
    <g id="xtick_62">
     <g id="line2d_66">
      <g>
       <use xlink:href="#mbdb813f095" x="168.952989" y="173.52" style="fill: #262626; stroke: #262626; stroke-width: 0.8"/>
      </g>
     </g>
    </g>
    <g id="xtick_63">
     <g id="line2d_67">
      <g>
       <use xlink:href="#mbdb813f095" x="171.575627" y="173.52" style="fill: #262626; stroke: #262626; stroke-width: 0.8"/>
      </g>
     </g>
    </g>
    <g id="xtick_64">
     <g id="line2d_68">
      <g>
       <use xlink:href="#mbdb813f095" x="189.355742" y="173.52" style="fill: #262626; stroke: #262626; stroke-width: 0.8"/>
      </g>
     </g>
    </g>
    <g id="xtick_65">
     <g id="line2d_69">
      <g>
       <use xlink:href="#mbdb813f095" x="198.384104" y="173.52" style="fill: #262626; stroke: #262626; stroke-width: 0.8"/>
      </g>
     </g>
    </g>
    <g id="xtick_66">
     <g id="line2d_70">
      <g>
       <use xlink:href="#mbdb813f095" x="204.789829" y="173.52" style="fill: #262626; stroke: #262626; stroke-width: 0.8"/>
      </g>
     </g>
    </g>
    <g id="xtick_67">
     <g id="line2d_71">
      <g>
       <use xlink:href="#mbdb813f095" x="209.758495" y="173.52" style="fill: #262626; stroke: #262626; stroke-width: 0.8"/>
      </g>
     </g>
    </g>
    <g id="xtick_68">
     <g id="line2d_72">
      <g>
       <use xlink:href="#mbdb813f095" x="213.818191" y="173.52" style="fill: #262626; stroke: #262626; stroke-width: 0.8"/>
      </g>
     </g>
    </g>
    <g id="xtick_69">
     <g id="line2d_73">
      <g>
       <use xlink:href="#mbdb813f095" x="217.250615" y="173.52" style="fill: #262626; stroke: #262626; stroke-width: 0.8"/>
      </g>
     </g>
    </g>
    <g id="xtick_70">
     <g id="line2d_74">
      <g>
       <use xlink:href="#mbdb813f095" x="220.223916" y="173.52" style="fill: #262626; stroke: #262626; stroke-width: 0.8"/>
      </g>
     </g>
    </g>
    <g id="xtick_71">
     <g id="line2d_75">
      <g>
       <use xlink:href="#mbdb813f095" x="222.846553" y="173.52" style="fill: #262626; stroke: #262626; stroke-width: 0.8"/>
      </g>
     </g>
    </g>
    <g id="xtick_72">
     <g id="line2d_76">
      <g>
       <use xlink:href="#mbdb813f095" x="240.626668" y="173.52" style="fill: #262626; stroke: #262626; stroke-width: 0.8"/>
      </g>
     </g>
    </g>
    <g id="xtick_73">
     <g id="line2d_77">
      <g>
       <use xlink:href="#mbdb813f095" x="249.65503" y="173.52" style="fill: #262626; stroke: #262626; stroke-width: 0.8"/>
      </g>
     </g>
    </g>
    <g id="xtick_74">
     <g id="line2d_78">
      <g>
       <use xlink:href="#mbdb813f095" x="256.060755" y="173.52" style="fill: #262626; stroke: #262626; stroke-width: 0.8"/>
      </g>
     </g>
    </g>
    <g id="xtick_75">
     <g id="line2d_79">
      <g>
       <use xlink:href="#mbdb813f095" x="261.029421" y="173.52" style="fill: #262626; stroke: #262626; stroke-width: 0.8"/>
      </g>
     </g>
    </g>
    <g id="xtick_76">
     <g id="line2d_80">
      <g>
       <use xlink:href="#mbdb813f095" x="265.089117" y="173.52" style="fill: #262626; stroke: #262626; stroke-width: 0.8"/>
      </g>
     </g>
    </g>
    <g id="xtick_77">
     <g id="line2d_81">
      <g>
       <use xlink:href="#mbdb813f095" x="268.521541" y="173.52" style="fill: #262626; stroke: #262626; stroke-width: 0.8"/>
      </g>
     </g>
    </g>
    <g id="xtick_78">
     <g id="line2d_82">
      <g>
       <use xlink:href="#mbdb813f095" x="271.494842" y="173.52" style="fill: #262626; stroke: #262626; stroke-width: 0.8"/>
      </g>
     </g>
    </g>
    <g id="xtick_79">
     <g id="line2d_83">
      <g>
       <use xlink:href="#mbdb813f095" x="274.117479" y="173.52" style="fill: #262626; stroke: #262626; stroke-width: 0.8"/>
      </g>
     </g>
    </g>
    <g id="xtick_80">
     <g id="line2d_84">
      <g>
       <use xlink:href="#mbdb813f095" x="291.897595" y="173.52" style="fill: #262626; stroke: #262626; stroke-width: 0.8"/>
      </g>
     </g>
    </g>
    <g id="text_11">
     <!-- Log-Odds-Ratio -->
     <g style="fill: #262626" transform="translate(150.06775 201.279375) scale(0.096 -0.096)">
      <defs>
       <path id="CharterBT-Roman-4c" d="M 173 0 
L 3238 0 
L 3238 1165 
L 2906 1165 
L 2797 397 
L 2707 294 
L 1261 294 
L 1261 3910 
L 1370 4000 
L 1734 4038 
L 1734 4294 
L 173 4294 
L 173 4038 
L 576 4000 
L 685 3910 
L 685 384 
L 576 294 
L 173 262 
L 173 0 
z
" transform="scale(0.015625)"/>
       <path id="CharterBT-Roman-67" d="M 2362 2963 
C 2118 3085 1882 3142 1638 3142 
C 883 3142 397 2707 397 2086 
C 397 1606 698 1229 1190 1120 
C 986 877 883 678 883 512 
C 883 410 909 314 947 224 
C 512 147 256 -160 256 -570 
C 256 -1082 678 -1395 1414 -1395 
C 1901 -1395 2342 -1248 2682 -973 
C 2931 -768 3066 -493 3066 -256 
C 3066 218 2733 416 1978 531 
L 1363 627 
C 1357 698 1350 749 1350 781 
C 1350 883 1376 979 1421 1069 
L 1530 1069 
C 2272 1069 2752 1498 2752 2067 
C 2752 2291 2694 2477 2573 2662 
L 3277 2662 
L 3277 2963 
L 2362 2963 
z
M 1574 2893 
C 1946 2893 2202 2592 2202 2106 
C 2202 1626 1946 1318 1574 1318 
C 1203 1318 947 1626 947 2106 
C 947 2598 1203 2893 1574 2893 
z
M 1318 192 
L 1939 77 
C 2387 -6 2592 -77 2592 -422 
C 2592 -781 2208 -1101 1638 -1101 
C 1114 -1101 768 -806 768 -435 
C 768 -154 966 83 1318 192 
z
" transform="scale(0.015625)"/>
       <path id="CharterBT-Roman-2d" d="M 301 1754 
L 301 1325 
L 1741 1325 
L 1741 1754 
L 301 1754 
z
" transform="scale(0.015625)"/>
       <path id="CharterBT-Roman-4f" d="M 2342 4403 
C 1792 4403 1312 4211 928 3840 
C 499 3424 275 2848 275 2150 
C 275 1453 499 870 934 448 
C 1306 90 1798 -102 2342 -102 
C 3085 -102 3725 269 4083 883 
C 4301 1254 4410 1677 4410 2150 
C 4410 2848 4179 3424 3750 3840 
C 3366 4211 2893 4403 2342 4403 
z
M 2342 4058 
C 3168 4058 3738 3341 3738 2150 
C 3738 960 3168 237 2342 237 
C 1510 237 941 960 941 2150 
C 941 3354 1510 4058 2342 4058 
z
" transform="scale(0.015625)"/>
       <path id="CharterBT-Roman-64" d="M 2451 4282 
L 2451 3078 
C 2253 3123 2061 3149 1882 3149 
C 909 3149 230 2464 230 1440 
C 230 544 768 -58 1466 -58 
C 1818 -58 2125 70 2451 333 
L 2451 0 
L 3398 0 
L 3398 230 
L 3091 262 
L 2982 365 
L 2982 4710 
L 2739 4710 
L 1958 4480 
L 1958 4282 
L 2451 4282 
z
M 2451 570 
C 2214 422 1984 346 1754 346 
C 1178 346 794 800 794 1549 
C 794 2349 1242 2867 1888 2867 
C 2042 2867 2234 2829 2451 2765 
L 2451 570 
z
" transform="scale(0.015625)"/>
       <path id="CharterBT-Roman-73" d="M 2202 3002 
C 1984 3098 1734 3142 1453 3142 
C 723 3142 320 2810 320 2246 
C 320 1818 602 1613 1146 1370 
C 1568 1178 1798 1062 1798 730 
C 1798 429 1568 211 1197 211 
C 1011 211 832 262 653 365 
L 576 909 
L 269 909 
L 269 77 
C 493 -6 774 -58 1101 -58 
C 1856 -58 2298 307 2298 902 
C 2298 1139 2208 1331 2054 1453 
C 1843 1626 1600 1715 1376 1824 
C 1018 1997 832 2131 832 2406 
C 832 2694 1024 2867 1363 2867 
C 1517 2867 1670 2822 1837 2733 
L 1888 2278 
L 2202 2278 
L 2202 3002 
z
" transform="scale(0.015625)"/>
       <path id="CharterBT-Roman-52" d="M 211 4294 
L 211 4038 
L 576 4000 
L 685 3910 
L 685 384 
L 576 294 
L 211 262 
L 211 0 
L 1734 0 
L 1734 262 
L 1370 294 
L 1261 384 
L 1261 1907 
C 1376 1914 1485 1920 1581 1920 
C 2163 1920 2413 1754 2586 1229 
C 2720 819 2746 403 3053 134 
C 3200 6 3411 -51 3699 -51 
C 3846 -51 4006 -32 4198 6 
L 4198 250 
L 4141 250 
C 3654 250 3450 326 3309 704 
C 3194 1005 3187 1357 3008 1651 
C 2880 1862 2662 1997 2349 2080 
C 3040 2234 3386 2592 3386 3142 
C 3386 3930 2880 4294 1843 4294 
L 211 4294 
z
M 1261 4000 
L 1568 4000 
C 2362 4000 2746 3757 2746 3091 
C 2746 2458 2381 2208 1613 2208 
C 1574 2208 1459 2208 1261 2214 
L 1261 4000 
z
" transform="scale(0.015625)"/>
       <path id="CharterBT-Roman-61" d="M 2138 371 
L 2221 0 
L 3123 0 
L 3123 230 
L 2784 262 
L 2669 365 
L 2669 2221 
C 2669 2867 2387 3142 1715 3142 
C 909 3142 422 2810 422 2419 
C 422 2266 474 2221 621 2221 
L 1062 2221 
L 1062 2758 
C 1235 2829 1389 2861 1549 2861 
C 2010 2861 2138 2650 2138 2144 
L 2138 1939 
C 858 1632 269 1440 269 774 
C 269 294 582 -45 1088 -45 
C 1395 -45 1734 96 2138 371 
z
M 2138 589 
C 1818 403 1555 301 1344 301 
C 1024 301 832 512 832 826 
C 832 1293 1235 1466 2138 1715 
L 2138 589 
z
" transform="scale(0.015625)"/>
       <path id="CharterBT-Roman-69" d="M 986 4531 
C 781 4531 614 4371 614 4160 
C 614 3955 781 3795 986 3795 
C 1190 3795 1357 3955 1357 4160 
C 1357 4365 1190 4531 986 4531 
z
M 960 3110 
L 224 2880 
L 224 2682 
L 672 2682 
L 672 365 
L 563 262 
L 224 230 
L 224 0 
L 1664 0 
L 1664 230 
L 1318 262 
L 1203 365 
L 1203 3110 
L 960 3110 
z
" transform="scale(0.015625)"/>
      </defs>
      <use xlink:href="#CharterBT-Roman-4c"/>
      <use xlink:href="#CharterBT-Roman-6f" transform="translate(51.999985 0)"/>
      <use xlink:href="#CharterBT-Roman-67" transform="translate(105.899979 0)"/>
      <use xlink:href="#CharterBT-Roman-2d" transform="translate(158.199966 0)"/>
      <use xlink:href="#CharterBT-Roman-4f" transform="translate(190.09996 0)"/>
      <use xlink:href="#CharterBT-Roman-64" transform="translate(263.199951 0)"/>
      <use xlink:href="#CharterBT-Roman-64" transform="translate(319.699936 0)"/>
      <use xlink:href="#CharterBT-Roman-73" transform="translate(376.199921 0)"/>
      <use xlink:href="#CharterBT-Roman-2d" transform="translate(416.199905 0)"/>
      <use xlink:href="#CharterBT-Roman-52" transform="translate(448.099899 0)"/>
      <use xlink:href="#CharterBT-Roman-61" transform="translate(512.69989 0)"/>
      <use xlink:href="#CharterBT-Roman-74" transform="translate(563.399887 0)"/>
      <use xlink:href="#CharterBT-Roman-69" transform="translate(596.799881 0)"/>
      <use xlink:href="#CharterBT-Roman-6f" transform="translate(624.799866 0)"/>
     </g>
    </g>
   </g>
   <g id="matplotlib.axis_4">
    <g id="ytick_5">
     <g id="line2d_85">
      <g>
       <use xlink:href="#m601e4f236d" x="65.46625" y="110.52" style="fill: #262626; stroke: #262626"/>
      </g>
     </g>
     <g id="text_12">
      <!-- Block -->
      <g style="fill: #262626" transform="translate(36.15075 113.758125) scale(0.088 -0.088)">
       <defs>
        <path id="CharterBT-Roman-42" d="M 211 4294 
L 211 4038 
L 576 4000 
L 685 3910 
L 685 384 
L 576 294 
L 211 262 
L 211 0 
L 1901 0 
C 2989 0 3571 448 3571 1254 
C 3571 1882 3142 2272 2381 2278 
C 2995 2445 3309 2771 3309 3258 
C 3309 3962 2822 4294 1843 4294 
L 211 4294 
z
M 1261 2349 
L 1261 3994 
C 1421 4000 1542 4013 1626 4013 
C 2330 4013 2675 3750 2675 3232 
C 2675 2611 2304 2342 1504 2342 
C 1427 2342 1344 2342 1261 2349 
z
M 1261 320 
L 1261 2029 
C 1510 2054 1722 2067 1888 2067 
C 2598 2067 2944 1792 2944 1210 
C 2944 563 2547 301 1690 301 
C 1555 301 1414 307 1261 320 
z
" transform="scale(0.015625)"/>
        <path id="CharterBT-Roman-6c" d="M 179 0 
L 1677 0 
L 1677 230 
L 1312 262 
L 1197 365 
L 1197 4710 
L 954 4710 
L 173 4480 
L 173 4282 
L 666 4282 
L 666 365 
L 557 262 
L 179 230 
L 179 0 
z
" transform="scale(0.015625)"/>
        <path id="CharterBT-Roman-63" d="M 2720 269 
L 2720 602 
C 2451 422 2189 333 1907 333 
C 1242 333 819 800 819 1587 
C 819 2394 1210 2886 1760 2886 
C 1869 2886 1971 2854 2067 2797 
L 2067 2272 
C 2163 2208 2259 2176 2355 2176 
C 2573 2176 2714 2310 2714 2515 
C 2714 2886 2368 3142 1754 3142 
C 858 3142 237 2496 237 1542 
C 237 595 806 -45 1677 -45 
C 2022 -45 2368 64 2720 269 
z
" transform="scale(0.015625)"/>
        <path id="CharterBT-Roman-6b" d="M 160 0 
L 1562 0 
L 1562 230 
L 1261 262 
L 1146 365 
L 1146 1453 
L 1517 1453 
L 2381 211 
L 2381 0 
L 3379 0 
L 3379 243 
L 2970 275 
L 1843 1862 
L 2720 2790 
L 3130 2842 
L 3130 3078 
L 1914 3078 
L 1914 2842 
L 2202 2816 
L 2246 2726 
L 1267 1632 
L 1146 1632 
L 1146 4710 
L 902 4710 
L 122 4480 
L 122 4282 
L 614 4282 
L 614 365 
L 506 262 
L 160 230 
L 160 0 
z
" transform="scale(0.015625)"/>
       </defs>
       <use xlink:href="#CharterBT-Roman-42"/>
       <use xlink:href="#CharterBT-Roman-6c" transform="translate(60.399994 0)"/>
       <use xlink:href="#CharterBT-Roman-6f" transform="translate(88.599991 0)"/>
       <use xlink:href="#CharterBT-Roman-63" transform="translate(142.499985 0)"/>
       <use xlink:href="#CharterBT-Roman-6b" transform="translate(187.099976 0)"/>
      </g>
     </g>
    </g>
    <g id="ytick_6">
     <g id="line2d_86">
      <g>
       <use xlink:href="#m601e4f236d" x="65.46625" y="135.72" style="fill: #262626; stroke: #262626"/>
      </g>
     </g>
     <g id="text_13">
      <!-- ScaleFree -->
      <g style="fill: #262626" transform="translate(20.3575 138.958125) scale(0.088 -0.088)">
       <defs>
        <path id="CharterBT-Roman-53" d="M 384 128 
C 678 0 1075 -77 1536 -77 
C 2560 -77 3194 454 3194 1210 
C 3194 1491 3098 1728 2912 1914 
C 2618 2202 2272 2304 1946 2438 
C 1357 2688 1050 2848 1050 3277 
C 1050 3744 1376 4051 1920 4051 
C 2144 4051 2336 4006 2496 3917 
L 2592 3808 
L 2688 3200 
L 3021 3200 
L 3021 4192 
C 2643 4314 2285 4371 1933 4371 
C 1024 4371 454 3866 454 3142 
C 454 2522 826 2285 1536 1978 
C 2234 1677 2605 1562 2605 1030 
C 2605 582 2259 262 1638 262 
C 1350 262 1107 314 922 410 
L 838 518 
L 762 1254 
L 384 1254 
L 384 128 
z
" transform="scale(0.015625)"/>
        <path id="CharterBT-Roman-65" d="M 2867 678 
C 2502 435 2182 307 1862 307 
C 1216 307 787 794 787 1613 
L 787 1683 
L 2861 1683 
C 2867 1754 2867 1818 2867 1882 
C 2867 2669 2413 3142 1715 3142 
C 858 3142 237 2483 237 1517 
C 237 576 819 -58 1664 -58 
C 2067 -58 2483 70 2867 326 
L 2867 678 
z
M 2298 1952 
L 819 1952 
C 858 2496 1222 2854 1632 2854 
C 2061 2854 2298 2573 2298 2054 
L 2298 1952 
z
" transform="scale(0.015625)"/>
        <path id="CharterBT-Roman-46" d="M 211 0 
L 1824 0 
L 1824 262 
L 1370 294 
L 1261 384 
L 1261 2022 
L 2310 2022 
L 2400 1926 
L 2464 1459 
L 2765 1459 
L 2765 2874 
L 2464 2874 
L 2400 2406 
L 2310 2317 
L 1261 2317 
L 1261 4000 
L 2701 4000 
L 2784 3904 
L 2880 3296 
L 3232 3296 
L 3232 4294 
L 160 4294 
L 160 4038 
L 576 4000 
L 685 3910 
L 685 384 
L 576 294 
L 211 262 
L 211 0 
z
" transform="scale(0.015625)"/>
        <path id="CharterBT-Roman-72" d="M 192 0 
L 1734 0 
L 1734 230 
L 1286 262 
L 1178 365 
L 1178 2195 
C 1440 2502 1664 2662 1875 2662 
C 2010 2662 2118 2611 2202 2509 
L 2406 2509 
L 2406 3059 
C 2272 3117 2150 3142 2022 3142 
C 1971 3142 1914 3142 1862 3130 
C 1632 2944 1402 2739 1178 2509 
L 1178 3110 
L 934 3110 
L 192 2880 
L 192 2682 
L 646 2682 
L 646 365 
L 531 262 
L 192 230 
L 192 0 
z
" transform="scale(0.015625)"/>
       </defs>
       <use xlink:href="#CharterBT-Roman-53"/>
       <use xlink:href="#CharterBT-Roman-63" transform="translate(55.599991 0)"/>
       <use xlink:href="#CharterBT-Roman-61" transform="translate(100.199982 0)"/>
       <use xlink:href="#CharterBT-Roman-6c" transform="translate(150.899979 0)"/>
       <use xlink:href="#CharterBT-Roman-65" transform="translate(179.099976 0)"/>
       <use xlink:href="#CharterBT-Roman-46" transform="translate(228.199966 0)"/>
       <use xlink:href="#CharterBT-Roman-72" transform="translate(281.899963 0)"/>
       <use xlink:href="#CharterBT-Roman-65" transform="translate(320.09996 0)"/>
       <use xlink:href="#CharterBT-Roman-65" transform="translate(369.199951 0)"/>
      </g>
     </g>
    </g>
    <g id="ytick_7">
     <g id="line2d_87">
      <g>
       <use xlink:href="#m601e4f236d" x="65.46625" y="160.92" style="fill: #262626; stroke: #262626"/>
      </g>
     </g>
     <g id="text_14">
      <!-- Tree -->
      <g style="fill: #262626" transform="translate(39.91 164.158125) scale(0.088 -0.088)">
       <defs>
        <path id="CharterBT-Roman-54" d="M 102 4294 
L 102 3309 
L 454 3309 
L 544 3904 
L 634 4000 
L 1619 4000 
L 1619 384 
L 1504 294 
L 1075 262 
L 1075 0 
L 2746 0 
L 2746 262 
L 2317 294 
L 2202 384 
L 2202 4000 
L 3187 4000 
L 3277 3904 
L 3366 3309 
L 3718 3309 
L 3718 4294 
L 102 4294 
z
" transform="scale(0.015625)"/>
       </defs>
       <use xlink:href="#CharterBT-Roman-54"/>
       <use xlink:href="#CharterBT-Roman-72" transform="translate(59.699997 0)"/>
       <use xlink:href="#CharterBT-Roman-65" transform="translate(97.899994 0)"/>
       <use xlink:href="#CharterBT-Roman-65" transform="translate(146.999985 0)"/>
      </g>
     </g>
    </g>
    <g id="text_15">
     <!-- kind -->
     <g style="fill: #262626" transform="translate(14.265 144.984) rotate(-90) scale(0.096 -0.096)">
      <use xlink:href="#CharterBT-Roman-6b"/>
      <use xlink:href="#CharterBT-Roman-69" transform="translate(51.699997 0)"/>
      <use xlink:href="#CharterBT-Roman-6e" transform="translate(79.699982 0)"/>
      <use xlink:href="#CharterBT-Roman-64" transform="translate(136.499969 0)"/>
     </g>
    </g>
   </g>
   <g id="patch_16">
    <path d="M 130.832719 100.44 
L 130.832719 120.6 
L 214.80829 120.6 
L 214.80829 100.44 
L 130.832719 100.44 
z
" clip-path="url(#pc50894223f)" style="fill: #b2b2b2; stroke: #6b6b6b; stroke-linejoin: miter"/>
   </g>
   <g id="line2d_88">
    <path d="M 130.832719 110.52 
L 94.756879 110.52 
" clip-path="url(#pc50894223f)" style="fill: none; stroke: #6b6b6b"/>
   </g>
   <g id="line2d_89">
    <path d="M 214.80829 110.52 
L 275.67495 110.52 
" clip-path="url(#pc50894223f)" style="fill: none; stroke: #6b6b6b"/>
   </g>
   <g id="line2d_90">
    <path d="M 94.756879 105.48 
L 94.756879 115.56 
" clip-path="url(#pc50894223f)" style="fill: none; stroke: #6b6b6b; stroke-linecap: round"/>
   </g>
   <g id="line2d_91">
    <path d="M 275.67495 105.48 
L 275.67495 115.56 
" clip-path="url(#pc50894223f)" style="fill: none; stroke: #6b6b6b; stroke-linecap: round"/>
   </g>
   <g id="line2d_92"/>
   <g id="patch_17">
    <path d="M 135.07425 125.64 
L 135.07425 145.8 
L 230.842616 145.8 
L 230.842616 125.64 
L 135.07425 125.64 
z
" clip-path="url(#pc50894223f)" style="fill: #b2b2b2; stroke: #6b6b6b; stroke-linejoin: miter"/>
   </g>
   <g id="line2d_93">
    <path d="M 135.07425 135.72 
L 76.118977 135.72 
" clip-path="url(#pc50894223f)" style="fill: none; stroke: #6b6b6b"/>
   </g>
   <g id="line2d_94">
    <path d="M 230.842616 135.72 
L 289.173523 135.72 
" clip-path="url(#pc50894223f)" style="fill: none; stroke: #6b6b6b"/>
   </g>
   <g id="line2d_95">
    <path d="M 76.118977 130.68 
L 76.118977 140.76 
" clip-path="url(#pc50894223f)" style="fill: none; stroke: #6b6b6b; stroke-linecap: round"/>
   </g>
   <g id="line2d_96">
    <path d="M 289.173523 130.68 
L 289.173523 140.76 
" clip-path="url(#pc50894223f)" style="fill: none; stroke: #6b6b6b; stroke-linecap: round"/>
   </g>
   <g id="line2d_97"/>
   <g id="patch_18">
    <path d="M 141.798145 150.84 
L 141.798145 171 
L 222.487189 171 
L 222.487189 150.84 
L 141.798145 150.84 
z
" clip-path="url(#pc50894223f)" style="fill: #b2b2b2; stroke: #6b6b6b; stroke-linejoin: miter"/>
   </g>
   <g id="line2d_98">
    <path d="M 141.798145 160.92 
L 106.171281 160.92 
" clip-path="url(#pc50894223f)" style="fill: none; stroke: #6b6b6b"/>
   </g>
   <g id="line2d_99">
    <path d="M 222.487189 160.92 
L 281.84242 160.92 
" clip-path="url(#pc50894223f)" style="fill: none; stroke: #6b6b6b"/>
   </g>
   <g id="line2d_100">
    <path d="M 106.171281 155.88 
L 106.171281 165.96 
" clip-path="url(#pc50894223f)" style="fill: none; stroke: #6b6b6b; stroke-linecap: round"/>
   </g>
   <g id="line2d_101">
    <path d="M 281.84242 155.88 
L 281.84242 165.96 
" clip-path="url(#pc50894223f)" style="fill: none; stroke: #6b6b6b; stroke-linecap: round"/>
   </g>
   <g id="line2d_102"/>
   <g id="line2d_103">
    <path d="M 182.340004 100.44 
L 182.340004 120.6 
" clip-path="url(#pc50894223f)" style="fill: none; stroke: #6b6b6b"/>
   </g>
   <g id="line2d_104">
    <path d="M 180.441696 125.64 
L 180.441696 145.8 
" clip-path="url(#pc50894223f)" style="fill: none; stroke: #6b6b6b"/>
   </g>
   <g id="line2d_105">
    <path d="M 188.431546 150.84 
L 188.431546 171 
" clip-path="url(#pc50894223f)" style="fill: none; stroke: #6b6b6b"/>
   </g>
   <g id="patch_19">
    <path d="M 65.46625 173.52 
L 65.46625 97.92 
" style="fill: none; stroke: #262626; stroke-linejoin: miter; stroke-linecap: square"/>
   </g>
   <g id="patch_20">
    <path d="M 65.46625 173.52 
L 299.82625 173.52 
" style="fill: none; stroke: #262626; stroke-linejoin: miter; stroke-linecap: square"/>
   </g>
  </g>
 </g>
 <defs>
  <clipPath id="p8d24516e33">
   <rect x="65.46625" y="7.2" width="234.36" height="75.6"/>
  </clipPath>
  <clipPath id="pc50894223f">
   <rect x="65.46625" y="97.92" width="234.36" height="75.6"/>
  </clipPath>
 </defs>
</svg>
