<?xml version="1.0" encoding="utf-8" standalone="no"?>
<!DOCTYPE svg PUBLIC "-//W3C//DTD SVG 1.1//EN"
  "http://www.w3.org/Graphics/SVG/1.1/DTD/svg11.dtd">
<svg xmlns:xlink="http://www.w3.org/1999/xlink" width="445.2015pt" height="321.451875pt" viewBox="0 0 445.2015 321.451875" xmlns="http://www.w3.org/2000/svg" version="1.1">
 <metadata>
  <rdf:RDF xmlns:dc="http://purl.org/dc/elements/1.1/" xmlns:cc="http://creativecommons.org/ns#" xmlns:rdf="http://www.w3.org/1999/02/22-rdf-syntax-ns#">
   <cc:Work>
    <dc:type rdf:resource="http://purl.org/dc/dcmitype/StillImage"/>
    <dc:date>2025-04-30T00:07:23.665595</dc:date>
    <dc:format>image/svg+xml</dc:format>
    <dc:creator>
     <cc:Agent>
      <dc:title>Matplotlib v3.10.1, https://matplotlib.org/</dc:title>
     </cc:Agent>
    </dc:creator>
   </cc:Work>
  </rdf:RDF>
 </metadata>
 <defs>
  <style type="text/css">*{stroke-linejoin: round; stroke-linecap: butt}</style>
 </defs>
 <g id="figure_1">
  <g id="patch_1">
   <path d="M 0 321.451875 
L 445.2015 321.451875 
L 445.2015 0 
L 0 0 
z
" style="fill: #ffffff"/>
  </g>
  <g id="axes_1">
   <g id="patch_2">
    <path d="M 47.4015 284.4 
L 438.0015 284.4 
L 438.0015 7.2 
L 47.4015 7.2 
z
" style="fill: #ffffff"/>
   </g>
   <g id="matplotlib.axis_1">
    <g id="xtick_1">
     <g id="line2d_1">
      <defs>
       <path id="m15dbaf4c48" d="M 0 0 
L 0 4.8 
" style="stroke: #262626"/>
      </defs>
      <g>
       <use xlink:href="#m15dbaf4c48" x="110.933053" y="284.4" style="fill: #262626; stroke: #262626"/>
      </g>
     </g>
     <g id="text_1">
      <!-- −0.2 -->
      <g style="fill: #262626" transform="translate(101.152678 299.17625) scale(0.088 -0.088)">
       <defs>
        <path id="CharterBT-Roman-2212" d="M 794 2093 
L 794 1722 
L 4538 1722 
L 4538 2093 
L 794 2093 
z
" transform="scale(0.015625)"/>
        <path id="CharterBT-Roman-30" d="M 1779 4371 
C 864 4371 262 3565 262 2150 
C 262 736 864 -77 1779 -77 
C 2694 -77 3296 736 3296 2150 
C 3296 3565 2694 4371 1779 4371 
z
M 1779 4070 
C 2368 4070 2688 3418 2688 2150 
C 2688 883 2368 230 1779 230 
C 1190 230 864 877 864 2144 
C 864 3418 1190 4070 1779 4070 
z
" transform="scale(0.015625)"/>
        <path id="CharterBT-Roman-2e" d="M 890 755 
C 666 755 480 576 480 346 
C 480 115 666 -58 890 -58 
C 1114 -58 1293 122 1293 346 
C 1293 576 1114 755 890 755 
z
" transform="scale(0.015625)"/>
        <path id="CharterBT-Roman-32" d="M 902 506 
C 2317 1632 3091 2355 3091 3162 
C 3091 3885 2586 4371 1760 4371 
C 966 4371 403 3917 403 3469 
C 403 3251 538 3110 762 3110 
C 864 3110 960 3142 1050 3206 
L 1050 3891 
C 1242 4000 1427 4045 1619 4045 
C 2150 4045 2470 3686 2470 3078 
C 2470 2240 1670 1542 269 403 
L 269 0 
L 3232 0 
L 3232 1050 
L 2944 1050 
L 2829 506 
L 902 506 
z
" transform="scale(0.015625)"/>
       </defs>
       <use xlink:href="#CharterBT-Roman-2212"/>
       <use xlink:href="#CharterBT-Roman-30" transform="translate(83.299988 0)"/>
       <use xlink:href="#CharterBT-Roman-2e" transform="translate(138.899979 0)"/>
       <use xlink:href="#CharterBT-Roman-32" transform="translate(166.699966 0)"/>
      </g>
     </g>
    </g>
    <g id="xtick_2">
     <g id="line2d_2">
      <g>
       <use xlink:href="#m15dbaf4c48" x="179.008014" y="284.4" style="fill: #262626; stroke: #262626"/>
      </g>
     </g>
     <g id="text_2">
      <!-- 0.0 -->
      <g style="fill: #262626" transform="translate(172.892701 299.17625) scale(0.088 -0.088)">
       <use xlink:href="#CharterBT-Roman-30"/>
       <use xlink:href="#CharterBT-Roman-2e" transform="translate(55.599991 0)"/>
       <use xlink:href="#CharterBT-Roman-30" transform="translate(83.399979 0)"/>
      </g>
     </g>
    </g>
    <g id="xtick_3">
     <g id="line2d_3">
      <g>
       <use xlink:href="#m15dbaf4c48" x="247.082975" y="284.4" style="fill: #262626; stroke: #262626"/>
      </g>
     </g>
     <g id="text_3">
      <!-- 0.2 -->
      <g style="fill: #262626" transform="translate(240.967662 299.17625) scale(0.088 -0.088)">
       <use xlink:href="#CharterBT-Roman-30"/>
       <use xlink:href="#CharterBT-Roman-2e" transform="translate(55.599991 0)"/>
       <use xlink:href="#CharterBT-Roman-32" transform="translate(83.399979 0)"/>
      </g>
     </g>
    </g>
    <g id="xtick_4">
     <g id="line2d_4">
      <g>
       <use xlink:href="#m15dbaf4c48" x="315.157936" y="284.4" style="fill: #262626; stroke: #262626"/>
      </g>
     </g>
     <g id="text_4">
      <!-- 0.4 -->
      <g style="fill: #262626" transform="translate(309.042623 299.17625) scale(0.088 -0.088)">
       <defs>
        <path id="CharterBT-Roman-34" d="M 2355 4333 
L 173 1658 
L 173 1242 
L 2234 1242 
L 2234 -237 
L 2726 -237 
L 2726 1242 
L 3450 1242 
L 3450 1658 
L 2726 1658 
L 2726 4333 
L 2355 4333 
z
M 2234 3635 
L 2234 1658 
L 653 1658 
L 2234 3635 
z
" transform="scale(0.015625)"/>
       </defs>
       <use xlink:href="#CharterBT-Roman-30"/>
       <use xlink:href="#CharterBT-Roman-2e" transform="translate(55.599991 0)"/>
       <use xlink:href="#CharterBT-Roman-34" transform="translate(83.399979 0)"/>
      </g>
     </g>
    </g>
    <g id="xtick_5">
     <g id="line2d_5">
      <g>
       <use xlink:href="#m15dbaf4c48" x="383.232896" y="284.4" style="fill: #262626; stroke: #262626"/>
      </g>
     </g>
     <g id="text_5">
      <!-- 0.6 -->
      <g style="fill: #262626" transform="translate(377.117584 299.17625) scale(0.088 -0.088)">
       <defs>
        <path id="CharterBT-Roman-36" d="M 2835 4570 
C 1267 4467 320 3411 320 1773 
C 320 621 947 -77 1811 -77 
C 2688 -77 3360 589 3360 1453 
C 3360 2266 2790 2848 2029 2848 
C 1651 2848 1274 2714 941 2458 
C 1139 3597 1792 4198 2816 4198 
L 2835 4198 
L 2835 4570 
z
M 928 2176 
C 1190 2368 1504 2464 1856 2464 
C 2400 2464 2778 2054 2778 1395 
C 2778 717 2394 230 1862 230 
C 1261 230 915 768 915 1786 
C 915 1907 915 2042 928 2176 
z
" transform="scale(0.015625)"/>
       </defs>
       <use xlink:href="#CharterBT-Roman-30"/>
       <use xlink:href="#CharterBT-Roman-2e" transform="translate(55.599991 0)"/>
       <use xlink:href="#CharterBT-Roman-36" transform="translate(83.399979 0)"/>
      </g>
     </g>
    </g>
    <g id="text_6">
     <!-- score -->
     <g style="fill: #262626" transform="translate(231.86325 312.159375) scale(0.096 -0.096)">
      <defs>
       <path id="CharterBT-Roman-73" d="M 2202 3002 
C 1984 3098 1734 3142 1453 3142 
C 723 3142 320 2810 320 2246 
C 320 1818 602 1613 1146 1370 
C 1568 1178 1798 1062 1798 730 
C 1798 429 1568 211 1197 211 
C 1011 211 832 262 653 365 
L 576 909 
L 269 909 
L 269 77 
C 493 -6 774 -58 1101 -58 
C 1856 -58 2298 307 2298 902 
C 2298 1139 2208 1331 2054 1453 
C 1843 1626 1600 1715 1376 1824 
C 1018 1997 832 2131 832 2406 
C 832 2694 1024 2867 1363 2867 
C 1517 2867 1670 2822 1837 2733 
L 1888 2278 
L 2202 2278 
L 2202 3002 
z
" transform="scale(0.015625)"/>
       <path id="CharterBT-Roman-63" d="M 2720 269 
L 2720 602 
C 2451 422 2189 333 1907 333 
C 1242 333 819 800 819 1587 
C 819 2394 1210 2886 1760 2886 
C 1869 2886 1971 2854 2067 2797 
L 2067 2272 
C 2163 2208 2259 2176 2355 2176 
C 2573 2176 2714 2310 2714 2515 
C 2714 2886 2368 3142 1754 3142 
C 858 3142 237 2496 237 1542 
C 237 595 806 -45 1677 -45 
C 2022 -45 2368 64 2720 269 
z
" transform="scale(0.015625)"/>
       <path id="CharterBT-Roman-6f" d="M 1722 3142 
C 858 3142 237 2496 237 1542 
C 237 595 864 -58 1722 -58 
C 2579 -58 3213 595 3213 1542 
C 3213 2490 2586 3142 1722 3142 
z
M 1722 2867 
C 2240 2867 2611 2368 2611 1542 
C 2611 710 2240 218 1722 218 
C 1210 218 838 717 838 1542 
C 838 2374 1203 2867 1722 2867 
z
" transform="scale(0.015625)"/>
       <path id="CharterBT-Roman-72" d="M 192 0 
L 1734 0 
L 1734 230 
L 1286 262 
L 1178 365 
L 1178 2195 
C 1440 2502 1664 2662 1875 2662 
C 2010 2662 2118 2611 2202 2509 
L 2406 2509 
L 2406 3059 
C 2272 3117 2150 3142 2022 3142 
C 1971 3142 1914 3142 1862 3130 
C 1632 2944 1402 2739 1178 2509 
L 1178 3110 
L 934 3110 
L 192 2880 
L 192 2682 
L 646 2682 
L 646 365 
L 531 262 
L 192 230 
L 192 0 
z
" transform="scale(0.015625)"/>
       <path id="CharterBT-Roman-65" d="M 2867 678 
C 2502 435 2182 307 1862 307 
C 1216 307 787 794 787 1613 
L 787 1683 
L 2861 1683 
C 2867 1754 2867 1818 2867 1882 
C 2867 2669 2413 3142 1715 3142 
C 858 3142 237 2483 237 1517 
C 237 576 819 -58 1664 -58 
C 2067 -58 2483 70 2867 326 
L 2867 678 
z
M 2298 1952 
L 819 1952 
C 858 2496 1222 2854 1632 2854 
C 2061 2854 2298 2573 2298 2054 
L 2298 1952 
z
" transform="scale(0.015625)"/>
      </defs>
      <use xlink:href="#CharterBT-Roman-73"/>
      <use xlink:href="#CharterBT-Roman-63" transform="translate(39.999985 0)"/>
      <use xlink:href="#CharterBT-Roman-6f" transform="translate(84.599976 0)"/>
      <use xlink:href="#CharterBT-Roman-72" transform="translate(138.499969 0)"/>
      <use xlink:href="#CharterBT-Roman-65" transform="translate(176.699966 0)"/>
     </g>
    </g>
   </g>
   <g id="matplotlib.axis_2">
    <g id="ytick_1">
     <g id="line2d_6">
      <defs>
       <path id="m893884f65d" d="M 0 0 
L -4.8 0 
" style="stroke: #262626"/>
      </defs>
      <g>
       <use xlink:href="#m893884f65d" x="47.4015" y="41.85" style="fill: #262626; stroke: #262626"/>
      </g>
     </g>
     <g id="text_7">
      <!-- APS -->
      <g style="fill: #262626" transform="translate(23.675375 45.088125) scale(0.088 -0.088)">
       <defs>
        <path id="CharterBT-Roman-41" d="M 1818 4346 
L 320 339 
L -51 262 
L -51 0 
L 1203 0 
L 1203 262 
L 787 294 
L 723 384 
L 1178 1606 
L 2688 1606 
L 3149 384 
L 3104 294 
L 2707 262 
L 2707 0 
L 4160 0 
L 4160 262 
L 3776 339 
L 2240 4346 
L 1818 4346 
z
M 1920 3674 
L 2579 1901 
L 1286 1901 
L 1920 3674 
z
" transform="scale(0.015625)"/>
        <path id="CharterBT-Roman-50" d="M 211 0 
L 1824 0 
L 1824 262 
L 1370 294 
L 1261 384 
L 1261 1645 
C 1459 1626 1619 1613 1741 1613 
C 2771 1613 3398 2170 3398 2989 
C 3398 3962 2848 4294 1619 4294 
L 160 4294 
L 160 4038 
L 576 4000 
L 685 3910 
L 685 384 
L 576 294 
L 211 262 
L 211 0 
z
M 1261 1952 
L 1261 3987 
C 1376 4000 1491 4000 1594 4000 
C 2413 4000 2803 3686 2803 3002 
C 2803 2298 2413 1920 1683 1920 
C 1587 1920 1446 1933 1261 1952 
z
" transform="scale(0.015625)"/>
        <path id="CharterBT-Roman-53" d="M 384 128 
C 678 0 1075 -77 1536 -77 
C 2560 -77 3194 454 3194 1210 
C 3194 1491 3098 1728 2912 1914 
C 2618 2202 2272 2304 1946 2438 
C 1357 2688 1050 2848 1050 3277 
C 1050 3744 1376 4051 1920 4051 
C 2144 4051 2336 4006 2496 3917 
L 2592 3808 
L 2688 3200 
L 3021 3200 
L 3021 4192 
C 2643 4314 2285 4371 1933 4371 
C 1024 4371 454 3866 454 3142 
C 454 2522 826 2285 1536 1978 
C 2234 1677 2605 1562 2605 1030 
C 2605 582 2259 262 1638 262 
C 1350 262 1107 314 922 410 
L 838 518 
L 762 1254 
L 384 1254 
L 384 128 
z
" transform="scale(0.015625)"/>
       </defs>
       <use xlink:href="#CharterBT-Roman-41"/>
       <use xlink:href="#CharterBT-Roman-50" transform="translate(63.899994 0)"/>
       <use xlink:href="#CharterBT-Roman-53" transform="translate(119.699982 0)"/>
      </g>
     </g>
    </g>
    <g id="ytick_2">
     <g id="line2d_7">
      <g>
       <use xlink:href="#m893884f65d" x="47.4015" y="111.15" style="fill: #262626; stroke: #262626"/>
      </g>
     </g>
     <g id="text_8">
      <!-- F-M -->
      <g style="fill: #262626" transform="translate(23.947625 114.388125) scale(0.088 -0.088)">
       <defs>
        <path id="CharterBT-Roman-46" d="M 211 0 
L 1824 0 
L 1824 262 
L 1370 294 
L 1261 384 
L 1261 2022 
L 2310 2022 
L 2400 1926 
L 2464 1459 
L 2765 1459 
L 2765 2874 
L 2464 2874 
L 2400 2406 
L 2310 2317 
L 1261 2317 
L 1261 4000 
L 2701 4000 
L 2784 3904 
L 2880 3296 
L 3232 3296 
L 3232 4294 
L 160 4294 
L 160 4038 
L 576 4000 
L 685 3910 
L 685 384 
L 576 294 
L 211 262 
L 211 0 
z
" transform="scale(0.015625)"/>
        <path id="CharterBT-Roman-2d" d="M 301 1754 
L 301 1325 
L 1741 1325 
L 1741 1754 
L 301 1754 
z
" transform="scale(0.015625)"/>
        <path id="CharterBT-Roman-4d" d="M 198 0 
L 1549 0 
L 1549 262 
L 1158 314 
L 1043 435 
L 1043 3930 
L 2502 0 
L 2778 0 
L 4294 3994 
L 4294 384 
L 4230 294 
L 3808 262 
L 3808 0 
L 5338 0 
L 5338 262 
L 4934 294 
L 4858 384 
L 4858 3910 
L 4934 4000 
L 5338 4038 
L 5338 4294 
L 3968 4294 
L 3968 4096 
L 2752 909 
L 1549 4122 
L 1549 4294 
L 192 4294 
L 192 4038 
L 614 4000 
L 698 3910 
L 698 435 
L 582 314 
L 198 262 
L 198 0 
z
" transform="scale(0.015625)"/>
       </defs>
       <use xlink:href="#CharterBT-Roman-46"/>
       <use xlink:href="#CharterBT-Roman-2d" transform="translate(53.699997 0)"/>
       <use xlink:href="#CharterBT-Roman-4d" transform="translate(85.599991 0)"/>
      </g>
     </g>
    </g>
    <g id="ytick_3">
     <g id="line2d_8">
      <g>
       <use xlink:href="#m893884f65d" x="47.4015" y="180.45" style="fill: #262626; stroke: #262626"/>
      </g>
     </g>
     <g id="text_9">
      <!-- F1 -->
      <g style="fill: #262626" transform="translate(29.483375 183.688125) scale(0.088 -0.088)">
       <defs>
        <path id="CharterBT-Roman-31" d="M 1990 4371 
L 602 3955 
L 602 3686 
L 1606 3866 
L 1606 422 
L 1530 314 
L 794 275 
L 794 0 
L 2938 0 
L 2938 269 
L 2246 301 
L 2170 397 
L 2170 4371 
L 1990 4371 
z
" transform="scale(0.015625)"/>
       </defs>
       <use xlink:href="#CharterBT-Roman-46"/>
       <use xlink:href="#CharterBT-Roman-31" transform="translate(53.699997 0)"/>
      </g>
     </g>
    </g>
    <g id="ytick_4">
     <g id="line2d_9">
      <g>
       <use xlink:href="#m893884f65d" x="47.4015" y="249.75" style="fill: #262626; stroke: #262626"/>
      </g>
     </g>
     <g id="text_10">
      <!-- MCC -->
      <g style="fill: #262626" transform="translate(20.3575 252.988125) scale(0.088 -0.088)">
       <defs>
        <path id="CharterBT-Roman-43" d="M 3763 147 
L 3763 1158 
L 3405 1158 
L 3264 448 
L 3162 346 
C 2970 288 2784 262 2605 262 
C 1568 262 934 979 934 2195 
C 934 3341 1555 4032 2509 4032 
C 2758 4032 2989 3974 3226 3866 
L 3309 3750 
L 3405 3168 
L 3763 3168 
L 3763 4154 
C 3296 4301 2874 4371 2496 4371 
C 1165 4371 275 3482 275 2150 
C 275 1312 698 570 1382 179 
C 1677 13 2048 -77 2470 -77 
C 2899 -77 3341 0 3763 147 
z
" transform="scale(0.015625)"/>
       </defs>
       <use xlink:href="#CharterBT-Roman-4d"/>
       <use xlink:href="#CharterBT-Roman-43" transform="translate(86.599991 0)"/>
       <use xlink:href="#CharterBT-Roman-43" transform="translate(149.799988 0)"/>
      </g>
     </g>
    </g>
    <g id="text_11">
     <!-- metric -->
     <g style="fill: #262626" transform="translate(14.265 159.1245) rotate(-90) scale(0.096 -0.096)">
      <defs>
       <path id="CharterBT-Roman-6d" d="M 2906 2714 
C 2758 2995 2515 3142 2202 3142 
C 1933 3142 1600 3008 1178 2758 
L 1178 3110 
L 934 3110 
L 192 2880 
L 192 2682 
L 646 2682 
L 646 365 
L 538 262 
L 192 230 
L 192 0 
L 1594 0 
L 1594 230 
L 1286 262 
L 1178 365 
L 1178 2509 
C 1459 2650 1696 2720 1907 2720 
C 2291 2720 2470 2509 2470 2061 
L 2470 365 
L 2362 262 
L 2054 230 
L 2054 0 
L 3418 0 
L 3418 230 
L 3117 262 
L 3002 365 
L 3002 2509 
C 3277 2643 3520 2720 3725 2720 
C 4122 2720 4301 2509 4301 2061 
L 4301 365 
L 4186 262 
L 3885 230 
L 3885 0 
L 5280 0 
L 5280 230 
L 4941 262 
L 4832 365 
L 4832 2170 
C 4832 2803 4512 3142 4006 3142 
C 3750 3142 3386 2995 2906 2714 
z
" transform="scale(0.015625)"/>
       <path id="CharterBT-Roman-74" d="M 563 2694 
L 563 627 
C 563 173 698 -19 1229 -19 
C 1478 -19 1766 26 2067 122 
L 2067 358 
C 1920 326 1773 307 1626 307 
C 1178 307 1094 518 1094 1005 
L 1094 2694 
L 2067 2694 
L 2067 2995 
L 1094 2995 
L 1094 3674 
L 858 3674 
L 582 3078 
L 160 2893 
L 160 2694 
L 563 2694 
z
" transform="scale(0.015625)"/>
       <path id="CharterBT-Roman-69" d="M 986 4531 
C 781 4531 614 4371 614 4160 
C 614 3955 781 3795 986 3795 
C 1190 3795 1357 3955 1357 4160 
C 1357 4365 1190 4531 986 4531 
z
M 960 3110 
L 224 2880 
L 224 2682 
L 672 2682 
L 672 365 
L 563 262 
L 224 230 
L 224 0 
L 1664 0 
L 1664 230 
L 1318 262 
L 1203 365 
L 1203 3110 
L 960 3110 
z
" transform="scale(0.015625)"/>
      </defs>
      <use xlink:href="#CharterBT-Roman-6d"/>
      <use xlink:href="#CharterBT-Roman-65" transform="translate(84.299988 0)"/>
      <use xlink:href="#CharterBT-Roman-74" transform="translate(133.399979 0)"/>
      <use xlink:href="#CharterBT-Roman-72" transform="translate(166.799973 0)"/>
      <use xlink:href="#CharterBT-Roman-69" transform="translate(204.999969 0)"/>
      <use xlink:href="#CharterBT-Roman-63" transform="translate(232.999954 0)"/>
     </g>
    </g>
   </g>
   <g id="patch_3">
    <path d="M 141.597419 14.13 
L 141.597419 69.57 
L 194.256805 69.57 
L 194.256805 14.13 
L 141.597419 14.13 
z
" clip-path="url(#p02d1eb5dab)" style="fill: #3a90e3; stroke: #565656; stroke-linejoin: miter"/>
   </g>
   <g id="line2d_10">
    <path d="M 141.597419 41.85 
L 65.156045 41.85 
" clip-path="url(#p02d1eb5dab)" style="fill: none; stroke: #565656"/>
   </g>
   <g id="line2d_11">
    <path d="M 194.256805 41.85 
L 265.197722 41.85 
" clip-path="url(#p02d1eb5dab)" style="fill: none; stroke: #565656"/>
   </g>
   <g id="line2d_12">
    <path d="M 65.156045 27.99 
L 65.156045 55.71 
" clip-path="url(#p02d1eb5dab)" style="fill: none; stroke: #565656; stroke-linecap: round"/>
   </g>
   <g id="line2d_13">
    <path d="M 265.197722 27.99 
L 265.197722 55.71 
" clip-path="url(#p02d1eb5dab)" style="fill: none; stroke: #565656; stroke-linecap: round"/>
   </g>
   <g id="line2d_14">
    <defs>
     <path id="mb0ea5094ee" d="M 0 2.4 
C 0.636487 2.4 1.246992 2.147121 1.697056 1.697056 
C 2.147121 1.246992 2.4 0.636487 2.4 0 
C 2.4 -0.636487 2.147121 -1.246992 1.697056 -1.697056 
C 1.246992 -2.147121 0.636487 -2.4 0 -2.4 
C -0.636487 -2.4 -1.246992 -2.147121 -1.697056 -1.697056 
C -2.147121 -1.246992 -2.4 -0.636487 -2.4 0 
C -2.4 0.636487 -2.147121 1.246992 -1.697056 1.697056 
C -1.246992 2.147121 -0.636487 2.4 0 2.4 
z
" style="stroke: #565656"/>
    </defs>
    <g clip-path="url(#p02d1eb5dab)">
     <use xlink:href="#mb0ea5094ee" x="280.763062" y="41.85" style="fill-opacity: 0; stroke: #565656"/>
     <use xlink:href="#mb0ea5094ee" x="405.036285" y="41.85" style="fill-opacity: 0; stroke: #565656"/>
     <use xlink:href="#mb0ea5094ee" x="292.495781" y="41.85" style="fill-opacity: 0; stroke: #565656"/>
     <use xlink:href="#mb0ea5094ee" x="274.51378" y="41.85" style="fill-opacity: 0; stroke: #565656"/>
     <use xlink:href="#mb0ea5094ee" x="280.977498" y="41.85" style="fill-opacity: 0; stroke: #565656"/>
     <use xlink:href="#mb0ea5094ee" x="326.104389" y="41.85" style="fill-opacity: 0; stroke: #565656"/>
     <use xlink:href="#mb0ea5094ee" x="286.117157" y="41.85" style="fill-opacity: 0; stroke: #565656"/>
     <use xlink:href="#mb0ea5094ee" x="275.793589" y="41.85" style="fill-opacity: 0; stroke: #565656"/>
     <use xlink:href="#mb0ea5094ee" x="367.759458" y="41.85" style="fill-opacity: 0; stroke: #565656"/>
    </g>
   </g>
   <g id="patch_4">
    <path d="M 247.671823 83.43 
L 247.671823 138.87 
L 302.427918 138.87 
L 302.427918 83.43 
L 247.671823 83.43 
z
" clip-path="url(#p02d1eb5dab)" style="fill: #3a90e3; stroke: #565656; stroke-linejoin: miter"/>
   </g>
   <g id="line2d_15">
    <path d="M 247.671823 111.15 
L 165.624476 111.15 
" clip-path="url(#p02d1eb5dab)" style="fill: none; stroke: #565656"/>
   </g>
   <g id="line2d_16">
    <path d="M 302.427918 111.15 
L 367.742439 111.15 
" clip-path="url(#p02d1eb5dab)" style="fill: none; stroke: #565656"/>
   </g>
   <g id="line2d_17">
    <path d="M 165.624476 97.29 
L 165.624476 125.01 
" clip-path="url(#p02d1eb5dab)" style="fill: none; stroke: #565656; stroke-linecap: round"/>
   </g>
   <g id="line2d_18">
    <path d="M 367.742439 97.29 
L 367.742439 125.01 
" clip-path="url(#p02d1eb5dab)" style="fill: none; stroke: #565656; stroke-linecap: round"/>
   </g>
   <g id="line2d_19"/>
   <g id="patch_5">
    <path d="M 264.830117 152.73 
L 264.830117 208.17 
L 321.431043 208.17 
L 321.431043 152.73 
L 264.830117 152.73 
z
" clip-path="url(#p02d1eb5dab)" style="fill: #3a90e3; stroke: #565656; stroke-linejoin: miter"/>
   </g>
   <g id="line2d_20">
    <path d="M 264.830117 180.45 
L 184.178307 180.45 
" clip-path="url(#p02d1eb5dab)" style="fill: none; stroke: #565656"/>
   </g>
   <g id="line2d_21">
    <path d="M 321.431043 180.45 
L 396.000355 180.45 
" clip-path="url(#p02d1eb5dab)" style="fill: none; stroke: #565656"/>
   </g>
   <g id="line2d_22">
    <path d="M 184.178307 166.59 
L 184.178307 194.31 
" clip-path="url(#p02d1eb5dab)" style="fill: none; stroke: #565656; stroke-linecap: round"/>
   </g>
   <g id="line2d_23">
    <path d="M 396.000355 166.59 
L 396.000355 194.31 
" clip-path="url(#p02d1eb5dab)" style="fill: none; stroke: #565656; stroke-linecap: round"/>
   </g>
   <g id="line2d_24">
    <g clip-path="url(#p02d1eb5dab)">
     <use xlink:href="#mb0ea5094ee" x="178.29663" y="180.45" style="fill-opacity: 0; stroke: #565656"/>
     <use xlink:href="#mb0ea5094ee" x="176.155673" y="180.45" style="fill-opacity: 0; stroke: #565656"/>
    </g>
   </g>
   <g id="patch_6">
    <path d="M 254.091292 222.03 
L 254.091292 277.47 
L 305.011363 277.47 
L 305.011363 222.03 
L 254.091292 222.03 
z
" clip-path="url(#p02d1eb5dab)" style="fill: #3a90e3; stroke: #565656; stroke-linejoin: miter"/>
   </g>
   <g id="line2d_25">
    <path d="M 254.091292 249.75 
L 182.554719 249.75 
" clip-path="url(#p02d1eb5dab)" style="fill: none; stroke: #565656"/>
   </g>
   <g id="line2d_26">
    <path d="M 305.011363 249.75 
L 369.948068 249.75 
" clip-path="url(#p02d1eb5dab)" style="fill: none; stroke: #565656"/>
   </g>
   <g id="line2d_27">
    <path d="M 182.554719 235.89 
L 182.554719 263.61 
" clip-path="url(#p02d1eb5dab)" style="fill: none; stroke: #565656; stroke-linecap: round"/>
   </g>
   <g id="line2d_28">
    <path d="M 369.948068 235.89 
L 369.948068 263.61 
" clip-path="url(#p02d1eb5dab)" style="fill: none; stroke: #565656; stroke-linecap: round"/>
   </g>
   <g id="line2d_29">
    <g clip-path="url(#p02d1eb5dab)">
     <use xlink:href="#mb0ea5094ee" x="168.728695" y="249.75" style="fill-opacity: 0; stroke: #565656"/>
     <use xlink:href="#mb0ea5094ee" x="153.415232" y="249.75" style="fill-opacity: 0; stroke: #565656"/>
     <use xlink:href="#mb0ea5094ee" x="166.788558" y="249.75" style="fill-opacity: 0; stroke: #565656"/>
     <use xlink:href="#mb0ea5094ee" x="95.289427" y="249.75" style="fill-opacity: 0; stroke: #565656"/>
     <use xlink:href="#mb0ea5094ee" x="158.275784" y="249.75" style="fill-opacity: 0; stroke: #565656"/>
     <use xlink:href="#mb0ea5094ee" x="162.608756" y="249.75" style="fill-opacity: 0; stroke: #565656"/>
     <use xlink:href="#mb0ea5094ee" x="163.660514" y="249.75" style="fill-opacity: 0; stroke: #565656"/>
     <use xlink:href="#mb0ea5094ee" x="175.141356" y="249.75" style="fill-opacity: 0; stroke: #565656"/>
     <use xlink:href="#mb0ea5094ee" x="420.246955" y="249.75" style="fill-opacity: 0; stroke: #565656"/>
     <use xlink:href="#mb0ea5094ee" x="398.212792" y="249.75" style="fill-opacity: 0; stroke: #565656"/>
    </g>
   </g>
   <g id="line2d_30">
    <path d="M 176.97938 14.13 
L 176.97938 69.57 
" clip-path="url(#p02d1eb5dab)" style="fill: none; stroke: #565656"/>
   </g>
   <g id="line2d_31">
    <path d="M 273.536904 83.43 
L 273.536904 138.87 
" clip-path="url(#p02d1eb5dab)" style="fill: none; stroke: #565656"/>
   </g>
   <g id="line2d_32">
    <path d="M 296.175233 152.73 
L 296.175233 208.17 
" clip-path="url(#p02d1eb5dab)" style="fill: none; stroke: #565656"/>
   </g>
   <g id="line2d_33">
    <path d="M 281.682074 222.03 
L 281.682074 277.47 
" clip-path="url(#p02d1eb5dab)" style="fill: none; stroke: #565656"/>
   </g>
   <g id="patch_7">
    <path d="M 47.4015 284.4 
L 47.4015 7.2 
" style="fill: none; stroke: #262626; stroke-linejoin: miter; stroke-linecap: square"/>
   </g>
   <g id="patch_8">
    <path d="M 438.0015 284.4 
L 438.0015 7.2 
" style="fill: none; stroke: #262626; stroke-linejoin: miter; stroke-linecap: square"/>
   </g>
   <g id="patch_9">
    <path d="M 47.4015 284.4 
L 438.0015 284.4 
" style="fill: none; stroke: #262626; stroke-linejoin: miter; stroke-linecap: square"/>
   </g>
   <g id="patch_10">
    <path d="M 47.4015 7.2 
L 438.0015 7.2 
" style="fill: none; stroke: #262626; stroke-linejoin: miter; stroke-linecap: square"/>
   </g>
  </g>
 </g>
 <defs>
  <clipPath id="p02d1eb5dab">
   <rect x="47.4015" y="7.2" width="390.6" height="277.2"/>
  </clipPath>
 </defs>
</svg>
