<?xml version="1.0" encoding="utf-8" standalone="no"?>
<!DOCTYPE svg PUBLIC "-//W3C//DTD SVG 1.1//EN"
  "http://www.w3.org/Graphics/SVG/1.1/DTD/svg11.dtd">
<svg xmlns:xlink="http://www.w3.org/1999/xlink" width="438.5575pt" height="321.451875pt" viewBox="0 0 438.5575 321.451875" xmlns="http://www.w3.org/2000/svg" version="1.1">
 <metadata>
  <rdf:RDF xmlns:dc="http://purl.org/dc/elements/1.1/" xmlns:cc="http://creativecommons.org/ns#" xmlns:rdf="http://www.w3.org/1999/02/22-rdf-syntax-ns#">
   <cc:Work>
    <dc:type rdf:resource="http://purl.org/dc/dcmitype/StillImage"/>
    <dc:date>2025-05-02T10:50:42.192186</dc:date>
    <dc:format>image/svg+xml</dc:format>
    <dc:creator>
     <cc:Agent>
      <dc:title>Matplotlib v3.10.1, https://matplotlib.org/</dc:title>
     </cc:Agent>
    </dc:creator>
   </cc:Work>
  </rdf:RDF>
 </metadata>
 <defs>
  <style type="text/css">*{stroke-linejoin: round; stroke-linecap: butt}</style>
 </defs>
 <g id="figure_1">
  <g id="patch_1">
   <path d="M 0 321.451875 
L 438.5575 321.451875 
L 438.5575 0 
L 0 0 
z
" style="fill: #ffffff"/>
  </g>
  <g id="axes_1">
   <g id="patch_2">
    <path d="M 40.7575 284.4 
L 431.3575 284.4 
L 431.3575 7.2 
L 40.7575 7.2 
z
" style="fill: #ffffff"/>
   </g>
   <g id="matplotlib.axis_1">
    <g id="xtick_1">
     <g id="line2d_1">
      <defs>
       <path id="m44d8709d08" d="M 0 0 
L 0 4.8 
" style="stroke: #262626"/>
      </defs>
      <g>
       <use xlink:href="#m44d8709d08" x="58.05377" y="284.4" style="fill: #262626; stroke: #262626"/>
      </g>
     </g>
     <g id="text_1">
      <!-- 0.0 -->
      <g style="fill: #262626" transform="translate(51.938458 299.17625) scale(0.088 -0.088)">
       <defs>
        <path id="CharterBT-Roman-30" d="M 1779 4371 
C 864 4371 262 3565 262 2150 
C 262 736 864 -77 1779 -77 
C 2694 -77 3296 736 3296 2150 
C 3296 3565 2694 4371 1779 4371 
z
M 1779 4070 
C 2368 4070 2688 3418 2688 2150 
C 2688 883 2368 230 1779 230 
C 1190 230 864 877 864 2144 
C 864 3418 1190 4070 1779 4070 
z
" transform="scale(0.015625)"/>
        <path id="CharterBT-Roman-2e" d="M 890 755 
C 666 755 480 576 480 346 
C 480 115 666 -58 890 -58 
C 1114 -58 1293 122 1293 346 
C 1293 576 1114 755 890 755 
z
" transform="scale(0.015625)"/>
       </defs>
       <use xlink:href="#CharterBT-Roman-30"/>
       <use xlink:href="#CharterBT-Roman-2e" transform="translate(55.599991 0)"/>
       <use xlink:href="#CharterBT-Roman-30" transform="translate(83.399979 0)"/>
      </g>
     </g>
    </g>
    <g id="xtick_2">
     <g id="line2d_2">
      <g>
       <use xlink:href="#m44d8709d08" x="130.508364" y="284.4" style="fill: #262626; stroke: #262626"/>
      </g>
     </g>
     <g id="text_2">
      <!-- 0.2 -->
      <g style="fill: #262626" transform="translate(124.393052 299.17625) scale(0.088 -0.088)">
       <defs>
        <path id="CharterBT-Roman-32" d="M 902 506 
C 2317 1632 3091 2355 3091 3162 
C 3091 3885 2586 4371 1760 4371 
C 966 4371 403 3917 403 3469 
C 403 3251 538 3110 762 3110 
C 864 3110 960 3142 1050 3206 
L 1050 3891 
C 1242 4000 1427 4045 1619 4045 
C 2150 4045 2470 3686 2470 3078 
C 2470 2240 1670 1542 269 403 
L 269 0 
L 3232 0 
L 3232 1050 
L 2944 1050 
L 2829 506 
L 902 506 
z
" transform="scale(0.015625)"/>
       </defs>
       <use xlink:href="#CharterBT-Roman-30"/>
       <use xlink:href="#CharterBT-Roman-2e" transform="translate(55.599991 0)"/>
       <use xlink:href="#CharterBT-Roman-32" transform="translate(83.399979 0)"/>
      </g>
     </g>
    </g>
    <g id="xtick_3">
     <g id="line2d_3">
      <g>
       <use xlink:href="#m44d8709d08" x="202.962958" y="284.4" style="fill: #262626; stroke: #262626"/>
      </g>
     </g>
     <g id="text_3">
      <!-- 0.4 -->
      <g style="fill: #262626" transform="translate(196.847646 299.17625) scale(0.088 -0.088)">
       <defs>
        <path id="CharterBT-Roman-34" d="M 2355 4333 
L 173 1658 
L 173 1242 
L 2234 1242 
L 2234 -237 
L 2726 -237 
L 2726 1242 
L 3450 1242 
L 3450 1658 
L 2726 1658 
L 2726 4333 
L 2355 4333 
z
M 2234 3635 
L 2234 1658 
L 653 1658 
L 2234 3635 
z
" transform="scale(0.015625)"/>
       </defs>
       <use xlink:href="#CharterBT-Roman-30"/>
       <use xlink:href="#CharterBT-Roman-2e" transform="translate(55.599991 0)"/>
       <use xlink:href="#CharterBT-Roman-34" transform="translate(83.399979 0)"/>
      </g>
     </g>
    </g>
    <g id="xtick_4">
     <g id="line2d_4">
      <g>
       <use xlink:href="#m44d8709d08" x="275.417553" y="284.4" style="fill: #262626; stroke: #262626"/>
      </g>
     </g>
     <g id="text_4">
      <!-- 0.6 -->
      <g style="fill: #262626" transform="translate(269.30224 299.17625) scale(0.088 -0.088)">
       <defs>
        <path id="CharterBT-Roman-36" d="M 2835 4570 
C 1267 4467 320 3411 320 1773 
C 320 621 947 -77 1811 -77 
C 2688 -77 3360 589 3360 1453 
C 3360 2266 2790 2848 2029 2848 
C 1651 2848 1274 2714 941 2458 
C 1139 3597 1792 4198 2816 4198 
L 2835 4198 
L 2835 4570 
z
M 928 2176 
C 1190 2368 1504 2464 1856 2464 
C 2400 2464 2778 2054 2778 1395 
C 2778 717 2394 230 1862 230 
C 1261 230 915 768 915 1786 
C 915 1907 915 2042 928 2176 
z
" transform="scale(0.015625)"/>
       </defs>
       <use xlink:href="#CharterBT-Roman-30"/>
       <use xlink:href="#CharterBT-Roman-2e" transform="translate(55.599991 0)"/>
       <use xlink:href="#CharterBT-Roman-36" transform="translate(83.399979 0)"/>
      </g>
     </g>
    </g>
    <g id="xtick_5">
     <g id="line2d_5">
      <g>
       <use xlink:href="#m44d8709d08" x="347.872147" y="284.4" style="fill: #262626; stroke: #262626"/>
      </g>
     </g>
     <g id="text_5">
      <!-- 0.8 -->
      <g style="fill: #262626" transform="translate(341.756834 299.17625) scale(0.088 -0.088)">
       <defs>
        <path id="CharterBT-Roman-38" d="M 2054 2362 
C 1357 2611 1018 2899 1018 3322 
C 1018 3744 1350 4077 1792 4077 
C 2259 4077 2566 3757 2566 3245 
C 2566 2906 2387 2579 2054 2362 
z
M 2323 2246 
C 2797 2496 3059 2886 3059 3309 
C 3059 3930 2579 4384 1811 4384 
C 1018 4384 486 3904 486 3226 
C 486 2765 717 2426 1158 2240 
C 576 2016 282 1638 282 1133 
C 282 410 838 -102 1760 -102 
C 2650 -102 3238 467 3238 1146 
C 3238 1645 2925 2035 2323 2246 
z
M 1402 2106 
C 2259 1786 2688 1587 2688 1082 
C 2688 576 2330 230 1779 230 
C 1165 230 774 608 774 1171 
C 774 1600 966 1875 1402 2106 
z
" transform="scale(0.015625)"/>
       </defs>
       <use xlink:href="#CharterBT-Roman-30"/>
       <use xlink:href="#CharterBT-Roman-2e" transform="translate(55.599991 0)"/>
       <use xlink:href="#CharterBT-Roman-38" transform="translate(83.399979 0)"/>
      </g>
     </g>
    </g>
    <g id="xtick_6">
     <g id="line2d_6">
      <g>
       <use xlink:href="#m44d8709d08" x="420.326741" y="284.4" style="fill: #262626; stroke: #262626"/>
      </g>
     </g>
     <g id="text_6">
      <!-- 1.0 -->
      <g style="fill: #262626" transform="translate(414.211428 299.17625) scale(0.088 -0.088)">
       <defs>
        <path id="CharterBT-Roman-31" d="M 1990 4371 
L 602 3955 
L 602 3686 
L 1606 3866 
L 1606 422 
L 1530 314 
L 794 275 
L 794 0 
L 2938 0 
L 2938 269 
L 2246 301 
L 2170 397 
L 2170 4371 
L 1990 4371 
z
" transform="scale(0.015625)"/>
       </defs>
       <use xlink:href="#CharterBT-Roman-31"/>
       <use xlink:href="#CharterBT-Roman-2e" transform="translate(55.599991 0)"/>
       <use xlink:href="#CharterBT-Roman-30" transform="translate(83.399979 0)"/>
      </g>
     </g>
    </g>
    <g id="text_7">
     <!-- avg. E[MCC] -->
     <g style="fill: #262626" transform="translate(209.044 312.159375) scale(0.096 -0.096)">
      <defs>
       <path id="CharterBT-Roman-61" d="M 2138 371 
L 2221 0 
L 3123 0 
L 3123 230 
L 2784 262 
L 2669 365 
L 2669 2221 
C 2669 2867 2387 3142 1715 3142 
C 909 3142 422 2810 422 2419 
C 422 2266 474 2221 621 2221 
L 1062 2221 
L 1062 2758 
C 1235 2829 1389 2861 1549 2861 
C 2010 2861 2138 2650 2138 2144 
L 2138 1939 
C 858 1632 269 1440 269 774 
C 269 294 582 -45 1088 -45 
C 1395 -45 1734 96 2138 371 
z
M 2138 589 
C 1818 403 1555 301 1344 301 
C 1024 301 832 512 832 826 
C 832 1293 1235 1466 2138 1715 
L 2138 589 
z
" transform="scale(0.015625)"/>
       <path id="CharterBT-Roman-76" d="M -32 3078 
L -32 2842 
L 358 2803 
L 1389 0 
L 1747 0 
L 2867 2790 
L 3245 2842 
L 3245 3078 
L 2112 3078 
L 2112 2842 
L 2458 2816 
L 2509 2714 
L 1690 621 
L 941 2714 
L 1018 2816 
L 1357 2842 
L 1357 3078 
L -32 3078 
z
" transform="scale(0.015625)"/>
       <path id="CharterBT-Roman-67" d="M 2362 2963 
C 2118 3085 1882 3142 1638 3142 
C 883 3142 397 2707 397 2086 
C 397 1606 698 1229 1190 1120 
C 986 877 883 678 883 512 
C 883 410 909 314 947 224 
C 512 147 256 -160 256 -570 
C 256 -1082 678 -1395 1414 -1395 
C 1901 -1395 2342 -1248 2682 -973 
C 2931 -768 3066 -493 3066 -256 
C 3066 218 2733 416 1978 531 
L 1363 627 
C 1357 698 1350 749 1350 781 
C 1350 883 1376 979 1421 1069 
L 1530 1069 
C 2272 1069 2752 1498 2752 2067 
C 2752 2291 2694 2477 2573 2662 
L 3277 2662 
L 3277 2963 
L 2362 2963 
z
M 1574 2893 
C 1946 2893 2202 2592 2202 2106 
C 2202 1626 1946 1318 1574 1318 
C 1203 1318 947 1626 947 2106 
C 947 2598 1203 2893 1574 2893 
z
M 1318 192 
L 1939 77 
C 2387 -6 2592 -77 2592 -422 
C 2592 -781 2208 -1101 1638 -1101 
C 1114 -1101 768 -806 768 -435 
C 768 -154 966 83 1318 192 
z
" transform="scale(0.015625)"/>
       <path id="CharterBT-Roman-20" transform="scale(0.015625)"/>
       <path id="CharterBT-Roman-45" d="M 211 0 
L 3507 0 
L 3507 1043 
L 3174 1043 
L 3066 397 
L 2976 294 
L 1261 294 
L 1261 2086 
L 2310 2086 
L 2400 1990 
L 2464 1530 
L 2765 1530 
L 2765 2938 
L 2464 2938 
L 2400 2470 
L 2310 2381 
L 1261 2381 
L 1261 4000 
L 2739 4000 
L 2829 3904 
L 2918 3360 
L 3277 3360 
L 3277 4294 
L 211 4294 
L 211 4038 
L 576 4000 
L 685 3910 
L 685 384 
L 576 294 
L 211 262 
L 211 0 
z
" transform="scale(0.015625)"/>
       <path id="CharterBT-Roman-5b" d="M 890 4531 
L 890 -845 
L 2406 -845 
L 2406 -576 
L 1395 -576 
L 1395 4256 
L 2406 4256 
L 2406 4531 
L 890 4531 
z
" transform="scale(0.015625)"/>
       <path id="CharterBT-Roman-4d" d="M 198 0 
L 1549 0 
L 1549 262 
L 1158 314 
L 1043 435 
L 1043 3930 
L 2502 0 
L 2778 0 
L 4294 3994 
L 4294 384 
L 4230 294 
L 3808 262 
L 3808 0 
L 5338 0 
L 5338 262 
L 4934 294 
L 4858 384 
L 4858 3910 
L 4934 4000 
L 5338 4038 
L 5338 4294 
L 3968 4294 
L 3968 4096 
L 2752 909 
L 1549 4122 
L 1549 4294 
L 192 4294 
L 192 4038 
L 614 4000 
L 698 3910 
L 698 435 
L 582 314 
L 198 262 
L 198 0 
z
" transform="scale(0.015625)"/>
       <path id="CharterBT-Roman-43" d="M 3763 147 
L 3763 1158 
L 3405 1158 
L 3264 448 
L 3162 346 
C 2970 288 2784 262 2605 262 
C 1568 262 934 979 934 2195 
C 934 3341 1555 4032 2509 4032 
C 2758 4032 2989 3974 3226 3866 
L 3309 3750 
L 3405 3168 
L 3763 3168 
L 3763 4154 
C 3296 4301 2874 4371 2496 4371 
C 1165 4371 275 3482 275 2150 
C 275 1312 698 570 1382 179 
C 1677 13 2048 -77 2470 -77 
C 2899 -77 3341 0 3763 147 
z
" transform="scale(0.015625)"/>
       <path id="CharterBT-Roman-5d" d="M 294 4531 
L 294 4256 
L 1306 4256 
L 1306 -576 
L 294 -576 
L 294 -851 
L 1805 -851 
L 1805 4531 
L 294 4531 
z
" transform="scale(0.015625)"/>
      </defs>
      <use xlink:href="#CharterBT-Roman-61"/>
      <use xlink:href="#CharterBT-Roman-76" transform="translate(50.699997 0)"/>
      <use xlink:href="#CharterBT-Roman-67" transform="translate(100.099991 0)"/>
      <use xlink:href="#CharterBT-Roman-2e" transform="translate(152.399979 0)"/>
      <use xlink:href="#CharterBT-Roman-20" transform="translate(180.199966 0)"/>
      <use xlink:href="#CharterBT-Roman-45" transform="translate(207.999954 0)"/>
      <use xlink:href="#CharterBT-Roman-5b" transform="translate(265.599945 0)"/>
      <use xlink:href="#CharterBT-Roman-4d" transform="translate(307.699936 0)"/>
      <use xlink:href="#CharterBT-Roman-43" transform="translate(394.299927 0)"/>
      <use xlink:href="#CharterBT-Roman-43" transform="translate(457.499924 0)"/>
      <use xlink:href="#CharterBT-Roman-5d" transform="translate(520.699921 0)"/>
     </g>
    </g>
   </g>
   <g id="matplotlib.axis_2">
    <g id="ytick_1">
     <g id="line2d_7">
      <defs>
       <path id="m16be14b209" d="M 0 0 
L -4.8 0 
" style="stroke: #262626"/>
      </defs>
      <g>
       <use xlink:href="#m16be14b209" x="40.7575" y="53.4" style="fill: #262626; stroke: #262626"/>
      </g>
     </g>
     <g id="text_8">
      <!-- FP -->
      <g style="fill: #262626" transform="translate(22.8215 56.638125) scale(0.088 -0.088)">
       <defs>
        <path id="CharterBT-Roman-46" d="M 211 0 
L 1824 0 
L 1824 262 
L 1370 294 
L 1261 384 
L 1261 2022 
L 2310 2022 
L 2400 1926 
L 2464 1459 
L 2765 1459 
L 2765 2874 
L 2464 2874 
L 2400 2406 
L 2310 2317 
L 1261 2317 
L 1261 4000 
L 2701 4000 
L 2784 3904 
L 2880 3296 
L 3232 3296 
L 3232 4294 
L 160 4294 
L 160 4038 
L 576 4000 
L 685 3910 
L 685 384 
L 576 294 
L 211 262 
L 211 0 
z
" transform="scale(0.015625)"/>
        <path id="CharterBT-Roman-50" d="M 211 0 
L 1824 0 
L 1824 262 
L 1370 294 
L 1261 384 
L 1261 1645 
C 1459 1626 1619 1613 1741 1613 
C 2771 1613 3398 2170 3398 2989 
C 3398 3962 2848 4294 1619 4294 
L 160 4294 
L 160 4038 
L 576 4000 
L 685 3910 
L 685 384 
L 576 294 
L 211 262 
L 211 0 
z
M 1261 1952 
L 1261 3987 
C 1376 4000 1491 4000 1594 4000 
C 2413 4000 2803 3686 2803 3002 
C 2803 2298 2413 1920 1683 1920 
C 1587 1920 1446 1933 1261 1952 
z
" transform="scale(0.015625)"/>
       </defs>
       <use xlink:href="#CharterBT-Roman-46"/>
       <use xlink:href="#CharterBT-Roman-50" transform="translate(53.699997 0)"/>
      </g>
     </g>
    </g>
    <g id="ytick_2">
     <g id="line2d_8">
      <g>
       <use xlink:href="#m16be14b209" x="40.7575" y="145.8" style="fill: #262626; stroke: #262626"/>
      </g>
     </g>
     <g id="text_9">
      <!-- FPi -->
      <g style="fill: #262626" transform="translate(20.3575 149.038125) scale(0.088 -0.088)">
       <defs>
        <path id="CharterBT-Roman-69" d="M 986 4531 
C 781 4531 614 4371 614 4160 
C 614 3955 781 3795 986 3795 
C 1190 3795 1357 3955 1357 4160 
C 1357 4365 1190 4531 986 4531 
z
M 960 3110 
L 224 2880 
L 224 2682 
L 672 2682 
L 672 365 
L 563 262 
L 224 230 
L 224 0 
L 1664 0 
L 1664 230 
L 1318 262 
L 1203 365 
L 1203 3110 
L 960 3110 
z
" transform="scale(0.015625)"/>
       </defs>
       <use xlink:href="#CharterBT-Roman-46"/>
       <use xlink:href="#CharterBT-Roman-50" transform="translate(53.699997 0)"/>
       <use xlink:href="#CharterBT-Roman-69" transform="translate(109.499985 0)"/>
      </g>
     </g>
    </g>
    <g id="ytick_3">
     <g id="line2d_9">
      <g>
       <use xlink:href="#m16be14b209" x="40.7575" y="238.2" style="fill: #262626; stroke: #262626"/>
      </g>
     </g>
     <g id="text_10">
      <!-- GL -->
      <g style="fill: #262626" transform="translate(21.77375 241.438125) scale(0.088 -0.088)">
       <defs>
        <path id="CharterBT-Roman-47" d="M 2669 2061 
L 2669 1798 
L 3123 1766 
L 3232 1677 
L 3232 346 
C 2982 288 2765 262 2579 262 
C 1574 262 934 986 934 2195 
C 934 3347 1549 4032 2528 4032 
C 2784 4032 3021 3974 3258 3866 
L 3347 3750 
L 3443 3168 
L 3802 3168 
L 3802 4186 
C 3379 4307 2963 4371 2573 4371 
C 1158 4371 275 3501 275 2150 
C 275 1312 691 570 1382 179 
C 1677 13 2054 -77 2483 -77 
C 2861 -77 3302 0 3808 147 
L 3808 1677 
L 3917 1766 
L 4269 1798 
L 4269 2061 
L 2669 2061 
z
" transform="scale(0.015625)"/>
        <path id="CharterBT-Roman-4c" d="M 173 0 
L 3238 0 
L 3238 1165 
L 2906 1165 
L 2797 397 
L 2707 294 
L 1261 294 
L 1261 3910 
L 1370 4000 
L 1734 4038 
L 1734 4294 
L 173 4294 
L 173 4038 
L 576 4000 
L 685 3910 
L 685 384 
L 576 294 
L 173 262 
L 173 0 
z
" transform="scale(0.015625)"/>
       </defs>
       <use xlink:href="#CharterBT-Roman-47"/>
       <use xlink:href="#CharterBT-Roman-4c" transform="translate(69.399994 0)"/>
      </g>
     </g>
    </g>
    <g id="text_11">
     <!-- name -->
     <g style="fill: #262626" transform="translate(14.265 157.36275) rotate(-90) scale(0.096 -0.096)">
      <defs>
       <path id="CharterBT-Roman-6e" d="M 192 0 
L 1594 0 
L 1594 230 
L 1286 262 
L 1178 365 
L 1178 2509 
C 1453 2650 1690 2720 1894 2720 
C 2368 2720 2541 2528 2541 2061 
L 2541 365 
L 2432 262 
L 2125 230 
L 2125 0 
L 3526 0 
L 3526 230 
L 3181 262 
L 3072 365 
L 3072 2170 
C 3072 2810 2765 3142 2208 3142 
C 1933 3142 1606 2995 1178 2758 
L 1178 3110 
L 934 3110 
L 192 2880 
L 192 2682 
L 646 2682 
L 646 365 
L 538 262 
L 192 230 
L 192 0 
z
" transform="scale(0.015625)"/>
       <path id="CharterBT-Roman-6d" d="M 2906 2714 
C 2758 2995 2515 3142 2202 3142 
C 1933 3142 1600 3008 1178 2758 
L 1178 3110 
L 934 3110 
L 192 2880 
L 192 2682 
L 646 2682 
L 646 365 
L 538 262 
L 192 230 
L 192 0 
L 1594 0 
L 1594 230 
L 1286 262 
L 1178 365 
L 1178 2509 
C 1459 2650 1696 2720 1907 2720 
C 2291 2720 2470 2509 2470 2061 
L 2470 365 
L 2362 262 
L 2054 230 
L 2054 0 
L 3418 0 
L 3418 230 
L 3117 262 
L 3002 365 
L 3002 2509 
C 3277 2643 3520 2720 3725 2720 
C 4122 2720 4301 2509 4301 2061 
L 4301 365 
L 4186 262 
L 3885 230 
L 3885 0 
L 5280 0 
L 5280 230 
L 4941 262 
L 4832 365 
L 4832 2170 
C 4832 2803 4512 3142 4006 3142 
C 3750 3142 3386 2995 2906 2714 
z
" transform="scale(0.015625)"/>
       <path id="CharterBT-Roman-65" d="M 2867 678 
C 2502 435 2182 307 1862 307 
C 1216 307 787 794 787 1613 
L 787 1683 
L 2861 1683 
C 2867 1754 2867 1818 2867 1882 
C 2867 2669 2413 3142 1715 3142 
C 858 3142 237 2483 237 1517 
C 237 576 819 -58 1664 -58 
C 2067 -58 2483 70 2867 326 
L 2867 678 
z
M 2298 1952 
L 819 1952 
C 858 2496 1222 2854 1632 2854 
C 2061 2854 2298 2573 2298 2054 
L 2298 1952 
z
" transform="scale(0.015625)"/>
      </defs>
      <use xlink:href="#CharterBT-Roman-6e"/>
      <use xlink:href="#CharterBT-Roman-61" transform="translate(56.799988 0)"/>
      <use xlink:href="#CharterBT-Roman-6d" transform="translate(107.499985 0)"/>
      <use xlink:href="#CharterBT-Roman-65" transform="translate(191.799973 0)"/>
     </g>
    </g>
   </g>
   <g id="patch_3">
    <path d="M 282.679314 23.832 
L 282.679314 82.968 
L 351.60537 82.968 
L 351.60537 23.832 
L 282.679314 23.832 
z
" clip-path="url(#p62e7d1c254)" style="fill: #cccccc; stroke: #7a7a7a; stroke-linejoin: miter"/>
   </g>
   <g id="line2d_10">
    <path d="M 282.679314 53.4 
L 180.031079 53.4 
" clip-path="url(#p62e7d1c254)" style="fill: none; stroke: #7a7a7a"/>
   </g>
   <g id="line2d_11">
    <path d="M 351.60537 53.4 
L 413.602955 53.4 
" clip-path="url(#p62e7d1c254)" style="fill: none; stroke: #7a7a7a"/>
   </g>
   <g id="line2d_12">
    <path d="M 180.031079 38.616 
L 180.031079 68.184 
" clip-path="url(#p62e7d1c254)" style="fill: none; stroke: #7a7a7a; stroke-linecap: round"/>
   </g>
   <g id="line2d_13">
    <path d="M 413.602955 38.616 
L 413.602955 68.184 
" clip-path="url(#p62e7d1c254)" style="fill: none; stroke: #7a7a7a; stroke-linecap: round"/>
   </g>
   <g id="line2d_14">
    <defs>
     <path id="ma1a5fc74e5" d="M 0 0.5 
C 0.132602 0.5 0.25979 0.447317 0.353553 0.353553 
C 0.447317 0.25979 0.5 0.132602 0.5 0 
C 0.5 -0.132602 0.447317 -0.25979 0.353553 -0.353553 
C 0.25979 -0.447317 0.132602 -0.5 0 -0.5 
C -0.132602 -0.5 -0.25979 -0.447317 -0.353553 -0.353553 
C -0.447317 -0.25979 -0.5 -0.132602 -0.5 0 
C -0.5 0.132602 -0.447317 0.25979 -0.353553 0.353553 
C -0.25979 0.447317 -0.132602 0.5 0 0.5 
z
" style="stroke: #7a7a7a"/>
    </defs>
    <g clip-path="url(#p62e7d1c254)">
     <use xlink:href="#ma1a5fc74e5" x="111.735379" y="53.4" style="fill-opacity: 0; stroke: #7a7a7a"/>
     <use xlink:href="#ma1a5fc74e5" x="165.413365" y="53.4" style="fill-opacity: 0; stroke: #7a7a7a"/>
     <use xlink:href="#ma1a5fc74e5" x="165.109056" y="53.4" style="fill-opacity: 0; stroke: #7a7a7a"/>
     <use xlink:href="#ma1a5fc74e5" x="116.615196" y="53.4" style="fill-opacity: 0; stroke: #7a7a7a"/>
     <use xlink:href="#ma1a5fc74e5" x="141.112094" y="53.4" style="fill-opacity: 0; stroke: #7a7a7a"/>
     <use xlink:href="#ma1a5fc74e5" x="177.535019" y="53.4" style="fill-opacity: 0; stroke: #7a7a7a"/>
     <use xlink:href="#ma1a5fc74e5" x="165.170642" y="53.4" style="fill-opacity: 0; stroke: #7a7a7a"/>
     <use xlink:href="#ma1a5fc74e5" x="110.402214" y="53.4" style="fill-opacity: 0; stroke: #7a7a7a"/>
     <use xlink:href="#ma1a5fc74e5" x="168.300681" y="53.4" style="fill-opacity: 0; stroke: #7a7a7a"/>
     <use xlink:href="#ma1a5fc74e5" x="174.158635" y="53.4" style="fill-opacity: 0; stroke: #7a7a7a"/>
    </g>
   </g>
   <g id="patch_4">
    <path d="M 223.339002 116.232 
L 223.339002 175.368 
L 294.266615 175.368 
L 294.266615 116.232 
L 223.339002 116.232 
z
" clip-path="url(#p62e7d1c254)" style="fill: #cccccc; stroke: #7a7a7a; stroke-linejoin: miter"/>
   </g>
   <g id="line2d_15">
    <path d="M 223.339002 145.8 
L 119.28877 145.8 
" clip-path="url(#p62e7d1c254)" style="fill: none; stroke: #7a7a7a"/>
   </g>
   <g id="line2d_16">
    <path d="M 294.266615 145.8 
L 370.23888 145.8 
" clip-path="url(#p62e7d1c254)" style="fill: none; stroke: #7a7a7a"/>
   </g>
   <g id="line2d_17">
    <path d="M 119.28877 131.016 
L 119.28877 160.584 
" clip-path="url(#p62e7d1c254)" style="fill: none; stroke: #7a7a7a; stroke-linecap: round"/>
   </g>
   <g id="line2d_18">
    <path d="M 370.23888 131.016 
L 370.23888 160.584 
" clip-path="url(#p62e7d1c254)" style="fill: none; stroke: #7a7a7a; stroke-linecap: round"/>
   </g>
   <g id="line2d_19">
    <g clip-path="url(#p62e7d1c254)">
     <use xlink:href="#ma1a5fc74e5" x="105.214465" y="145.8" style="fill-opacity: 0; stroke: #7a7a7a"/>
    </g>
   </g>
   <g id="patch_5">
    <path d="M 196.416686 208.632 
L 196.416686 267.768 
L 250.869936 267.768 
L 250.869936 208.632 
L 196.416686 208.632 
z
" clip-path="url(#p62e7d1c254)" style="fill: #cccccc; stroke: #7a7a7a; stroke-linejoin: miter"/>
   </g>
   <g id="line2d_20">
    <path d="M 196.416686 238.2 
L 125.903875 238.2 
" clip-path="url(#p62e7d1c254)" style="fill: none; stroke: #7a7a7a"/>
   </g>
   <g id="line2d_21">
    <path d="M 250.869936 238.2 
L 299.849242 238.2 
" clip-path="url(#p62e7d1c254)" style="fill: none; stroke: #7a7a7a"/>
   </g>
   <g id="line2d_22">
    <path d="M 125.903875 223.416 
L 125.903875 252.984 
" clip-path="url(#p62e7d1c254)" style="fill: none; stroke: #7a7a7a; stroke-linecap: round"/>
   </g>
   <g id="line2d_23">
    <path d="M 299.849242 223.416 
L 299.849242 252.984 
" clip-path="url(#p62e7d1c254)" style="fill: none; stroke: #7a7a7a; stroke-linecap: round"/>
   </g>
   <g id="line2d_24">
    <g clip-path="url(#p62e7d1c254)">
     <use xlink:href="#ma1a5fc74e5" x="112.325884" y="238.2" style="fill-opacity: 0; stroke: #7a7a7a"/>
     <use xlink:href="#ma1a5fc74e5" x="58.512045" y="238.2" style="fill-opacity: 0; stroke: #7a7a7a"/>
     <use xlink:href="#ma1a5fc74e5" x="111.757115" y="238.2" style="fill-opacity: 0; stroke: #7a7a7a"/>
    </g>
   </g>
   <g id="line2d_25">
    <path d="M 322.485868 23.832 
L 322.485868 82.968 
" clip-path="url(#p62e7d1c254)" style="fill: none; stroke: #7a7a7a"/>
   </g>
   <g id="line2d_26">
    <path d="M 253.36962 116.232 
L 253.36962 175.368 
" clip-path="url(#p62e7d1c254)" style="fill: none; stroke: #7a7a7a"/>
   </g>
   <g id="line2d_27">
    <path d="M 228.96329 208.632 
L 228.96329 267.768 
" clip-path="url(#p62e7d1c254)" style="fill: none; stroke: #7a7a7a"/>
   </g>
   <g id="patch_6">
    <path d="M 40.7575 284.4 
L 40.7575 7.2 
" style="fill: none; stroke: #262626; stroke-linejoin: miter; stroke-linecap: square"/>
   </g>
   <g id="patch_7">
    <path d="M 431.3575 284.4 
L 431.3575 7.2 
" style="fill: none; stroke: #262626; stroke-linejoin: miter; stroke-linecap: square"/>
   </g>
   <g id="patch_8">
    <path d="M 40.7575 284.4 
L 431.3575 284.4 
" style="fill: none; stroke: #262626; stroke-linejoin: miter; stroke-linecap: square"/>
   </g>
   <g id="patch_9">
    <path d="M 40.7575 7.2 
L 431.3575 7.2 
" style="fill: none; stroke: #262626; stroke-linejoin: miter; stroke-linecap: square"/>
   </g>
  </g>
 </g>
 <defs>
  <clipPath id="p62e7d1c254">
   <rect x="40.7575" y="7.2" width="390.6" height="277.2"/>
  </clipPath>
 </defs>
</svg>
