<?xml version="1.0" encoding="utf-8" standalone="no"?>
<!DOCTYPE svg PUBLIC "-//W3C//DTD SVG 1.1//EN"
  "http://www.w3.org/Graphics/SVG/1.1/DTD/svg11.dtd">
<svg xmlns:xlink="http://www.w3.org/1999/xlink" width="222.563875pt" height="155.131875pt" viewBox="0 0 222.563875 155.131875" xmlns="http://www.w3.org/2000/svg" version="1.1">
 <metadata>
  <rdf:RDF xmlns:dc="http://purl.org/dc/elements/1.1/" xmlns:cc="http://creativecommons.org/ns#" xmlns:rdf="http://www.w3.org/1999/02/22-rdf-syntax-ns#">
   <cc:Work>
    <dc:type rdf:resource="http://purl.org/dc/dcmitype/StillImage"/>
    <dc:date>2025-05-28T11:17:32.724913</dc:date>
    <dc:format>image/svg+xml</dc:format>
    <dc:creator>
     <cc:Agent>
      <dc:title>Matplotlib v3.10.1, https://matplotlib.org/</dc:title>
     </cc:Agent>
    </dc:creator>
   </cc:Work>
  </rdf:RDF>
 </metadata>
 <defs>
  <style type="text/css">*{stroke-linejoin: round; stroke-linecap: butt}</style>
 </defs>
 <g id="figure_1">
  <g id="patch_1">
   <path d="M 0 155.131875 
L 222.563875 155.131875 
L 222.563875 0 
L 0 0 
z
" style="fill: #ffffff"/>
  </g>
  <g id="axes_1">
   <g id="patch_2">
    <path d="M 47.963875 118.08 
L 215.363875 118.08 
L 215.363875 7.2 
L 47.963875 7.2 
z
" style="fill: #ffffff"/>
   </g>
   <g id="matplotlib.axis_1">
    <g id="xtick_1">
     <g id="line2d_1">
      <defs>
       <path id="m8d7c021954" d="M 0 0 
L 0 4.8 
" style="stroke: #262626"/>
      </defs>
      <g>
       <use xlink:href="#m8d7c021954" x="48.326213" y="118.08" style="fill: #262626; stroke: #262626"/>
      </g>
     </g>
     <g id="text_1">
      <!-- 0 -->
      <g style="fill: #262626" transform="translate(45.880088 132.85625) scale(0.088 -0.088)">
       <defs>
        <path id="CharterBT-Roman-30" d="M 1779 4371 
C 864 4371 262 3565 262 2150 
C 262 736 864 -77 1779 -77 
C 2694 -77 3296 736 3296 2150 
C 3296 3565 2694 4371 1779 4371 
z
M 1779 4070 
C 2368 4070 2688 3418 2688 2150 
C 2688 883 2368 230 1779 230 
C 1190 230 864 877 864 2144 
C 864 3418 1190 4070 1779 4070 
z
" transform="scale(0.015625)"/>
       </defs>
       <use xlink:href="#CharterBT-Roman-30"/>
      </g>
     </g>
    </g>
    <g id="xtick_2">
     <g id="line2d_2">
      <g>
       <use xlink:href="#m8d7c021954" x="84.559979" y="118.08" style="fill: #262626; stroke: #262626"/>
      </g>
     </g>
     <g id="text_2">
      <!-- 5 -->
      <g style="fill: #262626" transform="translate(82.113854 132.85625) scale(0.088 -0.088)">
       <defs>
        <path id="CharterBT-Roman-35" d="M 646 4294 
L 646 2182 
C 787 2208 973 2221 1210 2221 
C 2099 2221 2541 1920 2541 1261 
C 2541 666 2131 237 1530 237 
C 1389 237 1242 262 1101 314 
L 845 864 
C 781 877 730 883 691 883 
C 474 883 320 742 320 544 
C 320 237 762 -58 1421 -58 
C 2470 -58 3130 563 3130 1389 
C 3130 2118 2586 2618 1728 2618 
C 1523 2618 1293 2586 1043 2515 
L 1043 3795 
L 2938 3795 
L 2938 4294 
L 646 4294 
z
" transform="scale(0.015625)"/>
       </defs>
       <use xlink:href="#CharterBT-Roman-35"/>
      </g>
     </g>
    </g>
    <g id="xtick_3">
     <g id="line2d_3">
      <g>
       <use xlink:href="#m8d7c021954" x="120.793745" y="118.08" style="fill: #262626; stroke: #262626"/>
      </g>
     </g>
     <g id="text_3">
      <!-- 10 -->
      <g style="fill: #262626" transform="translate(115.901495 132.85625) scale(0.088 -0.088)">
       <defs>
        <path id="CharterBT-Roman-31" d="M 1990 4371 
L 602 3955 
L 602 3686 
L 1606 3866 
L 1606 422 
L 1530 314 
L 794 275 
L 794 0 
L 2938 0 
L 2938 269 
L 2246 301 
L 2170 397 
L 2170 4371 
L 1990 4371 
z
" transform="scale(0.015625)"/>
       </defs>
       <use xlink:href="#CharterBT-Roman-31"/>
       <use xlink:href="#CharterBT-Roman-30" transform="translate(55.599991 0)"/>
      </g>
     </g>
    </g>
    <g id="xtick_4">
     <g id="line2d_4">
      <g>
       <use xlink:href="#m8d7c021954" x="157.027511" y="118.08" style="fill: #262626; stroke: #262626"/>
      </g>
     </g>
     <g id="text_4">
      <!-- 15 -->
      <g style="fill: #262626" transform="translate(152.135261 132.85625) scale(0.088 -0.088)">
       <use xlink:href="#CharterBT-Roman-31"/>
       <use xlink:href="#CharterBT-Roman-35" transform="translate(55.599991 0)"/>
      </g>
     </g>
    </g>
    <g id="xtick_5">
     <g id="line2d_5">
      <g>
       <use xlink:href="#m8d7c021954" x="193.261278" y="118.08" style="fill: #262626; stroke: #262626"/>
      </g>
     </g>
     <g id="text_5">
      <!-- 20 -->
      <g style="fill: #262626" transform="translate(188.369028 132.85625) scale(0.088 -0.088)">
       <defs>
        <path id="CharterBT-Roman-32" d="M 902 506 
C 2317 1632 3091 2355 3091 3162 
C 3091 3885 2586 4371 1760 4371 
C 966 4371 403 3917 403 3469 
C 403 3251 538 3110 762 3110 
C 864 3110 960 3142 1050 3206 
L 1050 3891 
C 1242 4000 1427 4045 1619 4045 
C 2150 4045 2470 3686 2470 3078 
C 2470 2240 1670 1542 269 403 
L 269 0 
L 3232 0 
L 3232 1050 
L 2944 1050 
L 2829 506 
L 902 506 
z
" transform="scale(0.015625)"/>
       </defs>
       <use xlink:href="#CharterBT-Roman-32"/>
       <use xlink:href="#CharterBT-Roman-30" transform="translate(55.599991 0)"/>
      </g>
     </g>
    </g>
    <g id="text_6">
     <!-- degree -->
     <g style="fill: #262626" transform="translate(117.538375 145.839375) scale(0.096 -0.096)">
      <defs>
       <path id="CharterBT-Roman-64" d="M 2451 4282 
L 2451 3078 
C 2253 3123 2061 3149 1882 3149 
C 909 3149 230 2464 230 1440 
C 230 544 768 -58 1466 -58 
C 1818 -58 2125 70 2451 333 
L 2451 0 
L 3398 0 
L 3398 230 
L 3091 262 
L 2982 365 
L 2982 4710 
L 2739 4710 
L 1958 4480 
L 1958 4282 
L 2451 4282 
z
M 2451 570 
C 2214 422 1984 346 1754 346 
C 1178 346 794 800 794 1549 
C 794 2349 1242 2867 1888 2867 
C 2042 2867 2234 2829 2451 2765 
L 2451 570 
z
" transform="scale(0.015625)"/>
       <path id="CharterBT-Roman-65" d="M 2867 678 
C 2502 435 2182 307 1862 307 
C 1216 307 787 794 787 1613 
L 787 1683 
L 2861 1683 
C 2867 1754 2867 1818 2867 1882 
C 2867 2669 2413 3142 1715 3142 
C 858 3142 237 2483 237 1517 
C 237 576 819 -58 1664 -58 
C 2067 -58 2483 70 2867 326 
L 2867 678 
z
M 2298 1952 
L 819 1952 
C 858 2496 1222 2854 1632 2854 
C 2061 2854 2298 2573 2298 2054 
L 2298 1952 
z
" transform="scale(0.015625)"/>
       <path id="CharterBT-Roman-67" d="M 2362 2963 
C 2118 3085 1882 3142 1638 3142 
C 883 3142 397 2707 397 2086 
C 397 1606 698 1229 1190 1120 
C 986 877 883 678 883 512 
C 883 410 909 314 947 224 
C 512 147 256 -160 256 -570 
C 256 -1082 678 -1395 1414 -1395 
C 1901 -1395 2342 -1248 2682 -973 
C 2931 -768 3066 -493 3066 -256 
C 3066 218 2733 416 1978 531 
L 1363 627 
C 1357 698 1350 749 1350 781 
C 1350 883 1376 979 1421 1069 
L 1530 1069 
C 2272 1069 2752 1498 2752 2067 
C 2752 2291 2694 2477 2573 2662 
L 3277 2662 
L 3277 2963 
L 2362 2963 
z
M 1574 2893 
C 1946 2893 2202 2592 2202 2106 
C 2202 1626 1946 1318 1574 1318 
C 1203 1318 947 1626 947 2106 
C 947 2598 1203 2893 1574 2893 
z
M 1318 192 
L 1939 77 
C 2387 -6 2592 -77 2592 -422 
C 2592 -781 2208 -1101 1638 -1101 
C 1114 -1101 768 -806 768 -435 
C 768 -154 966 83 1318 192 
z
" transform="scale(0.015625)"/>
       <path id="CharterBT-Roman-72" d="M 192 0 
L 1734 0 
L 1734 230 
L 1286 262 
L 1178 365 
L 1178 2195 
C 1440 2502 1664 2662 1875 2662 
C 2010 2662 2118 2611 2202 2509 
L 2406 2509 
L 2406 3059 
C 2272 3117 2150 3142 2022 3142 
C 1971 3142 1914 3142 1862 3130 
C 1632 2944 1402 2739 1178 2509 
L 1178 3110 
L 934 3110 
L 192 2880 
L 192 2682 
L 646 2682 
L 646 365 
L 531 262 
L 192 230 
L 192 0 
z
" transform="scale(0.015625)"/>
      </defs>
      <use xlink:href="#CharterBT-Roman-64"/>
      <use xlink:href="#CharterBT-Roman-65" transform="translate(56.499985 0)"/>
      <use xlink:href="#CharterBT-Roman-67" transform="translate(105.599976 0)"/>
      <use xlink:href="#CharterBT-Roman-72" transform="translate(157.899963 0)"/>
      <use xlink:href="#CharterBT-Roman-65" transform="translate(196.09996 0)"/>
      <use xlink:href="#CharterBT-Roman-65" transform="translate(245.199951 0)"/>
     </g>
    </g>
   </g>
   <g id="matplotlib.axis_2">
    <g id="ytick_1">
     <g id="line2d_6">
      <defs>
       <path id="mf7972fb80c" d="M 0 0 
L -4.8 0 
" style="stroke: #262626"/>
      </defs>
      <g>
       <use xlink:href="#mf7972fb80c" x="47.963875" y="34.92" style="fill: #262626; stroke: #262626"/>
      </g>
     </g>
     <g id="text_7">
      <!-- Orig. -->
      <g style="fill: #262626" transform="translate(20.3575 38.158125) scale(0.088 -0.088)">
       <defs>
        <path id="CharterBT-Roman-4f" d="M 2342 4403 
C 1792 4403 1312 4211 928 3840 
C 499 3424 275 2848 275 2150 
C 275 1453 499 870 934 448 
C 1306 90 1798 -102 2342 -102 
C 3085 -102 3725 269 4083 883 
C 4301 1254 4410 1677 4410 2150 
C 4410 2848 4179 3424 3750 3840 
C 3366 4211 2893 4403 2342 4403 
z
M 2342 4058 
C 3168 4058 3738 3341 3738 2150 
C 3738 960 3168 237 2342 237 
C 1510 237 941 960 941 2150 
C 941 3354 1510 4058 2342 4058 
z
" transform="scale(0.015625)"/>
        <path id="CharterBT-Roman-69" d="M 986 4531 
C 781 4531 614 4371 614 4160 
C 614 3955 781 3795 986 3795 
C 1190 3795 1357 3955 1357 4160 
C 1357 4365 1190 4531 986 4531 
z
M 960 3110 
L 224 2880 
L 224 2682 
L 672 2682 
L 672 365 
L 563 262 
L 224 230 
L 224 0 
L 1664 0 
L 1664 230 
L 1318 262 
L 1203 365 
L 1203 3110 
L 960 3110 
z
" transform="scale(0.015625)"/>
        <path id="CharterBT-Roman-2e" d="M 890 755 
C 666 755 480 576 480 346 
C 480 115 666 -58 890 -58 
C 1114 -58 1293 122 1293 346 
C 1293 576 1114 755 890 755 
z
" transform="scale(0.015625)"/>
       </defs>
       <use xlink:href="#CharterBT-Roman-4f"/>
       <use xlink:href="#CharterBT-Roman-72" transform="translate(73.099991 0)"/>
       <use xlink:href="#CharterBT-Roman-69" transform="translate(111.299988 0)"/>
       <use xlink:href="#CharterBT-Roman-67" transform="translate(139.299973 0)"/>
       <use xlink:href="#CharterBT-Roman-2e" transform="translate(191.59996 0)"/>
      </g>
     </g>
    </g>
    <g id="ytick_2">
     <g id="line2d_7">
      <g>
       <use xlink:href="#mf7972fb80c" x="47.963875" y="90.36" style="fill: #262626; stroke: #262626"/>
      </g>
     </g>
     <g id="text_8">
      <!-- FP -->
      <g style="fill: #262626" transform="translate(30.027875 93.598125) scale(0.088 -0.088)">
       <defs>
        <path id="CharterBT-Roman-46" d="M 211 0 
L 1824 0 
L 1824 262 
L 1370 294 
L 1261 384 
L 1261 2022 
L 2310 2022 
L 2400 1926 
L 2464 1459 
L 2765 1459 
L 2765 2874 
L 2464 2874 
L 2400 2406 
L 2310 2317 
L 1261 2317 
L 1261 4000 
L 2701 4000 
L 2784 3904 
L 2880 3296 
L 3232 3296 
L 3232 4294 
L 160 4294 
L 160 4038 
L 576 4000 
L 685 3910 
L 685 384 
L 576 294 
L 211 262 
L 211 0 
z
" transform="scale(0.015625)"/>
        <path id="CharterBT-Roman-50" d="M 211 0 
L 1824 0 
L 1824 262 
L 1370 294 
L 1261 384 
L 1261 1645 
C 1459 1626 1619 1613 1741 1613 
C 2771 1613 3398 2170 3398 2989 
C 3398 3962 2848 4294 1619 4294 
L 160 4294 
L 160 4038 
L 576 4000 
L 685 3910 
L 685 384 
L 576 294 
L 211 262 
L 211 0 
z
M 1261 1952 
L 1261 3987 
C 1376 4000 1491 4000 1594 4000 
C 2413 4000 2803 3686 2803 3002 
C 2803 2298 2413 1920 1683 1920 
C 1587 1920 1446 1933 1261 1952 
z
" transform="scale(0.015625)"/>
       </defs>
       <use xlink:href="#CharterBT-Roman-46"/>
       <use xlink:href="#CharterBT-Roman-50" transform="translate(53.699997 0)"/>
      </g>
     </g>
    </g>
    <g id="text_9">
     <!-- graph -->
     <g style="fill: #262626" transform="translate(14.265 74.76975) rotate(-90) scale(0.096 -0.096)">
      <defs>
       <path id="CharterBT-Roman-61" d="M 2138 371 
L 2221 0 
L 3123 0 
L 3123 230 
L 2784 262 
L 2669 365 
L 2669 2221 
C 2669 2867 2387 3142 1715 3142 
C 909 3142 422 2810 422 2419 
C 422 2266 474 2221 621 2221 
L 1062 2221 
L 1062 2758 
C 1235 2829 1389 2861 1549 2861 
C 2010 2861 2138 2650 2138 2144 
L 2138 1939 
C 858 1632 269 1440 269 774 
C 269 294 582 -45 1088 -45 
C 1395 -45 1734 96 2138 371 
z
M 2138 589 
C 1818 403 1555 301 1344 301 
C 1024 301 832 512 832 826 
C 832 1293 1235 1466 2138 1715 
L 2138 589 
z
" transform="scale(0.015625)"/>
       <path id="CharterBT-Roman-70" d="M 147 -1395 
L 1651 -1395 
L 1651 -1165 
L 1242 -1133 
L 1133 -1030 
L 1133 38 
C 1370 0 1568 -19 1728 -19 
C 2675 -19 3302 634 3302 1645 
C 3302 2541 2778 3142 2074 3142 
C 1773 3142 1472 3014 1133 2758 
L 1133 3110 
L 890 3110 
L 147 2880 
L 147 2682 
L 602 2682 
L 602 -1030 
L 493 -1133 
L 147 -1165 
L 147 -1395 
z
M 1133 371 
L 1133 2522 
C 1376 2662 1587 2739 1805 2739 
C 2362 2739 2739 2298 2739 1562 
C 2739 774 2304 269 1677 269 
C 1523 269 1344 301 1133 371 
z
" transform="scale(0.015625)"/>
       <path id="CharterBT-Roman-68" d="M 902 4710 
L 122 4480 
L 122 4282 
L 614 4282 
L 614 365 
L 506 262 
L 160 230 
L 160 0 
L 1562 0 
L 1562 230 
L 1261 262 
L 1146 365 
L 1146 2509 
C 1421 2650 1658 2720 1862 2720 
C 2336 2720 2509 2528 2509 2061 
L 2509 365 
L 2400 262 
L 2099 230 
L 2099 0 
L 3494 0 
L 3494 230 
L 3155 262 
L 3040 365 
L 3040 2170 
C 3040 2810 2739 3142 2182 3142 
C 1907 3142 1574 2995 1146 2758 
L 1146 4710 
L 902 4710 
z
" transform="scale(0.015625)"/>
      </defs>
      <use xlink:href="#CharterBT-Roman-67"/>
      <use xlink:href="#CharterBT-Roman-72" transform="translate(52.299988 0)"/>
      <use xlink:href="#CharterBT-Roman-61" transform="translate(90.499985 0)"/>
      <use xlink:href="#CharterBT-Roman-70" transform="translate(141.199982 0)"/>
      <use xlink:href="#CharterBT-Roman-68" transform="translate(196.299973 0)"/>
     </g>
    </g>
   </g>
   <g id="patch_3">
    <path d="M 70.066472 23.832 
L 70.066472 46.008 
L 91.806732 46.008 
L 91.806732 23.832 
L 70.066472 23.832 
z
" clip-path="url(#pc3f0aa2f61)" style="fill: #808080; stroke: #4d4d4d; stroke-linejoin: miter"/>
   </g>
   <g id="line2d_8">
    <path d="M 70.066472 34.92 
L 55.572966 34.92 
" clip-path="url(#pc3f0aa2f61)" style="fill: none; stroke: #4d4d4d"/>
   </g>
   <g id="line2d_9">
    <path d="M 91.806732 34.92 
L 120.793745 34.92 
" clip-path="url(#pc3f0aa2f61)" style="fill: none; stroke: #4d4d4d"/>
   </g>
   <g id="line2d_10">
    <path d="M 55.572966 29.376 
L 55.572966 40.464 
" clip-path="url(#pc3f0aa2f61)" style="fill: none; stroke: #4d4d4d; stroke-linecap: round"/>
   </g>
   <g id="line2d_11">
    <path d="M 120.793745 29.376 
L 120.793745 40.464 
" clip-path="url(#pc3f0aa2f61)" style="fill: none; stroke: #4d4d4d; stroke-linecap: round"/>
   </g>
   <g id="line2d_12">
    <defs>
     <path id="mb802fac003" d="M 0 2.4 
C 0.636487 2.4 1.246992 2.147121 1.697056 1.697056 
C 2.147121 1.246992 2.4 0.636487 2.4 0 
C 2.4 -0.636487 2.147121 -1.246992 1.697056 -1.697056 
C 1.246992 -2.147121 0.636487 -2.4 0 -2.4 
C -0.636487 -2.4 -1.246992 -2.147121 -1.697056 -1.697056 
C -2.147121 -1.246992 -2.4 -0.636487 -2.4 0 
C -2.4 0.636487 -2.147121 1.246992 -1.697056 1.697056 
C -1.246992 2.147121 -0.636487 2.4 0 2.4 
z
" style="stroke: #4d4d4d"/>
    </defs>
    <g clip-path="url(#pc3f0aa2f61)">
     <use xlink:href="#mb802fac003" x="142.534005" y="34.92" style="fill-opacity: 0; stroke: #4d4d4d"/>
     <use xlink:href="#mb802fac003" x="128.040498" y="34.92" style="fill-opacity: 0; stroke: #4d4d4d"/>
     <use xlink:href="#mb802fac003" x="142.534005" y="34.92" style="fill-opacity: 0; stroke: #4d4d4d"/>
     <use xlink:href="#mb802fac003" x="128.040498" y="34.92" style="fill-opacity: 0; stroke: #4d4d4d"/>
     <use xlink:href="#mb802fac003" x="207.754784" y="34.92" style="fill-opacity: 0; stroke: #4d4d4d"/>
     <use xlink:href="#mb802fac003" x="193.261278" y="34.92" style="fill-opacity: 0; stroke: #4d4d4d"/>
    </g>
   </g>
   <g id="patch_4">
    <path d="M 55.572966 79.272 
L 55.572966 101.448 
L 70.066472 101.448 
L 70.066472 79.272 
L 55.572966 79.272 
z
" clip-path="url(#pc3f0aa2f61)" style="fill: #808080; stroke: #4d4d4d; stroke-linejoin: miter"/>
   </g>
   <g id="line2d_13">
    <path d="M 55.572966 90.36 
L 55.572966 90.36 
" clip-path="url(#pc3f0aa2f61)" style="fill: none; stroke: #4d4d4d"/>
   </g>
   <g id="line2d_14">
    <path d="M 70.066472 90.36 
L 91.806732 90.36 
" clip-path="url(#pc3f0aa2f61)" style="fill: none; stroke: #4d4d4d"/>
   </g>
   <g id="line2d_15">
    <path d="M 55.572966 84.816 
L 55.572966 95.904 
" clip-path="url(#pc3f0aa2f61)" style="fill: none; stroke: #4d4d4d; stroke-linecap: round"/>
   </g>
   <g id="line2d_16">
    <path d="M 91.806732 84.816 
L 91.806732 95.904 
" clip-path="url(#pc3f0aa2f61)" style="fill: none; stroke: #4d4d4d; stroke-linecap: round"/>
   </g>
   <g id="line2d_17">
    <g clip-path="url(#pc3f0aa2f61)">
     <use xlink:href="#mb802fac003" x="99.053485" y="90.36" style="fill-opacity: 0; stroke: #4d4d4d"/>
     <use xlink:href="#mb802fac003" x="128.040498" y="90.36" style="fill-opacity: 0; stroke: #4d4d4d"/>
    </g>
   </g>
   <g id="line2d_18">
    <path d="M 77.313226 23.832 
L 77.313226 46.008 
" clip-path="url(#pc3f0aa2f61)" style="fill: none; stroke: #4d4d4d"/>
   </g>
   <g id="line2d_19">
    <path d="M 62.819719 79.272 
L 62.819719 101.448 
" clip-path="url(#pc3f0aa2f61)" style="fill: none; stroke: #4d4d4d"/>
   </g>
   <g id="patch_5">
    <path d="M 47.963875 118.08 
L 47.963875 7.2 
" style="fill: none; stroke: #262626; stroke-linejoin: miter; stroke-linecap: square"/>
   </g>
   <g id="patch_6">
    <path d="M 215.363875 118.08 
L 215.363875 7.2 
" style="fill: none; stroke: #262626; stroke-linejoin: miter; stroke-linecap: square"/>
   </g>
   <g id="patch_7">
    <path d="M 47.963875 118.08 
L 215.363875 118.08 
" style="fill: none; stroke: #262626; stroke-linejoin: miter; stroke-linecap: square"/>
   </g>
   <g id="patch_8">
    <path d="M 47.963875 7.2 
L 215.363875 7.2 
" style="fill: none; stroke: #262626; stroke-linejoin: miter; stroke-linecap: square"/>
   </g>
  </g>
 </g>
 <defs>
  <clipPath id="pc3f0aa2f61">
   <rect x="47.963875" y="7.2" width="167.4" height="110.88"/>
  </clipPath>
 </defs>
</svg>
