<?xml version="1.0" encoding="utf-8" standalone="no"?>
<!DOCTYPE svg PUBLIC "-//W3C//DTD SVG 1.1//EN"
  "http://www.w3.org/Graphics/SVG/1.1/DTD/svg11.dtd">
<svg xmlns:xlink="http://www.w3.org/1999/xlink" width="281.776213pt" height="137.215875pt" viewBox="0 0 281.776213 137.215875" xmlns="http://www.w3.org/2000/svg" version="1.1">
 <metadata>
  <rdf:RDF xmlns:dc="http://purl.org/dc/elements/1.1/" xmlns:cc="http://creativecommons.org/ns#" xmlns:rdf="http://www.w3.org/1999/02/22-rdf-syntax-ns#">
   <cc:Work>
    <dc:type rdf:resource="http://purl.org/dc/dcmitype/StillImage"/>
    <dc:date>2025-04-30T00:07:28.820702</dc:date>
    <dc:format>image/svg+xml</dc:format>
    <dc:creator>
     <cc:Agent>
      <dc:title>Matplotlib v3.10.1, https://matplotlib.org/</dc:title>
     </cc:Agent>
    </dc:creator>
   </cc:Work>
  </rdf:RDF>
 </metadata>
 <defs>
  <style type="text/css">*{stroke-linejoin: round; stroke-linecap: butt}</style>
 </defs>
 <g id="figure_1">
  <g id="patch_1">
   <path d="M 0 137.215875 
L 281.776213 137.215875 
L 281.776213 0 
L 0 0 
z
" style="fill: #ffffff"/>
  </g>
  <g id="axes_1">
   <g id="patch_2">
    <path d="M 38.442 100.164 
L 273.380384 100.164 
L 273.380384 7.2 
L 38.442 7.2 
z
" style="fill: #ffffff"/>
   </g>
   <g id="matplotlib.axis_1">
    <g id="xtick_1">
     <g id="line2d_1">
      <defs>
       <path id="m7b653f7b65" d="M 0 0 
L 0 4.8 
" style="stroke: #262626"/>
      </defs>
      <g>
       <use xlink:href="#m7b653f7b65" x="73.821675" y="100.164" style="fill: #262626; stroke: #262626"/>
      </g>
     </g>
     <g id="text_1">
      <!-- −0.10 -->
      <g style="fill: #262626" transform="translate(61.595175 114.94025) scale(0.088 -0.088)">
       <defs>
        <path id="CharterBT-Roman-2212" d="M 794 2093 
L 794 1722 
L 4538 1722 
L 4538 2093 
L 794 2093 
z
" transform="scale(0.015625)"/>
        <path id="CharterBT-Roman-30" d="M 1779 4371 
C 864 4371 262 3565 262 2150 
C 262 736 864 -77 1779 -77 
C 2694 -77 3296 736 3296 2150 
C 3296 3565 2694 4371 1779 4371 
z
M 1779 4070 
C 2368 4070 2688 3418 2688 2150 
C 2688 883 2368 230 1779 230 
C 1190 230 864 877 864 2144 
C 864 3418 1190 4070 1779 4070 
z
" transform="scale(0.015625)"/>
        <path id="CharterBT-Roman-2e" d="M 890 755 
C 666 755 480 576 480 346 
C 480 115 666 -58 890 -58 
C 1114 -58 1293 122 1293 346 
C 1293 576 1114 755 890 755 
z
" transform="scale(0.015625)"/>
        <path id="CharterBT-Roman-31" d="M 1990 4371 
L 602 3955 
L 602 3686 
L 1606 3866 
L 1606 422 
L 1530 314 
L 794 275 
L 794 0 
L 2938 0 
L 2938 269 
L 2246 301 
L 2170 397 
L 2170 4371 
L 1990 4371 
z
" transform="scale(0.015625)"/>
       </defs>
       <use xlink:href="#CharterBT-Roman-2212"/>
       <use xlink:href="#CharterBT-Roman-30" transform="translate(83.299988 0)"/>
       <use xlink:href="#CharterBT-Roman-2e" transform="translate(138.899979 0)"/>
       <use xlink:href="#CharterBT-Roman-31" transform="translate(166.699966 0)"/>
       <use xlink:href="#CharterBT-Roman-30" transform="translate(222.299957 0)"/>
      </g>
     </g>
    </g>
    <g id="xtick_2">
     <g id="line2d_2">
      <g>
       <use xlink:href="#m7b653f7b65" x="112.260295" y="100.164" style="fill: #262626; stroke: #262626"/>
      </g>
     </g>
     <g id="text_2">
      <!-- −0.05 -->
      <g style="fill: #262626" transform="translate(100.033795 114.94025) scale(0.088 -0.088)">
       <defs>
        <path id="CharterBT-Roman-35" d="M 646 4294 
L 646 2182 
C 787 2208 973 2221 1210 2221 
C 2099 2221 2541 1920 2541 1261 
C 2541 666 2131 237 1530 237 
C 1389 237 1242 262 1101 314 
L 845 864 
C 781 877 730 883 691 883 
C 474 883 320 742 320 544 
C 320 237 762 -58 1421 -58 
C 2470 -58 3130 563 3130 1389 
C 3130 2118 2586 2618 1728 2618 
C 1523 2618 1293 2586 1043 2515 
L 1043 3795 
L 2938 3795 
L 2938 4294 
L 646 4294 
z
" transform="scale(0.015625)"/>
       </defs>
       <use xlink:href="#CharterBT-Roman-2212"/>
       <use xlink:href="#CharterBT-Roman-30" transform="translate(83.299988 0)"/>
       <use xlink:href="#CharterBT-Roman-2e" transform="translate(138.899979 0)"/>
       <use xlink:href="#CharterBT-Roman-30" transform="translate(166.699966 0)"/>
       <use xlink:href="#CharterBT-Roman-35" transform="translate(222.299957 0)"/>
      </g>
     </g>
    </g>
    <g id="xtick_3">
     <g id="line2d_3">
      <g>
       <use xlink:href="#m7b653f7b65" x="150.698915" y="100.164" style="fill: #262626; stroke: #262626"/>
      </g>
     </g>
     <g id="text_3">
      <!-- 0.00 -->
      <g style="fill: #262626" transform="translate(142.137478 114.94025) scale(0.088 -0.088)">
       <use xlink:href="#CharterBT-Roman-30"/>
       <use xlink:href="#CharterBT-Roman-2e" transform="translate(55.599991 0)"/>
       <use xlink:href="#CharterBT-Roman-30" transform="translate(83.399979 0)"/>
       <use xlink:href="#CharterBT-Roman-30" transform="translate(138.999969 0)"/>
      </g>
     </g>
    </g>
    <g id="xtick_4">
     <g id="line2d_4">
      <g>
       <use xlink:href="#m7b653f7b65" x="189.137535" y="100.164" style="fill: #262626; stroke: #262626"/>
      </g>
     </g>
     <g id="text_4">
      <!-- 0.05 -->
      <g style="fill: #262626" transform="translate(180.576098 114.94025) scale(0.088 -0.088)">
       <use xlink:href="#CharterBT-Roman-30"/>
       <use xlink:href="#CharterBT-Roman-2e" transform="translate(55.599991 0)"/>
       <use xlink:href="#CharterBT-Roman-30" transform="translate(83.399979 0)"/>
       <use xlink:href="#CharterBT-Roman-35" transform="translate(138.999969 0)"/>
      </g>
     </g>
    </g>
    <g id="xtick_5">
     <g id="line2d_5">
      <g>
       <use xlink:href="#m7b653f7b65" x="227.576155" y="100.164" style="fill: #262626; stroke: #262626"/>
      </g>
     </g>
     <g id="text_5">
      <!-- 0.10 -->
      <g style="fill: #262626" transform="translate(219.014718 114.94025) scale(0.088 -0.088)">
       <use xlink:href="#CharterBT-Roman-30"/>
       <use xlink:href="#CharterBT-Roman-2e" transform="translate(55.599991 0)"/>
       <use xlink:href="#CharterBT-Roman-31" transform="translate(83.399979 0)"/>
       <use xlink:href="#CharterBT-Roman-30" transform="translate(138.999969 0)"/>
      </g>
     </g>
    </g>
    <g id="xtick_6">
     <g id="line2d_6">
      <g>
       <use xlink:href="#m7b653f7b65" x="266.014775" y="100.164" style="fill: #262626; stroke: #262626"/>
      </g>
     </g>
     <g id="text_6">
      <!-- 0.15 -->
      <g style="fill: #262626" transform="translate(257.453338 114.94025) scale(0.088 -0.088)">
       <use xlink:href="#CharterBT-Roman-30"/>
       <use xlink:href="#CharterBT-Roman-2e" transform="translate(55.599991 0)"/>
       <use xlink:href="#CharterBT-Roman-31" transform="translate(83.399979 0)"/>
       <use xlink:href="#CharterBT-Roman-35" transform="translate(138.999969 0)"/>
      </g>
     </g>
    </g>
    <g id="text_7">
     <!-- change in score (E[MCC]) -->
     <g style="fill: #262626" transform="translate(101.092192 127.923375) scale(0.096 -0.096)">
      <defs>
       <path id="CharterBT-Roman-63" d="M 2720 269 
L 2720 602 
C 2451 422 2189 333 1907 333 
C 1242 333 819 800 819 1587 
C 819 2394 1210 2886 1760 2886 
C 1869 2886 1971 2854 2067 2797 
L 2067 2272 
C 2163 2208 2259 2176 2355 2176 
C 2573 2176 2714 2310 2714 2515 
C 2714 2886 2368 3142 1754 3142 
C 858 3142 237 2496 237 1542 
C 237 595 806 -45 1677 -45 
C 2022 -45 2368 64 2720 269 
z
" transform="scale(0.015625)"/>
       <path id="CharterBT-Roman-68" d="M 902 4710 
L 122 4480 
L 122 4282 
L 614 4282 
L 614 365 
L 506 262 
L 160 230 
L 160 0 
L 1562 0 
L 1562 230 
L 1261 262 
L 1146 365 
L 1146 2509 
C 1421 2650 1658 2720 1862 2720 
C 2336 2720 2509 2528 2509 2061 
L 2509 365 
L 2400 262 
L 2099 230 
L 2099 0 
L 3494 0 
L 3494 230 
L 3155 262 
L 3040 365 
L 3040 2170 
C 3040 2810 2739 3142 2182 3142 
C 1907 3142 1574 2995 1146 2758 
L 1146 4710 
L 902 4710 
z
" transform="scale(0.015625)"/>
       <path id="CharterBT-Roman-61" d="M 2138 371 
L 2221 0 
L 3123 0 
L 3123 230 
L 2784 262 
L 2669 365 
L 2669 2221 
C 2669 2867 2387 3142 1715 3142 
C 909 3142 422 2810 422 2419 
C 422 2266 474 2221 621 2221 
L 1062 2221 
L 1062 2758 
C 1235 2829 1389 2861 1549 2861 
C 2010 2861 2138 2650 2138 2144 
L 2138 1939 
C 858 1632 269 1440 269 774 
C 269 294 582 -45 1088 -45 
C 1395 -45 1734 96 2138 371 
z
M 2138 589 
C 1818 403 1555 301 1344 301 
C 1024 301 832 512 832 826 
C 832 1293 1235 1466 2138 1715 
L 2138 589 
z
" transform="scale(0.015625)"/>
       <path id="CharterBT-Roman-6e" d="M 192 0 
L 1594 0 
L 1594 230 
L 1286 262 
L 1178 365 
L 1178 2509 
C 1453 2650 1690 2720 1894 2720 
C 2368 2720 2541 2528 2541 2061 
L 2541 365 
L 2432 262 
L 2125 230 
L 2125 0 
L 3526 0 
L 3526 230 
L 3181 262 
L 3072 365 
L 3072 2170 
C 3072 2810 2765 3142 2208 3142 
C 1933 3142 1606 2995 1178 2758 
L 1178 3110 
L 934 3110 
L 192 2880 
L 192 2682 
L 646 2682 
L 646 365 
L 538 262 
L 192 230 
L 192 0 
z
" transform="scale(0.015625)"/>
       <path id="CharterBT-Roman-67" d="M 2362 2963 
C 2118 3085 1882 3142 1638 3142 
C 883 3142 397 2707 397 2086 
C 397 1606 698 1229 1190 1120 
C 986 877 883 678 883 512 
C 883 410 909 314 947 224 
C 512 147 256 -160 256 -570 
C 256 -1082 678 -1395 1414 -1395 
C 1901 -1395 2342 -1248 2682 -973 
C 2931 -768 3066 -493 3066 -256 
C 3066 218 2733 416 1978 531 
L 1363 627 
C 1357 698 1350 749 1350 781 
C 1350 883 1376 979 1421 1069 
L 1530 1069 
C 2272 1069 2752 1498 2752 2067 
C 2752 2291 2694 2477 2573 2662 
L 3277 2662 
L 3277 2963 
L 2362 2963 
z
M 1574 2893 
C 1946 2893 2202 2592 2202 2106 
C 2202 1626 1946 1318 1574 1318 
C 1203 1318 947 1626 947 2106 
C 947 2598 1203 2893 1574 2893 
z
M 1318 192 
L 1939 77 
C 2387 -6 2592 -77 2592 -422 
C 2592 -781 2208 -1101 1638 -1101 
C 1114 -1101 768 -806 768 -435 
C 768 -154 966 83 1318 192 
z
" transform="scale(0.015625)"/>
       <path id="CharterBT-Roman-65" d="M 2867 678 
C 2502 435 2182 307 1862 307 
C 1216 307 787 794 787 1613 
L 787 1683 
L 2861 1683 
C 2867 1754 2867 1818 2867 1882 
C 2867 2669 2413 3142 1715 3142 
C 858 3142 237 2483 237 1517 
C 237 576 819 -58 1664 -58 
C 2067 -58 2483 70 2867 326 
L 2867 678 
z
M 2298 1952 
L 819 1952 
C 858 2496 1222 2854 1632 2854 
C 2061 2854 2298 2573 2298 2054 
L 2298 1952 
z
" transform="scale(0.015625)"/>
       <path id="CharterBT-Roman-20" transform="scale(0.015625)"/>
       <path id="CharterBT-Roman-69" d="M 986 4531 
C 781 4531 614 4371 614 4160 
C 614 3955 781 3795 986 3795 
C 1190 3795 1357 3955 1357 4160 
C 1357 4365 1190 4531 986 4531 
z
M 960 3110 
L 224 2880 
L 224 2682 
L 672 2682 
L 672 365 
L 563 262 
L 224 230 
L 224 0 
L 1664 0 
L 1664 230 
L 1318 262 
L 1203 365 
L 1203 3110 
L 960 3110 
z
" transform="scale(0.015625)"/>
       <path id="CharterBT-Roman-73" d="M 2202 3002 
C 1984 3098 1734 3142 1453 3142 
C 723 3142 320 2810 320 2246 
C 320 1818 602 1613 1146 1370 
C 1568 1178 1798 1062 1798 730 
C 1798 429 1568 211 1197 211 
C 1011 211 832 262 653 365 
L 576 909 
L 269 909 
L 269 77 
C 493 -6 774 -58 1101 -58 
C 1856 -58 2298 307 2298 902 
C 2298 1139 2208 1331 2054 1453 
C 1843 1626 1600 1715 1376 1824 
C 1018 1997 832 2131 832 2406 
C 832 2694 1024 2867 1363 2867 
C 1517 2867 1670 2822 1837 2733 
L 1888 2278 
L 2202 2278 
L 2202 3002 
z
" transform="scale(0.015625)"/>
       <path id="CharterBT-Roman-6f" d="M 1722 3142 
C 858 3142 237 2496 237 1542 
C 237 595 864 -58 1722 -58 
C 2579 -58 3213 595 3213 1542 
C 3213 2490 2586 3142 1722 3142 
z
M 1722 2867 
C 2240 2867 2611 2368 2611 1542 
C 2611 710 2240 218 1722 218 
C 1210 218 838 717 838 1542 
C 838 2374 1203 2867 1722 2867 
z
" transform="scale(0.015625)"/>
       <path id="CharterBT-Roman-72" d="M 192 0 
L 1734 0 
L 1734 230 
L 1286 262 
L 1178 365 
L 1178 2195 
C 1440 2502 1664 2662 1875 2662 
C 2010 2662 2118 2611 2202 2509 
L 2406 2509 
L 2406 3059 
C 2272 3117 2150 3142 2022 3142 
C 1971 3142 1914 3142 1862 3130 
C 1632 2944 1402 2739 1178 2509 
L 1178 3110 
L 934 3110 
L 192 2880 
L 192 2682 
L 646 2682 
L 646 365 
L 531 262 
L 192 230 
L 192 0 
z
" transform="scale(0.015625)"/>
       <path id="CharterBT-Roman-28" d="M 2470 4595 
C 1331 4454 678 3488 678 1824 
C 678 186 1357 -781 2470 -909 
L 2470 -640 
C 1613 -493 1222 314 1222 1818 
C 1222 3354 1594 4173 2470 4326 
L 2470 4595 
z
" transform="scale(0.015625)"/>
       <path id="CharterBT-Roman-45" d="M 211 0 
L 3507 0 
L 3507 1043 
L 3174 1043 
L 3066 397 
L 2976 294 
L 1261 294 
L 1261 2086 
L 2310 2086 
L 2400 1990 
L 2464 1530 
L 2765 1530 
L 2765 2938 
L 2464 2938 
L 2400 2470 
L 2310 2381 
L 1261 2381 
L 1261 4000 
L 2739 4000 
L 2829 3904 
L 2918 3360 
L 3277 3360 
L 3277 4294 
L 211 4294 
L 211 4038 
L 576 4000 
L 685 3910 
L 685 384 
L 576 294 
L 211 262 
L 211 0 
z
" transform="scale(0.015625)"/>
       <path id="CharterBT-Roman-5b" d="M 890 4531 
L 890 -845 
L 2406 -845 
L 2406 -576 
L 1395 -576 
L 1395 4256 
L 2406 4256 
L 2406 4531 
L 890 4531 
z
" transform="scale(0.015625)"/>
       <path id="CharterBT-Roman-4d" d="M 198 0 
L 1549 0 
L 1549 262 
L 1158 314 
L 1043 435 
L 1043 3930 
L 2502 0 
L 2778 0 
L 4294 3994 
L 4294 384 
L 4230 294 
L 3808 262 
L 3808 0 
L 5338 0 
L 5338 262 
L 4934 294 
L 4858 384 
L 4858 3910 
L 4934 4000 
L 5338 4038 
L 5338 4294 
L 3968 4294 
L 3968 4096 
L 2752 909 
L 1549 4122 
L 1549 4294 
L 192 4294 
L 192 4038 
L 614 4000 
L 698 3910 
L 698 435 
L 582 314 
L 198 262 
L 198 0 
z
" transform="scale(0.015625)"/>
       <path id="CharterBT-Roman-43" d="M 3763 147 
L 3763 1158 
L 3405 1158 
L 3264 448 
L 3162 346 
C 2970 288 2784 262 2605 262 
C 1568 262 934 979 934 2195 
C 934 3341 1555 4032 2509 4032 
C 2758 4032 2989 3974 3226 3866 
L 3309 3750 
L 3405 3168 
L 3763 3168 
L 3763 4154 
C 3296 4301 2874 4371 2496 4371 
C 1165 4371 275 3482 275 2150 
C 275 1312 698 570 1382 179 
C 1677 13 2048 -77 2470 -77 
C 2899 -77 3341 0 3763 147 
z
" transform="scale(0.015625)"/>
       <path id="CharterBT-Roman-5d" d="M 294 4531 
L 294 4256 
L 1306 4256 
L 1306 -576 
L 294 -576 
L 294 -851 
L 1805 -851 
L 1805 4531 
L 294 4531 
z
" transform="scale(0.015625)"/>
       <path id="CharterBT-Roman-29" d="M 198 4595 
L 198 4326 
C 1075 4173 1446 3354 1446 1818 
C 1446 314 1056 -493 198 -640 
L 198 -909 
C 1312 -781 1990 186 1990 1824 
C 1990 3488 1338 4454 198 4595 
z
" transform="scale(0.015625)"/>
      </defs>
      <use xlink:href="#CharterBT-Roman-63"/>
      <use xlink:href="#CharterBT-Roman-68" transform="translate(44.599991 0)"/>
      <use xlink:href="#CharterBT-Roman-61" transform="translate(100.999985 0)"/>
      <use xlink:href="#CharterBT-Roman-6e" transform="translate(151.699982 0)"/>
      <use xlink:href="#CharterBT-Roman-67" transform="translate(208.499969 0)"/>
      <use xlink:href="#CharterBT-Roman-65" transform="translate(260.799957 0)"/>
      <use xlink:href="#CharterBT-Roman-20" transform="translate(309.899948 0)"/>
      <use xlink:href="#CharterBT-Roman-69" transform="translate(337.699936 0)"/>
      <use xlink:href="#CharterBT-Roman-6e" transform="translate(365.699921 0)"/>
      <use xlink:href="#CharterBT-Roman-20" transform="translate(422.499908 0)"/>
      <use xlink:href="#CharterBT-Roman-73" transform="translate(450.299896 0)"/>
      <use xlink:href="#CharterBT-Roman-63" transform="translate(490.299881 0)"/>
      <use xlink:href="#CharterBT-Roman-6f" transform="translate(534.899872 0)"/>
      <use xlink:href="#CharterBT-Roman-72" transform="translate(588.799866 0)"/>
      <use xlink:href="#CharterBT-Roman-65" transform="translate(626.999863 0)"/>
      <use xlink:href="#CharterBT-Roman-20" transform="translate(676.099854 0)"/>
      <use xlink:href="#CharterBT-Roman-28" transform="translate(703.899841 0)"/>
      <use xlink:href="#CharterBT-Roman-45" transform="translate(745.599838 0)"/>
      <use xlink:href="#CharterBT-Roman-5b" transform="translate(803.199829 0)"/>
      <use xlink:href="#CharterBT-Roman-4d" transform="translate(845.29982 0)"/>
      <use xlink:href="#CharterBT-Roman-43" transform="translate(931.899811 0)"/>
      <use xlink:href="#CharterBT-Roman-43" transform="translate(995.099808 0)"/>
      <use xlink:href="#CharterBT-Roman-5d" transform="translate(1058.299805 0)"/>
      <use xlink:href="#CharterBT-Roman-29" transform="translate(1100.399796 0)"/>
     </g>
    </g>
   </g>
   <g id="matplotlib.axis_2">
    <g id="ytick_1">
     <g id="line2d_7">
      <defs>
       <path id="m6f243a0cad" d="M 0 0 
L -4.8 0 
" style="stroke: #262626"/>
      </defs>
      <g>
       <use xlink:href="#m6f243a0cad" x="38.442" y="100.164" style="fill: #262626; stroke: #262626"/>
      </g>
     </g>
     <g id="text_8">
      <!-- 0 -->
      <g style="fill: #262626" transform="translate(25.24975 103.402125) scale(0.088 -0.088)">
       <use xlink:href="#CharterBT-Roman-30"/>
      </g>
     </g>
    </g>
    <g id="ytick_2">
     <g id="line2d_8">
      <g>
       <use xlink:href="#m6f243a0cad" x="38.442" y="73.735002" style="fill: #262626; stroke: #262626"/>
      </g>
     </g>
     <g id="text_9">
      <!-- 20 -->
      <g style="fill: #262626" transform="translate(20.3575 76.973127) scale(0.088 -0.088)">
       <defs>
        <path id="CharterBT-Roman-32" d="M 902 506 
C 2317 1632 3091 2355 3091 3162 
C 3091 3885 2586 4371 1760 4371 
C 966 4371 403 3917 403 3469 
C 403 3251 538 3110 762 3110 
C 864 3110 960 3142 1050 3206 
L 1050 3891 
C 1242 4000 1427 4045 1619 4045 
C 2150 4045 2470 3686 2470 3078 
C 2470 2240 1670 1542 269 403 
L 269 0 
L 3232 0 
L 3232 1050 
L 2944 1050 
L 2829 506 
L 902 506 
z
" transform="scale(0.015625)"/>
       </defs>
       <use xlink:href="#CharterBT-Roman-32"/>
       <use xlink:href="#CharterBT-Roman-30" transform="translate(55.599991 0)"/>
      </g>
     </g>
    </g>
    <g id="ytick_3">
     <g id="line2d_9">
      <g>
       <use xlink:href="#m6f243a0cad" x="38.442" y="47.306004" style="fill: #262626; stroke: #262626"/>
      </g>
     </g>
     <g id="text_10">
      <!-- 40 -->
      <g style="fill: #262626" transform="translate(20.3575 50.544129) scale(0.088 -0.088)">
       <defs>
        <path id="CharterBT-Roman-34" d="M 2355 4333 
L 173 1658 
L 173 1242 
L 2234 1242 
L 2234 -237 
L 2726 -237 
L 2726 1242 
L 3450 1242 
L 3450 1658 
L 2726 1658 
L 2726 4333 
L 2355 4333 
z
M 2234 3635 
L 2234 1658 
L 653 1658 
L 2234 3635 
z
" transform="scale(0.015625)"/>
       </defs>
       <use xlink:href="#CharterBT-Roman-34"/>
       <use xlink:href="#CharterBT-Roman-30" transform="translate(55.599991 0)"/>
      </g>
     </g>
    </g>
    <g id="ytick_4">
     <g id="line2d_10">
      <g>
       <use xlink:href="#m6f243a0cad" x="38.442" y="20.877006" style="fill: #262626; stroke: #262626"/>
      </g>
     </g>
     <g id="text_11">
      <!-- 60 -->
      <g style="fill: #262626" transform="translate(20.3575 24.115131) scale(0.088 -0.088)">
       <defs>
        <path id="CharterBT-Roman-36" d="M 2835 4570 
C 1267 4467 320 3411 320 1773 
C 320 621 947 -77 1811 -77 
C 2688 -77 3360 589 3360 1453 
C 3360 2266 2790 2848 2029 2848 
C 1651 2848 1274 2714 941 2458 
C 1139 3597 1792 4198 2816 4198 
L 2835 4198 
L 2835 4570 
z
M 928 2176 
C 1190 2368 1504 2464 1856 2464 
C 2400 2464 2778 2054 2778 1395 
C 2778 717 2394 230 1862 230 
C 1261 230 915 768 915 1786 
C 915 1907 915 2042 928 2176 
z
" transform="scale(0.015625)"/>
       </defs>
       <use xlink:href="#CharterBT-Roman-36"/>
       <use xlink:href="#CharterBT-Roman-30" transform="translate(55.599991 0)"/>
      </g>
     </g>
    </g>
    <g id="text_12">
     <!-- Count -->
     <g style="fill: #262626" transform="translate(14.265 66.3645) rotate(-90) scale(0.096 -0.096)">
      <defs>
       <path id="CharterBT-Roman-75" d="M 909 3142 
L 166 2906 
L 166 2707 
L 621 2707 
L 621 915 
C 621 275 928 -64 1478 -64 
C 1792 -64 2131 83 2515 358 
L 2515 0 
L 3462 0 
L 3462 230 
L 3162 262 
L 3046 365 
L 3046 3142 
L 2803 3142 
L 2061 2906 
L 2061 2707 
L 2515 2707 
L 2515 538 
C 2253 410 2010 346 1773 346 
C 1344 346 1152 563 1152 1024 
L 1152 3142 
L 909 3142 
z
" transform="scale(0.015625)"/>
       <path id="CharterBT-Roman-74" d="M 563 2694 
L 563 627 
C 563 173 698 -19 1229 -19 
C 1478 -19 1766 26 2067 122 
L 2067 358 
C 1920 326 1773 307 1626 307 
C 1178 307 1094 518 1094 1005 
L 1094 2694 
L 2067 2694 
L 2067 2995 
L 1094 2995 
L 1094 3674 
L 858 3674 
L 582 3078 
L 160 2893 
L 160 2694 
L 563 2694 
z
" transform="scale(0.015625)"/>
      </defs>
      <use xlink:href="#CharterBT-Roman-43"/>
      <use xlink:href="#CharterBT-Roman-6f" transform="translate(63.199997 0)"/>
      <use xlink:href="#CharterBT-Roman-75" transform="translate(117.099991 0)"/>
      <use xlink:href="#CharterBT-Roman-6e" transform="translate(173.999985 0)"/>
      <use xlink:href="#CharterBT-Roman-74" transform="translate(230.799973 0)"/>
     </g>
    </g>
   </g>
   <g id="patch_3">
    <path d="M 49.121017 100.164 
L 53.570608 100.164 
L 53.570608 97.5211 
L 49.121017 97.5211 
z
" clip-path="url(#p4b22b9c439)" style="fill: #b2b2b2; fill-opacity: 0.75; stroke: #ffffff; stroke-width: 0.455306; stroke-linejoin: miter"/>
   </g>
   <g id="patch_4">
    <path d="M 53.570608 100.164 
L 58.020199 100.164 
L 58.020199 100.164 
L 53.570608 100.164 
z
" clip-path="url(#p4b22b9c439)" style="fill: #b2b2b2; fill-opacity: 0.75; stroke: #ffffff; stroke-width: 0.455306; stroke-linejoin: miter"/>
   </g>
   <g id="patch_5">
    <path d="M 58.020199 100.164 
L 62.469789 100.164 
L 62.469789 100.164 
L 58.020199 100.164 
z
" clip-path="url(#p4b22b9c439)" style="fill: #b2b2b2; fill-opacity: 0.75; stroke: #ffffff; stroke-width: 0.455306; stroke-linejoin: miter"/>
   </g>
   <g id="patch_6">
    <path d="M 62.469789 100.164 
L 66.91938 100.164 
L 66.91938 98.84255 
L 62.469789 98.84255 
z
" clip-path="url(#p4b22b9c439)" style="fill: #b2b2b2; fill-opacity: 0.75; stroke: #ffffff; stroke-width: 0.455306; stroke-linejoin: miter"/>
   </g>
   <g id="patch_7">
    <path d="M 66.91938 100.164 
L 71.36897 100.164 
L 71.36897 100.164 
L 66.91938 100.164 
z
" clip-path="url(#p4b22b9c439)" style="fill: #b2b2b2; fill-opacity: 0.75; stroke: #ffffff; stroke-width: 0.455306; stroke-linejoin: miter"/>
   </g>
   <g id="patch_8">
    <path d="M 71.36897 100.164 
L 75.818561 100.164 
L 75.818561 96.19965 
L 71.36897 96.19965 
z
" clip-path="url(#p4b22b9c439)" style="fill: #b2b2b2; fill-opacity: 0.75; stroke: #ffffff; stroke-width: 0.455306; stroke-linejoin: miter"/>
   </g>
   <g id="patch_9">
    <path d="M 75.818561 100.164 
L 80.268152 100.164 
L 80.268152 100.164 
L 75.818561 100.164 
z
" clip-path="url(#p4b22b9c439)" style="fill: #b2b2b2; fill-opacity: 0.75; stroke: #ffffff; stroke-width: 0.455306; stroke-linejoin: miter"/>
   </g>
   <g id="patch_10">
    <path d="M 80.268152 100.164 
L 84.717742 100.164 
L 84.717742 100.164 
L 80.268152 100.164 
z
" clip-path="url(#p4b22b9c439)" style="fill: #b2b2b2; fill-opacity: 0.75; stroke: #ffffff; stroke-width: 0.455306; stroke-linejoin: miter"/>
   </g>
   <g id="patch_11">
    <path d="M 84.717742 100.164 
L 89.167333 100.164 
L 89.167333 100.164 
L 84.717742 100.164 
z
" clip-path="url(#p4b22b9c439)" style="fill: #b2b2b2; fill-opacity: 0.75; stroke: #ffffff; stroke-width: 0.455306; stroke-linejoin: miter"/>
   </g>
   <g id="patch_12">
    <path d="M 89.167333 100.164 
L 93.616923 100.164 
L 93.616923 97.5211 
L 89.167333 97.5211 
z
" clip-path="url(#p4b22b9c439)" style="fill: #b2b2b2; fill-opacity: 0.75; stroke: #ffffff; stroke-width: 0.455306; stroke-linejoin: miter"/>
   </g>
   <g id="patch_13">
    <path d="M 93.616923 100.164 
L 98.066514 100.164 
L 98.066514 98.84255 
L 93.616923 98.84255 
z
" clip-path="url(#p4b22b9c439)" style="fill: #b2b2b2; fill-opacity: 0.75; stroke: #ffffff; stroke-width: 0.455306; stroke-linejoin: miter"/>
   </g>
   <g id="patch_14">
    <path d="M 98.066514 100.164 
L 102.516105 100.164 
L 102.516105 100.164 
L 98.066514 100.164 
z
" clip-path="url(#p4b22b9c439)" style="fill: #b2b2b2; fill-opacity: 0.75; stroke: #ffffff; stroke-width: 0.455306; stroke-linejoin: miter"/>
   </g>
   <g id="patch_15">
    <path d="M 102.516105 100.164 
L 106.965695 100.164 
L 106.965695 98.84255 
L 102.516105 98.84255 
z
" clip-path="url(#p4b22b9c439)" style="fill: #b2b2b2; fill-opacity: 0.75; stroke: #ffffff; stroke-width: 0.455306; stroke-linejoin: miter"/>
   </g>
   <g id="patch_16">
    <path d="M 106.965695 100.164 
L 111.415286 100.164 
L 111.415286 98.84255 
L 106.965695 98.84255 
z
" clip-path="url(#p4b22b9c439)" style="fill: #b2b2b2; fill-opacity: 0.75; stroke: #ffffff; stroke-width: 0.455306; stroke-linejoin: miter"/>
   </g>
   <g id="patch_17">
    <path d="M 111.415286 100.164 
L 115.864876 100.164 
L 115.864876 98.84255 
L 111.415286 98.84255 
z
" clip-path="url(#p4b22b9c439)" style="fill: #b2b2b2; fill-opacity: 0.75; stroke: #ffffff; stroke-width: 0.455306; stroke-linejoin: miter"/>
   </g>
   <g id="patch_18">
    <path d="M 115.864876 100.164 
L 120.314467 100.164 
L 120.314467 98.84255 
L 115.864876 98.84255 
z
" clip-path="url(#p4b22b9c439)" style="fill: #b2b2b2; fill-opacity: 0.75; stroke: #ffffff; stroke-width: 0.455306; stroke-linejoin: miter"/>
   </g>
   <g id="patch_19">
    <path d="M 120.314467 100.164 
L 124.764058 100.164 
L 124.764058 98.84255 
L 120.314467 98.84255 
z
" clip-path="url(#p4b22b9c439)" style="fill: #b2b2b2; fill-opacity: 0.75; stroke: #ffffff; stroke-width: 0.455306; stroke-linejoin: miter"/>
   </g>
   <g id="patch_20">
    <path d="M 124.764058 100.164 
L 129.213648 100.164 
L 129.213648 100.164 
L 124.764058 100.164 
z
" clip-path="url(#p4b22b9c439)" style="fill: #b2b2b2; fill-opacity: 0.75; stroke: #ffffff; stroke-width: 0.455306; stroke-linejoin: miter"/>
   </g>
   <g id="patch_21">
    <path d="M 129.213648 100.164 
L 133.663239 100.164 
L 133.663239 96.19965 
L 129.213648 96.19965 
z
" clip-path="url(#p4b22b9c439)" style="fill: #b2b2b2; fill-opacity: 0.75; stroke: #ffffff; stroke-width: 0.455306; stroke-linejoin: miter"/>
   </g>
   <g id="patch_22">
    <path d="M 133.663239 100.164 
L 138.11283 100.164 
L 138.11283 93.556751 
L 133.663239 93.556751 
z
" clip-path="url(#p4b22b9c439)" style="fill: #b2b2b2; fill-opacity: 0.75; stroke: #ffffff; stroke-width: 0.455306; stroke-linejoin: miter"/>
   </g>
   <g id="patch_23">
    <path d="M 138.11283 100.164 
L 142.56242 100.164 
L 142.56242 97.5211 
L 138.11283 97.5211 
z
" clip-path="url(#p4b22b9c439)" style="fill: #b2b2b2; fill-opacity: 0.75; stroke: #ffffff; stroke-width: 0.455306; stroke-linejoin: miter"/>
   </g>
   <g id="patch_24">
    <path d="M 142.56242 100.164 
L 147.012011 100.164 
L 147.012011 92.235301 
L 142.56242 92.235301 
z
" clip-path="url(#p4b22b9c439)" style="fill: #b2b2b2; fill-opacity: 0.75; stroke: #ffffff; stroke-width: 0.455306; stroke-linejoin: miter"/>
   </g>
   <g id="patch_25">
    <path d="M 147.012011 100.164 
L 151.461601 100.164 
L 151.461601 88.270951 
L 147.012011 88.270951 
z
" clip-path="url(#p4b22b9c439)" style="fill: #b2b2b2; fill-opacity: 0.75; stroke: #ffffff; stroke-width: 0.455306; stroke-linejoin: miter"/>
   </g>
   <g id="patch_26">
    <path d="M 151.461601 100.164 
L 155.911192 100.164 
L 155.911192 11.626857 
L 151.461601 11.626857 
z
" clip-path="url(#p4b22b9c439)" style="fill: #b2b2b2; fill-opacity: 0.75; stroke: #ffffff; stroke-width: 0.455306; stroke-linejoin: miter"/>
   </g>
   <g id="patch_27">
    <path d="M 155.911192 100.164 
L 160.360783 100.164 
L 160.360783 14.269757 
L 155.911192 14.269757 
z
" clip-path="url(#p4b22b9c439)" style="fill: #b2b2b2; fill-opacity: 0.75; stroke: #ffffff; stroke-width: 0.455306; stroke-linejoin: miter"/>
   </g>
   <g id="patch_28">
    <path d="M 160.360783 100.164 
L 164.810373 100.164 
L 164.810373 24.841356 
L 160.360783 24.841356 
z
" clip-path="url(#p4b22b9c439)" style="fill: #b2b2b2; fill-opacity: 0.75; stroke: #ffffff; stroke-width: 0.455306; stroke-linejoin: miter"/>
   </g>
   <g id="patch_29">
    <path d="M 164.810373 100.164 
L 169.259964 100.164 
L 169.259964 57.877603 
L 164.810373 57.877603 
z
" clip-path="url(#p4b22b9c439)" style="fill: #b2b2b2; fill-opacity: 0.75; stroke: #ffffff; stroke-width: 0.455306; stroke-linejoin: miter"/>
   </g>
   <g id="patch_30">
    <path d="M 169.259964 100.164 
L 173.709554 100.164 
L 173.709554 72.413552 
L 169.259964 72.413552 
z
" clip-path="url(#p4b22b9c439)" style="fill: #b2b2b2; fill-opacity: 0.75; stroke: #ffffff; stroke-width: 0.455306; stroke-linejoin: miter"/>
   </g>
   <g id="patch_31">
    <path d="M 173.709554 100.164 
L 178.159145 100.164 
L 178.159145 69.770652 
L 173.709554 69.770652 
z
" clip-path="url(#p4b22b9c439)" style="fill: #b2b2b2; fill-opacity: 0.75; stroke: #ffffff; stroke-width: 0.455306; stroke-linejoin: miter"/>
   </g>
   <g id="patch_32">
    <path d="M 178.159145 100.164 
L 182.608736 100.164 
L 182.608736 89.592401 
L 178.159145 89.592401 
z
" clip-path="url(#p4b22b9c439)" style="fill: #b2b2b2; fill-opacity: 0.75; stroke: #ffffff; stroke-width: 0.455306; stroke-linejoin: miter"/>
   </g>
   <g id="patch_33">
    <path d="M 182.608736 100.164 
L 187.058326 100.164 
L 187.058326 90.913851 
L 182.608736 90.913851 
z
" clip-path="url(#p4b22b9c439)" style="fill: #b2b2b2; fill-opacity: 0.75; stroke: #ffffff; stroke-width: 0.455306; stroke-linejoin: miter"/>
   </g>
   <g id="patch_34">
    <path d="M 187.058326 100.164 
L 191.507917 100.164 
L 191.507917 90.913851 
L 187.058326 90.913851 
z
" clip-path="url(#p4b22b9c439)" style="fill: #b2b2b2; fill-opacity: 0.75; stroke: #ffffff; stroke-width: 0.455306; stroke-linejoin: miter"/>
   </g>
   <g id="patch_35">
    <path d="M 191.507917 100.164 
L 195.957507 100.164 
L 195.957507 93.556751 
L 191.507917 93.556751 
z
" clip-path="url(#p4b22b9c439)" style="fill: #b2b2b2; fill-opacity: 0.75; stroke: #ffffff; stroke-width: 0.455306; stroke-linejoin: miter"/>
   </g>
   <g id="patch_36">
    <path d="M 195.957507 100.164 
L 200.407098 100.164 
L 200.407098 96.19965 
L 195.957507 96.19965 
z
" clip-path="url(#p4b22b9c439)" style="fill: #b2b2b2; fill-opacity: 0.75; stroke: #ffffff; stroke-width: 0.455306; stroke-linejoin: miter"/>
   </g>
   <g id="patch_37">
    <path d="M 200.407098 100.164 
L 204.856689 100.164 
L 204.856689 97.5211 
L 200.407098 97.5211 
z
" clip-path="url(#p4b22b9c439)" style="fill: #b2b2b2; fill-opacity: 0.75; stroke: #ffffff; stroke-width: 0.455306; stroke-linejoin: miter"/>
   </g>
   <g id="patch_38">
    <path d="M 204.856689 100.164 
L 209.306279 100.164 
L 209.306279 98.84255 
L 204.856689 98.84255 
z
" clip-path="url(#p4b22b9c439)" style="fill: #b2b2b2; fill-opacity: 0.75; stroke: #ffffff; stroke-width: 0.455306; stroke-linejoin: miter"/>
   </g>
   <g id="patch_39">
    <path d="M 209.306279 100.164 
L 213.75587 100.164 
L 213.75587 96.19965 
L 209.306279 96.19965 
z
" clip-path="url(#p4b22b9c439)" style="fill: #b2b2b2; fill-opacity: 0.75; stroke: #ffffff; stroke-width: 0.455306; stroke-linejoin: miter"/>
   </g>
   <g id="patch_40">
    <path d="M 213.75587 100.164 
L 218.20546 100.164 
L 218.20546 98.84255 
L 213.75587 98.84255 
z
" clip-path="url(#p4b22b9c439)" style="fill: #b2b2b2; fill-opacity: 0.75; stroke: #ffffff; stroke-width: 0.455306; stroke-linejoin: miter"/>
   </g>
   <g id="patch_41">
    <path d="M 218.20546 100.164 
L 222.655051 100.164 
L 222.655051 98.84255 
L 218.20546 98.84255 
z
" clip-path="url(#p4b22b9c439)" style="fill: #b2b2b2; fill-opacity: 0.75; stroke: #ffffff; stroke-width: 0.455306; stroke-linejoin: miter"/>
   </g>
   <g id="patch_42">
    <path d="M 222.655051 100.164 
L 227.104642 100.164 
L 227.104642 96.19965 
L 222.655051 96.19965 
z
" clip-path="url(#p4b22b9c439)" style="fill: #b2b2b2; fill-opacity: 0.75; stroke: #ffffff; stroke-width: 0.455306; stroke-linejoin: miter"/>
   </g>
   <g id="patch_43">
    <path d="M 227.104642 100.164 
L 231.554232 100.164 
L 231.554232 97.5211 
L 227.104642 97.5211 
z
" clip-path="url(#p4b22b9c439)" style="fill: #b2b2b2; fill-opacity: 0.75; stroke: #ffffff; stroke-width: 0.455306; stroke-linejoin: miter"/>
   </g>
   <g id="patch_44">
    <path d="M 231.554232 100.164 
L 236.003823 100.164 
L 236.003823 97.5211 
L 231.554232 97.5211 
z
" clip-path="url(#p4b22b9c439)" style="fill: #b2b2b2; fill-opacity: 0.75; stroke: #ffffff; stroke-width: 0.455306; stroke-linejoin: miter"/>
   </g>
   <g id="patch_45">
    <path d="M 236.003823 100.164 
L 240.453413 100.164 
L 240.453413 97.5211 
L 236.003823 97.5211 
z
" clip-path="url(#p4b22b9c439)" style="fill: #b2b2b2; fill-opacity: 0.75; stroke: #ffffff; stroke-width: 0.455306; stroke-linejoin: miter"/>
   </g>
   <g id="patch_46">
    <path d="M 240.453413 100.164 
L 244.903004 100.164 
L 244.903004 97.5211 
L 240.453413 97.5211 
z
" clip-path="url(#p4b22b9c439)" style="fill: #b2b2b2; fill-opacity: 0.75; stroke: #ffffff; stroke-width: 0.455306; stroke-linejoin: miter"/>
   </g>
   <g id="patch_47">
    <path d="M 244.903004 100.164 
L 249.352595 100.164 
L 249.352595 98.84255 
L 244.903004 98.84255 
z
" clip-path="url(#p4b22b9c439)" style="fill: #b2b2b2; fill-opacity: 0.75; stroke: #ffffff; stroke-width: 0.455306; stroke-linejoin: miter"/>
   </g>
   <g id="patch_48">
    <path d="M 249.352595 100.164 
L 253.802185 100.164 
L 253.802185 93.556751 
L 249.352595 93.556751 
z
" clip-path="url(#p4b22b9c439)" style="fill: #b2b2b2; fill-opacity: 0.75; stroke: #ffffff; stroke-width: 0.455306; stroke-linejoin: miter"/>
   </g>
   <g id="patch_49">
    <path d="M 253.802185 100.164 
L 258.251776 100.164 
L 258.251776 100.164 
L 253.802185 100.164 
z
" clip-path="url(#p4b22b9c439)" style="fill: #b2b2b2; fill-opacity: 0.75; stroke: #ffffff; stroke-width: 0.455306; stroke-linejoin: miter"/>
   </g>
   <g id="patch_50">
    <path d="M 258.251776 100.164 
L 262.701366 100.164 
L 262.701366 98.84255 
L 258.251776 98.84255 
z
" clip-path="url(#p4b22b9c439)" style="fill: #b2b2b2; fill-opacity: 0.75; stroke: #ffffff; stroke-width: 0.455306; stroke-linejoin: miter"/>
   </g>
   <g id="line2d_11">
    <path d="M 150.698915 100.164 
L 150.698915 7.2 
" clip-path="url(#p4b22b9c439)" style="fill: none; stroke: #000000; stroke-width: 1.2; stroke-linecap: round"/>
   </g>
   <g id="patch_51">
    <path d="M 38.442 100.164 
L 38.442 7.2 
" style="fill: none; stroke: #262626; stroke-linejoin: miter; stroke-linecap: square"/>
   </g>
   <g id="patch_52">
    <path d="M 38.442 100.164 
L 273.380384 100.164 
" style="fill: none; stroke: #262626; stroke-linejoin: miter; stroke-linecap: square"/>
   </g>
  </g>
 </g>
 <defs>
  <clipPath id="p4b22b9c439">
   <rect x="38.442" y="7.2" width="234.938384" height="92.964"/>
  </clipPath>
 </defs>
</svg>
