<?xml version="1.0" encoding="utf-8" standalone="no"?>
<!DOCTYPE svg PUBLIC "-//W3C//DTD SVG 1.1//EN"
  "http://www.w3.org/Graphics/SVG/1.1/DTD/svg11.dtd">
<svg xmlns:xlink="http://www.w3.org/1999/xlink" width="623.8781pt" height="191.624824pt" viewBox="0 0 623.8781 191.624824" xmlns="http://www.w3.org/2000/svg" version="1.1">
 <metadata>
  <rdf:RDF xmlns:dc="http://purl.org/dc/elements/1.1/" xmlns:cc="http://creativecommons.org/ns#" xmlns:rdf="http://www.w3.org/1999/02/22-rdf-syntax-ns#">
   <cc:Work>
    <dc:type rdf:resource="http://purl.org/dc/dcmitype/StillImage"/>
    <dc:date>2025-05-25T12:20:31.433809</dc:date>
    <dc:format>image/svg+xml</dc:format>
    <dc:creator>
     <cc:Agent>
      <dc:title>Matplotlib v3.10.1, https://matplotlib.org/</dc:title>
     </cc:Agent>
    </dc:creator>
   </cc:Work>
  </rdf:RDF>
 </metadata>
 <defs>
  <style type="text/css">*{stroke-linejoin: round; stroke-linecap: butt}</style>
 </defs>
 <g id="figure_1">
  <g id="patch_1">
   <path d="M -0 191.624824 
L 623.8781 191.624824 
L 623.8781 0 
L -0 0 
z
" style="fill: #ffffff"/>
  </g>
  <g id="axes_1">
   <g id="patch_2">
    <path d="M 38.442 154.494949 
L 187.206361 154.494949 
L 187.206361 9.543929 
L 38.442 9.543929 
z
" style="fill: #ffffff"/>
   </g>
   <g id="matplotlib.axis_1">
    <g id="xtick_1">
     <g id="line2d_1">
      <defs>
       <path id="mcff18d447d" d="M 0 0 
L 0 4.8 
" style="stroke: #262626"/>
      </defs>
      <g>
       <use xlink:href="#mcff18d447d" x="41.393025" y="154.494949" style="fill: #262626; stroke: #262626"/>
      </g>
     </g>
     <g id="text_1">
      <!-- 0.0 -->
      <g style="fill: #262626" transform="translate(35.277713 169.271199) scale(0.088 -0.088)">
       <defs>
        <path id="CharterBT-Roman-30" d="M 1779 4371 
C 864 4371 262 3565 262 2150 
C 262 736 864 -77 1779 -77 
C 2694 -77 3296 736 3296 2150 
C 3296 3565 2694 4371 1779 4371 
z
M 1779 4070 
C 2368 4070 2688 3418 2688 2150 
C 2688 883 2368 230 1779 230 
C 1190 230 864 877 864 2144 
C 864 3418 1190 4070 1779 4070 
z
" transform="scale(0.015625)"/>
        <path id="CharterBT-Roman-2e" d="M 890 755 
C 666 755 480 576 480 346 
C 480 115 666 -58 890 -58 
C 1114 -58 1293 122 1293 346 
C 1293 576 1114 755 890 755 
z
" transform="scale(0.015625)"/>
       </defs>
       <use xlink:href="#CharterBT-Roman-30"/>
       <use xlink:href="#CharterBT-Roman-2e" transform="translate(55.599991 0)"/>
       <use xlink:href="#CharterBT-Roman-30" transform="translate(83.399979 0)"/>
      </g>
     </g>
    </g>
    <g id="xtick_2">
     <g id="line2d_2">
      <g>
       <use xlink:href="#mcff18d447d" x="74.249506" y="154.494949" style="fill: #262626; stroke: #262626"/>
      </g>
     </g>
     <g id="text_2">
      <!-- 0.2 -->
      <g style="fill: #262626" transform="translate(68.134194 169.271199) scale(0.088 -0.088)">
       <defs>
        <path id="CharterBT-Roman-32" d="M 902 506 
C 2317 1632 3091 2355 3091 3162 
C 3091 3885 2586 4371 1760 4371 
C 966 4371 403 3917 403 3469 
C 403 3251 538 3110 762 3110 
C 864 3110 960 3142 1050 3206 
L 1050 3891 
C 1242 4000 1427 4045 1619 4045 
C 2150 4045 2470 3686 2470 3078 
C 2470 2240 1670 1542 269 403 
L 269 0 
L 3232 0 
L 3232 1050 
L 2944 1050 
L 2829 506 
L 902 506 
z
" transform="scale(0.015625)"/>
       </defs>
       <use xlink:href="#CharterBT-Roman-30"/>
       <use xlink:href="#CharterBT-Roman-2e" transform="translate(55.599991 0)"/>
       <use xlink:href="#CharterBT-Roman-32" transform="translate(83.399979 0)"/>
      </g>
     </g>
    </g>
    <g id="xtick_3">
     <g id="line2d_3">
      <g>
       <use xlink:href="#mcff18d447d" x="107.105987" y="154.494949" style="fill: #262626; stroke: #262626"/>
      </g>
     </g>
     <g id="text_3">
      <!-- 0.4 -->
      <g style="fill: #262626" transform="translate(100.990675 169.271199) scale(0.088 -0.088)">
       <defs>
        <path id="CharterBT-Roman-34" d="M 2355 4333 
L 173 1658 
L 173 1242 
L 2234 1242 
L 2234 -237 
L 2726 -237 
L 2726 1242 
L 3450 1242 
L 3450 1658 
L 2726 1658 
L 2726 4333 
L 2355 4333 
z
M 2234 3635 
L 2234 1658 
L 653 1658 
L 2234 3635 
z
" transform="scale(0.015625)"/>
       </defs>
       <use xlink:href="#CharterBT-Roman-30"/>
       <use xlink:href="#CharterBT-Roman-2e" transform="translate(55.599991 0)"/>
       <use xlink:href="#CharterBT-Roman-34" transform="translate(83.399979 0)"/>
      </g>
     </g>
    </g>
    <g id="xtick_4">
     <g id="line2d_4">
      <g>
       <use xlink:href="#mcff18d447d" x="139.962468" y="154.494949" style="fill: #262626; stroke: #262626"/>
      </g>
     </g>
     <g id="text_4">
      <!-- 0.6 -->
      <g style="fill: #262626" transform="translate(133.847156 169.271199) scale(0.088 -0.088)">
       <defs>
        <path id="CharterBT-Roman-36" d="M 2835 4570 
C 1267 4467 320 3411 320 1773 
C 320 621 947 -77 1811 -77 
C 2688 -77 3360 589 3360 1453 
C 3360 2266 2790 2848 2029 2848 
C 1651 2848 1274 2714 941 2458 
C 1139 3597 1792 4198 2816 4198 
L 2835 4198 
L 2835 4570 
z
M 928 2176 
C 1190 2368 1504 2464 1856 2464 
C 2400 2464 2778 2054 2778 1395 
C 2778 717 2394 230 1862 230 
C 1261 230 915 768 915 1786 
C 915 1907 915 2042 928 2176 
z
" transform="scale(0.015625)"/>
       </defs>
       <use xlink:href="#CharterBT-Roman-30"/>
       <use xlink:href="#CharterBT-Roman-2e" transform="translate(55.599991 0)"/>
       <use xlink:href="#CharterBT-Roman-36" transform="translate(83.399979 0)"/>
      </g>
     </g>
    </g>
    <g id="xtick_5">
     <g id="line2d_5">
      <g>
       <use xlink:href="#mcff18d447d" x="172.81895" y="154.494949" style="fill: #262626; stroke: #262626"/>
      </g>
     </g>
     <g id="text_5">
      <!-- 0.8 -->
      <g style="fill: #262626" transform="translate(166.703637 169.271199) scale(0.088 -0.088)">
       <defs>
        <path id="CharterBT-Roman-38" d="M 2054 2362 
C 1357 2611 1018 2899 1018 3322 
C 1018 3744 1350 4077 1792 4077 
C 2259 4077 2566 3757 2566 3245 
C 2566 2906 2387 2579 2054 2362 
z
M 2323 2246 
C 2797 2496 3059 2886 3059 3309 
C 3059 3930 2579 4384 1811 4384 
C 1018 4384 486 3904 486 3226 
C 486 2765 717 2426 1158 2240 
C 576 2016 282 1638 282 1133 
C 282 410 838 -102 1760 -102 
C 2650 -102 3238 467 3238 1146 
C 3238 1645 2925 2035 2323 2246 
z
M 1402 2106 
C 2259 1786 2688 1587 2688 1082 
C 2688 576 2330 230 1779 230 
C 1165 230 774 608 774 1171 
C 774 1600 966 1875 1402 2106 
z
" transform="scale(0.015625)"/>
       </defs>
       <use xlink:href="#CharterBT-Roman-30"/>
       <use xlink:href="#CharterBT-Roman-2e" transform="translate(55.599991 0)"/>
       <use xlink:href="#CharterBT-Roman-38" transform="translate(83.399979 0)"/>
      </g>
     </g>
    </g>
    <g id="text_6">
     <!-- animal frequency -->
     <g style="fill: #262626" transform="translate(76.54218 182.332324) scale(0.096 -0.096)">
      <defs>
       <path id="CharterBT-Roman-61" d="M 2138 371 
L 2221 0 
L 3123 0 
L 3123 230 
L 2784 262 
L 2669 365 
L 2669 2221 
C 2669 2867 2387 3142 1715 3142 
C 909 3142 422 2810 422 2419 
C 422 2266 474 2221 621 2221 
L 1062 2221 
L 1062 2758 
C 1235 2829 1389 2861 1549 2861 
C 2010 2861 2138 2650 2138 2144 
L 2138 1939 
C 858 1632 269 1440 269 774 
C 269 294 582 -45 1088 -45 
C 1395 -45 1734 96 2138 371 
z
M 2138 589 
C 1818 403 1555 301 1344 301 
C 1024 301 832 512 832 826 
C 832 1293 1235 1466 2138 1715 
L 2138 589 
z
" transform="scale(0.015625)"/>
       <path id="CharterBT-Roman-6e" d="M 192 0 
L 1594 0 
L 1594 230 
L 1286 262 
L 1178 365 
L 1178 2509 
C 1453 2650 1690 2720 1894 2720 
C 2368 2720 2541 2528 2541 2061 
L 2541 365 
L 2432 262 
L 2125 230 
L 2125 0 
L 3526 0 
L 3526 230 
L 3181 262 
L 3072 365 
L 3072 2170 
C 3072 2810 2765 3142 2208 3142 
C 1933 3142 1606 2995 1178 2758 
L 1178 3110 
L 934 3110 
L 192 2880 
L 192 2682 
L 646 2682 
L 646 365 
L 538 262 
L 192 230 
L 192 0 
z
" transform="scale(0.015625)"/>
       <path id="CharterBT-Roman-69" d="M 986 4531 
C 781 4531 614 4371 614 4160 
C 614 3955 781 3795 986 3795 
C 1190 3795 1357 3955 1357 4160 
C 1357 4365 1190 4531 986 4531 
z
M 960 3110 
L 224 2880 
L 224 2682 
L 672 2682 
L 672 365 
L 563 262 
L 224 230 
L 224 0 
L 1664 0 
L 1664 230 
L 1318 262 
L 1203 365 
L 1203 3110 
L 960 3110 
z
" transform="scale(0.015625)"/>
       <path id="CharterBT-Roman-6d" d="M 2906 2714 
C 2758 2995 2515 3142 2202 3142 
C 1933 3142 1600 3008 1178 2758 
L 1178 3110 
L 934 3110 
L 192 2880 
L 192 2682 
L 646 2682 
L 646 365 
L 538 262 
L 192 230 
L 192 0 
L 1594 0 
L 1594 230 
L 1286 262 
L 1178 365 
L 1178 2509 
C 1459 2650 1696 2720 1907 2720 
C 2291 2720 2470 2509 2470 2061 
L 2470 365 
L 2362 262 
L 2054 230 
L 2054 0 
L 3418 0 
L 3418 230 
L 3117 262 
L 3002 365 
L 3002 2509 
C 3277 2643 3520 2720 3725 2720 
C 4122 2720 4301 2509 4301 2061 
L 4301 365 
L 4186 262 
L 3885 230 
L 3885 0 
L 5280 0 
L 5280 230 
L 4941 262 
L 4832 365 
L 4832 2170 
C 4832 2803 4512 3142 4006 3142 
C 3750 3142 3386 2995 2906 2714 
z
" transform="scale(0.015625)"/>
       <path id="CharterBT-Roman-6c" d="M 179 0 
L 1677 0 
L 1677 230 
L 1312 262 
L 1197 365 
L 1197 4710 
L 954 4710 
L 173 4480 
L 173 4282 
L 666 4282 
L 666 365 
L 557 262 
L 179 230 
L 179 0 
z
" transform="scale(0.015625)"/>
       <path id="CharterBT-Roman-20" transform="scale(0.015625)"/>
       <path id="CharterBT-Roman-66" d="M 186 0 
L 1677 0 
L 1677 230 
L 1280 262 
L 1171 365 
L 1171 2694 
L 2067 2694 
L 2067 2995 
L 1178 2995 
L 1178 3462 
C 1178 4000 1318 4333 1594 4461 
L 2176 4077 
C 2342 4122 2438 4243 2438 4397 
C 2438 4602 2234 4762 1939 4762 
C 1184 4762 640 4128 640 3066 
L 640 2995 
L 230 2899 
L 230 2694 
L 640 2694 
L 640 365 
L 525 262 
L 186 230 
L 186 0 
z
" transform="scale(0.015625)"/>
       <path id="CharterBT-Roman-72" d="M 192 0 
L 1734 0 
L 1734 230 
L 1286 262 
L 1178 365 
L 1178 2195 
C 1440 2502 1664 2662 1875 2662 
C 2010 2662 2118 2611 2202 2509 
L 2406 2509 
L 2406 3059 
C 2272 3117 2150 3142 2022 3142 
C 1971 3142 1914 3142 1862 3130 
C 1632 2944 1402 2739 1178 2509 
L 1178 3110 
L 934 3110 
L 192 2880 
L 192 2682 
L 646 2682 
L 646 365 
L 531 262 
L 192 230 
L 192 0 
z
" transform="scale(0.015625)"/>
       <path id="CharterBT-Roman-65" d="M 2867 678 
C 2502 435 2182 307 1862 307 
C 1216 307 787 794 787 1613 
L 787 1683 
L 2861 1683 
C 2867 1754 2867 1818 2867 1882 
C 2867 2669 2413 3142 1715 3142 
C 858 3142 237 2483 237 1517 
C 237 576 819 -58 1664 -58 
C 2067 -58 2483 70 2867 326 
L 2867 678 
z
M 2298 1952 
L 819 1952 
C 858 2496 1222 2854 1632 2854 
C 2061 2854 2298 2573 2298 2054 
L 2298 1952 
z
" transform="scale(0.015625)"/>
       <path id="CharterBT-Roman-71" d="M 2938 3040 
C 2598 3110 2291 3149 2022 3149 
C 922 3149 237 2496 237 1472 
C 237 563 749 -19 1498 -19 
C 1766 -19 2054 58 2381 211 
L 2381 -1030 
L 2272 -1139 
L 1869 -1165 
L 1869 -1395 
L 3366 -1395 
L 3366 -1165 
L 3027 -1139 
L 2912 -1030 
L 2912 2573 
C 2912 2637 2925 2790 2938 3040 
z
M 2381 2803 
L 2381 416 
C 2125 352 1933 320 1786 320 
C 1184 320 813 762 813 1555 
C 813 2387 1235 2874 1894 2874 
C 2029 2874 2189 2848 2381 2803 
z
" transform="scale(0.015625)"/>
       <path id="CharterBT-Roman-75" d="M 909 3142 
L 166 2906 
L 166 2707 
L 621 2707 
L 621 915 
C 621 275 928 -64 1478 -64 
C 1792 -64 2131 83 2515 358 
L 2515 0 
L 3462 0 
L 3462 230 
L 3162 262 
L 3046 365 
L 3046 3142 
L 2803 3142 
L 2061 2906 
L 2061 2707 
L 2515 2707 
L 2515 538 
C 2253 410 2010 346 1773 346 
C 1344 346 1152 563 1152 1024 
L 1152 3142 
L 909 3142 
z
" transform="scale(0.015625)"/>
       <path id="CharterBT-Roman-63" d="M 2720 269 
L 2720 602 
C 2451 422 2189 333 1907 333 
C 1242 333 819 800 819 1587 
C 819 2394 1210 2886 1760 2886 
C 1869 2886 1971 2854 2067 2797 
L 2067 2272 
C 2163 2208 2259 2176 2355 2176 
C 2573 2176 2714 2310 2714 2515 
C 2714 2886 2368 3142 1754 3142 
C 858 3142 237 2496 237 1542 
C 237 595 806 -45 1677 -45 
C 2022 -45 2368 64 2720 269 
z
" transform="scale(0.015625)"/>
       <path id="CharterBT-Roman-79" d="M -6 3078 
L -6 2842 
L 384 2803 
L 1459 26 
C 1299 -429 1114 -749 941 -934 
L 326 -691 
C 218 -794 160 -909 160 -1037 
C 160 -1248 333 -1395 602 -1395 
C 1018 -1395 1325 -1043 1626 -320 
L 2906 2790 
L 3277 2842 
L 3277 3078 
L 2138 3078 
L 2138 2842 
L 2483 2816 
L 2534 2714 
L 1734 723 
L 966 2714 
L 1043 2816 
L 1382 2842 
L 1382 3078 
L -6 3078 
z
" transform="scale(0.015625)"/>
      </defs>
      <use xlink:href="#CharterBT-Roman-61"/>
      <use xlink:href="#CharterBT-Roman-6e" transform="translate(50.699997 0)"/>
      <use xlink:href="#CharterBT-Roman-69" transform="translate(107.499985 0)"/>
      <use xlink:href="#CharterBT-Roman-6d" transform="translate(135.499969 0)"/>
      <use xlink:href="#CharterBT-Roman-61" transform="translate(219.799957 0)"/>
      <use xlink:href="#CharterBT-Roman-6c" transform="translate(270.499954 0)"/>
      <use xlink:href="#CharterBT-Roman-20" transform="translate(298.699951 0)"/>
      <use xlink:href="#CharterBT-Roman-66" transform="translate(326.499939 0)"/>
      <use xlink:href="#CharterBT-Roman-72" transform="translate(358.59993 0)"/>
      <use xlink:href="#CharterBT-Roman-65" transform="translate(396.799927 0)"/>
      <use xlink:href="#CharterBT-Roman-71" transform="translate(445.899918 0)"/>
      <use xlink:href="#CharterBT-Roman-75" transform="translate(498.999908 0)"/>
      <use xlink:href="#CharterBT-Roman-65" transform="translate(555.899902 0)"/>
      <use xlink:href="#CharterBT-Roman-6e" transform="translate(604.999893 0)"/>
      <use xlink:href="#CharterBT-Roman-63" transform="translate(661.799881 0)"/>
      <use xlink:href="#CharterBT-Roman-79" transform="translate(706.399872 0)"/>
     </g>
    </g>
   </g>
   <g id="matplotlib.axis_2">
    <g id="ytick_1">
     <g id="line2d_6">
      <defs>
       <path id="m220c6b97b7" d="M 0 0 
L -4.8 0 
" style="stroke: #262626"/>
      </defs>
      <g>
       <use xlink:href="#m220c6b97b7" x="38.442" y="154.494949" style="fill: #262626; stroke: #262626"/>
      </g>
     </g>
     <g id="text_7">
      <!-- 0 -->
      <g style="fill: #262626" transform="translate(25.24975 157.733074) scale(0.088 -0.088)">
       <use xlink:href="#CharterBT-Roman-30"/>
      </g>
     </g>
    </g>
    <g id="ytick_2">
     <g id="line2d_7">
      <g>
       <use xlink:href="#m220c6b97b7" x="38.442" y="134.534782" style="fill: #262626; stroke: #262626"/>
      </g>
     </g>
     <g id="text_8">
      <!-- 2 -->
      <g style="fill: #262626" transform="translate(25.24975 137.772907) scale(0.088 -0.088)">
       <use xlink:href="#CharterBT-Roman-32"/>
      </g>
     </g>
    </g>
    <g id="ytick_3">
     <g id="line2d_8">
      <g>
       <use xlink:href="#m220c6b97b7" x="38.442" y="114.574615" style="fill: #262626; stroke: #262626"/>
      </g>
     </g>
     <g id="text_9">
      <!-- 4 -->
      <g style="fill: #262626" transform="translate(25.24975 117.81274) scale(0.088 -0.088)">
       <use xlink:href="#CharterBT-Roman-34"/>
      </g>
     </g>
    </g>
    <g id="ytick_4">
     <g id="line2d_9">
      <g>
       <use xlink:href="#m220c6b97b7" x="38.442" y="94.614447" style="fill: #262626; stroke: #262626"/>
      </g>
     </g>
     <g id="text_10">
      <!-- 6 -->
      <g style="fill: #262626" transform="translate(25.24975 97.852572) scale(0.088 -0.088)">
       <use xlink:href="#CharterBT-Roman-36"/>
      </g>
     </g>
    </g>
    <g id="ytick_5">
     <g id="line2d_10">
      <g>
       <use xlink:href="#m220c6b97b7" x="38.442" y="74.65428" style="fill: #262626; stroke: #262626"/>
      </g>
     </g>
     <g id="text_11">
      <!-- 8 -->
      <g style="fill: #262626" transform="translate(25.24975 77.892405) scale(0.088 -0.088)">
       <use xlink:href="#CharterBT-Roman-38"/>
      </g>
     </g>
    </g>
    <g id="ytick_6">
     <g id="line2d_11">
      <g>
       <use xlink:href="#m220c6b97b7" x="38.442" y="54.694113" style="fill: #262626; stroke: #262626"/>
      </g>
     </g>
     <g id="text_12">
      <!-- 10 -->
      <g style="fill: #262626" transform="translate(20.3575 57.932238) scale(0.088 -0.088)">
       <defs>
        <path id="CharterBT-Roman-31" d="M 1990 4371 
L 602 3955 
L 602 3686 
L 1606 3866 
L 1606 422 
L 1530 314 
L 794 275 
L 794 0 
L 2938 0 
L 2938 269 
L 2246 301 
L 2170 397 
L 2170 4371 
L 1990 4371 
z
" transform="scale(0.015625)"/>
       </defs>
       <use xlink:href="#CharterBT-Roman-31"/>
       <use xlink:href="#CharterBT-Roman-30" transform="translate(55.599991 0)"/>
      </g>
     </g>
    </g>
    <g id="ytick_7">
     <g id="line2d_12">
      <g>
       <use xlink:href="#m220c6b97b7" x="38.442" y="34.733945" style="fill: #262626; stroke: #262626"/>
      </g>
     </g>
     <g id="text_13">
      <!-- 12 -->
      <g style="fill: #262626" transform="translate(20.3575 37.97207) scale(0.088 -0.088)">
       <use xlink:href="#CharterBT-Roman-31"/>
       <use xlink:href="#CharterBT-Roman-32" transform="translate(55.599991 0)"/>
      </g>
     </g>
    </g>
    <g id="ytick_8">
     <g id="line2d_13">
      <g>
       <use xlink:href="#m220c6b97b7" x="38.442" y="14.773778" style="fill: #262626; stroke: #262626"/>
      </g>
     </g>
     <g id="text_14">
      <!-- 14 -->
      <g style="fill: #262626" transform="translate(20.3575 18.011903) scale(0.088 -0.088)">
       <use xlink:href="#CharterBT-Roman-31"/>
       <use xlink:href="#CharterBT-Roman-34" transform="translate(55.599991 0)"/>
      </g>
     </g>
    </g>
    <g id="text_15">
     <!-- Density -->
     <g style="fill: #262626" transform="translate(14.265 97.671939) rotate(-90) scale(0.096 -0.096)">
      <defs>
       <path id="CharterBT-Roman-44" d="M 1792 4294 
L 211 4294 
L 211 4038 
L 576 4000 
L 685 3910 
L 685 384 
L 576 294 
L 211 262 
L 211 0 
L 1792 0 
C 2432 0 2918 70 3354 397 
C 3878 794 4154 1389 4154 2150 
C 4154 3494 3309 4294 1792 4294 
z
M 1261 4000 
L 1766 4000 
C 2938 4000 3507 3398 3507 2150 
C 3507 909 2938 294 1766 294 
L 1261 294 
L 1261 4000 
z
" transform="scale(0.015625)"/>
       <path id="CharterBT-Roman-73" d="M 2202 3002 
C 1984 3098 1734 3142 1453 3142 
C 723 3142 320 2810 320 2246 
C 320 1818 602 1613 1146 1370 
C 1568 1178 1798 1062 1798 730 
C 1798 429 1568 211 1197 211 
C 1011 211 832 262 653 365 
L 576 909 
L 269 909 
L 269 77 
C 493 -6 774 -58 1101 -58 
C 1856 -58 2298 307 2298 902 
C 2298 1139 2208 1331 2054 1453 
C 1843 1626 1600 1715 1376 1824 
C 1018 1997 832 2131 832 2406 
C 832 2694 1024 2867 1363 2867 
C 1517 2867 1670 2822 1837 2733 
L 1888 2278 
L 2202 2278 
L 2202 3002 
z
" transform="scale(0.015625)"/>
       <path id="CharterBT-Roman-74" d="M 563 2694 
L 563 627 
C 563 173 698 -19 1229 -19 
C 1478 -19 1766 26 2067 122 
L 2067 358 
C 1920 326 1773 307 1626 307 
C 1178 307 1094 518 1094 1005 
L 1094 2694 
L 2067 2694 
L 2067 2995 
L 1094 2995 
L 1094 3674 
L 858 3674 
L 582 3078 
L 160 2893 
L 160 2694 
L 563 2694 
z
" transform="scale(0.015625)"/>
      </defs>
      <use xlink:href="#CharterBT-Roman-44"/>
      <use xlink:href="#CharterBT-Roman-65" transform="translate(69.299988 0)"/>
      <use xlink:href="#CharterBT-Roman-6e" transform="translate(118.399979 0)"/>
      <use xlink:href="#CharterBT-Roman-73" transform="translate(175.199966 0)"/>
      <use xlink:href="#CharterBT-Roman-69" transform="translate(215.199951 0)"/>
      <use xlink:href="#CharterBT-Roman-74" transform="translate(243.199936 0)"/>
      <use xlink:href="#CharterBT-Roman-79" transform="translate(276.59993 0)"/>
     </g>
    </g>
   </g>
   <g id="patch_3">
    <path d="M 58.77444 154.494949 
L 72.293318 154.494949 
L 72.293318 104.483109 
L 58.77444 104.483109 
z
" clip-path="url(#p561bbbc38b)" style="fill: #66c2a5; fill-opacity: 0.75; stroke: #ffffff; stroke-width: 0.8; stroke-linejoin: miter"/>
   </g>
   <g id="patch_4">
    <path d="M 72.293318 154.494949 
L 85.812197 154.494949 
L 85.812197 128.238733 
L 72.293318 128.238733 
z
" clip-path="url(#p561bbbc38b)" style="fill: #66c2a5; fill-opacity: 0.75; stroke: #ffffff; stroke-width: 0.8; stroke-linejoin: miter"/>
   </g>
   <g id="patch_5">
    <path d="M 85.812197 154.494949 
L 99.331075 154.494949 
L 99.331075 138.241101 
L 85.812197 138.241101 
z
" clip-path="url(#p561bbbc38b)" style="fill: #66c2a5; fill-opacity: 0.75; stroke: #ffffff; stroke-width: 0.8; stroke-linejoin: miter"/>
   </g>
   <g id="patch_6">
    <path d="M 99.331075 154.494949 
L 112.849953 154.494949 
L 112.849953 144.492581 
L 99.331075 144.492581 
z
" clip-path="url(#p561bbbc38b)" style="fill: #66c2a5; fill-opacity: 0.75; stroke: #ffffff; stroke-width: 0.8; stroke-linejoin: miter"/>
   </g>
   <g id="patch_7">
    <path d="M 112.849953 154.494949 
L 126.368831 154.494949 
L 126.368831 145.742877 
L 112.849953 145.742877 
z
" clip-path="url(#p561bbbc38b)" style="fill: #66c2a5; fill-opacity: 0.75; stroke: #ffffff; stroke-width: 0.8; stroke-linejoin: miter"/>
   </g>
   <g id="patch_8">
    <path d="M 126.368831 154.494949 
L 139.88771 154.494949 
L 139.88771 149.493765 
L 126.368831 149.493765 
z
" clip-path="url(#p561bbbc38b)" style="fill: #66c2a5; fill-opacity: 0.75; stroke: #ffffff; stroke-width: 0.8; stroke-linejoin: miter"/>
   </g>
   <g id="patch_9">
    <path d="M 139.88771 154.494949 
L 153.406588 154.494949 
L 153.406588 154.494949 
L 139.88771 154.494949 
z
" clip-path="url(#p561bbbc38b)" style="fill: #66c2a5; fill-opacity: 0.75; stroke: #ffffff; stroke-width: 0.8; stroke-linejoin: miter"/>
   </g>
   <g id="patch_10">
    <path d="M 153.406588 154.494949 
L 166.925466 154.494949 
L 166.925466 153.244653 
L 153.406588 153.244653 
z
" clip-path="url(#p561bbbc38b)" style="fill: #66c2a5; fill-opacity: 0.75; stroke: #ffffff; stroke-width: 0.8; stroke-linejoin: miter"/>
   </g>
   <g id="patch_11">
    <path d="M 166.925466 154.494949 
L 180.444344 154.494949 
L 180.444344 150.744061 
L 166.925466 150.744061 
z
" clip-path="url(#p561bbbc38b)" style="fill: #66c2a5; fill-opacity: 0.75; stroke: #ffffff; stroke-width: 0.8; stroke-linejoin: miter"/>
   </g>
   <g id="patch_12">
    <path d="M 45.204016 154.494949 
L 48.999641 154.494949 
L 48.999641 16.446359 
L 45.204016 16.446359 
z
" clip-path="url(#p561bbbc38b)" style="fill: #fc8d62; fill-opacity: 0.75; stroke: #ffffff; stroke-width: 0.376862; stroke-linejoin: miter"/>
   </g>
   <g id="patch_13">
    <path d="M 48.999641 154.494949 
L 52.795265 154.494949 
L 52.795265 43.165441 
L 48.999641 43.165441 
z
" clip-path="url(#p561bbbc38b)" style="fill: #fc8d62; fill-opacity: 0.75; stroke: #ffffff; stroke-width: 0.376862; stroke-linejoin: miter"/>
   </g>
   <g id="patch_14">
    <path d="M 52.795265 154.494949 
L 56.590889 154.494949 
L 56.590889 87.697244 
L 52.795265 87.697244 
z
" clip-path="url(#p561bbbc38b)" style="fill: #fc8d62; fill-opacity: 0.75; stroke: #ffffff; stroke-width: 0.376862; stroke-linejoin: miter"/>
   </g>
   <g id="patch_15">
    <path d="M 56.590889 154.494949 
L 60.386514 154.494949 
L 60.386514 118.869507 
L 56.590889 118.869507 
z
" clip-path="url(#p561bbbc38b)" style="fill: #fc8d62; fill-opacity: 0.75; stroke: #ffffff; stroke-width: 0.376862; stroke-linejoin: miter"/>
   </g>
   <g id="patch_16">
    <path d="M 60.386514 154.494949 
L 64.182138 154.494949 
L 64.182138 109.963146 
L 60.386514 109.963146 
z
" clip-path="url(#p561bbbc38b)" style="fill: #fc8d62; fill-opacity: 0.75; stroke: #ffffff; stroke-width: 0.376862; stroke-linejoin: miter"/>
   </g>
   <g id="patch_17">
    <path d="M 64.182138 154.494949 
L 67.977762 154.494949 
L 67.977762 127.775867 
L 64.182138 127.775867 
z
" clip-path="url(#p561bbbc38b)" style="fill: #fc8d62; fill-opacity: 0.75; stroke: #ffffff; stroke-width: 0.376862; stroke-linejoin: miter"/>
   </g>
   <g id="patch_18">
    <path d="M 67.977762 154.494949 
L 71.773386 154.494949 
L 71.773386 150.041769 
L 67.977762 150.041769 
z
" clip-path="url(#p561bbbc38b)" style="fill: #fc8d62; fill-opacity: 0.75; stroke: #ffffff; stroke-width: 0.376862; stroke-linejoin: miter"/>
   </g>
   <g id="patch_19">
    <path d="M 71.773386 154.494949 
L 75.569011 154.494949 
L 75.569011 150.041769 
L 71.773386 150.041769 
z
" clip-path="url(#p561bbbc38b)" style="fill: #fc8d62; fill-opacity: 0.75; stroke: #ffffff; stroke-width: 0.376862; stroke-linejoin: miter"/>
   </g>
   <g id="patch_20">
    <path d="M 38.442 154.494949 
L 38.442 9.543929 
" style="fill: none; stroke: #262626; stroke-linejoin: miter; stroke-linecap: square"/>
   </g>
   <g id="patch_21">
    <path d="M 187.206361 154.494949 
L 187.206361 9.543929 
" style="fill: none; stroke: #262626; stroke-linejoin: miter; stroke-linecap: square"/>
   </g>
   <g id="patch_22">
    <path d="M 38.442 154.494949 
L 187.206361 154.494949 
" style="fill: none; stroke: #262626; stroke-linejoin: miter; stroke-linecap: square"/>
   </g>
   <g id="patch_23">
    <path d="M 38.442 9.543929 
L 187.206361 9.543929 
" style="fill: none; stroke: #262626; stroke-linejoin: miter; stroke-linecap: square"/>
   </g>
   <g id="legend_1">
    <g id="patch_24">
     <path d="M 67.747736 42.172679 
L 181.046361 42.172679 
Q 182.806361 42.172679 182.806361 40.412679 
L 182.806361 15.703929 
Q 182.806361 13.943929 181.046361 13.943929 
L 67.747736 13.943929 
Q 65.987736 13.943929 65.987736 15.703929 
L 65.987736 40.412679 
Q 65.987736 42.172679 67.747736 42.172679 
z
" style="fill: #ffffff; opacity: 0.8; stroke: #cccccc; stroke-width: 0.8; stroke-linejoin: miter"/>
    </g>
    <g id="patch_25">
     <path d="M 69.507736 23.940179 
L 87.107736 23.940179 
L 87.107736 17.780179 
L 69.507736 17.780179 
z
" style="fill: #66c2a5; fill-opacity: 0.75; stroke: #ffffff; stroke-width: 0.8; stroke-linejoin: miter"/>
    </g>
    <g id="text_16">
     <!-- complete list -->
     <g style="fill: #262626" transform="translate(94.147736 23.940179) scale(0.088 -0.088)">
      <defs>
       <path id="CharterBT-Roman-6f" d="M 1722 3142 
C 858 3142 237 2496 237 1542 
C 237 595 864 -58 1722 -58 
C 2579 -58 3213 595 3213 1542 
C 3213 2490 2586 3142 1722 3142 
z
M 1722 2867 
C 2240 2867 2611 2368 2611 1542 
C 2611 710 2240 218 1722 218 
C 1210 218 838 717 838 1542 
C 838 2374 1203 2867 1722 2867 
z
" transform="scale(0.015625)"/>
       <path id="CharterBT-Roman-70" d="M 147 -1395 
L 1651 -1395 
L 1651 -1165 
L 1242 -1133 
L 1133 -1030 
L 1133 38 
C 1370 0 1568 -19 1728 -19 
C 2675 -19 3302 634 3302 1645 
C 3302 2541 2778 3142 2074 3142 
C 1773 3142 1472 3014 1133 2758 
L 1133 3110 
L 890 3110 
L 147 2880 
L 147 2682 
L 602 2682 
L 602 -1030 
L 493 -1133 
L 147 -1165 
L 147 -1395 
z
M 1133 371 
L 1133 2522 
C 1376 2662 1587 2739 1805 2739 
C 2362 2739 2739 2298 2739 1562 
C 2739 774 2304 269 1677 269 
C 1523 269 1344 301 1133 371 
z
" transform="scale(0.015625)"/>
      </defs>
      <use xlink:href="#CharterBT-Roman-63"/>
      <use xlink:href="#CharterBT-Roman-6f" transform="translate(44.599991 0)"/>
      <use xlink:href="#CharterBT-Roman-6d" transform="translate(98.499985 0)"/>
      <use xlink:href="#CharterBT-Roman-70" transform="translate(182.799973 0)"/>
      <use xlink:href="#CharterBT-Roman-6c" transform="translate(237.899963 0)"/>
      <use xlink:href="#CharterBT-Roman-65" transform="translate(266.09996 0)"/>
      <use xlink:href="#CharterBT-Roman-74" transform="translate(315.199951 0)"/>
      <use xlink:href="#CharterBT-Roman-65" transform="translate(348.599945 0)"/>
      <use xlink:href="#CharterBT-Roman-20" transform="translate(397.699936 0)"/>
      <use xlink:href="#CharterBT-Roman-6c" transform="translate(425.499924 0)"/>
      <use xlink:href="#CharterBT-Roman-69" transform="translate(453.699921 0)"/>
      <use xlink:href="#CharterBT-Roman-73" transform="translate(481.699905 0)"/>
      <use xlink:href="#CharterBT-Roman-74" transform="translate(521.69989 0)"/>
     </g>
    </g>
    <g id="patch_26">
     <path d="M 69.507736 36.734554 
L 87.107736 36.734554 
L 87.107736 30.574554 
L 69.507736 30.574554 
z
" style="fill: #fc8d62; fill-opacity: 0.75; stroke: #ffffff; stroke-width: 0.376862; stroke-linejoin: miter"/>
    </g>
    <g id="text_17">
     <!-- working memory (10) -->
     <g style="fill: #262626" transform="translate(94.147736 36.734554) scale(0.088 -0.088)">
      <defs>
       <path id="CharterBT-Roman-77" d="M -13 3078 
L -13 2842 
L 378 2803 
L 1229 0 
L 1626 0 
L 2490 2426 
L 3264 0 
L 3661 0 
L 4576 2790 
L 4934 2842 
L 4934 3078 
L 3802 3078 
L 3802 2842 
L 4147 2816 
L 4198 2714 
L 3546 634 
L 2790 3078 
L 2400 3078 
L 1542 634 
L 960 2714 
L 1037 2816 
L 1376 2842 
L 1376 3078 
L -13 3078 
z
" transform="scale(0.015625)"/>
       <path id="CharterBT-Roman-6b" d="M 160 0 
L 1562 0 
L 1562 230 
L 1261 262 
L 1146 365 
L 1146 1453 
L 1517 1453 
L 2381 211 
L 2381 0 
L 3379 0 
L 3379 243 
L 2970 275 
L 1843 1862 
L 2720 2790 
L 3130 2842 
L 3130 3078 
L 1914 3078 
L 1914 2842 
L 2202 2816 
L 2246 2726 
L 1267 1632 
L 1146 1632 
L 1146 4710 
L 902 4710 
L 122 4480 
L 122 4282 
L 614 4282 
L 614 365 
L 506 262 
L 160 230 
L 160 0 
z
" transform="scale(0.015625)"/>
       <path id="CharterBT-Roman-67" d="M 2362 2963 
C 2118 3085 1882 3142 1638 3142 
C 883 3142 397 2707 397 2086 
C 397 1606 698 1229 1190 1120 
C 986 877 883 678 883 512 
C 883 410 909 314 947 224 
C 512 147 256 -160 256 -570 
C 256 -1082 678 -1395 1414 -1395 
C 1901 -1395 2342 -1248 2682 -973 
C 2931 -768 3066 -493 3066 -256 
C 3066 218 2733 416 1978 531 
L 1363 627 
C 1357 698 1350 749 1350 781 
C 1350 883 1376 979 1421 1069 
L 1530 1069 
C 2272 1069 2752 1498 2752 2067 
C 2752 2291 2694 2477 2573 2662 
L 3277 2662 
L 3277 2963 
L 2362 2963 
z
M 1574 2893 
C 1946 2893 2202 2592 2202 2106 
C 2202 1626 1946 1318 1574 1318 
C 1203 1318 947 1626 947 2106 
C 947 2598 1203 2893 1574 2893 
z
M 1318 192 
L 1939 77 
C 2387 -6 2592 -77 2592 -422 
C 2592 -781 2208 -1101 1638 -1101 
C 1114 -1101 768 -806 768 -435 
C 768 -154 966 83 1318 192 
z
" transform="scale(0.015625)"/>
       <path id="CharterBT-Roman-28" d="M 2470 4595 
C 1331 4454 678 3488 678 1824 
C 678 186 1357 -781 2470 -909 
L 2470 -640 
C 1613 -493 1222 314 1222 1818 
C 1222 3354 1594 4173 2470 4326 
L 2470 4595 
z
" transform="scale(0.015625)"/>
       <path id="CharterBT-Roman-29" d="M 198 4595 
L 198 4326 
C 1075 4173 1446 3354 1446 1818 
C 1446 314 1056 -493 198 -640 
L 198 -909 
C 1312 -781 1990 186 1990 1824 
C 1990 3488 1338 4454 198 4595 
z
" transform="scale(0.015625)"/>
      </defs>
      <use xlink:href="#CharterBT-Roman-77"/>
      <use xlink:href="#CharterBT-Roman-6f" transform="translate(77.099991 0)"/>
      <use xlink:href="#CharterBT-Roman-72" transform="translate(130.999985 0)"/>
      <use xlink:href="#CharterBT-Roman-6b" transform="translate(169.199982 0)"/>
      <use xlink:href="#CharterBT-Roman-69" transform="translate(220.899979 0)"/>
      <use xlink:href="#CharterBT-Roman-6e" transform="translate(248.899963 0)"/>
      <use xlink:href="#CharterBT-Roman-67" transform="translate(305.699951 0)"/>
      <use xlink:href="#CharterBT-Roman-20" transform="translate(357.999939 0)"/>
      <use xlink:href="#CharterBT-Roman-6d" transform="translate(385.799927 0)"/>
      <use xlink:href="#CharterBT-Roman-65" transform="translate(470.099915 0)"/>
      <use xlink:href="#CharterBT-Roman-6d" transform="translate(519.199905 0)"/>
      <use xlink:href="#CharterBT-Roman-6f" transform="translate(603.499893 0)"/>
      <use xlink:href="#CharterBT-Roman-72" transform="translate(657.399887 0)"/>
      <use xlink:href="#CharterBT-Roman-79" transform="translate(695.599884 0)"/>
      <use xlink:href="#CharterBT-Roman-20" transform="translate(745.099869 0)"/>
      <use xlink:href="#CharterBT-Roman-28" transform="translate(772.899857 0)"/>
      <use xlink:href="#CharterBT-Roman-31" transform="translate(814.599854 0)"/>
      <use xlink:href="#CharterBT-Roman-30" transform="translate(870.199844 0)"/>
      <use xlink:href="#CharterBT-Roman-29" transform="translate(925.799835 0)"/>
     </g>
    </g>
   </g>
  </g>
  <g id="axes_2">
   <g id="patch_27">
    <path d="M 250.018861 154.494949 
L 398.783222 154.494949 
L 398.783222 9.543929 
L 250.018861 9.543929 
z
" style="fill: #ffffff"/>
   </g>
   <g id="matplotlib.axis_3">
    <g id="xtick_6">
     <g id="line2d_14">
      <g>
       <use xlink:href="#mcff18d447d" x="255.505025" y="154.494949" style="fill: #262626; stroke: #262626"/>
      </g>
     </g>
     <g id="text_18">
      <!-- 0 -->
      <g style="fill: #262626" transform="translate(253.0589 169.271199) scale(0.088 -0.088)">
       <use xlink:href="#CharterBT-Roman-30"/>
      </g>
     </g>
    </g>
    <g id="xtick_7">
     <g id="line2d_15">
      <g>
       <use xlink:href="#mcff18d447d" x="306.539111" y="154.494949" style="fill: #262626; stroke: #262626"/>
      </g>
     </g>
     <g id="text_19">
      <!-- 20 -->
      <g style="fill: #262626" transform="translate(301.646861 169.271199) scale(0.088 -0.088)">
       <use xlink:href="#CharterBT-Roman-32"/>
       <use xlink:href="#CharterBT-Roman-30" transform="translate(55.599991 0)"/>
      </g>
     </g>
    </g>
    <g id="xtick_8">
     <g id="line2d_16">
      <g>
       <use xlink:href="#mcff18d447d" x="357.573197" y="154.494949" style="fill: #262626; stroke: #262626"/>
      </g>
     </g>
     <g id="text_20">
      <!-- 40 -->
      <g style="fill: #262626" transform="translate(352.680947 169.271199) scale(0.088 -0.088)">
       <use xlink:href="#CharterBT-Roman-34"/>
       <use xlink:href="#CharterBT-Roman-30" transform="translate(55.599991 0)"/>
      </g>
     </g>
    </g>
    <g id="text_21">
     <!-- #animals/observation -->
     <g style="fill: #262626" transform="translate(277.907041 182.254324) scale(0.096 -0.096)">
      <defs>
       <path id="CharterBT-Roman-23" d="M 2368 4544 
L 1837 3008 
L 723 3008 
L 723 2707 
L 1734 2707 
L 1427 1773 
L 410 1773 
L 410 1472 
L 1331 1472 
L 806 -45 
L 1107 -147 
L 1638 1472 
L 2618 1472 
L 2106 -45 
L 2406 -147 
L 2944 1472 
L 4090 1472 
L 4090 1773 
L 3046 1773 
L 3360 2707 
L 4352 2707 
L 4352 3008 
L 3462 3008 
L 3962 4429 
L 3661 4538 
L 3149 3008 
L 2163 3008 
L 2669 4429 
L 2368 4544 
z
M 2067 2707 
L 3034 2707 
L 2707 1773 
L 1754 1773 
L 2067 2707 
z
" transform="scale(0.015625)"/>
       <path id="CharterBT-Roman-2f" d="M 2554 4294 
L -179 -595 
L 205 -595 
L 2944 4294 
L 2554 4294 
z
" transform="scale(0.015625)"/>
       <path id="CharterBT-Roman-62" d="M 838 4710 
L 51 4480 
L 51 4282 
L 550 4282 
L 550 0 
L 1370 0 
C 2592 0 3226 582 3226 1683 
C 3226 2554 2714 3142 1958 3142 
C 1677 3142 1389 3066 1082 2918 
L 1082 4710 
L 838 4710 
z
M 1082 294 
L 1082 2701 
C 1293 2765 1485 2803 1645 2803 
C 2285 2803 2650 2362 2650 1562 
C 2650 678 2266 288 1434 288 
C 1402 288 1280 288 1082 294 
z
" transform="scale(0.015625)"/>
       <path id="CharterBT-Roman-76" d="M -32 3078 
L -32 2842 
L 358 2803 
L 1389 0 
L 1747 0 
L 2867 2790 
L 3245 2842 
L 3245 3078 
L 2112 3078 
L 2112 2842 
L 2458 2816 
L 2509 2714 
L 1690 621 
L 941 2714 
L 1018 2816 
L 1357 2842 
L 1357 3078 
L -32 3078 
z
" transform="scale(0.015625)"/>
      </defs>
      <use xlink:href="#CharterBT-Roman-23"/>
      <use xlink:href="#CharterBT-Roman-61" transform="translate(74.499985 0)"/>
      <use xlink:href="#CharterBT-Roman-6e" transform="translate(125.199982 0)"/>
      <use xlink:href="#CharterBT-Roman-69" transform="translate(181.999969 0)"/>
      <use xlink:href="#CharterBT-Roman-6d" transform="translate(209.999954 0)"/>
      <use xlink:href="#CharterBT-Roman-61" transform="translate(294.299942 0)"/>
      <use xlink:href="#CharterBT-Roman-6c" transform="translate(344.999939 0)"/>
      <use xlink:href="#CharterBT-Roman-73" transform="translate(373.199936 0)"/>
      <use xlink:href="#CharterBT-Roman-2f" transform="translate(413.199921 0)"/>
      <use xlink:href="#CharterBT-Roman-6f" transform="translate(461.299911 0)"/>
      <use xlink:href="#CharterBT-Roman-62" transform="translate(515.199905 0)"/>
      <use xlink:href="#CharterBT-Roman-73" transform="translate(569.099899 0)"/>
      <use xlink:href="#CharterBT-Roman-65" transform="translate(609.099884 0)"/>
      <use xlink:href="#CharterBT-Roman-72" transform="translate(658.199875 0)"/>
      <use xlink:href="#CharterBT-Roman-76" transform="translate(696.399872 0)"/>
      <use xlink:href="#CharterBT-Roman-61" transform="translate(745.799866 0)"/>
      <use xlink:href="#CharterBT-Roman-74" transform="translate(796.499863 0)"/>
      <use xlink:href="#CharterBT-Roman-69" transform="translate(829.899857 0)"/>
      <use xlink:href="#CharterBT-Roman-6f" transform="translate(857.899841 0)"/>
      <use xlink:href="#CharterBT-Roman-6e" transform="translate(911.799835 0)"/>
     </g>
    </g>
   </g>
   <g id="matplotlib.axis_4">
    <g id="ytick_9">
     <g id="line2d_17">
      <g>
       <use xlink:href="#m220c6b97b7" x="250.018861" y="154.494949" style="fill: #262626; stroke: #262626"/>
      </g>
     </g>
     <g id="text_22">
      <!-- 0.00 -->
      <g style="fill: #262626" transform="translate(224.595986 157.733074) scale(0.088 -0.088)">
       <use xlink:href="#CharterBT-Roman-30"/>
       <use xlink:href="#CharterBT-Roman-2e" transform="translate(55.599991 0)"/>
       <use xlink:href="#CharterBT-Roman-30" transform="translate(83.399979 0)"/>
       <use xlink:href="#CharterBT-Roman-30" transform="translate(138.999969 0)"/>
      </g>
     </g>
    </g>
    <g id="ytick_10">
     <g id="line2d_18">
      <g>
       <use xlink:href="#m220c6b97b7" x="250.018861" y="120.034376" style="fill: #262626; stroke: #262626"/>
      </g>
     </g>
     <g id="text_23">
      <!-- 0.05 -->
      <g style="fill: #262626" transform="translate(224.595986 123.272501) scale(0.088 -0.088)">
       <defs>
        <path id="CharterBT-Roman-35" d="M 646 4294 
L 646 2182 
C 787 2208 973 2221 1210 2221 
C 2099 2221 2541 1920 2541 1261 
C 2541 666 2131 237 1530 237 
C 1389 237 1242 262 1101 314 
L 845 864 
C 781 877 730 883 691 883 
C 474 883 320 742 320 544 
C 320 237 762 -58 1421 -58 
C 2470 -58 3130 563 3130 1389 
C 3130 2118 2586 2618 1728 2618 
C 1523 2618 1293 2586 1043 2515 
L 1043 3795 
L 2938 3795 
L 2938 4294 
L 646 4294 
z
" transform="scale(0.015625)"/>
       </defs>
       <use xlink:href="#CharterBT-Roman-30"/>
       <use xlink:href="#CharterBT-Roman-2e" transform="translate(55.599991 0)"/>
       <use xlink:href="#CharterBT-Roman-30" transform="translate(83.399979 0)"/>
       <use xlink:href="#CharterBT-Roman-35" transform="translate(138.999969 0)"/>
      </g>
     </g>
    </g>
    <g id="ytick_11">
     <g id="line2d_19">
      <g>
       <use xlink:href="#m220c6b97b7" x="250.018861" y="85.573804" style="fill: #262626; stroke: #262626"/>
      </g>
     </g>
     <g id="text_24">
      <!-- 0.10 -->
      <g style="fill: #262626" transform="translate(224.595986 88.811929) scale(0.088 -0.088)">
       <use xlink:href="#CharterBT-Roman-30"/>
       <use xlink:href="#CharterBT-Roman-2e" transform="translate(55.599991 0)"/>
       <use xlink:href="#CharterBT-Roman-31" transform="translate(83.399979 0)"/>
       <use xlink:href="#CharterBT-Roman-30" transform="translate(138.999969 0)"/>
      </g>
     </g>
    </g>
    <g id="ytick_12">
     <g id="line2d_20">
      <g>
       <use xlink:href="#m220c6b97b7" x="250.018861" y="51.113231" style="fill: #262626; stroke: #262626"/>
      </g>
     </g>
     <g id="text_25">
      <!-- 0.15 -->
      <g style="fill: #262626" transform="translate(224.595986 54.351356) scale(0.088 -0.088)">
       <use xlink:href="#CharterBT-Roman-30"/>
       <use xlink:href="#CharterBT-Roman-2e" transform="translate(55.599991 0)"/>
       <use xlink:href="#CharterBT-Roman-31" transform="translate(83.399979 0)"/>
       <use xlink:href="#CharterBT-Roman-35" transform="translate(138.999969 0)"/>
      </g>
     </g>
    </g>
    <g id="ytick_13">
     <g id="line2d_21">
      <g>
       <use xlink:href="#m220c6b97b7" x="250.018861" y="16.652658" style="fill: #262626; stroke: #262626"/>
      </g>
     </g>
     <g id="text_26">
      <!-- 0.20 -->
      <g style="fill: #262626" transform="translate(224.595986 19.890783) scale(0.088 -0.088)">
       <use xlink:href="#CharterBT-Roman-30"/>
       <use xlink:href="#CharterBT-Roman-2e" transform="translate(55.599991 0)"/>
       <use xlink:href="#CharterBT-Roman-32" transform="translate(83.399979 0)"/>
       <use xlink:href="#CharterBT-Roman-30" transform="translate(138.999969 0)"/>
      </g>
     </g>
    </g>
    <g id="text_27">
     <!-- Probability -->
     <g style="fill: #262626" transform="translate(218.503486 104.748939) rotate(-90) scale(0.096 -0.096)">
      <defs>
       <path id="CharterBT-Roman-50" d="M 211 0 
L 1824 0 
L 1824 262 
L 1370 294 
L 1261 384 
L 1261 1645 
C 1459 1626 1619 1613 1741 1613 
C 2771 1613 3398 2170 3398 2989 
C 3398 3962 2848 4294 1619 4294 
L 160 4294 
L 160 4038 
L 576 4000 
L 685 3910 
L 685 384 
L 576 294 
L 211 262 
L 211 0 
z
M 1261 1952 
L 1261 3987 
C 1376 4000 1491 4000 1594 4000 
C 2413 4000 2803 3686 2803 3002 
C 2803 2298 2413 1920 1683 1920 
C 1587 1920 1446 1933 1261 1952 
z
" transform="scale(0.015625)"/>
      </defs>
      <use xlink:href="#CharterBT-Roman-50"/>
      <use xlink:href="#CharterBT-Roman-72" transform="translate(55.799988 0)"/>
      <use xlink:href="#CharterBT-Roman-6f" transform="translate(93.999985 0)"/>
      <use xlink:href="#CharterBT-Roman-62" transform="translate(147.899979 0)"/>
      <use xlink:href="#CharterBT-Roman-61" transform="translate(201.799973 0)"/>
      <use xlink:href="#CharterBT-Roman-62" transform="translate(252.499969 0)"/>
      <use xlink:href="#CharterBT-Roman-69" transform="translate(306.399963 0)"/>
      <use xlink:href="#CharterBT-Roman-6c" transform="translate(334.399948 0)"/>
      <use xlink:href="#CharterBT-Roman-69" transform="translate(362.599945 0)"/>
      <use xlink:href="#CharterBT-Roman-74" transform="translate(390.59993 0)"/>
      <use xlink:href="#CharterBT-Roman-79" transform="translate(423.999924 0)"/>
     </g>
    </g>
   </g>
   <g id="patch_28">
    <path d="M 256.780877 154.494949 
L 259.332582 154.494949 
L 259.332582 152.142692 
L 256.780877 152.142692 
z
" clip-path="url(#p2a747ce0a8)" style="fill: #66c2a5; fill-opacity: 0.75; stroke: #ffffff; stroke-width: 0.253355; stroke-linejoin: miter"/>
   </g>
   <g id="patch_29">
    <path d="M 259.332582 154.494949 
L 261.884286 154.494949 
L 261.884286 152.142692 
L 259.332582 152.142692 
z
" clip-path="url(#p2a747ce0a8)" style="fill: #66c2a5; fill-opacity: 0.75; stroke: #ffffff; stroke-width: 0.253355; stroke-linejoin: miter"/>
   </g>
   <g id="patch_30">
    <path d="M 261.884286 154.494949 
L 264.43599 154.494949 
L 264.43599 152.142692 
L 261.884286 152.142692 
z
" clip-path="url(#p2a747ce0a8)" style="fill: #66c2a5; fill-opacity: 0.75; stroke: #ffffff; stroke-width: 0.253355; stroke-linejoin: miter"/>
   </g>
   <g id="patch_31">
    <path d="M 264.43599 154.494949 
L 266.987694 154.494949 
L 266.987694 154.494949 
L 264.43599 154.494949 
z
" clip-path="url(#p2a747ce0a8)" style="fill: #66c2a5; fill-opacity: 0.75; stroke: #ffffff; stroke-width: 0.253355; stroke-linejoin: miter"/>
   </g>
   <g id="patch_32">
    <path d="M 266.987694 154.494949 
L 269.539399 154.494949 
L 269.539399 145.085919 
L 266.987694 145.085919 
z
" clip-path="url(#p2a747ce0a8)" style="fill: #66c2a5; fill-opacity: 0.75; stroke: #ffffff; stroke-width: 0.253355; stroke-linejoin: miter"/>
   </g>
   <g id="patch_33">
    <path d="M 269.539399 154.494949 
L 272.091103 154.494949 
L 272.091103 154.494949 
L 269.539399 154.494949 
z
" clip-path="url(#p2a747ce0a8)" style="fill: #66c2a5; fill-opacity: 0.75; stroke: #ffffff; stroke-width: 0.253355; stroke-linejoin: miter"/>
   </g>
   <g id="patch_34">
    <path d="M 272.091103 154.494949 
L 274.642807 154.494949 
L 274.642807 149.790434 
L 272.091103 149.790434 
z
" clip-path="url(#p2a747ce0a8)" style="fill: #66c2a5; fill-opacity: 0.75; stroke: #ffffff; stroke-width: 0.253355; stroke-linejoin: miter"/>
   </g>
   <g id="patch_35">
    <path d="M 274.642807 154.494949 
L 277.194512 154.494949 
L 277.194512 147.438177 
L 274.642807 147.438177 
z
" clip-path="url(#p2a747ce0a8)" style="fill: #66c2a5; fill-opacity: 0.75; stroke: #ffffff; stroke-width: 0.253355; stroke-linejoin: miter"/>
   </g>
   <g id="patch_36">
    <path d="M 277.194512 154.494949 
L 279.746216 154.494949 
L 279.746216 145.085919 
L 277.194512 145.085919 
z
" clip-path="url(#p2a747ce0a8)" style="fill: #66c2a5; fill-opacity: 0.75; stroke: #ffffff; stroke-width: 0.253355; stroke-linejoin: miter"/>
   </g>
   <g id="patch_37">
    <path d="M 279.746216 154.494949 
L 282.29792 154.494949 
L 282.29792 145.085919 
L 279.746216 145.085919 
z
" clip-path="url(#p2a747ce0a8)" style="fill: #66c2a5; fill-opacity: 0.75; stroke: #ffffff; stroke-width: 0.253355; stroke-linejoin: miter"/>
   </g>
   <g id="patch_38">
    <path d="M 282.29792 154.494949 
L 284.849625 154.494949 
L 284.849625 149.790434 
L 282.29792 149.790434 
z
" clip-path="url(#p2a747ce0a8)" style="fill: #66c2a5; fill-opacity: 0.75; stroke: #ffffff; stroke-width: 0.253355; stroke-linejoin: miter"/>
   </g>
   <g id="patch_39">
    <path d="M 284.849625 154.494949 
L 287.401329 154.494949 
L 287.401329 149.790434 
L 284.849625 149.790434 
z
" clip-path="url(#p2a747ce0a8)" style="fill: #66c2a5; fill-opacity: 0.75; stroke: #ffffff; stroke-width: 0.253355; stroke-linejoin: miter"/>
   </g>
   <g id="patch_40">
    <path d="M 287.401329 154.494949 
L 289.953033 154.494949 
L 289.953033 140.381404 
L 287.401329 140.381404 
z
" clip-path="url(#p2a747ce0a8)" style="fill: #66c2a5; fill-opacity: 0.75; stroke: #ffffff; stroke-width: 0.253355; stroke-linejoin: miter"/>
   </g>
   <g id="patch_41">
    <path d="M 289.953033 154.494949 
L 292.504738 154.494949 
L 292.504738 138.029146 
L 289.953033 138.029146 
z
" clip-path="url(#p2a747ce0a8)" style="fill: #66c2a5; fill-opacity: 0.75; stroke: #ffffff; stroke-width: 0.253355; stroke-linejoin: miter"/>
   </g>
   <g id="patch_42">
    <path d="M 292.504738 154.494949 
L 295.056442 154.494949 
L 295.056442 138.029146 
L 292.504738 138.029146 
z
" clip-path="url(#p2a747ce0a8)" style="fill: #66c2a5; fill-opacity: 0.75; stroke: #ffffff; stroke-width: 0.253355; stroke-linejoin: miter"/>
   </g>
   <g id="patch_43">
    <path d="M 295.056442 154.494949 
L 297.608146 154.494949 
L 297.608146 128.620116 
L 295.056442 128.620116 
z
" clip-path="url(#p2a747ce0a8)" style="fill: #66c2a5; fill-opacity: 0.75; stroke: #ffffff; stroke-width: 0.253355; stroke-linejoin: miter"/>
   </g>
   <g id="patch_44">
    <path d="M 297.608146 154.494949 
L 300.15985 154.494949 
L 300.15985 128.620116 
L 297.608146 128.620116 
z
" clip-path="url(#p2a747ce0a8)" style="fill: #66c2a5; fill-opacity: 0.75; stroke: #ffffff; stroke-width: 0.253355; stroke-linejoin: miter"/>
   </g>
   <g id="patch_45">
    <path d="M 300.15985 154.494949 
L 302.711555 154.494949 
L 302.711555 145.085919 
L 300.15985 145.085919 
z
" clip-path="url(#p2a747ce0a8)" style="fill: #66c2a5; fill-opacity: 0.75; stroke: #ffffff; stroke-width: 0.253355; stroke-linejoin: miter"/>
   </g>
   <g id="patch_46">
    <path d="M 302.711555 154.494949 
L 305.263259 154.494949 
L 305.263259 119.211086 
L 302.711555 119.211086 
z
" clip-path="url(#p2a747ce0a8)" style="fill: #66c2a5; fill-opacity: 0.75; stroke: #ffffff; stroke-width: 0.253355; stroke-linejoin: miter"/>
   </g>
   <g id="patch_47">
    <path d="M 305.263259 154.494949 
L 307.814963 154.494949 
L 307.814963 123.915601 
L 305.263259 123.915601 
z
" clip-path="url(#p2a747ce0a8)" style="fill: #66c2a5; fill-opacity: 0.75; stroke: #ffffff; stroke-width: 0.253355; stroke-linejoin: miter"/>
   </g>
   <g id="patch_48">
    <path d="M 307.814963 154.494949 
L 310.366668 154.494949 
L 310.366668 135.676889 
L 307.814963 135.676889 
z
" clip-path="url(#p2a747ce0a8)" style="fill: #66c2a5; fill-opacity: 0.75; stroke: #ffffff; stroke-width: 0.253355; stroke-linejoin: miter"/>
   </g>
   <g id="patch_49">
    <path d="M 310.366668 154.494949 
L 312.918372 154.494949 
L 312.918372 128.620116 
L 310.366668 128.620116 
z
" clip-path="url(#p2a747ce0a8)" style="fill: #66c2a5; fill-opacity: 0.75; stroke: #ffffff; stroke-width: 0.253355; stroke-linejoin: miter"/>
   </g>
   <g id="patch_50">
    <path d="M 312.918372 154.494949 
L 315.470076 154.494949 
L 315.470076 138.029146 
L 312.918372 138.029146 
z
" clip-path="url(#p2a747ce0a8)" style="fill: #66c2a5; fill-opacity: 0.75; stroke: #ffffff; stroke-width: 0.253355; stroke-linejoin: miter"/>
   </g>
   <g id="patch_51">
    <path d="M 315.470076 154.494949 
L 318.021781 154.494949 
L 318.021781 133.324631 
L 315.470076 133.324631 
z
" clip-path="url(#p2a747ce0a8)" style="fill: #66c2a5; fill-opacity: 0.75; stroke: #ffffff; stroke-width: 0.253355; stroke-linejoin: miter"/>
   </g>
   <g id="patch_52">
    <path d="M 318.021781 154.494949 
L 320.573485 154.494949 
L 320.573485 114.506571 
L 318.021781 114.506571 
z
" clip-path="url(#p2a747ce0a8)" style="fill: #66c2a5; fill-opacity: 0.75; stroke: #ffffff; stroke-width: 0.253355; stroke-linejoin: miter"/>
   </g>
   <g id="patch_53">
    <path d="M 320.573485 154.494949 
L 323.125189 154.494949 
L 323.125189 145.085919 
L 320.573485 145.085919 
z
" clip-path="url(#p2a747ce0a8)" style="fill: #66c2a5; fill-opacity: 0.75; stroke: #ffffff; stroke-width: 0.253355; stroke-linejoin: miter"/>
   </g>
   <g id="patch_54">
    <path d="M 323.125189 154.494949 
L 325.676893 154.494949 
L 325.676893 142.733662 
L 323.125189 142.733662 
z
" clip-path="url(#p2a747ce0a8)" style="fill: #66c2a5; fill-opacity: 0.75; stroke: #ffffff; stroke-width: 0.253355; stroke-linejoin: miter"/>
   </g>
   <g id="patch_55">
    <path d="M 325.676893 154.494949 
L 328.228598 154.494949 
L 328.228598 126.267859 
L 325.676893 126.267859 
z
" clip-path="url(#p2a747ce0a8)" style="fill: #66c2a5; fill-opacity: 0.75; stroke: #ffffff; stroke-width: 0.253355; stroke-linejoin: miter"/>
   </g>
   <g id="patch_56">
    <path d="M 328.228598 154.494949 
L 330.780302 154.494949 
L 330.780302 123.915601 
L 328.228598 123.915601 
z
" clip-path="url(#p2a747ce0a8)" style="fill: #66c2a5; fill-opacity: 0.75; stroke: #ffffff; stroke-width: 0.253355; stroke-linejoin: miter"/>
   </g>
   <g id="patch_57">
    <path d="M 330.780302 154.494949 
L 333.332006 154.494949 
L 333.332006 142.733662 
L 330.780302 142.733662 
z
" clip-path="url(#p2a747ce0a8)" style="fill: #66c2a5; fill-opacity: 0.75; stroke: #ffffff; stroke-width: 0.253355; stroke-linejoin: miter"/>
   </g>
   <g id="patch_58">
    <path d="M 333.332006 154.494949 
L 335.883711 154.494949 
L 335.883711 140.381404 
L 333.332006 140.381404 
z
" clip-path="url(#p2a747ce0a8)" style="fill: #66c2a5; fill-opacity: 0.75; stroke: #ffffff; stroke-width: 0.253355; stroke-linejoin: miter"/>
   </g>
   <g id="patch_59">
    <path d="M 335.883711 154.494949 
L 338.435415 154.494949 
L 338.435415 119.211086 
L 335.883711 119.211086 
z
" clip-path="url(#p2a747ce0a8)" style="fill: #66c2a5; fill-opacity: 0.75; stroke: #ffffff; stroke-width: 0.253355; stroke-linejoin: miter"/>
   </g>
   <g id="patch_60">
    <path d="M 338.435415 154.494949 
L 340.987119 154.494949 
L 340.987119 126.267859 
L 338.435415 126.267859 
z
" clip-path="url(#p2a747ce0a8)" style="fill: #66c2a5; fill-opacity: 0.75; stroke: #ffffff; stroke-width: 0.253355; stroke-linejoin: miter"/>
   </g>
   <g id="patch_61">
    <path d="M 340.987119 154.494949 
L 343.538824 154.494949 
L 343.538824 135.676889 
L 340.987119 135.676889 
z
" clip-path="url(#p2a747ce0a8)" style="fill: #66c2a5; fill-opacity: 0.75; stroke: #ffffff; stroke-width: 0.253355; stroke-linejoin: miter"/>
   </g>
   <g id="patch_62">
    <path d="M 343.538824 154.494949 
L 346.090528 154.494949 
L 346.090528 147.438177 
L 343.538824 147.438177 
z
" clip-path="url(#p2a747ce0a8)" style="fill: #66c2a5; fill-opacity: 0.75; stroke: #ffffff; stroke-width: 0.253355; stroke-linejoin: miter"/>
   </g>
   <g id="patch_63">
    <path d="M 346.090528 154.494949 
L 348.642232 154.494949 
L 348.642232 133.324631 
L 346.090528 133.324631 
z
" clip-path="url(#p2a747ce0a8)" style="fill: #66c2a5; fill-opacity: 0.75; stroke: #ffffff; stroke-width: 0.253355; stroke-linejoin: miter"/>
   </g>
   <g id="patch_64">
    <path d="M 348.642232 154.494949 
L 351.193937 154.494949 
L 351.193937 119.211086 
L 348.642232 119.211086 
z
" clip-path="url(#p2a747ce0a8)" style="fill: #66c2a5; fill-opacity: 0.75; stroke: #ffffff; stroke-width: 0.253355; stroke-linejoin: miter"/>
   </g>
   <g id="patch_65">
    <path d="M 351.193937 154.494949 
L 353.745641 154.494949 
L 353.745641 133.324631 
L 351.193937 133.324631 
z
" clip-path="url(#p2a747ce0a8)" style="fill: #66c2a5; fill-opacity: 0.75; stroke: #ffffff; stroke-width: 0.253355; stroke-linejoin: miter"/>
   </g>
   <g id="patch_66">
    <path d="M 353.745641 154.494949 
L 356.297345 154.494949 
L 356.297345 140.381404 
L 353.745641 140.381404 
z
" clip-path="url(#p2a747ce0a8)" style="fill: #66c2a5; fill-opacity: 0.75; stroke: #ffffff; stroke-width: 0.253355; stroke-linejoin: miter"/>
   </g>
   <g id="patch_67">
    <path d="M 356.297345 154.494949 
L 358.849049 154.494949 
L 358.849049 149.790434 
L 356.297345 149.790434 
z
" clip-path="url(#p2a747ce0a8)" style="fill: #66c2a5; fill-opacity: 0.75; stroke: #ffffff; stroke-width: 0.253355; stroke-linejoin: miter"/>
   </g>
   <g id="patch_68">
    <path d="M 358.849049 154.494949 
L 361.400754 154.494949 
L 361.400754 152.142692 
L 358.849049 152.142692 
z
" clip-path="url(#p2a747ce0a8)" style="fill: #66c2a5; fill-opacity: 0.75; stroke: #ffffff; stroke-width: 0.253355; stroke-linejoin: miter"/>
   </g>
   <g id="patch_69">
    <path d="M 361.400754 154.494949 
L 363.952458 154.494949 
L 363.952458 149.790434 
L 361.400754 149.790434 
z
" clip-path="url(#p2a747ce0a8)" style="fill: #66c2a5; fill-opacity: 0.75; stroke: #ffffff; stroke-width: 0.253355; stroke-linejoin: miter"/>
   </g>
   <g id="patch_70">
    <path d="M 363.952458 154.494949 
L 366.504162 154.494949 
L 366.504162 149.790434 
L 363.952458 149.790434 
z
" clip-path="url(#p2a747ce0a8)" style="fill: #66c2a5; fill-opacity: 0.75; stroke: #ffffff; stroke-width: 0.253355; stroke-linejoin: miter"/>
   </g>
   <g id="patch_71">
    <path d="M 366.504162 154.494949 
L 369.055867 154.494949 
L 369.055867 147.438177 
L 366.504162 147.438177 
z
" clip-path="url(#p2a747ce0a8)" style="fill: #66c2a5; fill-opacity: 0.75; stroke: #ffffff; stroke-width: 0.253355; stroke-linejoin: miter"/>
   </g>
   <g id="patch_72">
    <path d="M 369.055867 154.494949 
L 371.607571 154.494949 
L 371.607571 152.142692 
L 369.055867 152.142692 
z
" clip-path="url(#p2a747ce0a8)" style="fill: #66c2a5; fill-opacity: 0.75; stroke: #ffffff; stroke-width: 0.253355; stroke-linejoin: miter"/>
   </g>
   <g id="patch_73">
    <path d="M 371.607571 154.494949 
L 374.159275 154.494949 
L 374.159275 145.085919 
L 371.607571 145.085919 
z
" clip-path="url(#p2a747ce0a8)" style="fill: #66c2a5; fill-opacity: 0.75; stroke: #ffffff; stroke-width: 0.253355; stroke-linejoin: miter"/>
   </g>
   <g id="patch_74">
    <path d="M 374.159275 154.494949 
L 376.71098 154.494949 
L 376.71098 149.790434 
L 374.159275 149.790434 
z
" clip-path="url(#p2a747ce0a8)" style="fill: #66c2a5; fill-opacity: 0.75; stroke: #ffffff; stroke-width: 0.253355; stroke-linejoin: miter"/>
   </g>
   <g id="patch_75">
    <path d="M 376.71098 154.494949 
L 379.262684 154.494949 
L 379.262684 149.790434 
L 376.71098 149.790434 
z
" clip-path="url(#p2a747ce0a8)" style="fill: #66c2a5; fill-opacity: 0.75; stroke: #ffffff; stroke-width: 0.253355; stroke-linejoin: miter"/>
   </g>
   <g id="patch_76">
    <path d="M 379.262684 154.494949 
L 381.814388 154.494949 
L 381.814388 154.494949 
L 379.262684 154.494949 
z
" clip-path="url(#p2a747ce0a8)" style="fill: #66c2a5; fill-opacity: 0.75; stroke: #ffffff; stroke-width: 0.253355; stroke-linejoin: miter"/>
   </g>
   <g id="patch_77">
    <path d="M 381.814388 154.494949 
L 384.366092 154.494949 
L 384.366092 154.494949 
L 381.814388 154.494949 
z
" clip-path="url(#p2a747ce0a8)" style="fill: #66c2a5; fill-opacity: 0.75; stroke: #ffffff; stroke-width: 0.253355; stroke-linejoin: miter"/>
   </g>
   <g id="patch_78">
    <path d="M 384.366092 154.494949 
L 386.917797 154.494949 
L 386.917797 152.142692 
L 384.366092 152.142692 
z
" clip-path="url(#p2a747ce0a8)" style="fill: #66c2a5; fill-opacity: 0.75; stroke: #ffffff; stroke-width: 0.253355; stroke-linejoin: miter"/>
   </g>
   <g id="patch_79">
    <path d="M 386.917797 154.494949 
L 389.469501 154.494949 
L 389.469501 154.494949 
L 386.917797 154.494949 
z
" clip-path="url(#p2a747ce0a8)" style="fill: #66c2a5; fill-opacity: 0.75; stroke: #ffffff; stroke-width: 0.253355; stroke-linejoin: miter"/>
   </g>
   <g id="patch_80">
    <path d="M 389.469501 154.494949 
L 392.021205 154.494949 
L 392.021205 152.142692 
L 389.469501 152.142692 
z
" clip-path="url(#p2a747ce0a8)" style="fill: #66c2a5; fill-opacity: 0.75; stroke: #ffffff; stroke-width: 0.253355; stroke-linejoin: miter"/>
   </g>
   <g id="patch_81">
    <path d="M 259.332582 154.494949 
L 261.884286 154.494949 
L 261.884286 137.561218 
L 259.332582 137.561218 
z
" clip-path="url(#p2a747ce0a8)" style="fill: #fc8d62; fill-opacity: 0.75; stroke: #ffffff; stroke-width: 0.253355; stroke-linejoin: miter"/>
   </g>
   <g id="patch_82">
    <path d="M 261.884286 154.494949 
L 264.43599 154.494949 
L 264.43599 129.481164 
L 261.884286 129.481164 
z
" clip-path="url(#p2a747ce0a8)" style="fill: #fc8d62; fill-opacity: 0.75; stroke: #ffffff; stroke-width: 0.253355; stroke-linejoin: miter"/>
   </g>
   <g id="patch_83">
    <path d="M 264.43599 154.494949 
L 266.987694 154.494949 
L 266.987694 113.06318 
L 264.43599 113.06318 
z
" clip-path="url(#p2a747ce0a8)" style="fill: #fc8d62; fill-opacity: 0.75; stroke: #ffffff; stroke-width: 0.253355; stroke-linejoin: miter"/>
   </g>
   <g id="patch_84">
    <path d="M 266.987694 154.494949 
L 269.539399 154.494949 
L 269.539399 93.808583 
L 266.987694 93.808583 
z
" clip-path="url(#p2a747ce0a8)" style="fill: #fc8d62; fill-opacity: 0.75; stroke: #ffffff; stroke-width: 0.253355; stroke-linejoin: miter"/>
   </g>
   <g id="patch_85">
    <path d="M 269.539399 154.494949 
L 272.091103 154.494949 
L 272.091103 66.731804 
L 269.539399 66.731804 
z
" clip-path="url(#p2a747ce0a8)" style="fill: #fc8d62; fill-opacity: 0.75; stroke: #ffffff; stroke-width: 0.253355; stroke-linejoin: miter"/>
   </g>
   <g id="patch_86">
    <path d="M 272.091103 154.494949 
L 274.642807 154.494949 
L 274.642807 37.420117 
L 272.091103 37.420117 
z
" clip-path="url(#p2a747ce0a8)" style="fill: #fc8d62; fill-opacity: 0.75; stroke: #ffffff; stroke-width: 0.253355; stroke-linejoin: miter"/>
   </g>
   <g id="patch_87">
    <path d="M 274.642807 154.494949 
L 277.194512 154.494949 
L 277.194512 16.446359 
L 274.642807 16.446359 
z
" clip-path="url(#p2a747ce0a8)" style="fill: #fc8d62; fill-opacity: 0.75; stroke: #ffffff; stroke-width: 0.253355; stroke-linejoin: miter"/>
   </g>
   <g id="patch_88">
    <path d="M 277.194512 154.494949 
L 279.746216 154.494949 
L 279.746216 26.41749 
L 277.194512 26.41749 
z
" clip-path="url(#p2a747ce0a8)" style="fill: #fc8d62; fill-opacity: 0.75; stroke: #ffffff; stroke-width: 0.253355; stroke-linejoin: miter"/>
   </g>
   <g id="patch_89">
    <path d="M 279.746216 154.494949 
L 282.29792 154.494949 
L 282.29792 80.313172 
L 279.746216 80.313172 
z
" clip-path="url(#p2a747ce0a8)" style="fill: #fc8d62; fill-opacity: 0.75; stroke: #ffffff; stroke-width: 0.253355; stroke-linejoin: miter"/>
   </g>
   <g id="patch_90">
    <path d="M 250.018861 154.494949 
L 250.018861 9.543929 
" style="fill: none; stroke: #262626; stroke-linejoin: miter; stroke-linecap: square"/>
   </g>
   <g id="patch_91">
    <path d="M 398.783222 154.494949 
L 398.783222 9.543929 
" style="fill: none; stroke: #262626; stroke-linejoin: miter; stroke-linecap: square"/>
   </g>
   <g id="patch_92">
    <path d="M 250.018861 154.494949 
L 398.783222 154.494949 
" style="fill: none; stroke: #262626; stroke-linejoin: miter; stroke-linecap: square"/>
   </g>
   <g id="patch_93">
    <path d="M 250.018861 9.543929 
L 398.783222 9.543929 
" style="fill: none; stroke: #262626; stroke-linejoin: miter; stroke-linecap: square"/>
   </g>
  </g>
  <g id="axes_3">
   <g id="patch_94">
    <path d="M 461.595722 154.494949 
L 610.360083 154.494949 
L 610.360083 9.543929 
L 461.595722 9.543929 
z
" style="fill: #ffffff"/>
   </g>
   <g id="matplotlib.axis_5">
    <g id="xtick_9">
     <g id="line2d_22">
      <g>
       <use xlink:href="#mcff18d447d" x="468.245365" y="154.494949" style="fill: #262626; stroke: #262626"/>
      </g>
     </g>
     <g id="text_28">
      <!-- 0.00 -->
      <g style="fill: #262626" transform="translate(459.683928 169.271199) scale(0.088 -0.088)">
       <use xlink:href="#CharterBT-Roman-30"/>
       <use xlink:href="#CharterBT-Roman-2e" transform="translate(55.599991 0)"/>
       <use xlink:href="#CharterBT-Roman-30" transform="translate(83.399979 0)"/>
       <use xlink:href="#CharterBT-Roman-30" transform="translate(138.999969 0)"/>
      </g>
     </g>
    </g>
    <g id="xtick_10">
     <g id="line2d_23">
      <g>
       <use xlink:href="#mcff18d447d" x="503.21319" y="154.494949" style="fill: #262626; stroke: #262626"/>
      </g>
     </g>
     <g id="text_29">
      <!-- 0.25 -->
      <g style="fill: #262626" transform="translate(494.651752 169.271199) scale(0.088 -0.088)">
       <use xlink:href="#CharterBT-Roman-30"/>
       <use xlink:href="#CharterBT-Roman-2e" transform="translate(55.599991 0)"/>
       <use xlink:href="#CharterBT-Roman-32" transform="translate(83.399979 0)"/>
       <use xlink:href="#CharterBT-Roman-35" transform="translate(138.999969 0)"/>
      </g>
     </g>
    </g>
    <g id="xtick_11">
     <g id="line2d_24">
      <g>
       <use xlink:href="#mcff18d447d" x="538.181014" y="154.494949" style="fill: #262626; stroke: #262626"/>
      </g>
     </g>
     <g id="text_30">
      <!-- 0.50 -->
      <g style="fill: #262626" transform="translate(529.619577 169.271199) scale(0.088 -0.088)">
       <use xlink:href="#CharterBT-Roman-30"/>
       <use xlink:href="#CharterBT-Roman-2e" transform="translate(55.599991 0)"/>
       <use xlink:href="#CharterBT-Roman-35" transform="translate(83.399979 0)"/>
       <use xlink:href="#CharterBT-Roman-30" transform="translate(138.999969 0)"/>
      </g>
     </g>
    </g>
    <g id="xtick_12">
     <g id="line2d_25">
      <g>
       <use xlink:href="#mcff18d447d" x="573.148838" y="154.494949" style="fill: #262626; stroke: #262626"/>
      </g>
     </g>
     <g id="text_31">
      <!-- 0.75 -->
      <g style="fill: #262626" transform="translate(564.587401 169.271199) scale(0.088 -0.088)">
       <defs>
        <path id="CharterBT-Roman-37" d="M 454 4294 
L 454 3226 
L 755 3226 
L 858 3808 
L 2829 3808 
L 742 -237 
L 1274 -237 
L 1274 -96 
L 3398 4038 
L 3398 4294 
L 454 4294 
z
" transform="scale(0.015625)"/>
       </defs>
       <use xlink:href="#CharterBT-Roman-30"/>
       <use xlink:href="#CharterBT-Roman-2e" transform="translate(55.599991 0)"/>
       <use xlink:href="#CharterBT-Roman-37" transform="translate(83.399979 0)"/>
       <use xlink:href="#CharterBT-Roman-35" transform="translate(138.999969 0)"/>
      </g>
     </g>
    </g>
    <g id="xtick_13">
     <g id="line2d_26">
      <g>
       <use xlink:href="#mcff18d447d" x="608.116663" y="154.494949" style="fill: #262626; stroke: #262626"/>
      </g>
     </g>
     <g id="text_32">
      <!-- 1.00 -->
      <g style="fill: #262626" transform="translate(599.555225 169.271199) scale(0.088 -0.088)">
       <use xlink:href="#CharterBT-Roman-31"/>
       <use xlink:href="#CharterBT-Roman-2e" transform="translate(55.599991 0)"/>
       <use xlink:href="#CharterBT-Roman-30" transform="translate(83.399979 0)"/>
       <use xlink:href="#CharterBT-Roman-30" transform="translate(138.999969 0)"/>
      </g>
     </g>
    </g>
    <g id="text_33">
     <!-- cosine sim. (Ochiai coeff.) -->
     <g style="fill: #262626" transform="translate(481.274402 182.254324) scale(0.096 -0.096)">
      <defs>
       <path id="CharterBT-Roman-4f" d="M 2342 4403 
C 1792 4403 1312 4211 928 3840 
C 499 3424 275 2848 275 2150 
C 275 1453 499 870 934 448 
C 1306 90 1798 -102 2342 -102 
C 3085 -102 3725 269 4083 883 
C 4301 1254 4410 1677 4410 2150 
C 4410 2848 4179 3424 3750 3840 
C 3366 4211 2893 4403 2342 4403 
z
M 2342 4058 
C 3168 4058 3738 3341 3738 2150 
C 3738 960 3168 237 2342 237 
C 1510 237 941 960 941 2150 
C 941 3354 1510 4058 2342 4058 
z
" transform="scale(0.015625)"/>
       <path id="CharterBT-Roman-68" d="M 902 4710 
L 122 4480 
L 122 4282 
L 614 4282 
L 614 365 
L 506 262 
L 160 230 
L 160 0 
L 1562 0 
L 1562 230 
L 1261 262 
L 1146 365 
L 1146 2509 
C 1421 2650 1658 2720 1862 2720 
C 2336 2720 2509 2528 2509 2061 
L 2509 365 
L 2400 262 
L 2099 230 
L 2099 0 
L 3494 0 
L 3494 230 
L 3155 262 
L 3040 365 
L 3040 2170 
C 3040 2810 2739 3142 2182 3142 
C 1907 3142 1574 2995 1146 2758 
L 1146 4710 
L 902 4710 
z
" transform="scale(0.015625)"/>
      </defs>
      <use xlink:href="#CharterBT-Roman-63"/>
      <use xlink:href="#CharterBT-Roman-6f" transform="translate(44.599991 0)"/>
      <use xlink:href="#CharterBT-Roman-73" transform="translate(98.499985 0)"/>
      <use xlink:href="#CharterBT-Roman-69" transform="translate(138.499969 0)"/>
      <use xlink:href="#CharterBT-Roman-6e" transform="translate(166.499954 0)"/>
      <use xlink:href="#CharterBT-Roman-65" transform="translate(223.299942 0)"/>
      <use xlink:href="#CharterBT-Roman-20" transform="translate(272.399933 0)"/>
      <use xlink:href="#CharterBT-Roman-73" transform="translate(300.199921 0)"/>
      <use xlink:href="#CharterBT-Roman-69" transform="translate(340.199905 0)"/>
      <use xlink:href="#CharterBT-Roman-6d" transform="translate(368.19989 0)"/>
      <use xlink:href="#CharterBT-Roman-2e" transform="translate(452.499878 0)"/>
      <use xlink:href="#CharterBT-Roman-20" transform="translate(480.299866 0)"/>
      <use xlink:href="#CharterBT-Roman-28" transform="translate(508.099854 0)"/>
      <use xlink:href="#CharterBT-Roman-4f" transform="translate(549.79985 0)"/>
      <use xlink:href="#CharterBT-Roman-63" transform="translate(622.899841 0)"/>
      <use xlink:href="#CharterBT-Roman-68" transform="translate(667.499832 0)"/>
      <use xlink:href="#CharterBT-Roman-69" transform="translate(723.899826 0)"/>
      <use xlink:href="#CharterBT-Roman-61" transform="translate(751.899811 0)"/>
      <use xlink:href="#CharterBT-Roman-69" transform="translate(802.599808 0)"/>
      <use xlink:href="#CharterBT-Roman-20" transform="translate(830.599792 0)"/>
      <use xlink:href="#CharterBT-Roman-63" transform="translate(858.39978 0)"/>
      <use xlink:href="#CharterBT-Roman-6f" transform="translate(902.999771 0)"/>
      <use xlink:href="#CharterBT-Roman-65" transform="translate(956.899765 0)"/>
      <use xlink:href="#CharterBT-Roman-66" transform="translate(1005.999756 0)"/>
      <use xlink:href="#CharterBT-Roman-66" transform="translate(1038.099747 0)"/>
      <use xlink:href="#CharterBT-Roman-2e" transform="translate(1070.199738 0)"/>
      <use xlink:href="#CharterBT-Roman-29" transform="translate(1097.999725 0)"/>
     </g>
    </g>
   </g>
   <g id="matplotlib.axis_6">
    <g id="ytick_14">
     <g id="line2d_27">
      <g>
       <use xlink:href="#m220c6b97b7" x="461.595722" y="154.494949" style="fill: #262626; stroke: #262626"/>
      </g>
     </g>
     <g id="text_34">
      <!-- 0 -->
      <g style="fill: #262626" transform="translate(448.403472 157.733074) scale(0.088 -0.088)">
       <use xlink:href="#CharterBT-Roman-30"/>
      </g>
     </g>
    </g>
    <g id="ytick_15">
     <g id="line2d_28">
      <g>
       <use xlink:href="#m220c6b97b7" x="461.595722" y="125.683584" style="fill: #262626; stroke: #262626"/>
      </g>
     </g>
     <g id="text_35">
      <!-- 2 -->
      <g style="fill: #262626" transform="translate(448.403472 128.921709) scale(0.088 -0.088)">
       <use xlink:href="#CharterBT-Roman-32"/>
      </g>
     </g>
    </g>
    <g id="ytick_16">
     <g id="line2d_29">
      <g>
       <use xlink:href="#m220c6b97b7" x="461.595722" y="96.87222" style="fill: #262626; stroke: #262626"/>
      </g>
     </g>
     <g id="text_36">
      <!-- 4 -->
      <g style="fill: #262626" transform="translate(448.403472 100.110345) scale(0.088 -0.088)">
       <use xlink:href="#CharterBT-Roman-34"/>
      </g>
     </g>
    </g>
    <g id="ytick_17">
     <g id="line2d_30">
      <g>
       <use xlink:href="#m220c6b97b7" x="461.595722" y="68.060855" style="fill: #262626; stroke: #262626"/>
      </g>
     </g>
     <g id="text_37">
      <!-- 6 -->
      <g style="fill: #262626" transform="translate(448.403472 71.29898) scale(0.088 -0.088)">
       <use xlink:href="#CharterBT-Roman-36"/>
      </g>
     </g>
    </g>
    <g id="ytick_18">
     <g id="line2d_31">
      <g>
       <use xlink:href="#m220c6b97b7" x="461.595722" y="39.24949" style="fill: #262626; stroke: #262626"/>
      </g>
     </g>
     <g id="text_38">
      <!-- 8 -->
      <g style="fill: #262626" transform="translate(448.403472 42.487615) scale(0.088 -0.088)">
       <use xlink:href="#CharterBT-Roman-38"/>
      </g>
     </g>
    </g>
    <g id="ytick_19">
     <g id="line2d_32">
      <g>
       <use xlink:href="#m220c6b97b7" x="461.595722" y="10.438125" style="fill: #262626; stroke: #262626"/>
      </g>
     </g>
     <g id="text_39">
      <!-- 10 -->
      <g style="fill: #262626" transform="translate(443.511222 13.67625) scale(0.088 -0.088)">
       <use xlink:href="#CharterBT-Roman-31"/>
       <use xlink:href="#CharterBT-Roman-30" transform="translate(55.599991 0)"/>
      </g>
     </g>
    </g>
    <g id="text_40">
     <!-- Density -->
     <g style="fill: #262626" transform="translate(437.418722 97.671939) rotate(-90) scale(0.096 -0.096)">
      <use xlink:href="#CharterBT-Roman-44"/>
      <use xlink:href="#CharterBT-Roman-65" transform="translate(69.299988 0)"/>
      <use xlink:href="#CharterBT-Roman-6e" transform="translate(118.399979 0)"/>
      <use xlink:href="#CharterBT-Roman-73" transform="translate(175.199966 0)"/>
      <use xlink:href="#CharterBT-Roman-69" transform="translate(215.199951 0)"/>
      <use xlink:href="#CharterBT-Roman-74" transform="translate(243.199936 0)"/>
      <use xlink:href="#CharterBT-Roman-79" transform="translate(276.59993 0)"/>
     </g>
    </g>
   </g>
   <g id="patch_95">
    <path d="M 469.606549 154.494949 
L 476.306124 154.494949 
L 476.306124 151.394366 
L 469.606549 151.394366 
z
" clip-path="url(#p186dcb258f)" style="fill: #66c2a5; fill-opacity: 0.75; stroke: #ffffff; stroke-width: 0.67139; stroke-linejoin: miter"/>
   </g>
   <g id="patch_96">
    <path d="M 476.306124 154.494949 
L 483.0057 154.494949 
L 483.0057 142.544785 
L 476.306124 142.544785 
z
" clip-path="url(#p186dcb258f)" style="fill: #66c2a5; fill-opacity: 0.75; stroke: #ffffff; stroke-width: 0.67139; stroke-linejoin: miter"/>
   </g>
   <g id="patch_97">
    <path d="M 483.0057 154.494949 
L 489.705276 154.494949 
L 489.705276 130.853002 
L 483.0057 130.853002 
z
" clip-path="url(#p186dcb258f)" style="fill: #66c2a5; fill-opacity: 0.75; stroke: #ffffff; stroke-width: 0.67139; stroke-linejoin: miter"/>
   </g>
   <g id="patch_98">
    <path d="M 489.705276 154.494949 
L 496.404852 154.494949 
L 496.404852 115.156299 
L 489.705276 115.156299 
z
" clip-path="url(#p186dcb258f)" style="fill: #66c2a5; fill-opacity: 0.75; stroke: #ffffff; stroke-width: 0.67139; stroke-linejoin: miter"/>
   </g>
   <g id="patch_99">
    <path d="M 496.404852 154.494949 
L 503.104428 154.494949 
L 503.104428 108.632155 
L 496.404852 108.632155 
z
" clip-path="url(#p186dcb258f)" style="fill: #66c2a5; fill-opacity: 0.75; stroke: #ffffff; stroke-width: 0.67139; stroke-linejoin: miter"/>
   </g>
   <g id="patch_100">
    <path d="M 503.104428 154.494949 
L 509.804004 154.494949 
L 509.804004 106.758886 
L 503.104428 106.758886 
z
" clip-path="url(#p186dcb258f)" style="fill: #66c2a5; fill-opacity: 0.75; stroke: #ffffff; stroke-width: 0.67139; stroke-linejoin: miter"/>
   </g>
   <g id="patch_101">
    <path d="M 509.804004 154.494949 
L 516.50358 154.494949 
L 516.50358 108.373773 
L 509.804004 108.373773 
z
" clip-path="url(#p186dcb258f)" style="fill: #66c2a5; fill-opacity: 0.75; stroke: #ffffff; stroke-width: 0.67139; stroke-linejoin: miter"/>
   </g>
   <g id="patch_102">
    <path d="M 516.50358 154.494949 
L 523.203156 154.494949 
L 523.203156 122.132612 
L 516.50358 122.132612 
z
" clip-path="url(#p186dcb258f)" style="fill: #66c2a5; fill-opacity: 0.75; stroke: #ffffff; stroke-width: 0.67139; stroke-linejoin: miter"/>
   </g>
   <g id="patch_103">
    <path d="M 523.203156 154.494949 
L 529.902732 154.494949 
L 529.902732 134.728731 
L 523.203156 134.728731 
z
" clip-path="url(#p186dcb258f)" style="fill: #66c2a5; fill-opacity: 0.75; stroke: #ffffff; stroke-width: 0.67139; stroke-linejoin: miter"/>
   </g>
   <g id="patch_104">
    <path d="M 529.902732 154.494949 
L 536.602307 154.494949 
L 536.602307 142.092616 
L 529.902732 142.092616 
z
" clip-path="url(#p186dcb258f)" style="fill: #66c2a5; fill-opacity: 0.75; stroke: #ffffff; stroke-width: 0.67139; stroke-linejoin: miter"/>
   </g>
   <g id="patch_105">
    <path d="M 536.602307 154.494949 
L 543.301883 154.494949 
L 543.301883 147.647828 
L 536.602307 147.647828 
z
" clip-path="url(#p186dcb258f)" style="fill: #66c2a5; fill-opacity: 0.75; stroke: #ffffff; stroke-width: 0.67139; stroke-linejoin: miter"/>
   </g>
   <g id="patch_106">
    <path d="M 543.301883 154.494949 
L 550.001459 154.494949 
L 550.001459 149.262715 
L 543.301883 149.262715 
z
" clip-path="url(#p186dcb258f)" style="fill: #66c2a5; fill-opacity: 0.75; stroke: #ffffff; stroke-width: 0.67139; stroke-linejoin: miter"/>
   </g>
   <g id="patch_107">
    <path d="M 550.001459 154.494949 
L 556.701035 154.494949 
L 556.701035 152.040321 
L 550.001459 152.040321 
z
" clip-path="url(#p186dcb258f)" style="fill: #66c2a5; fill-opacity: 0.75; stroke: #ffffff; stroke-width: 0.67139; stroke-linejoin: miter"/>
   </g>
   <g id="patch_108">
    <path d="M 556.701035 154.494949 
L 563.400611 154.494949 
L 563.400611 152.815467 
L 556.701035 152.815467 
z
" clip-path="url(#p186dcb258f)" style="fill: #66c2a5; fill-opacity: 0.75; stroke: #ffffff; stroke-width: 0.67139; stroke-linejoin: miter"/>
   </g>
   <g id="patch_109">
    <path d="M 563.400611 154.494949 
L 570.100187 154.494949 
L 570.100187 153.33223 
L 563.400611 153.33223 
z
" clip-path="url(#p186dcb258f)" style="fill: #66c2a5; fill-opacity: 0.75; stroke: #ffffff; stroke-width: 0.67139; stroke-linejoin: miter"/>
   </g>
   <g id="patch_110">
    <path d="M 570.100187 154.494949 
L 576.799763 154.494949 
L 576.799763 153.91359 
L 570.100187 153.91359 
z
" clip-path="url(#p186dcb258f)" style="fill: #66c2a5; fill-opacity: 0.75; stroke: #ffffff; stroke-width: 0.67139; stroke-linejoin: miter"/>
   </g>
   <g id="patch_111">
    <path d="M 576.799763 154.494949 
L 583.499339 154.494949 
L 583.499339 154.236567 
L 576.799763 154.236567 
z
" clip-path="url(#p186dcb258f)" style="fill: #66c2a5; fill-opacity: 0.75; stroke: #ffffff; stroke-width: 0.67139; stroke-linejoin: miter"/>
   </g>
   <g id="patch_112">
    <path d="M 583.499339 154.494949 
L 590.198914 154.494949 
L 590.198914 154.494949 
L 583.499339 154.494949 
z
" clip-path="url(#p186dcb258f)" style="fill: #66c2a5; fill-opacity: 0.75; stroke: #ffffff; stroke-width: 0.67139; stroke-linejoin: miter"/>
   </g>
   <g id="patch_113">
    <path d="M 590.198914 154.494949 
L 596.89849 154.494949 
L 596.89849 154.301163 
L 590.198914 154.301163 
z
" clip-path="url(#p186dcb258f)" style="fill: #66c2a5; fill-opacity: 0.75; stroke: #ffffff; stroke-width: 0.67139; stroke-linejoin: miter"/>
   </g>
   <g id="patch_114">
    <path d="M 596.89849 154.494949 
L 603.598066 154.494949 
L 603.598066 154.430354 
L 596.89849 154.430354 
z
" clip-path="url(#p186dcb258f)" style="fill: #66c2a5; fill-opacity: 0.75; stroke: #ffffff; stroke-width: 0.67139; stroke-linejoin: miter"/>
   </g>
   <g id="patch_115">
    <path d="M 468.357738 154.494949 
L 473.812386 154.494949 
L 473.812386 22.714082 
L 468.357738 22.714082 
z
" clip-path="url(#p186dcb258f)" style="fill: #fc8d62; fill-opacity: 0.75; stroke: #ffffff; stroke-width: 0.541584; stroke-linejoin: miter"/>
   </g>
   <g id="patch_116">
    <path d="M 473.812386 154.494949 
L 479.267034 154.494949 
L 479.267034 16.446359 
L 473.812386 16.446359 
z
" clip-path="url(#p186dcb258f)" style="fill: #fc8d62; fill-opacity: 0.75; stroke: #ffffff; stroke-width: 0.541584; stroke-linejoin: miter"/>
   </g>
   <g id="patch_117">
    <path d="M 479.267034 154.494949 
L 484.721683 154.494949 
L 484.721683 93.483819 
L 479.267034 93.483819 
z
" clip-path="url(#p186dcb258f)" style="fill: #fc8d62; fill-opacity: 0.75; stroke: #ffffff; stroke-width: 0.541584; stroke-linejoin: miter"/>
   </g>
   <g id="patch_118">
    <path d="M 484.721683 154.494949 
L 490.176331 154.494949 
L 490.176331 134.977735 
L 484.721683 134.977735 
z
" clip-path="url(#p186dcb258f)" style="fill: #fc8d62; fill-opacity: 0.75; stroke: #ffffff; stroke-width: 0.541584; stroke-linejoin: miter"/>
   </g>
   <g id="patch_119">
    <path d="M 490.176331 154.494949 
L 495.630979 154.494949 
L 495.630979 147.11649 
L 490.176331 147.11649 
z
" clip-path="url(#p186dcb258f)" style="fill: #fc8d62; fill-opacity: 0.75; stroke: #ffffff; stroke-width: 0.541584; stroke-linejoin: miter"/>
   </g>
   <g id="patch_120">
    <path d="M 495.630979 154.494949 
L 501.085627 154.494949 
L 501.085627 150.448697 
L 495.630979 150.448697 
z
" clip-path="url(#p186dcb258f)" style="fill: #fc8d62; fill-opacity: 0.75; stroke: #ffffff; stroke-width: 0.541584; stroke-linejoin: miter"/>
   </g>
   <g id="patch_121">
    <path d="M 501.085627 154.494949 
L 506.540275 154.494949 
L 506.540275 151.956125 
L 501.085627 151.956125 
z
" clip-path="url(#p186dcb258f)" style="fill: #fc8d62; fill-opacity: 0.75; stroke: #ffffff; stroke-width: 0.541584; stroke-linejoin: miter"/>
   </g>
   <g id="patch_122">
    <path d="M 506.540275 154.494949 
L 511.994923 154.494949 
L 511.994923 153.780905 
L 506.540275 153.780905 
z
" clip-path="url(#p186dcb258f)" style="fill: #fc8d62; fill-opacity: 0.75; stroke: #ffffff; stroke-width: 0.541584; stroke-linejoin: miter"/>
   </g>
   <g id="patch_123">
    <path d="M 511.994923 154.494949 
L 517.449571 154.494949 
L 517.449571 153.860243 
L 511.994923 153.860243 
z
" clip-path="url(#p186dcb258f)" style="fill: #fc8d62; fill-opacity: 0.75; stroke: #ffffff; stroke-width: 0.541584; stroke-linejoin: miter"/>
   </g>
   <g id="patch_124">
    <path d="M 517.449571 154.494949 
L 522.904219 154.494949 
L 522.904219 153.304875 
L 517.449571 153.304875 
z
" clip-path="url(#p186dcb258f)" style="fill: #fc8d62; fill-opacity: 0.75; stroke: #ffffff; stroke-width: 0.541584; stroke-linejoin: miter"/>
   </g>
   <g id="patch_125">
    <path d="M 522.904219 154.494949 
L 528.358868 154.494949 
L 528.358868 153.622228 
L 522.904219 153.622228 
z
" clip-path="url(#p186dcb258f)" style="fill: #fc8d62; fill-opacity: 0.75; stroke: #ffffff; stroke-width: 0.541584; stroke-linejoin: miter"/>
   </g>
   <g id="patch_126">
    <path d="M 528.358868 154.494949 
L 533.813516 154.494949 
L 533.813516 154.098258 
L 528.358868 154.098258 
z
" clip-path="url(#p186dcb258f)" style="fill: #fc8d62; fill-opacity: 0.75; stroke: #ffffff; stroke-width: 0.541584; stroke-linejoin: miter"/>
   </g>
   <g id="patch_127">
    <path d="M 533.813516 154.494949 
L 539.268164 154.494949 
L 539.268164 154.256934 
L 533.813516 154.256934 
z
" clip-path="url(#p186dcb258f)" style="fill: #fc8d62; fill-opacity: 0.75; stroke: #ffffff; stroke-width: 0.541584; stroke-linejoin: miter"/>
   </g>
   <g id="patch_128">
    <path d="M 539.268164 154.494949 
L 544.722812 154.494949 
L 544.722812 154.098258 
L 539.268164 154.098258 
z
" clip-path="url(#p186dcb258f)" style="fill: #fc8d62; fill-opacity: 0.75; stroke: #ffffff; stroke-width: 0.541584; stroke-linejoin: miter"/>
   </g>
   <g id="patch_129">
    <path d="M 544.722812 154.494949 
L 550.17746 154.494949 
L 550.17746 154.336273 
L 544.722812 154.336273 
z
" clip-path="url(#p186dcb258f)" style="fill: #fc8d62; fill-opacity: 0.75; stroke: #ffffff; stroke-width: 0.541584; stroke-linejoin: miter"/>
   </g>
   <g id="patch_130">
    <path d="M 550.17746 154.494949 
L 555.632108 154.494949 
L 555.632108 154.336273 
L 550.17746 154.336273 
z
" clip-path="url(#p186dcb258f)" style="fill: #fc8d62; fill-opacity: 0.75; stroke: #ffffff; stroke-width: 0.541584; stroke-linejoin: miter"/>
   </g>
   <g id="patch_131">
    <path d="M 555.632108 154.494949 
L 561.086756 154.494949 
L 561.086756 154.494949 
L 555.632108 154.494949 
z
" clip-path="url(#p186dcb258f)" style="fill: #fc8d62; fill-opacity: 0.75; stroke: #ffffff; stroke-width: 0.541584; stroke-linejoin: miter"/>
   </g>
   <g id="patch_132">
    <path d="M 561.086756 154.494949 
L 566.541405 154.494949 
L 566.541405 154.415611 
L 561.086756 154.415611 
z
" clip-path="url(#p186dcb258f)" style="fill: #fc8d62; fill-opacity: 0.75; stroke: #ffffff; stroke-width: 0.541584; stroke-linejoin: miter"/>
   </g>
   <g id="patch_133">
    <path d="M 566.541405 154.494949 
L 571.996053 154.494949 
L 571.996053 154.415611 
L 566.541405 154.415611 
z
" clip-path="url(#p186dcb258f)" style="fill: #fc8d62; fill-opacity: 0.75; stroke: #ffffff; stroke-width: 0.541584; stroke-linejoin: miter"/>
   </g>
   <g id="patch_134">
    <path d="M 571.996053 154.494949 
L 577.450701 154.494949 
L 577.450701 154.336273 
L 571.996053 154.336273 
z
" clip-path="url(#p186dcb258f)" style="fill: #fc8d62; fill-opacity: 0.75; stroke: #ffffff; stroke-width: 0.541584; stroke-linejoin: miter"/>
   </g>
   <g id="patch_135">
    <path d="M 461.595722 154.494949 
L 461.595722 9.543929 
" style="fill: none; stroke: #262626; stroke-linejoin: miter; stroke-linecap: square"/>
   </g>
   <g id="patch_136">
    <path d="M 610.360083 154.494949 
L 610.360083 9.543929 
" style="fill: none; stroke: #262626; stroke-linejoin: miter; stroke-linecap: square"/>
   </g>
   <g id="patch_137">
    <path d="M 461.595722 154.494949 
L 610.360083 154.494949 
" style="fill: none; stroke: #262626; stroke-linejoin: miter; stroke-linecap: square"/>
   </g>
   <g id="patch_138">
    <path d="M 461.595722 9.543929 
L 610.360083 9.543929 
" style="fill: none; stroke: #262626; stroke-linejoin: miter; stroke-linecap: square"/>
   </g>
  </g>
 </g>
 <defs>
  <clipPath id="p561bbbc38b">
   <rect x="38.442" y="9.543929" width="148.764361" height="144.95102"/>
  </clipPath>
  <clipPath id="p2a747ce0a8">
   <rect x="250.018861" y="9.543929" width="148.764361" height="144.95102"/>
  </clipPath>
  <clipPath id="p186dcb258f">
   <rect x="461.595722" y="9.543929" width="148.764361" height="144.95102"/>
  </clipPath>
 </defs>
</svg>
