<?xml version="1.0" encoding="utf-8" standalone="no"?>
<!DOCTYPE svg PUBLIC "-//W3C//DTD SVG 1.1//EN"
  "http://www.w3.org/Graphics/SVG/1.1/DTD/svg11.dtd">
<svg xmlns:xlink="http://www.w3.org/1999/xlink" width="183.840953pt" height="291.6pt" viewBox="0 0 183.840953 291.6" xmlns="http://www.w3.org/2000/svg" version="1.1">
 <metadata>
  <rdf:RDF xmlns:dc="http://purl.org/dc/elements/1.1/" xmlns:cc="http://creativecommons.org/ns#" xmlns:rdf="http://www.w3.org/1999/02/22-rdf-syntax-ns#">
   <cc:Work>
    <dc:type rdf:resource="http://purl.org/dc/dcmitype/StillImage"/>
    <dc:date>2025-04-08T00:09:57.390822</dc:date>
    <dc:format>image/svg+xml</dc:format>
    <dc:creator>
     <cc:Agent>
      <dc:title>Matplotlib v3.10.1, https://matplotlib.org/</dc:title>
     </cc:Agent>
    </dc:creator>
   </cc:Work>
  </rdf:RDF>
 </metadata>
 <defs>
  <style type="text/css">*{stroke-linejoin: round; stroke-linecap: butt}</style>
 </defs>
 <g id="figure_1">
  <g id="patch_1">
   <path d="M 0 291.6 
L 183.840953 291.6 
L 183.840953 0 
L 0 0 
z
" style="fill: #ffffff"/>
  </g>
  <g id="axes_1">
   <g id="patch_2">
    <path d="M 116.243265 158.025764 
Q 102.82893 176.458354 89.414596 194.890944 
" clip-path="url(#p5682ef30dc)" style="fill: none; stroke: #000000; stroke-width: 3; stroke-linecap: round"/>
   </g>
   <g id="patch_3">
    <path d="M 114.939774 145.191015 
Q 98.638554 130.329141 82.337333 115.467267 
" clip-path="url(#p5682ef30dc)" style="fill: none; stroke: #000000; stroke-width: 3; stroke-linecap: round"/>
   </g>
   <g id="patch_4">
    <path d="M 119.245537 159.428754 
Q 114.643788 177.908011 110.04204 196.387268 
" clip-path="url(#p5682ef30dc)" style="fill: none; stroke: #000000; stroke-width: 3; stroke-linecap: round"/>
   </g>
   <g id="patch_5">
    <path d="M 76.522004 37.630947 
Q 56.267416 43.911108 36.012829 50.191269 
" clip-path="url(#p5682ef30dc)" style="fill: none; stroke: #000000; stroke-width: 3; stroke-linecap: round"/>
   </g>
   <g id="patch_6">
    <path d="M 76.816664 31.687887 
Q 66.770995 27.432366 56.725327 23.176845 
" clip-path="url(#p5682ef30dc)" style="fill: none; stroke: #000000; stroke-width: 3; stroke-linecap: round"/>
   </g>
   <g id="patch_7">
    <path d="M 83.771367 43.663528 
Q 80.364143 72.349168 76.956918 101.034808 
" clip-path="url(#p5682ef30dc)" style="fill: none; stroke: #000000; stroke-width: 3; stroke-linecap: round"/>
   </g>
   <g id="patch_8">
    <path d="M 82.400076 268.179126 
Q 70.353319 262.636515 58.306562 257.093904 
" clip-path="url(#p5682ef30dc)" style="fill: none; stroke: #000000; stroke-width: 3; stroke-linecap: round"/>
   </g>
   <g id="patch_9">
    <path d="M 89.535222 263.168215 
Q 87.294488 236.844354 85.053754 210.520494 
" clip-path="url(#p5682ef30dc)" style="fill: none; stroke: #000000; stroke-width: 3; stroke-linecap: round"/>
   </g>
   <g id="patch_10">
    <path d="M 92.478844 263.427849 
Q 99.109889 238.294563 105.740935 213.161277 
" clip-path="url(#p5682ef30dc)" style="fill: none; stroke: #000000; stroke-width: 3; stroke-linecap: round"/>
   </g>
   <g id="patch_11">
    <path d="M 148.474799 236.403949 
Q 120.209028 221.198753 91.943258 205.993557 
" clip-path="url(#p5682ef30dc)" style="fill: none; stroke: #000000; stroke-width: 3; stroke-linecap: round"/>
   </g>
   <g id="patch_12">
    <path d="M 149.145966 235.347185 
Q 132.026473 222.648938 114.906979 209.950691 
" clip-path="url(#p5682ef30dc)" style="fill: none; stroke: #000000; stroke-width: 3; stroke-linecap: round"/>
   </g>
   <g id="patch_13">
    <path d="M 83.535667 193.268198 
Q 80.127612 155.761904 76.719557 118.25561 
" clip-path="url(#p5682ef30dc)" style="fill: none; stroke: #000000; stroke-width: 3; stroke-linecap: round"/>
   </g>
   <g id="patch_14">
    <path d="M 79.564904 209.130147 
Q 67.378654 227.681679 55.192404 246.23321 
" clip-path="url(#p5682ef30dc)" style="fill: none; stroke: #000000; stroke-width: 3; stroke-linecap: round"/>
   </g>
   <g id="patch_15">
    <path d="M 92.912389 202.946105 
Q 96.133851 203.341145 99.355314 203.736185 
" clip-path="url(#p5682ef30dc)" style="fill: none; stroke: #000000; stroke-width: 9; stroke-linecap: round"/>
   </g>
   <g id="patch_16">
    <path d="M 70.337731 103.02511 
Q 51.836982 81.193836 33.336233 59.362562 
" clip-path="url(#p5682ef30dc)" style="fill: none; stroke: #000000; stroke-width: 3; stroke-linecap: round"/>
   </g>
   <g id="patch_17">
    <path d="M 73.42821 101.343708 
Q 62.345167 64.716478 51.262125 28.089248 
" clip-path="url(#p5682ef30dc)" style="fill: none; stroke: #000000; stroke-width: 3; stroke-linecap: round"/>
   </g>
   <g id="patch_18">
    <path d="M 78.697797 117.840712 
Q 91.943125 157.211781 105.188454 196.58285 
" clip-path="url(#p5682ef30dc)" style="fill: none; stroke: #000000; stroke-width: 3; stroke-linecap: round"/>
   </g>
   <g id="patch_19">
    <path d="M 57.046574 247.877938 
Q 79.193906 229.130878 101.341238 210.383819 
" clip-path="url(#p5682ef30dc)" style="fill: none; stroke: #000000; stroke-width: 3; stroke-linecap: round"/>
   </g>
   <g id="patch_20">
    <path d="M 32.39446 45.455032 
Q 38.246667 36.277533 44.098874 27.100034 
" clip-path="url(#p5682ef30dc)" style="fill: none; stroke: #000000; stroke-width: 3; stroke-linecap: round"/>
   </g>
   <g id="PathCollection_1">
    <defs>
     <path id="mfd169cb36f" d="M 0 8.660254 
C 2.296726 8.660254 4.499694 7.747755 6.123724 6.123724 
C 7.747755 4.499694 8.660254 2.296726 8.660254 0 
C 8.660254 -2.296726 7.747755 -4.499694 6.123724 -6.123724 
C 4.499694 -7.747755 2.296726 -8.660254 0 -8.660254 
C -2.296726 -8.660254 -4.499694 -7.747755 -6.123724 -6.123724 
C -7.747755 -4.499694 -8.660254 -2.296726 -8.660254 0 
C -8.660254 2.296726 -7.747755 4.499694 -6.123724 6.123724 
C -4.499694 7.747755 -2.296726 8.660254 0 8.660254 
z
" style="stroke: #666666"/>
    </defs>
    <g clip-path="url(#p5682ef30dc)">
     <use xlink:href="#mfd169cb36f" x="121.338354" y="151.02462" style="fill: #c8c8c8; stroke: #666666"/>
     <use xlink:href="#mfd169cb36f" x="84.792495" y="35.066589" style="fill: #c8c8c8; stroke: #666666"/>
     <use xlink:href="#mfd169cb36f" x="90.269976" y="271.8" style="fill: #c8c8c8; stroke: #666666"/>
     <use xlink:href="#mfd169cb36f" x="156.102655" y="240.507253" style="fill: #c8c8c8; stroke: #666666"/>
     <use xlink:href="#mfd169cb36f" x="84.319311" y="201.892356" style="fill: #c8c8c8; stroke: #666666"/>
     <use xlink:href="#mfd169cb36f" x="75.935875" y="109.631038" style="fill: #c8c8c8; stroke: #666666"/>
     <use xlink:href="#mfd169cb36f" x="50.436664" y="253.473031" style="fill: #c8c8c8; stroke: #666666"/>
     <use xlink:href="#mfd169cb36f" x="107.949553" y="204.790076" style="fill: #c8c8c8; stroke: #666666"/>
     <use xlink:href="#mfd169cb36f" x="27.738297" y="52.75688" style="fill: #c8c8c8; stroke: #666666"/>
     <use xlink:href="#mfd169cb36f" x="48.75388" y="19.8" style="fill: #c8c8c8; stroke: #666666"/>
    </g>
   </g>
   <g id="text_1">
    <g clip-path="url(#p5682ef30dc)">
     <!-- A -->
     <g style="fill: #4c4c4c" transform="translate(118.734604 153.10462) scale(0.08 -0.08)">
      <defs>
       <path id="CharterBT-Bold-41" d="M 1760 4339 
L 314 371 
L -70 314 
L -70 0 
L 1306 0 
L 1306 314 
L 902 358 
L 838 442 
L 1222 1523 
L 2618 1523 
L 3002 435 
L 2957 352 
L 2554 314 
L 2554 0 
L 4282 0 
L 4282 314 
L 3904 378 
L 2432 4339 
L 1760 4339 
z
M 1901 3462 
L 2470 1882 
L 1344 1882 
L 1901 3462 
z
" transform="scale(0.015625)"/>
      </defs>
      <use xlink:href="#CharterBT-Bold-41"/>
     </g>
    </g>
   </g>
   <g id="text_2">
    <g clip-path="url(#p5682ef30dc)">
     <!-- B -->
     <g style="fill: #4c4c4c" transform="translate(82.28062 37.146589) scale(0.08 -0.08)">
      <defs>
       <path id="CharterBT-Bold-42" d="M 186 4294 
L 186 3981 
L 563 3949 
L 666 3859 
L 666 448 
L 563 346 
L 186 314 
L 186 0 
L 2163 0 
C 3213 0 3776 448 3776 1254 
C 3776 1882 3360 2272 2611 2285 
C 3219 2445 3526 2790 3526 3290 
C 3526 3955 3053 4294 2106 4294 
L 186 4294 
z
M 1498 2387 
L 1498 3936 
C 1587 3942 1670 3949 1754 3949 
C 2355 3949 2643 3712 2643 3213 
C 2643 2637 2336 2381 1670 2381 
C 1613 2381 1555 2381 1498 2387 
z
M 1498 365 
L 1498 2016 
C 1677 2029 1818 2029 1920 2029 
C 2560 2029 2880 1760 2880 1216 
C 2880 602 2547 352 1805 352 
C 1709 352 1606 358 1498 365 
z
" transform="scale(0.015625)"/>
      </defs>
      <use xlink:href="#CharterBT-Bold-42"/>
     </g>
    </g>
   </g>
   <g id="text_3">
    <g clip-path="url(#p5682ef30dc)">
     <!-- C -->
     <g style="fill: #4c4c4c" transform="translate(87.718101 273.88) scale(0.08 -0.08)">
      <defs>
       <path id="CharterBT-Bold-43" d="M 3846 154 
L 3846 1254 
L 3386 1254 
L 3226 480 
L 3130 384 
C 2976 346 2848 326 2739 326 
C 1786 326 1203 1005 1203 2150 
C 1203 3283 1779 3955 2656 3955 
C 2822 3955 2989 3923 3162 3859 
L 3251 3750 
L 3373 3066 
L 3846 3066 
L 3846 4134 
C 3418 4288 2982 4371 2541 4371 
C 1875 4371 1331 4173 928 3782 
C 493 3366 262 2797 262 2144 
C 262 1325 659 608 1325 211 
C 1638 26 2042 -77 2502 -77 
C 2970 -77 3418 0 3846 154 
z
" transform="scale(0.015625)"/>
      </defs>
      <use xlink:href="#CharterBT-Bold-43"/>
     </g>
    </g>
   </g>
   <g id="text_4">
    <g clip-path="url(#p5682ef30dc)">
     <!-- D -->
     <g style="fill: #4c4c4c" transform="translate(153.238905 242.587253) scale(0.08 -0.08)">
      <defs>
       <path id="CharterBT-Bold-44" d="M 2054 4294 
L 186 4294 
L 186 3981 
L 576 3949 
L 678 3846 
L 678 448 
L 576 346 
L 186 314 
L 186 0 
L 2054 0 
C 2694 0 3174 96 3571 403 
C 4090 800 4358 1389 4358 2144 
C 4358 3488 3539 4294 2054 4294 
z
M 1523 3936 
L 1894 3936 
C 2912 3936 3405 3354 3405 2150 
C 3405 947 2912 358 1894 358 
L 1523 358 
L 1523 3936 
z
" transform="scale(0.015625)"/>
      </defs>
      <use xlink:href="#CharterBT-Bold-44"/>
     </g>
    </g>
   </g>
   <g id="text_5">
    <g clip-path="url(#p5682ef30dc)">
     <!-- E -->
     <g style="fill: #4c4c4c" transform="translate(81.935561 203.972356) scale(0.08 -0.08)">
      <defs>
       <path id="CharterBT-Bold-45" d="M 186 0 
L 3622 0 
L 3622 1146 
L 3187 1146 
L 3078 467 
L 2995 365 
L 1510 365 
L 1510 2029 
L 2342 2029 
L 2432 1939 
L 2496 1478 
L 2874 1478 
L 2874 2963 
L 2496 2963 
L 2432 2502 
L 2342 2413 
L 1510 2413 
L 1510 3936 
L 2784 3936 
L 2867 3853 
L 2963 3290 
L 3411 3290 
L 3411 4294 
L 186 4294 
L 186 3981 
L 576 3949 
L 678 3859 
L 678 448 
L 576 346 
L 186 314 
L 186 0 
z
" transform="scale(0.015625)"/>
      </defs>
      <use xlink:href="#CharterBT-Bold-45"/>
     </g>
    </g>
   </g>
   <g id="text_6">
    <g clip-path="url(#p5682ef30dc)">
     <!-- F -->
     <g style="fill: #4c4c4c" transform="translate(73.72775 111.711038) scale(0.08 -0.08)">
      <defs>
       <path id="CharterBT-Bold-46" d="M 192 0 
L 2080 0 
L 2080 314 
L 1632 346 
L 1523 448 
L 1523 1939 
L 2381 1939 
L 2470 1856 
L 2534 1389 
L 2912 1389 
L 2912 2880 
L 2534 2880 
L 2470 2413 
L 2381 2330 
L 1523 2330 
L 1523 3923 
L 2758 3923 
L 2842 3840 
L 2938 3219 
L 3379 3219 
L 3379 4294 
L 166 4294 
L 166 3981 
L 576 3949 
L 678 3859 
L 678 448 
L 576 346 
L 192 314 
L 192 0 
z
" transform="scale(0.015625)"/>
      </defs>
      <use xlink:href="#CharterBT-Bold-46"/>
     </g>
    </g>
   </g>
   <g id="text_7">
    <g clip-path="url(#p5682ef30dc)">
     <!-- G -->
     <g style="fill: #4c4c4c" transform="translate(47.596664 255.553031) scale(0.08 -0.08)">
      <defs>
       <path id="CharterBT-Bold-47" d="M 2547 2112 
L 2547 1798 
L 3021 1766 
L 3123 1677 
L 3123 371 
C 2957 358 2835 352 2771 352 
C 1786 352 1184 1024 1184 2176 
C 1184 3296 1773 3962 2726 3962 
C 2912 3962 3085 3930 3258 3859 
L 3354 3744 
L 3475 3066 
L 3942 3066 
L 3942 4154 
C 3469 4294 3014 4365 2592 4365 
C 1171 4365 256 3488 256 2176 
C 256 845 1165 -77 2509 -77 
C 2976 -77 3450 13 3942 186 
L 3942 1677 
L 4045 1766 
L 4416 1798 
L 4416 2112 
L 2547 2112 
z
" transform="scale(0.015625)"/>
      </defs>
      <use xlink:href="#CharterBT-Bold-47"/>
     </g>
    </g>
   </g>
   <g id="text_8">
    <g clip-path="url(#p5682ef30dc)">
     <!-- H -->
     <g style="fill: #4c4c4c" transform="translate(104.909553 206.870076) scale(0.08 -0.08)">
      <defs>
       <path id="CharterBT-Bold-48" d="M 192 4294 
L 192 3981 
L 563 3949 
L 666 3846 
L 666 448 
L 563 346 
L 192 314 
L 192 0 
L 2003 0 
L 2003 314 
L 1619 346 
L 1517 448 
L 1517 2061 
L 3366 2061 
L 3366 448 
L 3270 346 
L 2886 314 
L 2886 0 
L 4691 0 
L 4691 314 
L 4320 346 
L 4218 448 
L 4218 3846 
L 4320 3949 
L 4691 3981 
L 4691 4294 
L 2886 4294 
L 2886 3981 
L 3270 3949 
L 3366 3846 
L 3366 2445 
L 1517 2445 
L 1517 3846 
L 1619 3949 
L 2003 3981 
L 2003 4294 
L 192 4294 
z
" transform="scale(0.015625)"/>
      </defs>
      <use xlink:href="#CharterBT-Bold-48"/>
     </g>
    </g>
   </g>
   <g id="text_9">
    <g clip-path="url(#p5682ef30dc)">
     <!-- I -->
     <g style="fill: #4c4c4c" transform="translate(26.322047 54.83688) scale(0.08 -0.08)">
      <defs>
       <path id="CharterBT-Bold-49" d="M 192 0 
L 2106 0 
L 2106 314 
L 1677 346 
L 1574 448 
L 1574 3859 
L 1677 3949 
L 2106 3981 
L 2106 4294 
L 192 4294 
L 192 3981 
L 614 3949 
L 717 3859 
L 717 448 
L 614 346 
L 192 314 
L 192 0 
z
" transform="scale(0.015625)"/>
      </defs>
      <use xlink:href="#CharterBT-Bold-49"/>
     </g>
    </g>
   </g>
   <g id="text_10">
    <g clip-path="url(#p5682ef30dc)">
     <!-- J -->
     <g style="fill: #4c4c4c" transform="translate(46.89388 21.88) scale(0.08 -0.08)">
      <defs>
       <path id="CharterBT-Bold-4a" d="M 1638 3859 
L 1638 1670 
C 1638 736 1466 294 883 294 
C 851 294 813 301 781 301 
L 691 384 
L 544 1229 
L 77 1229 
L 77 77 
C 390 -26 691 -77 992 -77 
C 2035 -77 2477 480 2477 1677 
L 2477 3859 
L 2579 3949 
L 2970 3981 
L 2970 4294 
L 1088 4294 
L 1088 3981 
L 1536 3949 
L 1638 3859 
z
" transform="scale(0.015625)"/>
      </defs>
      <use xlink:href="#CharterBT-Bold-4a"/>
     </g>
    </g>
   </g>
  </g>
 </g>
 <defs>
  <clipPath id="p5682ef30dc">
   <rect x="7.2" y="7.2" width="169.440953" height="277.2"/>
  </clipPath>
 </defs>
</svg>
