<?xml version="1.0" encoding="utf-8" standalone="no"?>
<!DOCTYPE svg PUBLIC "-//W3C//DTD SVG 1.1//EN"
  "http://www.w3.org/Graphics/SVG/1.1/DTD/svg11.dtd">
<svg xmlns:xlink="http://www.w3.org/1999/xlink" width="141.486614pt" height="130.620472pt" viewBox="0 0 141.486614 130.620472" xmlns="http://www.w3.org/2000/svg" version="1.1">
 <metadata>
  <rdf:RDF xmlns:dc="http://purl.org/dc/elements/1.1/" xmlns:cc="http://creativecommons.org/ns#" xmlns:rdf="http://www.w3.org/1999/02/22-rdf-syntax-ns#">
   <cc:Work>
    <dc:type rdf:resource="http://purl.org/dc/dcmitype/StillImage"/>
    <dc:date>2025-06-08T09:25:41.404403</dc:date>
    <dc:format>image/svg+xml</dc:format>
    <dc:creator>
     <cc:Agent>
      <dc:title>Matplotlib v3.10.1, https://matplotlib.org/</dc:title>
     </cc:Agent>
    </dc:creator>
   </cc:Work>
  </rdf:RDF>
 </metadata>
 <defs>
  <style type="text/css">*{stroke-linejoin: round; stroke-linecap: butt}</style>
 </defs>
 <g id="figure_1">
  <g id="patch_1">
   <path d="M 0 130.620472 
L 141.486614 130.620472 
L 141.486614 0 
L 0 0 
z
" style="fill: #ffffff"/>
  </g>
  <g id="axes_1">
   <g id="patch_2">
    <path d="M 15.231496 117.751181 
L 128.617323 117.751181 
L 128.617323 55.388976 
L 15.231496 55.388976 
z
" clip-path="url(#pc7756ab130)" style="fill: #ffffff; stroke: #000000; stroke-linejoin: miter"/>
   </g>
   <g id="patch_3">
    <path d="M 57.751181 27.04252 
L 50.664567 28.459843 
L 50.664567 27.04252 
L 17.593701 27.04252 
L 17.593701 27.04252 
L 50.664567 27.04252 
L 50.664567 25.625197 
z
" clip-path="url(#pc7756ab130)" style="stroke: #000000; stroke-linejoin: miter"/>
   </g>
   <g id="patch_4">
    <path d="M 49.916413 71.058512 
L 51.817951 64.086206 
L 53.085643 64.720052 
L 65.585949 39.719441 
L 65.585949 39.719441 
L 53.085643 64.720052 
L 54.353335 65.353898 
z
" clip-path="url(#pc7756ab130)" style="stroke: #000000; stroke-linejoin: miter"/>
   </g>
   <g id="patch_5">
    <path d="M 86.097638 83.735433 
L 79.011024 85.152756 
L 79.011024 83.735433 
L 57.751181 83.735433 
L 57.751181 83.735433 
L 79.011024 83.735433 
L 79.011024 82.31811 
z
" clip-path="url(#pc7756ab130)" style="stroke: #000000; stroke-linejoin: miter"/>
   </g>
   <g id="patch_6">
    <path d="M 93.932406 71.058512 
L 89.495483 65.353898 
L 90.763176 64.720052 
L 78.26287 39.719441 
L 78.26287 39.719441 
L 90.763176 64.720052 
L 92.030868 64.086206 
z
" clip-path="url(#pc7756ab130)" style="stroke: #000000; stroke-linejoin: miter"/>
   </g>
   <g id="patch_7">
    <path d="M 15.231496 29.404724 
C 15.85796 29.404724 16.45885 29.155828 16.901827 28.712851 
C 17.344804 28.269874 17.593701 27.668984 17.593701 27.04252 
C 17.593701 26.416056 17.344804 25.815166 16.901827 25.372189 
C 16.45885 24.929212 15.85796 24.680315 15.231496 24.680315 
C 14.605032 24.680315 14.004142 24.929212 13.561165 25.372189 
C 13.118188 25.815166 12.869291 26.416056 12.869291 27.04252 
C 12.869291 27.668984 13.118188 28.269874 13.561165 28.712851 
C 14.004142 29.155828 14.605032 29.404724 15.231496 29.404724 
z
" clip-path="url(#pc7756ab130)" style="stroke: #000000; stroke-linejoin: miter"/>
   </g>
   <g id="patch_8">
    <path d="M 71.924409 41.215748 
C 75.683194 41.215748 79.288534 39.722367 81.946395 37.064506 
C 84.604257 34.406644 86.097638 30.801304 86.097638 27.04252 
C 86.097638 23.283736 84.604257 19.678396 81.946395 17.020534 
C 79.288534 14.362672 75.683194 12.869291 71.924409 12.869291 
C 68.165625 12.869291 64.560285 14.362672 61.902424 17.020534 
C 59.244562 19.678396 57.751181 23.283736 57.751181 27.04252 
C 57.751181 30.801304 59.244562 34.406644 61.902424 37.064506 
C 64.560285 39.722367 68.165625 41.215748 71.924409 41.215748 
z
" clip-path="url(#pc7756ab130)" style="fill: #ffffff; stroke: #000000; stroke-linejoin: miter"/>
   </g>
   <g id="patch_9">
    <path d="M 43.577953 97.908661 
C 47.336737 97.908661 50.942077 96.415281 53.599939 93.757419 
C 56.2578 91.099557 57.751181 87.494217 57.751181 83.735433 
C 57.751181 79.976649 56.2578 76.371309 53.599939 73.713447 
C 50.942077 71.055585 47.336737 69.562205 43.577953 69.562205 
C 39.819169 69.562205 36.213829 71.055585 33.555967 73.713447 
C 30.898105 76.371309 29.404724 79.976649 29.404724 83.735433 
C 29.404724 87.494217 30.898105 91.099557 33.555967 93.757419 
C 36.213829 96.415281 39.819169 97.908661 43.577953 97.908661 
z
" clip-path="url(#pc7756ab130)" style="fill: #ffffff; stroke: #000000; stroke-linejoin: miter"/>
   </g>
   <g id="patch_10">
    <path d="M 100.270866 97.908661 
C 104.02965 97.908661 107.63499 96.415281 110.292852 93.757419 
C 112.950714 91.099557 114.444094 87.494217 114.444094 83.735433 
C 114.444094 79.976649 112.950714 76.371309 110.292852 73.713447 
C 107.63499 71.055585 104.02965 69.562205 100.270866 69.562205 
C 96.512082 69.562205 92.906742 71.055585 90.24888 73.713447 
C 87.591019 76.371309 86.097638 79.976649 86.097638 83.735433 
C 86.097638 87.494217 87.591019 91.099557 90.24888 93.757419 
C 92.906742 96.415281 96.512082 97.908661 100.270866 97.908661 
z
" clip-path="url(#pc7756ab130)" style="fill: #b2b2b2; stroke: #000000; stroke-linejoin: miter"/>
   </g>
   <g id="patch_11">
    <path d="M 100.270866 97.908661 
C 104.02965 97.908661 107.63499 96.415281 110.292852 93.757419 
C 112.950714 91.099557 114.444094 87.494217 114.444094 83.735433 
C 114.444094 79.976649 112.950714 76.371309 110.292852 73.713447 
C 107.63499 71.055585 104.02965 69.562205 100.270866 69.562205 
C 96.512082 69.562205 92.906742 71.055585 90.24888 73.713447 
C 87.591019 76.371309 86.097638 79.976649 86.097638 83.735433 
C 86.097638 87.494217 87.591019 91.099557 90.24888 93.757419 
C 92.906742 96.415281 96.512082 97.908661 100.270866 97.908661 
L 100.270866 97.908661 
z
" clip-path="url(#pc7756ab130)" style="fill: none; stroke: #000000; stroke-linejoin: miter"/>
   </g>
   <g id="matplotlib.axis_1"/>
   <g id="matplotlib.axis_2"/>
   <g id="text_1">
    <!-- $n = 1, \cdots, N$ -->
    <g transform="translate(20.231496 110.571494) scale(0.1 -0.1)">
     <defs>
      <path id="DejaVuSans-Oblique-6e" d="M 3566 2113 
L 3156 0 
L 2578 0 
L 2988 2091 
Q 3016 2238 3031 2350 
Q 3047 2463 3047 2528 
Q 3047 2791 2881 2937 
Q 2716 3084 2419 3084 
Q 1956 3084 1622 2776 
Q 1288 2469 1184 1941 
L 800 0 
L 225 0 
L 903 3500 
L 1478 3500 
L 1363 2950 
Q 1603 3253 1940 3418 
Q 2278 3584 2650 3584 
Q 3113 3584 3367 3334 
Q 3622 3084 3622 2631 
Q 3622 2519 3608 2391 
Q 3594 2263 3566 2113 
z
" transform="scale(0.015625)"/>
      <path id="DejaVuSans-3d" d="M 678 2906 
L 4684 2906 
L 4684 2381 
L 678 2381 
L 678 2906 
z
M 678 1631 
L 4684 1631 
L 4684 1100 
L 678 1100 
L 678 1631 
z
" transform="scale(0.015625)"/>
      <path id="DejaVuSans-31" d="M 794 531 
L 1825 531 
L 1825 4091 
L 703 3866 
L 703 4441 
L 1819 4666 
L 2450 4666 
L 2450 531 
L 3481 531 
L 3481 0 
L 794 0 
L 794 531 
z
" transform="scale(0.015625)"/>
      <path id="DejaVuSans-2c" d="M 750 794 
L 1409 794 
L 1409 256 
L 897 -744 
L 494 -744 
L 750 256 
L 750 794 
z
" transform="scale(0.015625)"/>
      <path id="DejaVuSans-22ef" d="M 740 2363 
L 1400 2363 
L 1400 1569 
L 740 1569 
L 740 2363 
z
M 2868 2363 
L 3528 2363 
L 3528 1569 
L 2868 1569 
L 2868 2363 
z
M 4996 2363 
L 5656 2363 
L 5656 1569 
L 4996 1569 
L 4996 2363 
z
" transform="scale(0.015625)"/>
      <path id="DejaVuSans-Oblique-4e" d="M 1081 4666 
L 1931 4666 
L 3219 666 
L 4000 4666 
L 4616 4666 
L 3706 0 
L 2853 0 
L 1569 4025 
L 788 0 
L 172 0 
L 1081 4666 
z
" transform="scale(0.015625)"/>
     </defs>
     <use xlink:href="#DejaVuSans-Oblique-6e" transform="translate(0 0.09375)"/>
     <use xlink:href="#DejaVuSans-3d" transform="translate(82.861328 0.09375)"/>
     <use xlink:href="#DejaVuSans-31" transform="translate(186.132812 0.09375)"/>
     <use xlink:href="#DejaVuSans-2c" transform="translate(249.755859 0.09375)"/>
     <use xlink:href="#DejaVuSans-22ef" transform="translate(301.025391 0.09375)"/>
     <use xlink:href="#DejaVuSans-2c" transform="translate(401.025391 0.09375)"/>
     <use xlink:href="#DejaVuSans-Oblique-4e" transform="translate(452.294922 0.09375)"/>
    </g>
   </g>
   <g id="text_2">
    <!-- $\alpha$ -->
    <g transform="translate(11.931496 21.54252) scale(0.1 -0.1)">
     <defs>
      <path id="DejaVuSans-Oblique-3b1" d="M 2619 1628 
L 2622 2350 
Q 2625 3088 2069 3091 
Q 1653 3094 1394 2747 
Q 1069 2319 959 1747 
Q 825 1059 994 731 
Q 1169 397 1547 397 
Q 1966 397 2319 1063 
L 2619 1628 
z
M 2166 3578 
Q 3141 3594 3128 2584 
Q 3128 2584 3616 3500 
L 4128 3500 
L 3119 1603 
L 3109 919 
Q 3109 766 3194 638 
Q 3291 488 3391 488 
L 3669 488 
L 3575 0 
L 3228 0 
Q 2934 0 2722 263 
Q 2622 394 2619 669 
Q 2416 334 2066 50 
Q 1900 -81 1453 -78 
Q 722 -72 456 397 
Q 184 884 353 1747 
Q 534 2675 1009 3097 
Q 1544 3569 2166 3578 
z
" transform="scale(0.015625)"/>
     </defs>
     <use xlink:href="#DejaVuSans-Oblique-3b1" transform="translate(0 0.84375)"/>
    </g>
   </g>
   <g id="text_3">
    <!-- $\beta$ -->
    <g transform="translate(68.724409 29.762832) scale(0.1 -0.1)">
     <defs>
      <path id="DejaVuSans-Oblique-3b2" d="M 872 216 
L 572 -1331 
L -6 -1331 
L 928 3478 
Q 1206 4903 2538 4903 
Q 3888 4903 3659 3700 
Q 3503 2844 2894 2531 
Q 3713 2250 3553 1416 
Q 3272 -69 1759 -66 
Q 1097 -63 872 216 
z
M 1019 966 
Q 1259 422 1875 425 
Q 2775 425 2966 1406 
Q 3138 2288 1675 2219 
L 1778 2750 
Q 2909 2731 3106 3750 
Q 3241 4438 2509 4434 
Q 1691 4434 1503 3459 
L 1019 966 
z
" transform="scale(0.015625)"/>
     </defs>
     <use xlink:href="#DejaVuSans-Oblique-3b2" transform="translate(0 0.390625)"/>
    </g>
   </g>
   <g id="text_4">
    <!-- $w_n$ -->
    <g transform="translate(37.127953 86.325277) scale(0.1 -0.1)">
     <defs>
      <path id="DejaVuSans-Oblique-77" d="M 544 3500 
L 1113 3500 
L 1259 684 
L 2566 3500 
L 3231 3500 
L 3425 684 
L 4666 3500 
L 5241 3500 
L 3641 0 
L 2969 0 
L 2797 2900 
L 1459 0 
L 781 0 
L 544 3500 
z
" transform="scale(0.015625)"/>
     </defs>
     <use xlink:href="#DejaVuSans-Oblique-77" transform="translate(0 0.3125)"/>
     <use xlink:href="#DejaVuSans-Oblique-6e" transform="translate(81.787109 -16.09375) scale(0.7)"/>
    </g>
   </g>
   <g id="text_5">
    <!-- $x_n$ -->
    <g transform="translate(94.920866 86.325277) scale(0.1 -0.1)">
     <defs>
      <path id="DejaVuSans-Oblique-78" d="M 3841 3500 
L 2234 1784 
L 3219 0 
L 2559 0 
L 1819 1388 
L 531 0 
L -166 0 
L 1556 1844 
L 641 3500 
L 1300 3500 
L 1972 2234 
L 3144 3500 
L 3841 3500 
z
" transform="scale(0.015625)"/>
     </defs>
     <use xlink:href="#DejaVuSans-Oblique-78" transform="translate(0 0.3125)"/>
     <use xlink:href="#DejaVuSans-Oblique-6e" transform="translate(59.179688 -16.09375) scale(0.7)"/>
    </g>
   </g>
  </g>
 </g>
 <defs>
  <clipPath id="pc7756ab130">
   <rect x="7.2" y="7.2" width="127.086614" height="116.220472"/>
  </clipPath>
 </defs>
</svg>
